<?xml version="1.0" encoding="UTF-8"?>
<svg id="_レイヤー_2" data-name="レイヤー 2" xmlns="http://www.w3.org/2000/svg" viewBox="0 0 1444.86 1444.86">
  <defs>
    <style>
      .cls-1 {
        fill: #ffebeb;
      }

      .cls-2 {
        fill: #500a28;
      }
    </style>
  </defs>
  <g id="_レイヤー_1-2" data-name="レイヤー 1">
    <g>
      <circle class="cls-1" cx="722.43" cy="722.43" r="722.43"/>
      <g>
        <path class="cls-2" d="M563.69,1299.56c.51.2.77.5.68.82-.07.26-.48.49-1.29.72q-.28,1-2.6,9.04l-3.55,12.6c-1.37,4.87-2.33,8.48-2.9,10.9l-3.76-1.06c.78-2.35,1.85-5.94,3.22-10.81l5.12-18.16c-3.44,3.89-4.82,5.15-8.37,7.98-.48-2.14-.74-2.84-1.26-3.84,7.8-6.37,13.33-13.04,19.27-23.14l3.14,2.43c.47.36.62.63.52,1-.1.37-.31.48-1.51.49-3.05,4.74-4.44,6.63-7.74,10.62l1.03.4ZM580.35,1310.77l-7.15-2.01c-2.59-.73-6.21-1.69-8.45-2.27l1.01-3.6c2.19.73,5.78,1.8,8.37,2.53l7.15,2.01,2.66-9.42c1.18-4.18,1.75-6.42,2.08-7.98l3.76,1.46c.62.23.84.47.75.78-.09.32-.43.51-1.3.78l-4.34,15.4,8.05,2.27c2.59.73,6.22,1.64,8.51,2.23l-1.03,3.65c-2.25-.75-5.83-1.81-8.42-2.55l-8.05-2.27-6.22,22.07,8.73,2.46c2.06.58,4.78,1.29,6.38,1.69l-1,3.55c-1.63-.52-4.58-1.4-6.32-1.9l-20.17-5.69c-1.75-.49-4.73-1.27-6.38-1.68l1-3.55c1.57.5,4.26,1.31,6.32,1.9l7.83,2.21,6.22-22.07Z"/>
        <path class="cls-2" d="M639.54,1326.74l9.83,1.54q4.84.7,6.37.89-.21.97-.86,4.76l-.26,1.63c2.62.35,5.45.74,7.42.94l-.54,3.42c-1.95-.36-4.76-.91-7.36-1.32l-.68,4.35c-.31,2.01-.37,2.72-.68,5.4l-3.69-.58.47-2.99-12.44-1.95-.02.11c-.24,1.86-.42,3.39-.49,3.82-.37,2.39-.97,3.36-2.44,3.85-1.54.59-2.65.59-7.23-.02.2-1.97.12-2.88-.39-4.29,1.67.37,2.58.57,3.83.77,2.06.32,2.32.14,2.63-1.87l.46-2.93-13.31-2.09c-1.79-.28-4.84-.7-6.55-.86l.54-3.42c1.62.31,4.38.8,6.5,1.13l13.31,2.09.57-3.64-12.55-1.97c-3.15-.49-7.95-1.13-10.85-1.48l.53-3.37c2.86.56,7.64,1.36,10.79,1.86l12.55,1.97.5-3.21-13.31-2.09c-1.79-.28-4.85-.65-6.55-.86l.54-3.42c1.61.36,4.38.85,6.5,1.18l13.31,2.09.48-3.04-10.92-1.71-.25,1.58-3.69-.58c.3-1.23.47-2.26,1.07-5.73l.2-1.25c.23-1.47.54-3.81.59-4.81,1.19.24,2.32.47,3.9.72l10.7,1.68.35-2.56-11.14-1.75c-3.21-.5-7.95-1.13-10.85-1.48l.58-3.7c2.86.56,7.57,1.41,10.78,1.91l11.14,1.75c.43-3.11.64-5.13.67-6.07l4.07,1.03c.48.13.77.4.73.67-.05.33-.37.56-1.15.93-.23,1.08-.29,1.51-.68,4.01l11.85,1.86c3.21.5,8,1.14,10.85,1.48l-.58,3.7c-2.81-.55-7.57-1.41-10.78-1.91l-11.85-1.86c-.19.86-.32,1.68-.45,2.54l10.81,1.7c1.58.25,2.73.37,3.93.5-.2.92-.65,3.07-.9,4.65l-.17,1.09c-.51,3.59-.63,4.36-.72,5.68l-3.69-.58.19-1.2-11.03-1.73-.48,3.04ZM637.61,1315.97l-10.92-1.71-.66,4.24,10.92,1.71.66-4.24ZM650.64,1338l-12.55-1.97c-.13,1.2-.33,2.45-.52,3.65l12.5,1.96.57-3.64ZM651.61,1331.81l-12.55-1.97-.5,3.21,12.55,1.97.5-3.21ZM651.51,1322.49l.66-4.24-11.03-1.73-.66,4.24,11.03,1.73Z"/>
        <path class="cls-2" d="M705.5,1334.06c8.12-3.88,9.36-4.5,14.75-7.43l2.43,2.68c.21.23.31.51.3.78-.01.27-.35.48-.73.47-.22,0-.55-.02-.88-.14-6.1,2.75-11.42,5.24-16.02,7.6l-.38,10.17-3.57-.13.3-8.13q-.62.31-1.63.82c-4.2,2.04-6.21,4.23-6.31,6.81-.11,2.97,2.33,4.05,9.64,4.32,5.44.2,10.57-.05,14.73-.83-.45,1.8-.53,2.29-.64,3.88-4.98.59-8.56.73-13.89.53-6.32-.24-9.49-.96-11.41-2.52-1.49-1.32-2.31-3.11-2.23-5.2.12-3.19,1.98-5.98,5.54-8.33,1.8-1.14,2.25-1.4,6.35-3.56l.06-1.59c.11-2.91-.73-4.16-2.81-4.23-2.31-.09-5.22,1.29-8.12,3.88-1.42,1.27-2.05,1.96-4.32,5.07l-3.11-2.21c3.62-4.16,6.19-7.97,9.61-14.23-1.1.01-1.87.04-3.25-.01-2.14-.08-3.52-.19-6.15-.45l.02-3.52c3.45.4,3.95.48,6.09.56,1.65.06,2.92.05,4.95.02,1.55-3.13,3.44-8.02,3.89-9.98l3.7,1.02c.27.06.48.35.47.62-.01.33-.29.54-1.08.84q-1.01,2.05-3.19,7.26c4.31-.39,6.8-.85,11.3-2.06l.87,3.17c-5,1.35-9.05,2.03-13.85,2.4-1.37,2.7-2.84,5.45-3.66,6.69,2.53-1.5,4.59-2.14,6.74-2.06,3.46.13,5.63,2.58,5.5,6.09l-.03.93Z"/>
        <path class="cls-2" d="M768.85,1320.1c-3.4,1.65-5.98,2.52-9.66,3.37-2.67,13.46-4.56,19.57-9.79,31.41-1.24-1-1.41-1.1-3.46-1.88,4.72-9.98,6.89-16.61,9.4-28.73-2.61.49-5.4.82-8.3,1.05l-1.48.12-.35-3.67c4.88-.39,6.19-.55,10.88-1.31.99-5.49,1.3-7.83,1.48-11.1l4.02.56c.39.03.74.33.77.66s-.18.57-.97,1.02c-.71,4.25-.79,4.64-1.5,8.12,2.97-.79,4.53-1.36,7.55-2.81l1.42,3.2ZM769.31,1340.92c-1.31,2.26-1.67,3.22-1.57,4.54.22,2.8,3.04,3.51,11.21,2.85,3.4-.27,6.66-.86,10.11-1.86-.32,1.46-.42,2.35-.34,3.34.02.27.03.38.12.76-3.79.86-6.41,1.23-10.25,1.54-10.2.82-14.02-.7-14.42-5.69-.19-2.36.35-3.95,2.21-6.8l2.92,1.31ZM764.68,1329.32c7.47-3.19,10.34-3.86,19.39-4.59l.29,3.62-1.75.14c-6.74.54-9.34,1.19-16.66,4.15l-1.26-3.32Z"/>
        <path class="cls-2" d="M828.73,1310.27c.35.04.73.3.78.52.05.27-.1.64-.57,1.07.15,6.87-.1,11.19-.96,16.13-1.56,8.68-3.88,12.51-8.24,13.39-4.69.95-8.72-2.9-10.08-9.64-1.51-7.5,1.61-15.42,8.03-20.58,3-2.4,6.49-4,10.64-4.84,6.9-1.39,13.5-.14,18.04,3.49,2.94,2.33,4.85,5.7,5.73,10.07,1.26,6.26-.69,11.64-5.94,16.46-2.03,1.92-3.11,2.65-8.27,5.76-1.23-1.94-1.45-2.18-2.71-3.16,5.12-2.72,6.79-3.89,9.17-6.28,3.34-3.48,4.6-7.55,3.67-12.13-1.01-5.02-3.78-8.44-8.22-10.18-3.04-1.18-7.45-1.59-10.74-.92q-.43.09-2.35.59l2.02.27ZM816.6,1317.2c-2.95,4.3-4.06,9.07-3.12,13.76.87,4.31,3.19,7.21,5.46,6.76,2.32-.47,3.78-2.95,4.9-8.28,1.39-6.73,1.76-14.38.87-18.8-4.23,2.14-6.1,3.7-8.1,6.57Z"/>
        <path class="cls-2" d="M886.56,1286.88c.73.11,1.08.28,1.18.6.12.37-.19.82-1,1.2q-.55,3.25-1.97,12.29c-.36,2.43-.52,3.18-2.2,12.65,1.83-2.52,3.11-3.57,5.14-4.24,2.35-.77,4.8-.37,6.19,1.03,1.01.94,2.2,3.16,3.47,6.15,1.24,2.89,2.12,4.16,3.17,4.69.96.44,2.42.48,3.62.08,5.64-1.86,8.38-9.19,7.69-20.77,1.65.44,2.26.53,3.93.67.07,9.01-.56,12.69-2.84,17.03-1.75,3.3-4.61,5.69-8.21,6.88-2.4.79-5.03.56-6.75-.61-1.41-.93-2.46-2.55-4.01-6.03-2.33-5.49-3.72-6.71-6.28-5.87-2.4.79-4.32,3.39-5.36,7.44-.44,1.65-.53,2.08-1.15,6.34-.37,2.56-.44,2.87-.94,5.75-1.22-.53-2.26-.7-4-.71.9-3.77,3.01-16.69,4.41-27.22,1.48-11.14,1.88-15.38,1.66-17.98l4.26.62Z"/>
        <path class="cls-2" d="M962.66,1260.06c.41.23.68.41.8.66.16.35-.07.64-.64.97-3.92,2.14-6.08,3.88-8.11,6.41-2.64,3.3-4.68,7.9-5.17,11.78-.31,2.57.15,5.51,1.34,8.05,3.48,7.42,10.59,8.22,23.19,2.56-.13,1.28-.08,2.16.29,4.24-4.6,1.85-7.43,2.69-10.81,3.24-7.21,1.19-12.87-1.68-15.79-7.91-2.75-5.88-2.23-11.77,1.64-19.05q-8.63,6.59-13.27,10.04c-.3.26-1.03.79-1.96,1.53-.95.69-1.68,1.21-2.08,1.52-1.35,1-1.53,1.14-2.36,1.83l-2.74-3.39c4.3-2.5,10.48-6.79,20.31-13.95,8.92-6.49,10.05-7.32,12.63-9.99l2.74,1.45ZM963.11,1271.39c3.02.35,5.07.84,8.61,2.04l-.97,3.12c-3.48-1.34-5.02-1.78-8.43-2.31l.79-2.86ZM964.71,1265.35c3.02.35,5.12.82,8.66,2.02l-.99,3.2c-3.46-1.42-5.05-1.83-8.45-2.36l.79-2.86Z"/>
        <path class="cls-2" d="M1017.56,1237.45c.55-.15.83-.13.97.11.15.23.09.46-.31,1.17,2.19,4.66,2.86,6.25,3.56,8.22,4.96-1.08,8.46-1.51,13.53-1.69-.19,1.67-.21,2.27-.08,3.94-3.98-.05-7.36.24-12.29,1.18,1.95,6.88,1.85,13.37-.44,20.3-1.32-.35-2.51-.38-3.75-.19,2.23-7.03,2.43-13.57.62-19.18-4.96,1.4-9.84,3.34-12.77,5.1q.05.29.41,3.05c1.03,8.11-.09,12.44-3.69,14.68-2.8,1.75-5.74.98-7.54-1.91-3.29-5.28-.48-12.21,7.02-17.34-.82-6.42-1.61-10.08-3.71-16.88-4.48,3.83-7.15,6.21-8.17,7.17l-2.66-2.81c9.61-7.15,9.95-7.43,10.09-8.56l3.67.17c.4.01.8.15.98.43.17.28.04.69-.49,1.4,1.83,6.58,2.69,10.77,3.65,17.1,3.29-1.79,7.71-3.64,12.01-4.96-1.33-3.38-2.59-6.03-4.45-9.22l3.81-1.27ZM998.58,1270.34c.73,1.17,1.79,1.41,2.91.72,1.49-.93,2.32-2.93,2.34-5.93.04-1.71-.1-3.18-.57-6.64-4.54,3.22-6.68,8.63-4.67,11.85Z"/>
        <path class="cls-2" d="M1040.11,1208.57c3.3-3,9.11-9.48,12.3-13.59l.29-.87,4.19.31c.39.04.69.15.86.37.24.3.09.56-.05.82l-.34.63c-.38,11.58-.51,14.23-1.15,21.79,2.32-4.67,3.74-6.59,6.4-8.72,6.14-4.92,13.07-4.62,17.37.74,2.48,3.09,3.47,6.88,2.72,10.79-.76,4.06-3.16,7.67-7.49,11.15-5.58,4.47-10.12,5.14-12.73,1.88-2.03-2.53-1.4-6.14,1.44-8.41,2.36-1.89,5.56-2.48,8.52-1.68,1.13.36,1.95.76,4.12,2.06,1.66-2.24,2.23-3.55,2.52-5.47.34-2.74-.49-5.53-2.27-7.76-3.16-3.95-8.18-4.23-12.56-.72-3.61,2.89-6.18,7.42-7.67,13.48-.42,1.67-.72,2.97-1.24,6.28l-4.11-.73c1.58-8.67,1.63-9.13,1.9-12.23.03-.31.41-7.23,1-20.75l-5.55,6.7c-1.08,1.29-4.33,5.59-4.99,6.53l-3.47-2.57ZM1065.71,1227.67c-1.46,1.17-1.76,2.82-.83,3.98,1.34,1.67,4.23,1.05,7.62-1.66.47-.38.51-.41,1.47-1.25-3.59-2.55-6.02-2.86-8.26-1.07Z"/>
      </g>
      <g>
        <path class="cls-2" d="M389.85,1127.42l-7.08,9.39,2.99,2.25c.4.3.62.6.66.89.04.29-.04.57-.24.84-.19.26-.44.41-.74.45-.3.04-.64-.08-1.04-.38l-6.79-5.12c-.39-.29-.6-.58-.64-.88-.04-.3.04-.57.23-.83.2-.27.45-.43.74-.46.29-.04.63.09,1.02.38l2.18,1.64,16.2-21.49-2.18-1.64c-.39-.29-.6-.58-.64-.87-.04-.29.04-.57.24-.84.2-.27.45-.43.74-.46.29-.04.63.09,1.02.38l9.8,7.39c2.02,1.52,3.19,3.52,3.5,5.98.31,2.46-.21,4.59-1.55,6.38-.97,1.29-2.31,2.17-4.02,2.67-1.71.49-3.86.36-6.44-.4.49,1.76.73,3.51.71,5.24-.02,1.74-.42,5.02-1.22,9.85l1.23.93c.39.29.6.58.64.87.04.29-.04.57-.24.84-.19.26-.44.41-.74.45-.3.05-.64-.08-1.02-.37l-2.16-1.63c1-5.5,1.46-9.35,1.39-11.53-.08-2.19-.54-4.2-1.4-6.03l-5.15-3.88ZM391.21,1125.62l4.42,3.33c1.42,1.07,2.91,1.75,4.5,2.04,1.58.3,2.93.26,4.03-.12,1.1-.38,1.96-.97,2.56-1.77.91-1.2,1.22-2.75.96-4.66-.27-1.91-1.18-3.45-2.74-4.62l-5.96-4.5-7.76,10.29Z"/>
        <path class="cls-2" d="M429.15,1158.68l-17.23-11.45c-1.32,2.63-1.71,5.19-1.15,7.7.55,2.51,1.96,4.51,4.23,6.02,1.26.84,2.74,1.49,4.43,1.94,1.69.46,3.22.59,4.6.41.4-.05.7-.02.89.11.21.14.34.36.38.65.04.29-.03.57-.2.82-.17.25-.44.43-.81.52-1.14.32-2.75.25-4.82-.19-2.07-.44-3.98-1.24-5.71-2.39-2.9-1.93-4.62-4.59-5.15-7.99-.54-3.4.19-6.6,2.18-9.59,1.81-2.73,4.28-4.47,7.4-5.21s6.02-.23,8.7,1.56c2.76,1.84,4.37,4.35,4.82,7.54.45,3.19-.4,6.38-2.54,9.55ZM428.7,1155.64c1.04-2.3,1.28-4.57.71-6.81-.57-2.25-1.84-4.03-3.81-5.34-1.97-1.31-4.1-1.8-6.37-1.46-2.27.34-4.29,1.44-6.03,3.31l15.5,10.3Z"/>
        <path class="cls-2" d="M458.54,1166.83l2.07-3.55,4.12,2.39c.43.25.68.52.76.81.07.29.02.58-.15.88-.16.28-.39.46-.68.54-.29.08-.65,0-1.08-.26l-2.34-1.36-14.63,25.14,2.34,1.36c.43.25.69.52.76.8s.03.57-.14.87c-.16.28-.39.46-.68.54-.29.08-.65,0-1.08-.26l-8.36-4.86c-.42-.24-.67-.51-.74-.79-.08-.28-.03-.57.14-.87.17-.29.4-.48.68-.55.28-.07.64.01,1.05.26l4.24,2.47,6.83-11.75c-3.58,1.71-6.95,1.64-10.1-.19-2.62-1.52-4.25-3.8-4.9-6.84-.65-3.04-.16-5.96,1.47-8.76,1.64-2.82,3.93-4.69,6.89-5.61s5.75-.62,8.4.92c3.12,1.82,4.82,4.7,5.11,8.66ZM455.11,1172.72c1.31-2.24,1.69-4.6,1.14-7.06-.54-2.46-1.88-4.31-3.99-5.54-2.12-1.23-4.38-1.48-6.79-.73-2.41.74-4.27,2.24-5.57,4.48-1.31,2.24-1.69,4.6-1.15,7.07.54,2.47,1.87,4.32,3.99,5.55,2.12,1.23,4.38,1.47,6.79.72,2.41-.75,4.27-2.25,5.58-4.49Z"/>
        <path class="cls-2" d="M477.59,1198.43l1.49-2.95c-3.73,1.25-7.04,1.14-9.91-.31-1.77-.89-2.84-2.11-3.23-3.64-.49-2.01-.26-3.95.69-5.82l6.55-13-2.44-1.23c-.43-.22-.69-.47-.78-.76-.09-.29-.06-.58.09-.88.15-.29.36-.48.64-.58.28-.1.64-.04,1.07.18l4.25,2.14-7.58,15.03c-.66,1.31-.83,2.58-.51,3.8.32,1.22,1.04,2.12,2.16,2.69,2.95,1.49,6.41,1.35,10.39-.42l6.55-13-3.34-1.69c-.43-.22-.69-.47-.78-.76-.09-.29-.06-.58.09-.88.15-.29.36-.48.64-.58.28-.1.64-.04,1.07.18l5.16,2.6-9.46,18.75,1.53.77c.43.22.69.46.79.74.09.28.06.57-.09.87-.15.29-.36.48-.64.58s-.64.04-1.07-.18l-3.35-1.69Z"/>
        <path class="cls-2" d="M516.02,1203.56l-19-8.19c-.83,2.82-.75,5.41.24,7.78.99,2.37,2.73,4.09,5.23,5.17,1.39.6,2.96.97,4.7,1.12,1.74.15,3.28,0,4.6-.41.39-.12.68-.14.89-.05.24.1.4.29.49.58.09.28.07.56-.05.84-.12.28-.36.5-.71.66-1.06.52-2.66.74-4.78.67-2.12-.07-4.14-.51-6.04-1.34-3.2-1.38-5.36-3.69-6.5-6.94-1.13-3.25-.99-6.53.44-9.83,1.3-3.01,3.41-5.16,6.35-6.45,2.93-1.29,5.88-1.29,8.84-.02,3.05,1.32,5.08,3.5,6.09,6.56,1.01,3.06.75,6.34-.8,9.85ZM515.04,1200.65c.62-2.44.44-4.72-.51-6.83s-2.53-3.63-4.7-4.57c-2.17-.94-4.35-1.04-6.53-.3-2.18.74-3.96,2.18-5.34,4.33l17.09,7.37Z"/>
        <path class="cls-2" d="M546.24,1203.47c.18-.49.4-.81.66-.96.26-.15.53-.18.8-.08.29.1.48.3.59.58s.06.69-.13,1.21l-1.32,3.64c-.18.5-.4.83-.67.99-.26.15-.54.18-.82.07-.26-.09-.44-.26-.55-.51-.11-.25-.1-.59.02-1.02.27-1.04.11-2.05-.5-3.01-.9-1.39-2.37-2.46-4.42-3.2-2.14-.77-3.97-.89-5.5-.36-1.16.4-1.9,1.05-2.22,1.94-.37,1.01-.14,2.04.68,3.1.56.74,1.8,1.6,3.74,2.58,2.54,1.28,4.25,2.31,5.13,3.08,1.26,1.12,2.06,2.33,2.4,3.64.34,1.3.29,2.56-.14,3.77-.65,1.8-2.01,3.12-4.08,3.96-2.07.84-4.61.72-7.63-.38-3.02-1.09-5.18-2.83-6.49-5.23-.21.57-.37.93-.49,1.08-.12.15-.28.25-.48.31s-.4.05-.6-.02c-.27-.1-.46-.29-.56-.57s-.06-.68.12-1.18l1.58-4.37c.18-.5.4-.83.65-.99.25-.16.52-.18.81-.08.27.1.47.29.58.57.11.28.11.6-.02.95-.28.78-.34,1.49-.18,2.13.24,1,.84,1.98,1.81,2.92s2.29,1.73,3.97,2.34c2.48.9,4.52,1.05,6.1.47,1.58-.59,2.58-1.46,3-2.6.48-1.31.24-2.59-.7-3.82-.96-1.24-2.57-2.43-4.84-3.55-2.27-1.13-3.85-2.1-4.72-2.91-.87-.81-1.44-1.76-1.7-2.84-.26-1.08-.21-2.13.16-3.14.66-1.82,1.98-2.97,3.98-3.46,1.99-.49,4.1-.33,6.33.48,2.64.95,4.52,2.45,5.66,4.47Z"/>
        <path class="cls-2" d="M566.74,1208.56l10.57,3.12c.46.14.77.34.91.6.14.26.16.56.07.89-.09.31-.27.54-.53.68s-.62.15-1.09.02l-10.57-3.12-4.25,14.4c-.37,1.25-.23,2.43.43,3.54.66,1.11,1.86,1.92,3.6,2.44,1.31.39,2.8.59,4.46.6s3-.13,4.01-.43c.37-.13.66-.17.86-.11.25.07.43.24.55.51.12.27.14.55.05.84-.08.26-.25.47-.51.63-.66.42-2.04.68-4.15.78-2.1.1-4.03-.11-5.77-.63-2.27-.67-3.91-1.8-4.9-3.38-.99-1.58-1.2-3.38-.6-5.39l4.25-14.4-3.59-1.06c-.46-.14-.77-.34-.91-.6-.14-.26-.16-.56-.07-.89.09-.31.27-.54.53-.68s.62-.15,1.09-.02l3.59,1.06,1.89-6.39c.15-.52.35-.86.6-1.03s.52-.21.79-.13c.29.09.5.27.62.55.12.28.1.67-.05,1.19l-1.89,6.39Z"/>
        <path class="cls-2" d="M634.76,1248l.54-3.21c-3.37,2.23-6.7,3.06-10.01,2.51-2.4-.41-4.16-1.4-5.28-2.97-1.12-1.58-1.52-3.35-1.19-5.31.36-2.15,1.57-3.88,3.62-5.19,2.05-1.31,4.78-1.67,8.2-1.1.92.16,1.91.39,2.97.71,1.06.31,2.19.72,3.4,1.21l.61-3.6c.21-1.22-.12-2.36-.99-3.43s-2.31-1.78-4.35-2.12c-1.56-.26-3.83-.13-6.81.4-.54.09-.88.12-1.02.1-.25-.04-.46-.19-.6-.43-.15-.24-.19-.52-.14-.84.05-.3.17-.52.36-.67.27-.23,1.23-.44,2.88-.63,2.6-.32,4.54-.38,5.81-.16,2.53.43,4.38,1.45,5.56,3.08,1.18,1.62,1.62,3.31,1.33,5.06l-2.48,14.72,2.67.45c.49.08.82.24,1,.48.17.24.23.52.17.86-.05.32-.2.56-.44.74-.24.18-.61.22-1.1.14l-4.7-.79ZM636.63,1236.93c-.89-.46-1.84-.85-2.87-1.16s-2.12-.57-3.28-.77c-2.91-.49-5.3-.18-7.17.94-1.42.83-2.24,1.97-2.49,3.42-.23,1.34.06,2.55.85,3.63s2.09,1.77,3.9,2.07c1.73.29,3.41.18,5.02-.34,1.62-.52,3.35-1.48,5.21-2.89l.83-4.9Z"/>
        <path class="cls-2" d="M699.2,1233.36l-12.05-.58c-.48-.02-.82-.15-1.02-.37-.2-.22-.29-.51-.27-.85.02-.32.13-.58.34-.79.21-.21.57-.3,1.07-.27l14.07.68-1.19,24.81c-.09,1.91-.52,3.5-1.29,4.75-.77,1.25-1.88,2.25-3.34,2.99-1.01.51-2.19.73-3.54.66l-6.45-.31c-.48-.02-.82-.14-1.02-.36-.2-.21-.29-.49-.27-.83.02-.34.13-.61.35-.82.22-.21.57-.3,1.05-.27l6.4.33c1.72.08,3.14-.48,4.27-1.68,1.12-1.2,1.73-2.72,1.82-4.56l1.09-22.53ZM699.75,1219.52l-.28,5.82-2.99-.14.28-5.82,2.99.14Z"/>
        <path class="cls-2" d="M739.78,1243.03c.06,3.44-1,6.39-3.18,8.86-2.18,2.47-4.83,3.73-7.95,3.78-3.16.05-5.86-1.13-8.11-3.53-2.25-2.41-3.4-5.32-3.45-8.74-.06-3.44,1-6.4,3.17-8.87,2.17-2.48,4.83-3.75,7.99-3.8,3.12-.05,5.82,1.12,8.07,3.52,2.25,2.4,3.41,5.33,3.47,8.78ZM737.72,1243.06c-.05-2.83-.99-5.22-2.84-7.18s-4.06-2.92-6.63-2.87c-2.58.04-4.76,1.08-6.54,3.1-1.78,2.03-2.65,4.44-2.6,7.25.04,2.79.99,5.18,2.84,7.15,1.84,1.98,4.06,2.94,6.63,2.9,2.58-.04,4.76-1.08,6.54-3.1s2.65-4.44,2.6-7.25Z"/>
        <path class="cls-2" d="M751.71,1220.37l1.04,14.92c2.2-3.71,5.02-5.68,8.48-5.92,2.96-.21,5.57.81,7.84,3.05,2.27,2.24,3.53,5.09,3.77,8.55.24,3.5-.62,6.54-2.58,9.12s-4.4,3.97-7.31,4.17c-3.54.25-6.61-1.32-9.22-4.69l.31,4.42-4.75.33c-.48.03-.84-.05-1.06-.25-.22-.2-.35-.46-.37-.78-.02-.34.06-.62.26-.84.19-.22.53-.35,1.02-.38l2.72-.19-2.02-29.09-2.72.19c-.48.03-.84-.05-1.06-.25-.22-.2-.35-.47-.37-.81-.02-.32.06-.6.26-.83.19-.23.53-.36,1.01-.39l4.75-.33ZM770.82,1241.22c-.2-2.84-1.24-5.19-3.13-7.04-1.89-1.85-4.01-2.7-6.35-2.53-2.35.16-4.33,1.29-5.94,3.39-1.62,2.1-2.32,4.56-2.13,7.4.2,2.84,1.24,5.19,3.13,7.04s4.01,2.7,6.35,2.53c2.35-.16,4.33-1.29,5.94-3.39s2.32-4.56,2.13-7.4Z"/>
      </g>
      <circle class="cls-2" cx="722.43" cy="722.43" r="20.73"/>
    </g>
  </g>
</svg>