<?xml version="1.0" encoding="UTF-8"?>
<svg id="_レイヤー_2" data-name="レイヤー 2" xmlns="http://www.w3.org/2000/svg" viewBox="0 0 1444.86 1444.86">
  <defs>
    <style>
      .cls-1 {
        fill: #500a28;
      }

      .cls-2 {
        fill: #ffffb9;
      }
    </style>
  </defs>
  <g id="_レイヤー_1-2" data-name="レイヤー 1">
    <circle class="cls-2" cx="722.43" cy="722.43" r="722.43"/>
    <g>
      <path class="cls-1" d="M446.62,1254.1q4.92.72,11.04,1.21c10.41.87,15.03,1.93,20.06,4.64,8.47,4.57,10.94,11.47,6.83,19.07-2.72,5.03-7.12,7.97-12.89,8.48-3.36.31-8.43-.24-13.51-1.48-1.83-.43-3.76-1.03-7.56-2.21.32-1.52.36-2.18.21-4.33,7.64,2.87,11.76,3.92,16.85,4.22,6.36.37,10.84-1.78,13.37-6.47,3.11-5.76,1.35-10.84-4.89-14.21-4.36-2.35-9.07-3.46-16.69-3.82q-9.78-.53-12.83-.55l.02-4.55Z"/>
      <path class="cls-1" d="M538.12,1280.1c.23.33.34.79.24,1.04-.16.41-.65.45-1.63.24-3.64,1.88-13.83,6.43-19.29,8.59-2.37.9-2.74,1.11-2.88,1.46-.14.36-.03.82.38,1.74,3.7,8.61,6.39,16.48,8.83,25.42l-4.59,1.14c-.49-2.8-1.2-6.09-1.94-8.87-.97-3.69-4.16-12.99-5.73-16.81-.96-2.21-1.14-3.11-.79-3.98.42-1.07,1.83-1.94,5.39-3.31,4.61-1.79,12.33-5.48,15.52-7.42,1.78-1.07,2.53-1.6,3.91-2.71l2.6,3.45Z"/>
      <path class="cls-1" d="M566.01,1312.37c2.19-.11,3.08-.27,9.07-1.21,8.53-1.29,12.11-1.32,16.58-.15,7.61,1.99,10.9,7,9.12,13.82-1.81,6.92-6.96,10.06-17.31,10.53-1.91.12-4.79.05-8.66-.16-.06-1.5-.28-2.4-.84-3.97,4.41.53,5.74.65,8.24.68,8.54.19,13.56-2.48,14.98-7.91,1.29-4.95-.92-8.43-6.29-9.83-4.31-1.13-8.59-.83-17.69,1.11-2.7.54-4.02.82-5.28,1.06q-.6.13-1.03.24l-.89-4.21Z"/>
      <path class="cls-1" d="M668.7,1315.16c.22.42.35.71.31.99-.05.38-.4.5-1.06.46-4.45-.33-7.21-.05-10.29.97-4.01,1.33-8.22,4.09-10.74,7.07-1.66,1.99-2.87,4.71-3.25,7.49-1.12,8.12,4.42,12.66,18.07,14.75-.8,1-1.24,1.77-2.07,3.71-4.87-.95-7.69-1.78-10.84-3.16-6.71-2.92-9.89-8.41-8.96-15.22.88-6.43,4.52-11.09,11.74-15.1q-10.83.84-16.6,1.22c-.4.06-1.29.1-2.47.21-1.17.06-2.07.1-2.57.15-1.68.1-1.91.13-2.98.26l-.46-4.34c4.96.24,12.49,0,24.63-.67,11.02-.59,12.42-.68,16.03-1.52l1.52,2.71Z"/>
      <path class="cls-1" d="M697.45,1318.09c.71.12,1.2.52,1.19.96,0,.44-.29.71-1.29,1.02-.44,3.13-.59,5.16-.69,10.27-.11,5.66.9,10.47,2.88,13.7,1.28,2.06,2.69,3.35,3.79,3.37.71.01,1.16-.36,1.73-1.29.74-1.31,1.9-4.53,2.5-7.05q1.52,1.18,3.09,2.26c-1.9,7.39-3.94,10.32-7.29,10.26-2.53-.05-5.18-2.19-7.26-5.8-2.4-4.06-3.3-8.75-3.16-16.07.04-1.98.13-4.07.29-6.71.14-1.43.21-2.42.22-2.69.14-1.81.15-2.09.11-2.8l3.9.57ZM723.18,1321.55c6.21,6.39,9.03,11.12,11.46,19.31l-3.99,1.74c-1.84-7.57-4.81-13.13-10.1-18.73l2.63-2.32Z"/>
      <path class="cls-1" d="M761.68,1314.16c4.41-.71,12.8-2.98,17.72-4.68l.72-.57,3.35,2.54c.3.25.49.5.52.78.04.38-.23.52-.49.66l-.63.34c-6.63,9.5-8.19,11.64-12.85,17.63,4.49-2.65,6.73-3.48,10.12-3.82,7.83-.77,13.47,3.26,14.15,10.1.39,3.94-.85,7.66-3.6,10.52-2.85,2.99-6.83,4.71-12.36,5.25-7.12.7-11.28-1.21-11.69-5.37-.32-3.23,2.18-5.91,5.79-6.26,3.01-.3,6.01.95,8.06,3.24.75.92,1.22,1.7,2.33,3.97,2.61-.98,3.81-1.76,5.1-3.21,1.78-2.11,2.61-4.9,2.33-7.75-.5-5.04-4.55-8.01-10.13-7.46-4.6.45-9.23,2.84-13.78,7.11-1.27,1.17-2.22,2.1-4.47,4.58l-3.04-2.85c6.06-6.4,6.35-6.76,8.26-9.22.2-.24,4.29-5.84,12.15-16.84l-8.31,2.59c-1.61.49-6.68,2.32-7.74,2.75l-1.5-4.05ZM772.7,1344.13c-1.86.18-3.01,1.4-2.87,2.88.21,2.13,2.97,3.19,7.29,2.76.6-.06.66-.06,1.91-.24-1.62-4.1-3.49-5.68-6.33-5.4Z"/>
      <path class="cls-1" d="M836.62,1298.18c.61-.02,1.05.16,1.13.54s-.08.64-.75,1.18c.13,8.76.48,20.01.8,26.81,2.2-.26,3.72-.49,5.6-.9l1.34-.3-.03,3.95c-2.98.55-4.12.74-6.61.95.15,1.71.3,2.64.52,3.6,1.12,5.05,3.83,6.87,8.72,5.79,4.94-1.09,7.03-4.65,5.85-9.97-.97-4.4-3.54-7.61-9.79-12.43.85-.75,1.39-1.38,2.11-2.44,7.39,5.13,10.11,8.53,11.34,14.11,1.66,7.52-1.44,12.6-8.69,14.2-7.04,1.56-11.66-1.25-13.13-7.91-.33-1.5-.33-1.73-.6-4.77-1.79.06-4.08-.34-5.95-.94-2.08-.72-3.24-1.93-3.65-3.76-.37-1.67-.09-2.96,1.12-4.64l2.65,1.27c-.52.96-.63,1.49-.5,2.08.32,1.45,2.71,2.33,6.02,2.27-.13-2.9-.24-5.92-.41-10.27-5.06-.23-7.47-.94-10.71-3.1l1.53-3.04c2.44,1.6,4.89,2.24,9.1,2.44-.15-7.8-.42-11.85-.94-14.44l3.93-.31Z"/>
      <path class="cls-1" d="M899,1290.86c.35,0,.77.19.85.39.09.26,0,.64-.4,1.14,1.19,6.77,1.59,11.07,1.49,16.09-.24,8.81-1.95,12.95-6.13,14.48-4.49,1.64-9.06-1.55-11.42-8.01-2.62-7.18-.74-15.48,4.83-21.56,2.6-2.82,5.81-4.93,9.79-6.39,6.61-2.42,13.32-2.17,18.36.73,3.25,1.86,5.66,4.9,7.18,9.09,2.19,5.99,1.08,11.61-3.39,17.17-1.71,2.21-2.68,3.09-7.3,6.94-1.51-1.73-1.76-1.93-3.16-2.71,4.65-3.46,6.12-4.87,8.12-7.59,2.78-3.94,3.4-8.15,1.8-12.55-1.76-4.8-5.01-7.77-9.67-8.83-3.19-.71-7.6-.44-10.75.71q-.41.15-2.24.93l2.04-.04ZM888.06,1299.54c-2.27,4.69-2.65,9.58-1.01,14.07,1.51,4.13,4.24,6.65,6.41,5.86,2.22-.81,3.29-3.49,3.59-8.93.36-6.87-.43-14.48-1.98-18.72-3.85,2.75-5.47,4.58-7.02,7.72Z"/>
      <path class="cls-1" d="M965.02,1275.95c1.02,2.07.17,4.58-1.91,5.6-2.07,1.02-4.58.17-5.6-1.91-1.02-2.07-.17-4.58,1.91-5.59,2.07-1.02,4.58-.17,5.59,1.91Z"/>
      <path class="cls-1" d="M1000.57,1237.17c3.28.46,5.16-.07,9.16-2.59,3.77-2.38,6.81-4.88,9.98-8.31l2.8,2.79c-3.48,3.56-6.52,6.06-10.61,8.64-5.07,3.2-7.8,3.82-12.08,2.81l.76-3.34ZM1010.72,1255.02c-.75,3.86-.67,5.43.41,7.15,2.26,3.58,7.14,2.65,16.35-3.16,4.61-2.91,7.77-5.42,12.27-9.82.86,1.67.9,1.84,2.01,3.61-3.97,3.61-7.87,6.59-12.71,9.64-5.86,3.7-10.57,5.62-14.23,5.79-2.61.09-5.25-1.31-6.71-3.63-1.58-2.51-1.81-5.04-.79-9.91l3.39.33Z"/>
      <path class="cls-1" d="M1055.18,1195.39c4.68,5.62,8.33,9.31,11.3,11.34q4.01-7.99,5.36-12.05l3.8.7c.5.08.69.14.8.27.35.42.13.75-1.01,1.7-6.31,10.9-7.39,12.95-8.44,16.33-1.59,5.05-1.42,8.27.69,10.8,2.6,3.13,6.23,2.33,12.15-2.6,4.48-3.73,8.31-7.56,11.17-11.16.55.83.87,1.21,1.29,1.72.39.46.67.8,1.31,1.49-2.8,3.26-6.23,6.62-10.2,9.92-3.8,3.17-6.7,4.93-9.4,5.82-3.26,1.07-6.64.02-8.96-2.77-3.24-3.89-3.24-9.39-.06-16.84-3.79-2.5-5.02-3.62-11.85-10.96-1.43-1.46-1.5-1.54-3.93-4.03l3.32-2.55c.38-.32.89-.39,1.14-.09.21.25.29.69.15,1.3l1.37,1.65Z"/>
    </g>
    <g>
      <path class="cls-1" d="M345.95,1108.84l-2.32-2.19,11.13-20.18-19.41,12.37-2.32-2.19,17.83-23.27-.54-.51c-.35-.33-.53-.64-.54-.94-.01-.29.1-.56.33-.81.23-.25.5-.37.79-.38.29,0,.62.16.97.49l5.49,5.17c.36.34.55.66.56.96.01.29-.1.56-.33.81-.23.25-.5.38-.79.38-.29,0-.62-.16-.99-.51l-3.45-3.25-16.29,21.18,19.01-12.16,2.27,2.14-10.92,19.79,20.16-17.53-3.46-3.27c-.35-.33-.53-.64-.54-.94-.01-.29.1-.56.33-.81.23-.25.5-.37.79-.38.29,0,.62.16.97.49l5.45,5.14c.36.34.55.66.56.95.01.29-.1.56-.33.81s-.5.37-.79.38c-.29,0-.62-.16-.99-.5l-.54-.51-22.07,19.27Z"/>
      <path class="cls-1" d="M380.49,1123.25c-2.21,2.64-4.94,4.18-8.2,4.62-3.26.44-6.09-.34-8.49-2.34-2.42-2.03-3.69-4.69-3.82-7.98s.91-6.25,3.11-8.87c2.21-2.64,4.94-4.18,8.2-4.64,3.26-.46,6.1.33,8.52,2.36,2.4,2.01,3.66,4.65,3.8,7.94.14,3.29-.91,6.26-3.12,8.91ZM378.91,1121.93c1.82-2.17,2.67-4.6,2.55-7.28-.11-2.69-1.16-4.86-3.14-6.51-1.98-1.66-4.3-2.3-6.97-1.93-2.67.37-4.91,1.63-6.71,3.78-1.79,2.14-2.64,4.56-2.53,7.26.1,2.7,1.14,4.88,3.12,6.53,1.98,1.65,4.3,2.3,6.97,1.93,2.67-.37,4.91-1.63,6.71-3.78Z"/>
      <path class="cls-1" d="M402.38,1125.3l-3.39,4.57c3.7-.56,6.3-.75,7.81-.58,1.51.17,2.71.59,3.6,1.25.97.72,1.61,1.75,1.9,3.1.3,1.35.31,2.21.03,2.58-.2.27-.45.44-.75.5-.29.06-.57,0-.81-.18-.13-.1-.22-.2-.27-.32-.05-.12-.1-.4-.15-.86-.08-.84-.22-1.48-.42-1.91-.2-.44-.46-.77-.78-1.01-.71-.53-1.8-.85-3.28-.96s-4.36.15-8.65.78l-7.35,9.93,7.22,5.35c.4.3.62.59.67.88.04.29-.03.57-.24.84-.19.26-.44.41-.73.46-.3.05-.64-.08-1.05-.38l-12.8-9.48c-.39-.29-.61-.58-.65-.87s.03-.56.22-.82c.18-.25.41-.39.7-.44.28-.05.63.08,1.03.38l3.94,2.92,11.19-15.11-3.01-2.23c-.39-.29-.6-.58-.64-.88-.04-.3.04-.58.24-.86.19-.26.43-.42.72-.47s.64.07,1.04.37l4.64,3.44Z"/>
      <path class="cls-1" d="M419.85,1153.78l-5.49,8.41-3.99-2.6c-.4-.26-.64-.54-.69-.84-.06-.29,0-.58.18-.85.19-.29.42-.46.71-.51s.63.04,1.04.31l2.29,1.49,15.94-24.43-2.29-1.49c-.4-.26-.64-.54-.69-.84-.06-.29,0-.58.19-.87.18-.27.41-.44.7-.5.29-.07.64.03,1.05.3l3.99,2.6-11.36,17.41,11.63-2.03-.87-.57c-.4-.26-.64-.54-.69-.84-.06-.29,0-.58.18-.85.19-.29.42-.46.72-.53.29-.07.64.03,1.05.3l5.45,3.55c.42.27.66.56.71.85s0,.58-.19.87c-.18.27-.41.44-.7.5s-.65-.04-1.07-.31l-1.96-1.28-10.66,1.83,2.19,15,1.96,1.28c.42.27.66.55.72.84.06.29,0,.57-.18.86-.18.27-.41.44-.7.5s-.65-.04-1.07-.31l-5.51-3.59c-.4-.26-.64-.54-.69-.84-.06-.29,0-.58.18-.85.19-.28.42-.46.71-.51.29-.06.63.04,1.04.31l1.19.78-1.86-13.11-3.13.55Z"/>
      <path class="cls-1" d="M462.86,1166.21c.26-.45.53-.73.81-.84.28-.11.55-.09.8.06.27.15.42.38.48.67.05.3-.06.69-.33,1.17l-1.92,3.36c-.27.47-.54.75-.82.86-.28.11-.56.08-.82-.07-.24-.14-.39-.33-.45-.6-.06-.26,0-.6.2-1,.45-.98.45-2,.02-3.05-.65-1.53-1.92-2.83-3.81-3.91-1.97-1.13-3.76-1.56-5.36-1.29-1.21.2-2.05.71-2.52,1.53-.53.93-.49,1.99.14,3.17.42.82,1.51,1.88,3.25,3.18,2.28,1.69,3.79,3,4.53,3.91,1.05,1.32,1.63,2.65,1.74,3.99.12,1.34-.15,2.58-.79,3.69-.95,1.66-2.52,2.73-4.7,3.21-2.18.48-4.67-.08-7.45-1.67-2.79-1.59-4.62-3.68-5.5-6.26-.3.53-.52.86-.67.98-.15.12-.32.2-.53.22-.21.03-.4-.01-.59-.12-.25-.14-.4-.36-.46-.66s.05-.68.32-1.15l2.3-4.04c.27-.47.54-.75.81-.87s.55-.09.81.06c.25.14.41.36.47.66.06.29,0,.6-.18.93-.41.71-.59,1.41-.54,2.07.06,1.03.49,2.09,1.28,3.19s1.96,2.09,3.52,2.98c2.29,1.31,4.27,1.81,5.93,1.5,1.66-.31,2.79-.99,3.4-2.05.69-1.21.68-2.51-.04-3.89-.73-1.39-2.12-2.83-4.17-4.33-2.05-1.5-3.43-2.72-4.15-3.67-.72-.95-1.12-1.98-1.19-3.09-.07-1.11.16-2.13.69-3.07.96-1.68,2.46-2.59,4.51-2.73,2.05-.14,4.1.38,6.16,1.55,2.44,1.39,4.04,3.18,4.81,5.37Z"/>
    </g>
    <circle class="cls-1" cx="722.43" cy="722.43" r="20.73"/>
  </g>
</svg>