<?xml version="1.0" encoding="UTF-8"?>
<svg id="_レイヤー_2" data-name="レイヤー 2" xmlns="http://www.w3.org/2000/svg" viewBox="0 0 1444.86 1444.86">
  <defs>
    <style>
      .cls-1 {
        fill: #500a28;
      }

      .cls-2 {
        fill: #ffffa0;
      }
    </style>
  </defs>
  <g id="_レイヤー_1-2" data-name="レイヤー 1">
    <g>
      <circle class="cls-2" cx="722.43" cy="722.43" r="722.43"/>
      <g>
        <path class="cls-1" d="M704.24,1340.3l.94-.93,2.72,2.43c.26.24.41.52.39.8-.03.44-.09.55-1.44.96-3.71,12.67-6.44,14.98-15.83,14.4-.49-.03-1.26-.08-2.3-.2,0-1.82-.06-2.59-.61-4.34,2.35.37,3.38.54,4.76.63,5.65.35,6.88-.79,10.25-10.66l-23.44-1.45c-.14.54-.36,1.3-.7,2.38q-.28,1.03-.56,2l-3.93-.68c.79-2.1,1.78-5.68,2.74-9.53-4.03,1.96-8.22,3.62-13.23,5.35-.52-1.41-.97-2.21-1.79-3.2,6.35-2.03,11.22-4.04,16.06-6.61.31-1.41.62-2.83.86-4.13l3.14,1.85c1.32-.8,2.69-1.65,4.13-2.61.75-.5,1.44-.96,2.13-1.41l-13.89-.86c-3.07-.19-8.02-.39-10.99-.46l.23-3.68c2.85.29,7.78.7,10.97.9l9.77.61.34-5.49-10.1-.63c-1.81-.11-4.89-.19-6.6-.24l.22-3.51c1.64.16,4.5.39,6.58.52l10.1.63.09-1.43c.16-2.53.2-3.18.21-5.11l3.82.62c.66.1.97.28.95.61-.02.33-.37.64-1.17,1.03l-.28,4.5,3.73.23c2.09.13,4.89.25,6.54.29l-.19,3.13c2.23-2.23,4.48-4.68,6.92-7.62l3.37,1.7c.64.32.9.61.88.99-.03.55-.32.7-1.76.83-3.66,3.85-6.99,6.95-10.31,9.78l5.44.34c3.46.21,8.18.45,10.94.46l-.23,3.68c-2.9-.29-7.56-.69-10.91-.9l-9.06-.56c-1.85,1.37-3.75,2.69-5.82,4.05-2.07,1.36-4.07,2.61-6.07,3.7,8.6-.96,15.13-2.31,20.21-4.26l3.03,2.72c.26.24.36.46.34.68-.02.38-.48.69-1.09.65-.16,0-.44-.03-.71-.1-9.66,1.99-13.27,2.54-22.91,3.32-.22.81-.43,1.57-.59,2.39l23.72,1.47ZM692.63,1322.33c2.03-1.58,3.95-3.23,5.82-4.99-1.7-.16-4.44-.44-6.14-.55l-3.73-.23-.34,5.49,4.39.27Z"/>
        <path class="cls-1" d="M735.03,1351.53q2.94-2.64,9.3-10.04c9.05-10.58,9.67-11.33,11.98-14.43-9.81,1.86-15.43,2.95-16.79,3.24l-.99-3.91c10.12-1.22,12.69-1.58,19.18-2.71.7-.2.92-.33,1.55-.86,2.16,1.2,3.54,2.23,3.56,2.67.02.33-.24.56-.56.75-.38.19-.59.36-1.01.72-.21.23-2.02,2.26-5.44,6.14q-2.69,3.07-3.88,4.51c-.52.63-.72.87-1.61,1.85.92-.38,1.4-.52,2.06-.55.93-.05,2.11.32,2.86.94.87.72,1.23,1.36,2.5,4.38,2.02,4.74,2.54,5.15,6.22,4.94,4.39-.24,7.18-.67,11.85-1.81-.27,1.17-.29,1.78-.24,2.71.02.33.04.66.12,1.21-4.41.91-7.04,1.27-10.39,1.46-4.34.24-6.56-.13-7.9-1.33q-.86-.67-3.64-7.12c-.95-2.15-1.58-2.72-3.07-2.64-2.09.12-3.3,1.17-6.99,6-.62.75-1.54,1.96-2.73,3.4-1.34,1.67-1.75,2.19-2.78,3.57l-3.2-3.07ZM757.57,1317.83c-6.43-1.68-9.83-3.37-13.83-7.06l2.47-2.23c4.15,3.3,6.97,4.57,12.5,5.92l-1.14,3.37Z"/>
        <path class="cls-1" d="M832.67,1306.32c.34.33.55.57.59.84.07.38-.23.6-.87.77-4.34,1.04-6.88,2.16-9.5,4.07-3.41,2.5-6.58,6.4-8.07,10.01-.97,2.41-1.29,5.36-.81,8.13,1.42,8.07,8.08,10.7,21.71,8.53-.46,1.2-.64,2.07-.83,4.17-4.92.58-7.87.66-11.28.3-7.28-.73-11.99-4.99-13.18-11.76-1.12-6.39.92-11.94,6.56-17.96q-10.06,4.11-15.44,6.23c-.36.17-1.2.49-2.29.96-1.1.42-1.94.73-2.41.92-1.57.61-1.78.7-2.76,1.15l-1.76-3.99c4.8-1.29,11.89-3.82,23.25-8.16,10.31-3.93,11.62-4.44,14.8-6.34l2.27,2.11Z"/>
        <path class="cls-1" d="M860.94,1300.31c.72-.1,1.3.12,1.43.54.13.42-.06.76-.91,1.37.54,3.11,1.02,5.09,2.5,9.99,1.64,5.42,4.07,9.69,6.94,12.15,1.85,1.57,3.59,2.36,4.64,2.05.68-.21.99-.7,1.25-1.76.3-1.47.42-4.9.21-7.48q1.81.66,3.64,1.2c.46,7.62-.58,11.03-3.79,12-2.42.73-5.61-.49-8.69-3.29-3.53-3.13-5.83-7.32-7.94-14.32-.57-1.9-1.12-3.91-1.78-6.47-.31-1.4-.54-2.36-.62-2.63-.42-1.77-.5-2.03-.76-2.7l3.88-.66ZM886.49,1295.7c7.87,4.17,12.01,7.81,16.84,14.85l-3.27,2.88c-4.07-6.64-8.61-11.02-15.36-14.72l1.79-3.01Z"/>
        <path class="cls-1" d="M920.85,1276.8c3.97-2.04,11.26-6.79,15.41-9.93l.51-.76,3.97,1.38c.36.14.62.33.73.58.15.35-.05.56-.26.77l-.49.52c-3.37,11.08-4.19,13.6-6.77,20.74,3.45-3.91,5.32-5.39,8.45-6.76,7.21-3.16,13.82-1.07,16.58,5.23,1.59,3.63,1.56,7.54-.17,11.12-1.79,3.73-5.04,6.59-10.13,8.82-6.55,2.87-11.1,2.34-12.78-1.49-1.3-2.97.25-6.29,3.57-7.75,2.77-1.21,6.01-.95,8.66.59,1,.64,1.69,1.24,3.44,3.06,2.18-1.74,3.08-2.85,3.86-4.63,1.04-2.56.97-5.47-.18-8.09-2.03-4.64-6.8-6.21-11.94-3.96-4.23,1.85-7.89,5.56-10.91,11.02-.84,1.51-1.47,2.68-2.83,5.74l-3.78-1.77c3.78-7.96,3.95-8.4,5.01-11.32.11-.29,2.27-6.88,6.35-19.78l-7.1,5.03c-1.38.96-5.64,4.27-6.51,5.01l-2.68-3.39ZM940.61,1301.89c-1.71.75-2.43,2.26-1.83,3.62.86,1.97,3.81,2.12,7.79.37.55-.24.6-.26,1.74-.82-2.81-3.39-5.08-4.32-7.7-3.17Z"/>
        <path class="cls-1" d="M980.87,1248.96c3.27.56,5.16.09,9.23-2.31,3.84-2.26,6.95-4.67,10.23-8l2.71,2.87c-3.58,3.45-6.7,5.86-10.87,8.32-5.17,3.04-7.92,3.58-12.16,2.44l.86-3.31ZM990.47,1267.12c-.87,3.83-.84,5.41.2,7.16,2.15,3.65,7.05,2.87,16.44-2.66,4.69-2.76,7.93-5.18,12.57-9.44.81,1.7.84,1.87,1.9,3.67-4.08,3.49-8.07,6.35-13,9.25-5.97,3.52-10.73,5.3-14.4,5.35-2.61,0-5.2-1.47-6.6-3.84-1.51-2.56-1.66-5.09-.48-9.93l3.38.43Z"/>
        <path class="cls-1" d="M1037.26,1209.51c4.43,5.82,7.91,9.67,10.8,11.83q4.36-7.81,5.88-11.8l3.77.86c.5.11.68.17.78.3.33.44.09.76-1.09,1.66-6.78,10.62-7.95,12.62-9.15,15.95-1.81,4.97-1.78,8.2.22,10.82,2.46,3.24,6.12,2.6,12.25-2.07,4.64-3.53,8.63-7.19,11.65-10.66.51.85.81,1.25,1.21,1.77.37.48.63.83,1.24,1.54-2.94,3.13-6.51,6.34-10.62,9.47-3.94,3-6.91,4.64-9.64,5.4-3.3.93-6.63-.27-8.83-3.16-3.06-4.03-2.83-9.53.67-16.82-3.68-2.66-4.86-3.84-11.36-11.47-1.36-1.52-1.43-1.61-3.75-4.2l3.43-2.4c.39-.3.91-.35,1.14-.04.2.26.26.7.1,1.31l1.3,1.71Z"/>
      </g>
      <g>
        <path class="cls-1" d="M346.92,1096.79l-1.69-1.59,7.87-19.72-.28-.26-18.47,19.57,2.73,2.57c.35.33.53.64.54.94.01.29-.1.56-.33.81-.22.23-.48.36-.78.37s-.63-.15-.98-.48l-5.45-5.14c-.35-.33-.53-.65-.53-.95s.1-.57.32-.8c.23-.25.5-.37.79-.38.29,0,.62.16.97.49l1.25,1.18,18.47-19.57-.93-.88c-.35-.33-.53-.64-.54-.94-.01-.29.1-.56.33-.81.23-.25.5-.38.79-.38.29,0,.62.16.97.49l3.62,3.42-7.75,19.42,18.85-8.95,3.62,3.42c.36.34.55.66.56.95.01.29-.1.56-.33.81-.23.25-.5.37-.79.38-.29,0-.62-.16-.99-.51l-.91-.86-18.47,19.57,1.23,1.16c.36.34.55.66.56.95.01.29-.1.56-.33.81-.22.23-.48.36-.78.37-.3.01-.63-.15-1-.5l-5.43-5.12c-.35-.33-.53-.65-.54-.96-.01-.3.09-.58.32-.81.23-.25.5-.37.79-.38.29,0,.62.16.99.5l2.73,2.57,18.47-19.57-.32-.3-19.12,9.1Z"/>
        <path class="cls-1" d="M379.9,1123.39l-15.86-13.28c-1.6,2.47-2.27,4.97-2,7.52.27,2.55,1.45,4.7,3.54,6.45,1.16.97,2.56,1.78,4.19,2.42,1.63.64,3.14.95,4.53.92.41,0,.7.06.87.2.2.17.3.4.3.69,0,.3-.09.56-.29.79s-.48.38-.87.43c-1.17.19-2.76-.05-4.77-.72-2.01-.67-3.82-1.67-5.41-3.01-2.67-2.23-4.08-5.07-4.24-8.51-.16-3.44.92-6.54,3.23-9.29,2.1-2.51,4.74-3.97,7.92-4.36,3.18-.4,6,.44,8.48,2.51,2.55,2.13,3.87,4.81,3.96,8.03.1,3.22-1.1,6.29-3.58,9.21ZM379.79,1120.32c1.29-2.17,1.77-4.4,1.46-6.69s-1.38-4.2-3.2-5.72c-1.82-1.52-3.87-2.24-6.17-2.15-2.3.08-4.42.96-6.36,2.63l14.27,11.95Z"/>
        <path class="cls-1" d="M418.55,1124.27l-18.72,25.27,2.18,1.61c.4.3.62.59.67.88s-.03.57-.23.84c-.19.26-.44.41-.73.46-.3.05-.65-.08-1.05-.37l-3.83-2.83,2.67-3.6c-4.02,1.48-7.49,1.14-10.4-1.02-1.48-1.09-2.57-2.58-3.28-4.45-.71-1.87-.86-3.91-.45-6.1.41-2.19,1.25-4.14,2.52-5.86,1.28-1.73,2.9-3.1,4.88-4.12,1.97-1.02,3.96-1.47,5.96-1.35,2,.12,3.75.74,5.24,1.84,2.85,2.11,4.18,5.32,3.99,9.64l7.58-10.23-2.18-1.61c-.4-.3-.62-.6-.66-.89s.04-.58.24-.86c.19-.26.44-.41.73-.46.3-.05.65.08,1.05.37l3.83,2.83ZM403.72,1140.83c1.71-2.3,2.44-4.76,2.22-7.38-.23-2.62-1.3-4.64-3.23-6.07-1.94-1.44-4.2-1.88-6.77-1.34-2.57.55-4.71,1.97-6.41,4.27-1.69,2.29-2.43,4.74-2.21,7.37.22,2.63,1.3,4.66,3.24,6.1,1.93,1.43,4.18,1.87,6.76,1.31,2.58-.55,4.71-1.97,6.41-4.26Z"/>
        <path class="cls-1" d="M431.42,1145.55l-11.48,17.59,6.68,4.36c.42.27.66.55.72.84.06.29,0,.57-.18.86-.18.27-.41.44-.7.5s-.65-.04-1.07-.31l-15.06-9.83c-.4-.26-.64-.54-.69-.84-.06-.29,0-.58.18-.85.19-.29.42-.46.71-.51.29-.06.63.05,1.04.31l6.68,4.36,10.23-15.68-4.96-3.24c-.4-.26-.64-.55-.7-.84-.06-.3,0-.58.17-.85.19-.28.42-.46.72-.53.29-.07.65.04,1.07.31l6.66,4.34ZM437.68,1135.81l-3.18,4.88-2.51-1.64,3.18-4.88,2.51,1.64Z"/>
        <path class="cls-1" d="M451.31,1184.69l1.61-2.82c-3.93.93-7.35.57-10.26-1.09-2.11-1.21-3.43-2.74-3.94-4.61-.51-1.87-.27-3.67.71-5.39,1.08-1.9,2.81-3.11,5.19-3.63,2.37-.52,5.07.08,8.08,1.79.81.46,1.66,1.02,2.55,1.68.89.66,1.81,1.43,2.77,2.31l1.81-3.17c.61-1.07.7-2.26.25-3.57-.44-1.3-1.56-2.47-3.35-3.49-1.37-.78-3.55-1.44-6.53-1.96-.54-.1-.87-.19-.99-.26-.22-.13-.36-.33-.42-.61-.05-.28,0-.56.16-.84.15-.26.34-.43.57-.51.33-.12,1.3.01,2.92.4,2.56.59,4.39,1.21,5.51,1.85,2.23,1.27,3.61,2.87,4.16,4.8s.38,3.67-.49,5.21l-7.4,12.97,2.35,1.34c.43.25.69.51.77.79.08.28.04.57-.13.87-.16.28-.38.46-.67.54-.29.08-.65,0-1.08-.25l-4.14-2.36ZM456.87,1174.94c-.68-.74-1.44-1.43-2.29-2.08-.85-.65-1.79-1.27-2.81-1.85-2.56-1.46-4.91-1.99-7.06-1.58-1.62.29-2.79,1.08-3.51,2.35-.67,1.18-.83,2.42-.45,3.7.37,1.28,1.35,2.38,2.95,3.29,1.53.87,3.14,1.34,4.83,1.41,1.69.07,3.66-.24,5.88-.93l2.46-4.32Z"/>
        <path class="cls-1" d="M511.3,1213.53l1.26-3c-3.79,1.4-7.23,1.44-10.31.14-2.24-.95-3.73-2.31-4.46-4.11s-.71-3.61.06-5.44c.85-2.01,2.42-3.42,4.72-4.22,2.29-.8,5.04-.53,8.23.82.86.36,1.77.82,2.73,1.37.96.55,1.97,1.2,3.03,1.96l1.42-3.37c.48-1.14.42-2.33-.17-3.57-.6-1.24-1.84-2.26-3.75-3.06-1.46-.61-3.7-1-6.72-1.17-.54-.04-.88-.08-1.02-.14-.24-.1-.4-.29-.49-.56-.09-.27-.07-.55.06-.85.12-.28.29-.47.5-.58.31-.16,1.29-.14,2.94.05,2.61.28,4.51.67,5.69,1.17,2.36.99,3.93,2.42,4.71,4.27.78,1.85.82,3.59.13,5.23l-5.8,13.76,2.49,1.05c.46.19.75.43.86.7.11.27.1.56-.03.88-.12.3-.33.5-.6.62-.28.12-.65.08-1.1-.12l-4.39-1.85ZM515.65,1203.18c-.76-.65-1.6-1.25-2.52-1.79s-1.93-1.05-3.01-1.5c-2.72-1.15-5.12-1.39-7.19-.73-1.57.49-2.64,1.41-3.21,2.76-.53,1.25-.53,2.5,0,3.73.52,1.23,1.63,2.2,3.32,2.91,1.62.68,3.27.96,4.96.82s3.6-.67,5.73-1.62l1.93-4.58Z"/>
        <path class="cls-1" d="M542.44,1200.53l-1.89,5.37c3.37-1.62,5.8-2.57,7.3-2.85,1.49-.28,2.76-.24,3.81.13,1.14.4,2.05,1.2,2.73,2.4.68,1.2.94,2.02.79,2.46-.11.32-.3.55-.57.7-.26.14-.54.17-.83.06-.15-.05-.27-.13-.36-.22-.09-.1-.22-.36-.39-.78-.32-.78-.65-1.35-.96-1.71-.32-.36-.67-.61-1.05-.74-.84-.29-1.97-.28-3.41.05-1.44.33-4.12,1.43-8.04,3.29l-4.1,11.65,8.48,2.99c.47.17.77.38.9.64.13.26.14.56.02.88-.11.3-.3.52-.56.66-.27.13-.64.12-1.11-.05l-15.02-5.29c-.46-.16-.75-.37-.88-.64-.13-.26-.14-.55-.03-.85.1-.29.28-.49.54-.62.26-.13.62-.11,1.09.06l4.63,1.63,6.24-17.73-3.53-1.24c-.46-.16-.75-.38-.87-.65-.13-.27-.13-.57-.02-.89.11-.3.29-.52.55-.66.26-.14.63-.12,1.1.04l5.45,1.92Z"/>
        <path class="cls-1" d="M582.63,1215.54l.21-.72c.15-.53.35-.89.6-1.06.25-.17.51-.22.79-.14.29.08.5.27.62.54.12.28.11.68-.05,1.22l-1.4,4.91c-.17.53-.37.88-.62,1.05-.24.17-.51.22-.8.13-.26-.08-.46-.24-.58-.49-.12-.25-.13-.61-.03-1.08.26-1.25-.14-2.62-1.18-4.11-1.04-1.49-2.71-2.56-5-3.22-2.9-.83-5.38-.45-7.46,1.13-2.08,1.58-3.49,3.68-4.23,6.28-.8,2.81-.64,5.36.5,7.66,1.14,2.3,3.02,3.83,5.65,4.58,1.52.43,3.15.57,4.9.4s3.46-.76,5.12-1.78c.42-.25.76-.34,1.01-.27.26.08.46.24.58.49.12.25.14.52.06.81-.21.74-1.26,1.46-3.15,2.14-3.05,1.12-6.13,1.24-9.23.35-3.15-.9-5.41-2.75-6.79-5.56-1.38-2.81-1.59-5.92-.61-9.35,1-3.49,2.86-6.1,5.59-7.81,2.73-1.72,5.66-2.12,8.81-1.22,2.99.85,5.22,2.56,6.68,5.12Z"/>
        <path class="cls-1" d="M601.77,1207.21l-3.01,13.55c1.6-1.24,3.04-2.04,4.33-2.41,1.29-.36,2.66-.39,4.09-.07,1.54.34,2.78.93,3.73,1.78.94.84,1.64,1.97,2.08,3.38s.52,2.81.21,4.19l-3.03,13.66,2.22.49c.49.11.81.28.96.53.15.24.19.53.12.86-.07.32-.23.56-.47.72-.24.17-.61.19-1.1.09l-6.44-1.43c-.49-.11-.81-.29-.97-.55-.16-.25-.2-.54-.13-.85.07-.33.23-.58.48-.73.25-.16.62-.18,1.11-.07l2.22.49,3-13.5c.35-1.59.13-3.03-.66-4.33-.79-1.29-2.11-2.15-3.95-2.56-1.45-.32-2.77-.2-3.97.36-.86.4-2.38,1.44-4.54,3.15l-3.1,13.95,2.24.5c.47.1.79.28.95.53.16.25.2.54.13.87-.07.31-.23.55-.48.72-.25.17-.61.19-1.08.09l-6.46-1.44c-.47-.1-.79-.28-.94-.54-.16-.26-.2-.54-.13-.85.07-.33.23-.58.48-.73.25-.16.61-.18,1.08-.08l2.24.5,6.32-28.47-2.67-.59c-.47-.1-.79-.28-.94-.54-.16-.26-.2-.55-.13-.88.07-.32.23-.55.48-.72.25-.16.61-.19,1.08-.09l4.65,1.03Z"/>
        <path class="cls-1" d="M638.43,1225.01l-3.31,20.74,7.88,1.26c.49.08.83.24,1,.47.17.24.23.52.18.86-.05.32-.2.57-.44.75-.24.18-.61.23-1.1.15l-17.76-2.84c-.48-.08-.8-.24-.98-.48-.17-.25-.23-.53-.18-.85.05-.34.2-.59.44-.76s.6-.22,1.08-.14l7.88,1.26,2.95-18.48-5.85-.93c-.48-.08-.81-.24-.99-.48-.18-.25-.25-.53-.19-.85.05-.34.2-.59.44-.77.24-.18.61-.23,1.1-.15l7.85,1.25ZM640.19,1213.57l-.92,5.75-2.96-.47.92-5.75,2.96.47Z"/>
        <path class="cls-1" d="M668.5,1252.25l-3.42-.34-6.23-21.69-2.07-.21c-.48-.05-.82-.19-1-.42-.19-.24-.26-.52-.23-.86.03-.32.16-.58.39-.77.23-.19.58-.27,1.07-.22l7.58.75c.48.05.82.19,1,.42s.26.52.23.86c-.03.32-.16.58-.39.77s-.58.27-1.07.22l-3.34-.33,5.56,19.36.89.09,9.11-17.91-3.37-.33c-.48-.05-.82-.19-1-.42-.19-.23-.26-.52-.23-.86.03-.32.16-.58.39-.77.23-.19.58-.27,1.07-.22l7.6.75c.5.05.83.19,1.01.42.18.23.25.52.22.86-.03.32-.16.58-.38.77-.22.19-.58.27-1.08.22l-2.04-.2-10.27,20.06Z"/>
        <path class="cls-1" d="M711.35,1243.73l-20.67-.82c.24,2.93,1.24,5.32,3.02,7.17,1.77,1.85,4.02,2.83,6.74,2.94,1.51.06,3.11-.15,4.79-.64,1.68-.49,3.06-1.17,4.14-2.04.32-.26.59-.38.81-.37.26.01.48.13.66.36.18.23.27.5.26.8-.01.3-.15.59-.42.87-.81.86-2.21,1.65-4.22,2.34-2,.7-4.04,1.01-6.12.93-3.48-.14-6.33-1.52-8.56-4.14-2.23-2.62-3.27-5.73-3.12-9.33.13-3.27,1.33-6.04,3.61-8.3,2.27-2.26,5.02-3.32,8.24-3.19,3.32.13,6,1.44,8.04,3.93,2.05,2.49,2.98,5.65,2.79,9.48ZM709.39,1241.37c-.3-2.5-1.28-4.57-2.94-6.19-1.65-1.62-3.66-2.48-6.03-2.58s-4.43.59-6.2,2.07c-1.77,1.47-2.91,3.46-3.43,5.96l18.6.74Z"/>
      </g>
      <circle class="cls-1" cx="722.43" cy="722.43" r="20.73"/>
    </g>
  </g>
</svg>