<?xml version="1.0" encoding="UTF-8"?>
<svg id="_レイヤー_2" data-name="レイヤー 2" xmlns="http://www.w3.org/2000/svg" viewBox="0 0 1444.86 1444.86">
  <defs>
    <style>
      .cls-1 {
        fill: #500a28;
      }

      .cls-2 {
        fill: #ffffb9;
      }
    </style>
  </defs>
  <g id="_レイヤー_1-2" data-name="レイヤー 1">
    <circle class="cls-2" cx="722.43" cy="722.43" r="722.43"/>
    <g>
      <path class="cls-1" d="M511.92,1286.8c2.48,3.29,4.03,5.93,5.55,9.55l-3.57,2.13c-.67-2.34-2.08-5.62-3.45-8l-3.5,8.79c-2.73,6.85-4.54,11.69-5.68,15.02l-3.73-1.48c1.48-3.26,3.52-8.25,6.14-14.84l3.58-8.99c-4.53,4.83-8.3,7.77-13.48,10.68-.39-2.29-.47-2.68-.92-3.8,5.65-3.49,8.37-5.55,12.09-9.4,2.74-2.88,4.05-4.37,5.44-6.54l-4.55-1.81c-1.33-.53-2.98-1.13-4.08-1.5l1.34-3.37c1.1.5,2.92,1.28,4,1.71l4.96,1.97c2.39-6.15,3.79-9.97,4.19-11.42l3.67,1.93c.44.23.69.51.58.76-.12.31-.5.51-1.33.66-.98,2.16-2.09,4.97-3.84,9.36l4.6,1.83c1.07.43,2.93,1.11,4.13,1.52l-1.34,3.37c-1.1-.5-2.67-1.18-4.05-1.73l-4.6-1.83-2.16,5.42ZM536.33,1306.82c-1.04,2.61-2.31,5.95-4.99,12.99-.04.1-.03.22-.17.58-.83,2.1-1.73,2.86-3.38,2.98-1.79.18-2.97-.12-7.71-1.89.58-1.9.7-2.8.52-4.29,1.9.88,3.06,1.39,4.38,1.92,1.94.77,2.23.65,2.98-1.24l10.64-26.73-10.27-4.09c-1.38-.55-2.98-1.13-4.13-1.52l1.34-3.37c1.16.52,2.97,1.3,4.05,1.73l10.27,4.09c2.35-6.05,3.73-9.82,4.06-11.23l3.89,1.96c.44.23.67.56.56.82-.12.31-.48.46-1.31.6-.66,1.51-.74,1.72-3.78,9.21l3.17,1.26c1.07.43,2.93,1.11,4.08,1.5l-1.34,3.37c-1.05-.48-2.67-1.18-4-1.71l-3.17-1.26-5.7,14.31ZM525.52,1293.4c1.94,3.61,2.87,6.17,3.76,10.79l-3.73,1.18c-.92-5.28-1.27-6.48-2.98-10.95l2.95-1.02Z"/>
      <path class="cls-1" d="M564.67,1298.41q2.26-8.73,2.59-10.41c2.78.91,6.89,2.11,10.51,3.07l21.85,5.79c3.56.94,7.79,1.95,10.65,2.54q-.54,1.62-2.91,10.32l-6.47,24.4c-.25.96-.91,3.86-1.35,5.73l-.18.69c-1,3.77-2.89,4.24-9.88,2.5.42-2,.42-2.45.06-4.31,1.51.52,2.4.81,3.57,1.12,2.02.54,2.34.39,2.86-1.57l9.63-36.31-35.56-9.43-7.98,30.09q-2.68,10.33-3.17,12.59l-3.88-1.03q.65-2.22,2.91-10.32l6.75-25.46ZM581.8,1327.37l6.59,1.75,1.03-3.88c1.13-4.25,1.67-6.5,1.92-8.08l3.73,1.39c.62.22.83.51.76.77-.08.32-.43.57-1.29.8-.63,2.17-1.17,4.19-1.66,6.05l-.92,3.46c-.66,2.5-1.3,5.12-1.63,6.57l-3.56-.94.78-2.92-16.85-4.47-1.1,4.15-3.62-.96c.63-1.94,1.37-4.53,2.22-7.72l.92-3.46c1.11-4.2,1.58-6.18,1.97-8.07l3.68,1.37c.62.22.83.51.76.77-.08.32-.43.57-1.29.79-.63,2.17-1.17,4.19-1.66,6.05l-1.03,3.88,6.75,1.79,3.96-14.94-7.97-2.11c-1.75-.47-4.75-1.2-6.41-1.59l.9-3.4c1.57.53,4.26,1.3,6.34,1.85l11.54,3.06c2.33-2.57,4.21-5.14,6.67-9.04l3.25,2.57c.33.26.54.54.47.81-.1.37-.46.45-1.3.4-2.99,3.53-4.09,4.89-5.41,6.25l3.93,1.04c2.02.54,4.75,1.2,6.37,1.52l-.9,3.4c-1.58-.48-4.54-1.32-6.3-1.78l-7.66-2.03-3.96,14.94ZM580.3,1297.21c1.14,3.43,1.67,5.51,2.14,9.1l-3.64.63c-.47-3.6-.95-6.06-1.73-8.94l3.23-.79Z"/>
      <path class="cls-1" d="M642.16,1326.04c-1.18,6.44-1.96,8.83-3.78,12.3-3.4,6.41-9.29,9.97-19.3,11.67q-.37-1.33-1.32-3.63c6.41-.93,10.88-2.75,13.9-5.65,2.06-1.99,3.66-4.71,5.04-8.57.65-1.85,1.04-3.41,1.55-6.67l-6.15-.87c-3-.42-7.91-1-10.87-1.31l.54-3.81c2.76.5,7.7,1.31,10.81,1.74l12.58,1.77,1.72-12.2c.61-4.36.93-6.64.99-8.25l3.81.93c.65.15.9.35.85.67-.05.33-.36.62-1.19.94l-2.59,18.41,12.42,1.75c3.43.48,8.13,1.03,10.92,1.31l-.54,3.81c-2.87-.51-7.54-1.28-10.86-1.75l-7.41-1.04-2.63,18.73c-.3,2.12.21,2.42,6.64,3.32,4.36.61,6.78.34,7.5-.78q.57-.92,1.44-6.29c1.51,1.1,2.24,1.48,3.64,2.12-1.16,5.45-1.76,6.97-3.12,7.95-1.49,1.12-4.9,1.25-10.23.5-8.93-1.26-10.32-2.06-9.8-5.71l2.86-20.37-7.41-1.04ZM633.81,1305.65c2.99,4.03,4.54,7.58,5.84,12.98l-4.06,1.21c-1.31-6.07-2.1-8.35-4.6-12.7l2.82-1.49ZM653.39,1321.62c4.72-5.17,6.8-8.1,8.79-12.32l3.72,2.36c.36.22.53.57.5.79-.05.38-.29.51-1.38.69-3.38,4.69-5.17,6.77-9.17,10.71l-2.46-2.23Z"/>
      <path class="cls-1" d="M691.49,1334.31c2.1-.61,2.94-.98,8.54-3.28,7.99-3.24,11.48-4.1,16.1-3.99,7.86.17,12.23,4.28,12.08,11.32-.16,7.15-4.43,11.4-14.4,14.26-1.83.56-4.65,1.16-8.46,1.85-.41-1.44-.83-2.27-1.74-3.67,4.41-.51,5.74-.7,8.17-1.25,8.35-1.8,12.61-5.56,12.73-11.17.11-5.11-2.85-7.99-8.41-8.11-4.45-.1-8.55,1.19-16.95,5.19-2.5,1.16-3.72,1.73-4.89,2.26q-.56.26-.95.47l-1.84-3.89Z"/>
      <path class="cls-1" d="M792,1313.32c.31.36.5.62.53.89.04.38-.28.58-.93.7-4.41.7-7.03,1.61-9.79,3.31-3.6,2.22-7.06,5.87-8.83,9.35-1.16,2.32-1.71,5.25-1.44,8.04.78,8.16,7.21,11.3,20.98,10.2-.55,1.16-.8,2.01-1.16,4.09-4.95.2-7.9.04-11.27-.58-7.2-1.3-11.56-5.91-12.21-12.76-.62-6.46,1.85-11.83,7.95-17.39q-10.35,3.31-15.88,5c-.37.15-1.23.39-2.36.78-1.13.33-1.99.58-2.47.73-1.61.49-1.82.56-2.84.93l-1.44-4.12c4.88-.91,12.16-2.88,23.82-6.31,10.59-3.11,11.93-3.52,15.25-5.16l2.1,2.29Z"/>
      <path class="cls-1" d="M831.66,1303.21c1.56,7.15,3.09,12.11,4.79,15.28q7.25-5.24,10.31-8.21l3.05,2.38c.4.31.55.44.58.6.12.54-.24.73-1.69,1.04-10.63,6.76-12.54,8.08-15.03,10.59-3.74,3.74-5.08,6.68-4.37,9.9.87,3.98,4.45,4.94,11.98,3.3,5.7-1.24,10.86-2.87,15.07-4.74.1.99.21,1.47.35,2.12.13.59.22,1.02.48,1.92-3.99,1.6-8.58,2.99-13.63,4.09-4.84,1.05-8.22,1.28-11.02.82-3.39-.56-5.9-3.05-6.67-6.6-1.08-4.94,1.46-9.83,7.72-14.97-2.21-3.96-2.78-5.53-5.45-15.19-.59-1.95-.62-2.06-1.62-5.39l4.12-.73c.48-.11.97.07,1.05.45.07.32-.06.75-.46,1.23l.46,2.1ZM846.6,1301.48c2.92,1,4.81,1.94,8,3.89l-1.62,2.89c-3.1-2.08-4.52-2.9-7.72-4.17l1.35-2.6ZM849.56,1295.94c2.87,1.01,4.81,1.94,8,3.89l-1.68,2.9c-3.05-2.1-4.52-2.9-7.72-4.17l1.4-2.61Z"/>
      <path class="cls-1" d="M894.29,1284.26c.73.1,1.08.26,1.19.58.13.36-.18.82-.98,1.21q-.5,3.26-1.78,12.32c-.32,2.44-.46,3.19-2,12.69,1.79-2.54,3.05-3.62,5.08-4.32,2.34-.81,4.79-.44,6.2.93,1.02.93,2.25,3.12,3.57,6.1,1.29,2.87,2.19,4.13,3.24,4.64.96.42,2.42.44,3.62.02,5.61-1.95,8.23-9.32,7.36-20.89,1.66.41,2.27.49,3.94.61.22,9.01-.36,12.7-2.57,17.08-1.7,3.33-4.52,5.76-8.11,7.01-2.39.83-5.02.64-6.75-.51-1.42-.9-2.5-2.51-4.11-5.97-2.42-5.45-3.82-6.65-6.37-5.77-2.39.83-4.27,3.46-5.25,7.53-.42,1.66-.5,2.09-1.05,6.36-.33,2.56-.4,2.87-.85,5.77-1.22-.51-2.27-.67-4.01-.65.84-3.78,2.75-16.73,3.98-27.29,1.31-11.17,1.64-15.41,1.38-18l4.27.56Z"/>
      <path class="cls-1" d="M948.4,1259.23c.47-.04.81.03.93.28.19.4.04.71-.53,1.42l.81,7.31c2.16-1.73,4-3.48,5.39-5.26l2.73,2.22c-2.51,2.75-4.72,4.75-7.74,6.84.38,3.3.64,7.34.74,11.94.11,5.88.09,6.2-.8,16.06-1.52-.48-2.26-.61-3.98-.51,1.33-7.93,1.64-16.1.87-25.45-2.3,1.31-2.87,1.64-4.55,2.46-1.38.67-2.3,1.06-4.23,1.88l-1.74-3.19c2.2-.77,3.78-1.41,5.8-2.4,1.48-.72,2.4-1.23,4.33-2.42-.57-4.93-1.27-8.75-1.96-10.67l3.92-.5ZM968.07,1272.59c-.81,1.86-.77,2.7.05,4.38.58,1.19,1.16,2.13,2.61,4.23.87,1.29,1.07,1.56,1.96,3.02q.34.57.68,1.02c5.07-.27,8.22-.09,13.42.8-.78,1.42-1.01,2.2-1.07,4.07-4.66-1.15-7.17-1.52-10.78-1.66.96,2.35,1.2,3.46,1.08,4.73-.3,2.78-2.24,4.95-5.85,6.71-4.99,2.44-9.24,1.63-11.1-2.18-1.81-3.71.08-7.87,4.53-10.04,1.83-.89,3.61-1.51,5.9-1.96-1.99-3.07-4-6.31-4.55-7.45-1.16-2.37-1.04-4.14.29-6.69l2.82,1.01ZM964.94,1290.39c-2.67,1.3-3.85,3.65-2.86,5.68,1.01,2.08,3.54,2.37,6.71.83,2.22-1.08,3.49-2.5,3.61-4.15.03-.69-.16-1.45-.59-2.59-.19-.52-.43-1.01-.67-1.51-2.09.23-4.31.82-6.19,1.73ZM962.23,1265.4c5.4-1.59,9.39-1.95,14.13-1.38l-.23,3.66c-4.79-.66-8.78-.43-13.37.95l-.53-3.23Z"/>
      <path class="cls-1" d="M1004.18,1227.05c.83-.34,1.39-.38,1.6-.05.21.32.15.43-.64,1.85.43.77.86,1.54,1.23,2.22,6.95,8.34,13.82,13.73,21.36,16.79,5.99,2.49,11.2,3.05,20.82,2.35-.47,1.81-.59,2.74-.57,4.49-7.02.27-12.23-.29-17.42-1.85-4.53-1.34-10.11-4.41-14.29-7.86-1.75-1.49-3.18-2.79-5.28-5.04,1.72,3.47,2.34,5.56,3.28,8.94,2.93,10.94,1.22,21.79-4.97,31.87-1.44-.91-2.01-1.19-3.36-1.56,3.97-6.94,5.58-12.04,5.9-18.66.27-5.87-.96-11.94-3.75-18.19-1.59-3.69-3.21-6.5-7.6-13.62l3.7-1.67Z"/>
      <path class="cls-1" d="M1071.08,1217.57l-2.21-2.67c-3.36-4.07-3.67-4.96-3.16-10.73.37-4.73.04-6.6-1.47-8.42-2-2.42-4.83-2.57-7.46-.39-2.97,2.45-3.12,5.29-.45,8.86l-3.52,2.91c-4.04-5.66-3.48-10.68,1.69-14.96,4.71-3.89,9.76-3.65,13.27.59,2.14,2.59,2.56,4.74,1.94,10.89-.46,4.88-.26,5.64,3.1,9.71.49.59.81.98,1.41,1.62l-3.14,2.59ZM1078.93,1219.21l3.82,4.62-4.62,3.82-3.82-4.62,4.62-3.82Z"/>
    </g>
    <g>
      <path class="cls-1" d="M382.58,1126.2l-10.36-8.41-7.32,4.68,3.02,2.45c.38.3.58.6.61.9.03.29-.06.57-.27.83-.2.25-.45.39-.75.43-.3.03-.63-.1-1.01-.41l-5.89-4.78c-.38-.3-.58-.61-.6-.91-.03-.3.06-.57.26-.82.21-.26.47-.41.76-.44.29-.03.63.11,1,.42l1.22.99,23.92-15.23-4.65-3.78c-.38-.3-.58-.6-.61-.89-.03-.29.06-.57.27-.83.21-.26.47-.41.76-.44.29-.03.63.11,1,.42l7.94,6.45-10.7,28.89,1.22.99c.38.3.58.6.61.89.03.29-.06.57-.27.83-.2.25-.45.39-.75.43s-.63-.1-1.01-.4l-5.87-4.77c-.39-.31-.59-.62-.62-.92-.03-.3.06-.57.26-.82.21-.26.47-.41.76-.44.29-.03.63.12,1.02.43l3,2.44,3.04-8.15ZM383.41,1123.96l5.99-16.27-.58-.47-14.57,9.31,9.16,7.44Z"/>
      <path class="cls-1" d="M410.69,1118.52l-8.72,12.15c4.06-1.45,7.49-1.17,10.31.85,2.41,1.73,3.77,4.18,4.09,7.35.32,3.17-.53,6.17-2.56,8.99-2.05,2.85-4.65,4.64-7.8,5.38-3.16.73-5.92.25-8.29-1.45-2.88-2.07-4.25-5.23-4.1-9.49l-2.58,3.6-3.87-2.78c-.39-.28-.61-.57-.66-.87s.03-.58.21-.84c.2-.28.44-.44.73-.48.29-.04.63.07,1.02.36l2.22,1.59,17.01-23.69-2.22-1.59c-.39-.28-.61-.57-.66-.87-.04-.3.03-.58.23-.86.19-.26.43-.42.73-.47.29-.05.64.06,1.03.34l3.87,2.78ZM412.1,1146.77c1.66-2.31,2.35-4.78,2.08-7.42-.27-2.63-1.37-4.63-3.28-6.01s-4.16-1.77-6.74-1.18c-2.58.58-4.7,2.03-6.36,4.34s-2.35,4.78-2.08,7.42c.27,2.63,1.36,4.63,3.28,6s4.16,1.77,6.74,1.18c2.58-.58,4.7-2.03,6.36-4.34Z"/>
      <path class="cls-1" d="M440.62,1165.22c-1.83,2.91-4.34,4.8-7.51,5.67-3.17.88-6.08.48-8.72-1.19-2.67-1.69-4.29-4.15-4.85-7.4-.56-3.24.07-6.31,1.9-9.2,1.83-2.91,4.34-4.8,7.51-5.69,3.17-.89,6.09-.49,8.76,1.2,2.64,1.67,4.25,4.12,4.83,7.37.57,3.24-.06,6.32-1.91,9.25ZM438.88,1164.12c1.51-2.39,2.03-4.91,1.56-7.56-.47-2.65-1.8-4.66-3.98-6.04-2.18-1.38-4.57-1.7-7.17-.98s-4.65,2.27-6.15,4.65c-1.49,2.36-2,4.87-1.54,7.54.46,2.66,1.78,4.68,3.96,6.06,2.18,1.38,4.57,1.7,7.17.98,2.6-.72,4.65-2.27,6.15-4.65Z"/>
      <path class="cls-1" d="M459.59,1189.23l1.59-2.89c-3.78,1.11-7.07.89-9.9-.67-1.74-.96-2.77-2.21-3.09-3.76-.41-2.02-.11-3.96.9-5.79l7.02-12.75-2.39-1.32c-.42-.23-.67-.49-.75-.78-.08-.29-.04-.58.13-.88.16-.28.38-.47.66-.55.29-.09.64-.01,1.07.22l4.17,2.3-8.12,14.75c-.71,1.29-.92,2.55-.65,3.78.28,1.24.96,2.16,2.07,2.76,2.89,1.59,6.36,1.58,10.4-.04l7.02-12.75-3.28-1.81c-.42-.23-.67-.49-.75-.78-.08-.29-.04-.58.13-.88.16-.28.38-.47.66-.55.29-.09.64-.01,1.07.22l5.06,2.79-10.13,18.4,1.5.83c.42.23.68.49.76.77s.04.57-.12.87c-.16.28-.38.47-.66.55-.29.09-.64.01-1.07-.22l-3.28-1.81Z"/>
      <path class="cls-1" d="M489.36,1178.27l9.96,4.73c.44.21.7.45.8.74.1.28.07.58-.07.89-.14.29-.35.49-.63.59-.28.1-.64.05-1.08-.16l-9.96-4.73-6.44,13.56c-.56,1.18-.6,2.37-.13,3.57.47,1.2,1.53,2.19,3.18,2.97,1.24.59,2.67,1.02,4.31,1.29,1.64.27,2.98.34,4.02.2.39-.07.68-.06.87.03.23.11.39.31.47.59.08.29.05.56-.08.84-.12.24-.32.42-.61.54-.72.31-2.12.35-4.22.12-2.09-.23-3.96-.74-5.61-1.52-2.14-1.02-3.58-2.38-4.31-4.1-.74-1.72-.66-3.52.24-5.41l6.44-13.56-3.38-1.61c-.44-.21-.7-.45-.8-.74-.1-.28-.07-.58.07-.89.14-.29.35-.49.63-.59.28-.1.64-.05,1.08.15l3.38,1.61,2.86-6.02c.23-.48.48-.79.76-.92.27-.13.54-.13.8,0,.28.13.45.34.53.64.08.29,0,.68-.23,1.17l-2.86,6.02Z"/>
    </g>
    <circle class="cls-1" cx="722.43" cy="722.43" r="20.73"/>
  </g>
</svg>