<?xml version="1.0" encoding="UTF-8"?>
<svg id="_レイヤー_2" data-name="レイヤー 2" xmlns="http://www.w3.org/2000/svg" viewBox="0 0 38.1 567.52">
  <defs>
    <style>
      .cls-1 {
        fill: #500a28;
      }
    </style>
  </defs>
  <g id="contents">
    <g>
      <path class="cls-1" d="M8.58,34.59V15.83c-.94,1.82-2,3.62-3.18,5.4-1.18,1.78-2.31,3.27-3.37,4.47-.1-.1-.3-.27-.58-.49-.29-.22-.57-.44-.84-.64-.27-.21-.48-.34-.6-.39.73-.68,1.51-1.57,2.34-2.69.83-1.12,1.66-2.32,2.48-3.61.82-1.29,1.56-2.55,2.22-3.8.66-1.25,1.18-2.34,1.54-3.28v-.35H1.21v-2.18h7.37V0h2.42v8.27h5.15v2.18h-5.15v3.16c.57.75,1.25,1.59,2.03,2.52.78.92,1.58,1.8,2.4,2.63.82.83,1.55,1.51,2.2,2.03-.1.08-.28.24-.53.49s-.49.49-.72.74c-.23.25-.38.42-.43.53-.83-.75-1.68-1.63-2.53-2.63-.86-1-1.66-2-2.42-2.98v17.67h-2.42ZM23.36,34.44c-.03-.36-.1-.81-.23-1.33-.13-.52-.26-.91-.39-1.17h4.41c.55,0,.94-.1,1.17-.31.23-.21.35-.57.35-1.09V10.88h-10.8v-2.3h10.8V.12h2.54v8.46h4.84v2.3h-4.84v20.28c0,2.18-1.21,3.28-3.63,3.28h-4.21ZM23.05,23.52c-.55-1.2-1.21-2.44-1.99-3.72-.78-1.29-1.65-2.46-2.61-3.53l1.99-1.29c.91,1.12,1.77,2.31,2.57,3.59.81,1.27,1.49,2.48,2.07,3.63-.13.05-.34.17-.62.35-.29.18-.57.36-.84.55-.27.18-.46.33-.57.43Z"/>
      <path class="cls-1" d="M26.68,78.58c-.03-.36-.1-.8-.21-1.31-.12-.51-.24-.89-.37-1.15h3.78c.55,0,.94-.1,1.17-.29.23-.2.35-.54.35-1.03v-27.38H5.62v31.12h-2.5v-33.38h30.73v30.19c0,1.09-.27,1.9-.82,2.44-.55.53-1.43.8-2.65.8h-3.71ZM10.02,71.99v-10.14h2.26v7.96h5.03v-11.58H7.41v-2.22h11.93c.39-.62.83-1.38,1.31-2.26.48-.88.94-1.77,1.38-2.65.44-.88.79-1.65,1.05-2.3l2.26.86c-.23.57-.55,1.23-.96,1.99-.4.75-.83,1.52-1.27,2.28-.44.77-.87,1.46-1.29,2.09h7.6v2.22h-9.83v11.58h4.99v-8h2.26v10.18H10.02ZM14.74,55.89c-.44-.99-.98-2-1.62-3.02-.64-1.03-1.25-1.94-1.85-2.75l2.03-1.13c.6.81,1.21,1.72,1.85,2.73.64,1.01,1.2,2.02,1.7,3-.1.05-.31.16-.62.33-.31.17-.61.33-.9.49-.29.16-.48.27-.58.35Z"/>
      <path class="cls-1" d="M2.18,120.82c-.03-.13-.13-.36-.31-.7-.18-.34-.37-.67-.57-.99-.19-.33-.34-.54-.45-.64,4.34-1.3,7.49-3.28,9.46-5.95,1.96-2.67,2.98-6.14,3.06-10.43H1.56v-2.38h15.56v-14.2h2.65v14.2h15.64v2.38h-12.05v14.04c0,.42.1.72.31.92.21.19.62.29,1.25.29h5.42c.78,0,1.42-.15,1.91-.45.49-.3.88-.84,1.17-1.64.29-.79.48-1.92.58-3.37.29.18.67.36,1.15.53.48.17.89.32,1.23.45-.18,1.87-.51,3.31-.98,4.31-.47,1-1.07,1.69-1.79,2.07-.73.38-1.62.57-2.69.57h-6.67c-1.27,0-2.16-.21-2.65-.62-.49-.42-.74-1.11-.74-2.07v-15.02h-4.88c-.1,4.68-1.25,8.58-3.43,11.7-2.18,3.12-5.64,5.46-10.37,7.02ZM10.41,97.97c-.31-.81-.77-1.76-1.36-2.87-.6-1.1-1.23-2.2-1.89-3.28-.66-1.08-1.25-1.97-1.77-2.67l2.38-1.13c.55.73,1.14,1.61,1.79,2.65.65,1.04,1.27,2.09,1.87,3.16.6,1.07,1.08,2.02,1.44,2.85-.16.05-.4.17-.74.35-.34.18-.68.36-1.01.55-.34.18-.57.31-.7.39ZM25.58,97.73c-.13-.1-.35-.24-.66-.41s-.62-.34-.94-.51c-.31-.17-.55-.28-.7-.33.55-.7,1.14-1.55,1.79-2.55s1.28-2.05,1.89-3.14c.61-1.09,1.11-2.09,1.5-3l2.5,1.09c-.44.94-.98,1.96-1.62,3.06-.64,1.11-1.29,2.16-1.95,3.18-.66,1.01-1.27,1.89-1.81,2.61Z"/>
      <path class="cls-1" d="M20.73,159.65c-.1-.32-.3-.72-.59-1.18-.3-.47-.57-.83-.81-1.07,2.15-.32,4.01-.97,5.59-1.96,1.58-.99,2.81-2.19,3.7-3.63.89-1.43,1.37-2.96,1.44-4.59.07-1.53-.13-2.95-.61-4.27-.48-1.32-1.18-2.48-2.11-3.48s-2.01-1.79-3.26-2.39c-1.25-.59-2.58-.92-4.01-1h-.52c-.15,2.52-.51,5.02-1.07,7.51-.57,2.49-1.3,4.78-2.2,6.86-.9,2.08-1.97,3.81-3.2,5.16-.72.79-1.47,1.26-2.26,1.42-.79.16-1.62.07-2.48-.28-.84-.35-1.6-.94-2.29-1.78-.69-.84-1.23-1.86-1.61-3.05-.38-1.2-.54-2.5-.46-3.9.1-2.1.59-4.03,1.46-5.79.88-1.76,2.05-3.29,3.53-4.59s3.18-2.28,5.09-2.96c1.91-.68,3.95-.96,6.12-.83,1.65.07,3.23.46,4.74,1.15,1.5.69,2.84,1.63,4.01,2.81,1.17,1.18,2.07,2.58,2.7,4.2s.89,3.4.8,5.35c-.15,3.03-1.24,5.64-3.27,7.81-2.04,2.17-4.84,3.66-8.42,4.48ZM9.03,154.44c.32.15.69.22,1.11.2.42-.01.84-.24,1.26-.68,1.04-1.11,1.96-2.6,2.78-4.46.81-1.86,1.48-3.94,2-6.23.52-2.29.85-4.64,1-7.03-2.05.3-3.87,1.01-5.48,2.13-1.6,1.12-2.88,2.53-3.83,4.22-.95,1.69-1.49,3.55-1.61,5.57-.07,1.55.18,2.89.76,4.01.58,1.12,1.25,1.88,2.02,2.28Z"/>
      <path class="cls-1" d="M8.22,205.08c-.05-.13-.19-.36-.42-.68-.23-.32-.46-.63-.7-.94-.24-.31-.43-.51-.56-.62,3.79-1.41,6.54-3.35,8.26-5.8,1.72-2.45,2.63-5.61,2.74-9.48-1.76.03-3.47.05-5.14.08-1.67.03-3.19.05-4.56.06-1.37.01-2.48.03-3.32.06-.84.03-1.33.04-1.46.04l-.12-2.52h1.46c.87,0,2-.01,3.4-.04,1.4-.03,2.96-.05,4.68-.06,1.72-.01,3.5-.03,5.34-.06,1.84-.03,3.62-.05,5.34-.08,1.72-.03,3.29-.05,4.7-.08,1.41-.03,2.55-.05,3.42-.08.87-.03,1.35-.04,1.46-.04l.04,2.52c-.13,0-.81,0-2.02.02-1.21.01-2.75.03-4.62.06-1.87.03-3.87.05-6,.08-.11,4.4-1.13,8.01-3.06,10.82-1.93,2.81-4.89,5.06-8.86,6.74ZM8.5,178.32l-.12-2.52c.11,0,.62,0,1.54-.02.92-.01,2.07-.03,3.44-.06,1.37-.03,2.82-.06,4.34-.1s2.96-.07,4.32-.1c1.36-.03,2.49-.05,3.4-.08.91-.03,1.41-.04,1.52-.04l.08,2.48c-.13,0-.65,0-1.56.02-.91.01-2.04.03-3.4.06-1.36.03-2.79.06-4.3.1-1.51.04-2.94.07-4.3.1-1.36.03-2.49.05-3.4.08-.91.03-1.43.05-1.56.08ZM32.98,181.28c-.32-.56-.76-1.19-1.32-1.88-.56-.69-1.14-1.36-1.74-2-.6-.64-1.14-1.16-1.62-1.56l1.44-1.08c.43.37.95.9,1.58,1.58.63.68,1.23,1.37,1.82,2.08.59.71,1.03,1.29,1.32,1.74l-1.48,1.12ZM36.26,178.48c-.35-.56-.81-1.17-1.38-1.84-.57-.67-1.17-1.31-1.78-1.94-.61-.63-1.17-1.13-1.68-1.5l1.4-1.08c.45.35,1,.85,1.64,1.52.64.67,1.26,1.34,1.86,2.02.6.68,1.06,1.25,1.38,1.7l-1.44,1.12Z"/>
      <path class="cls-1" d="M12.3,247.32c-.08-.13-.23-.34-.46-.62-.23-.28-.45-.56-.68-.84-.23-.28-.41-.47-.54-.58,4.03-1.73,6.94-4.03,8.74-6.88,1.8-2.85,2.7-6.41,2.7-10.68v-.44h-8.68v8.64h-2.56v-8.64c-1.68,0-3.22,0-4.62.02-1.4.01-2.55.02-3.46.02s-1.45.01-1.64.04v-2.56c.13,0,.65,0,1.56.02.91.01,2.07.02,3.5.02s2.98.01,4.66.04v-7.3c0-.81-.01-1.29-.04-1.42h2.68c0,.13,0,.61-.02,1.44-.01.83-.03,1.87-.04,3.14-.01,1.27-.02,2.65-.02,4.14h8.68v-2.32c0-.99,0-2.01-.02-3.08-.01-1.07-.03-2-.04-2.8-.01-.8-.02-1.28-.02-1.44h2.64v9.64c1.71-.03,3.27-.04,4.7-.04s2.61,0,3.56-.02c.95-.01,1.51-.02,1.7-.02v2.56c-.19-.03-.75-.04-1.68-.04s-2.12,0-3.56-.02c-1.44-.01-3.01-.02-4.72-.02v.44c0,4.83-1.02,8.81-3.06,11.94-2.04,3.13-5.13,5.69-9.26,7.66ZM32.46,221.96c-.32-.56-.75-1.19-1.3-1.88-.55-.69-1.12-1.36-1.72-2s-1.14-1.16-1.62-1.56l1.4-1.08c.45.37.99.9,1.62,1.58.63.68,1.23,1.37,1.82,2.06.59.69,1.03,1.28,1.32,1.76l-1.52,1.12ZM35.74,219.16c-.35-.56-.8-1.17-1.36-1.84s-1.15-1.31-1.76-1.94c-.61-.63-1.17-1.13-1.68-1.5l1.4-1.08c.45.35,1,.85,1.64,1.52.64.67,1.26,1.34,1.86,2.02.6.68,1.06,1.25,1.38,1.7l-1.48,1.12Z"/>
      <path class="cls-1" d="M18.86,287.16v-19.44c-2.29,1.65-4.67,3.18-7.14,4.58-2.47,1.4-4.87,2.62-7.22,3.66-.19-.35-.44-.74-.76-1.18s-.64-.81-.96-1.1c1.73-.64,3.57-1.45,5.5-2.44,1.93-.99,3.86-2.09,5.78-3.32,1.92-1.23,3.77-2.53,5.54-3.9,1.77-1.37,3.38-2.77,4.82-4.2,1.44-1.43,2.64-2.83,3.6-4.22l2.16,1.56c-1.15,1.49-2.46,2.97-3.94,4.42-1.48,1.45-3.07,2.85-4.78,4.18v21.4h-2.6Z"/>
      <path class="cls-1" d="M12.62,308c-.27-.29-.71-.69-1.32-1.2-.61-.51-1.29-1.04-2.04-1.6-.75-.56-1.46-1.07-2.14-1.52-.68-.45-1.23-.77-1.66-.96l1.68-2.16c.45.24,1.03.6,1.72,1.08.69.48,1.41.99,2.16,1.52.75.53,1.43,1.04,2.04,1.52s1.05.85,1.32,1.12l-1.76,2.2ZM7.34,325.88l-1.4-2.52c1.89-.53,3.86-1.27,5.9-2.2,2.04-.93,4.06-2,6.06-3.2,2-1.2,3.91-2.47,5.72-3.82,1.81-1.35,3.45-2.71,4.92-4.1,1.47-1.39,2.69-2.71,3.68-3.96.05.13.17.39.34.76.17.37.36.74.56,1.1.2.36.33.61.38.74-1.25,1.55-2.87,3.16-4.84,4.84-1.97,1.68-4.15,3.31-6.52,4.9-2.37,1.59-4.83,3.03-7.38,4.32-2.55,1.29-5.02,2.34-7.42,3.14Z"/>
      <path class="cls-1" d="M9.1,368.32c-.05-.13-.18-.37-.38-.7-.2-.33-.42-.66-.66-.98-.24-.32-.43-.53-.56-.64,5.17-1.81,9.46-4.41,12.86-7.8,3.4-3.39,5.79-7.61,7.18-12.68-1.07.03-2.39.06-3.98.1s-3.27.08-5.04.12c-1.77.04-3.5.09-5.18.14-1.68.05-3.18.09-4.5.12-1.32.03-2.3.05-2.94.08l-.2-2.84c.61.03,1.53.05,2.74.08,1.21.03,2.61.03,4.18.02,1.57-.01,3.19-.03,4.86-.06,1.67-.03,3.27-.05,4.82-.08,1.55-.03,2.91-.07,4.08-.12,1.17-.05,2.01-.11,2.52-.16l1.72.96c-1.31,6.03-3.81,11.07-7.52,15.14-3.71,4.07-8.37,7.17-14,9.3ZM34.22,344.04c-1.07,0-1.97-.37-2.72-1.12-.75-.75-1.12-1.65-1.12-2.72s.37-2.01,1.12-2.76c.75-.75,1.65-1.12,2.72-1.12s2.01.37,2.76,1.12c.75.75,1.12,1.67,1.12,2.76s-.37,1.97-1.12,2.72c-.75.75-1.67,1.12-2.76,1.12ZM34.22,342.8c.72,0,1.34-.25,1.86-.76.52-.51.78-1.12.78-1.84s-.26-1.33-.78-1.84c-.52-.51-1.14-.76-1.86-.76s-1.33.25-1.84.76-.76,1.12-.76,1.84.25,1.33.76,1.84c.51.51,1.12.76,1.84.76Z"/>
      <path class="cls-1" d="M7.42,403v-18.88h21.76v18.88H7.42ZM10.02,400.56h16.56v-13.96H10.02v13.96Z"/>
      <path class="cls-1" d="M10.7,436c-.32-.27-.78-.58-1.38-.94s-1.27-.73-2-1.12c-.73-.39-1.43-.73-2.1-1.04-.67-.31-1.21-.53-1.64-.66l1.28-2.36c.48.19,1.07.45,1.76.8.69.35,1.4.71,2.12,1.1.72.39,1.38.75,1.98,1.08s1.05.61,1.34.82l-1.36,2.32ZM8.22,449.12l-1.36-2.52c2.43-.77,4.91-1.8,7.44-3.08,2.53-1.28,4.98-2.72,7.34-4.32,2.36-1.6,4.51-3.25,6.46-4.96,1.95-1.71,3.55-3.37,4.8-5,.03.16.12.43.28.82.16.39.33.76.52,1.12.19.36.32.61.4.74-1.33,1.57-2.97,3.18-4.9,4.82-1.93,1.64-4.05,3.23-6.36,4.78-2.31,1.55-4.71,2.97-7.2,4.28-2.49,1.31-4.97,2.41-7.42,3.32ZM15.82,428c-.21-.21-.61-.54-1.2-.98-.59-.44-1.25-.91-2-1.4-.75-.49-1.45-.94-2.1-1.34-.65-.4-1.15-.67-1.5-.8l1.44-2.28c.43.24.97.57,1.64,1,.67.43,1.35.88,2.06,1.36s1.35.93,1.94,1.34c.59.41,1.03.74,1.32.98l-1.6,2.12ZM29.34,426.88c-.35-.53-.81-1.13-1.38-1.8-.57-.67-1.17-1.31-1.8-1.92-.63-.61-1.19-1.11-1.7-1.48l1.36-1.2c.45.37,1,.89,1.64,1.54.64.65,1.27,1.32,1.9,2,.63.68,1.1,1.25,1.42,1.7l-1.44,1.16ZM32.5,423.96c-.37-.53-.86-1.13-1.46-1.78-.6-.65-1.22-1.27-1.86-1.86-.64-.59-1.21-1.07-1.72-1.44l1.28-1.2c.48.35,1.05.83,1.72,1.46.67.63,1.32,1.27,1.96,1.92.64.65,1.12,1.21,1.44,1.66l-1.36,1.24Z"/>
      <path class="cls-1" d="M11.18,477.2v-2.2c.19,0,.79,0,1.82.02,1.03.01,2.32.02,3.88.02h5.02v-9.12h-6.48c-.75,0-1.19.01-1.32.04v-2.2c.16,0,.67,0,1.52.02.85.01,1.93.03,3.22.04,1.29.01,2.69.02,4.18.02s2.84,0,4.12-.02c1.28-.01,2.35-.03,3.2-.04.85-.01,1.35-.02,1.48-.02v2.2c-.11-.03-.52-.04-1.24-.04h-6.48v9.12c1.73,0,3.35,0,4.84-.02,1.49-.01,2.73-.02,3.7-.02h1.66v2.2c-.16-.03-.78-.04-1.86-.04H15.18c-1.12,0-2.03,0-2.74.02-.71.01-1.13.02-1.26.02Z"/>
      <path class="cls-1" d="M6.22,526c-.05-.13-.19-.35-.42-.66-.23-.31-.45-.61-.68-.92-.23-.31-.41-.51-.54-.62,3.36-1.36,6.53-3.13,9.52-5.3,2.99-2.17,5.64-4.63,7.96-7.36,2.32-2.73,4.15-5.61,5.48-8.62-.75.03-1.65.06-2.7.1-1.05.04-2.11.07-3.18.1-1.07.03-2.03.05-2.9.08-.87.03-1.5.04-1.9.04-1.33,1.79-2.85,3.48-4.54,5.08-1.69,1.6-3.53,3.03-5.5,4.28-.08-.11-.25-.29-.5-.56-.25-.27-.52-.53-.8-.78-.28-.25-.5-.42-.66-.5,2.05-1.2,3.97-2.65,5.76-4.34s3.37-3.53,4.74-5.5c1.37-1.97,2.43-3.95,3.18-5.92l2.44.88c-.35.85-.73,1.69-1.14,2.52-.41.83-.86,1.64-1.34,2.44.85-.03,1.87-.05,3.04-.08,1.17-.03,2.34-.05,3.5-.08,1.16-.03,2.15-.05,2.96-.08.81-.03,1.29-.05,1.42-.08l1.48.96c-1.28,3.55-3.13,6.91-5.56,10.08-2.43,3.17-5.27,6.03-8.52,8.56-3.25,2.53-6.79,4.63-10.6,6.28Z"/>
      <path class="cls-1" d="M14.98,567.52v-31h2.56v31h-2.56ZM29.38,555.32c-.77-.35-1.69-.81-2.76-1.38-1.07-.57-2.17-1.19-3.32-1.86-1.15-.67-2.22-1.33-3.22-1.98-1-.65-1.82-1.22-2.46-1.7l1.48-2.04c.64.48,1.46,1.03,2.46,1.66,1,.63,2.06,1.25,3.18,1.88,1.12.63,2.23,1.21,3.32,1.76,1.09.55,2.05.98,2.88,1.3-.11.11-.27.33-.5.66-.23.33-.44.67-.64,1s-.34.57-.42.7Z"/>
    </g>
  </g>
</svg>