<?xml version="1.0" encoding="UTF-8"?>
<svg id="_レイヤー_2" data-name="レイヤー 2" xmlns="http://www.w3.org/2000/svg" viewBox="0 0 474.92 102.47">
  <defs>
    <style>
      .cls-1 {
        fill: #500a28;
      }
    </style>
  </defs>
  <g id="_レイヤー_1-2" data-name="レイヤー 1">
    <g>
      <path class="cls-1" d="M5.73,29.61V5.15h-1.56c-.44,0-.75-.09-.94-.28-.19-.19-.29-.43-.29-.74s.1-.56.29-.75c.19-.19.51-.28.94-.28h9.93c1.55,0,2.97.36,4.25,1.07,1.28.72,2.26,1.53,2.93,2.44,1.16,1.55,2.04,3.18,2.64,4.91.42,1.25.64,2.73.64,4.44v2.83c0,2.1-.42,4.13-1.25,6.1s-2.23,3.69-4.17,5.15c-1.45,1.07-3.13,1.61-5.03,1.61H4.17c-.44,0-.75-.1-.94-.29s-.29-.44-.29-.73c0-.31.1-.56.29-.75.19-.19.51-.28.94-.28h1.56ZM7.58,29.61h6.7c1.55,0,3.01-.56,4.36-1.68,1.35-1.12,2.37-2.47,3.05-4.04.68-1.57,1.02-3.12,1.02-4.65v-3.71c0-1.27-.18-2.4-.55-3.39-.53-1.45-1.27-2.82-2.24-4.13-.53-.72-1.3-1.37-2.33-1.97-1.03-.59-2.13-.89-3.32-.89h-6.7v24.46Z"/>
      <path class="cls-1" d="M54.47,21.58h-18.81c.32,2.65,1.32,4.79,3,6.41,1.68,1.62,3.75,2.43,6.23,2.43,1.38,0,2.82-.25,4.33-.76s2.74-1.17,3.69-2c.28-.24.52-.37.73-.37.23,0,.44.1.62.3.18.2.26.44.26.72s-.12.54-.35.81c-.7.81-1.95,1.57-3.75,2.28-1.79.71-3.64,1.06-5.53,1.06-3.16,0-5.8-1.15-7.92-3.46-2.12-2.3-3.18-5.09-3.18-8.36,0-2.98.99-5.53,2.98-7.67,1.98-2.13,4.44-3.2,7.37-3.2s5.5,1.09,7.45,3.28c1.95,2.19,2.91,5.03,2.88,8.51ZM52.6,19.51c-.37-2.26-1.33-4.1-2.89-5.52s-3.42-2.12-5.57-2.12-4.01.7-5.56,2.1-2.52,3.25-2.9,5.54h16.92Z"/>
      <path class="cls-1" d="M79.38,11.87c0-.47.09-.81.26-1.03s.4-.32.66-.32c.28,0,.51.11.68.32s.26.57.26,1.07v3.52c0,.49-.09.84-.26,1.05s-.4.32-.68.32c-.25,0-.46-.09-.63-.27s-.27-.47-.3-.88c-.09-.98-.54-1.78-1.36-2.42-1.2-.91-2.79-1.37-4.77-1.37s-3.67.46-4.81,1.39c-.86.7-1.3,1.48-1.3,2.34,0,.98.51,1.79,1.54,2.44.7.46,2.04.81,4,1.05,2.56.31,4.34.66,5.34,1.05,1.42.57,2.48,1.36,3.17,2.37s1.04,2.1,1.04,3.27c0,1.74-.75,3.29-2.26,4.65-1.51,1.36-3.72,2.04-6.64,2.04s-5.3-.82-7.16-2.47c0,.55-.03.91-.09,1.07-.06.16-.17.3-.32.42s-.33.17-.52.17c-.26,0-.48-.11-.66-.32s-.26-.56-.26-1.05v-4.22c0-.49.08-.84.25-1.05s.39-.32.67-.32c.26,0,.49.1.67.3.18.2.27.48.27.82,0,.75.17,1.38.51,1.88.51.78,1.33,1.43,2.45,1.94s2.49.77,4.12.77c2.4,0,4.19-.5,5.36-1.49,1.17-.99,1.76-2.04,1.76-3.15,0-1.27-.59-2.29-1.78-3.05-1.2-.76-2.95-1.28-5.24-1.54s-3.94-.6-4.93-1.03c-1-.42-1.77-1.06-2.33-1.9-.56-.85-.83-1.76-.83-2.73,0-1.76.78-3.15,2.33-4.19,1.55-1.03,3.41-1.55,5.56-1.55,2.55,0,4.62.69,6.22,2.08Z"/>
      <path class="cls-1" d="M101.27,10.52v19.09h7.25c.45,0,.78.09.97.28.19.19.29.44.29.75,0,.29-.1.54-.29.73-.19.2-.51.29-.97.29h-16.35c-.44,0-.75-.1-.94-.29-.19-.2-.29-.44-.29-.73,0-.31.1-.56.29-.75.19-.19.51-.28.94-.28h7.25V12.6h-5.38c-.44,0-.76-.1-.96-.29s-.3-.44-.3-.73c0-.31.1-.56.29-.76.19-.2.51-.29.97-.29h7.23ZM101.2,0v5.3h-2.72V0h2.72Z"/>
      <path class="cls-1" d="M133.5,14.28v-3.76h4.33c.44,0,.75.1.94.29.19.2.29.45.29.76,0,.29-.1.54-.29.73-.19.2-.51.29-.94.29h-2.48v20.48c0,1.37-.26,2.59-.79,3.66-.35.72-.94,1.46-1.76,2.22-.82.76-1.57,1.31-2.24,1.64-.67.33-1.57.49-2.7.49h-5.23c-.44,0-.75-.09-.94-.28-.19-.19-.29-.44-.29-.74s.1-.56.29-.76c.19-.2.51-.29.94-.29l5.3.02c1.08,0,2.06-.31,2.93-.93.87-.62,1.59-1.52,2.16-2.71.32-.68.48-1.55.48-2.61v-6.15c-1.98,3.01-4.53,4.52-7.65,4.52-2.53,0-4.72-1.05-6.56-3.14-1.84-2.09-2.76-4.61-2.76-7.56s.92-5.46,2.76-7.54,4.02-3.12,6.56-3.12c3.12,0,5.67,1.5,7.65,4.49ZM133.5,20.46c0-2.41-.74-4.44-2.23-6.1s-3.26-2.49-5.33-2.49-3.84.83-5.32,2.5c-1.48,1.67-2.22,3.7-2.22,6.09s.74,4.45,2.22,6.12c1.48,1.67,3.25,2.5,5.32,2.5s3.84-.83,5.33-2.5c1.49-1.67,2.23-3.71,2.23-6.12Z"/>
      <path class="cls-1" d="M150.13,10.52v3.1c1.29-1.45,2.45-2.45,3.49-3s2.21-.83,3.52-.83c1.41,0,2.69.33,3.85,1,.82.49,1.56,1.3,2.23,2.43.67,1.13,1,2.29,1,3.48v12.92h1.56c.44,0,.75.09.94.28.19.19.29.44.29.75,0,.29-.1.54-.29.73s-.51.29-.94.29h-4.94c-.45,0-.78-.1-.97-.29s-.29-.44-.29-.73c0-.31.1-.56.29-.75.19-.19.51-.28.97-.28h1.54v-12.57c0-1.45-.48-2.67-1.43-3.67s-2.23-1.5-3.82-1.5c-1.22,0-2.27.27-3.16.82-.89.55-2.17,1.9-3.82,4.07v12.87h2.09c.44,0,.75.09.94.28.19.19.29.44.29.75,0,.29-.1.54-.29.73s-.51.29-.94.29h-6.02c-.44,0-.75-.1-.94-.29s-.29-.44-.29-.73c0-.31.1-.56.29-.75.19-.19.51-.28.94-.28h2.09V12.6h-1.56c-.44,0-.75-.1-.94-.29s-.29-.45-.29-.76c0-.29.1-.54.29-.73s.51-.29.94-.29h3.41Z"/>
      <path class="cls-1" d="M197.75,10.52v3.74c1.1-1.48,2.28-2.6,3.54-3.34s2.75-1.12,4.46-1.12c1.82,0,3.49.47,5.03,1.42s2.73,2.26,3.57,3.94c.84,1.68,1.26,3.46,1.26,5.31,0,2.95-.95,5.46-2.85,7.56-1.9,2.09-4.23,3.14-7,3.14-3.3,0-5.97-1.49-8.02-4.47v12.35h4.48c.44,0,.75.09.94.28s.29.44.29.75c0,.29-.1.54-.29.73s-.51.29-.94.29h-8.81c-.44,0-.75-.09-.94-.28s-.29-.44-.29-.74.1-.56.29-.75.51-.28.94-.28h2.48V12.6h-2.48c-.44,0-.75-.1-.94-.29s-.29-.45-.29-.76c0-.29.1-.54.29-.73s.51-.29.94-.29h4.33ZM213.75,20.46c0-2.36-.77-4.38-2.32-6.07s-3.43-2.53-5.66-2.53-4.14.85-5.69,2.54-2.33,3.71-2.33,6.05.78,4.39,2.33,6.08,3.45,2.54,5.69,2.54,4.09-.84,5.65-2.53,2.33-3.71,2.33-6.09Z"/>
      <path class="cls-1" d="M231.3,10.52v5.18c2.4-2.41,4.2-3.96,5.39-4.65,1.19-.69,2.3-1.04,3.31-1.04,1.1,0,2.12.41,3.07,1.23.94.82,1.42,1.45,1.42,1.87,0,.31-.09.57-.27.77-.18.2-.41.31-.69.31-.15,0-.27-.03-.37-.09-.1-.06-.29-.24-.57-.55-.51-.57-.96-.96-1.34-1.17s-.75-.32-1.12-.32c-.81,0-1.78.36-2.91,1.07s-3.1,2.47-5.9,5.25v11.23h8.17c.45,0,.78.09.97.28.19.19.29.44.29.75,0,.29-.1.54-.29.73s-.51.29-.97.29h-14.48c-.44,0-.75-.09-.94-.28-.19-.19-.29-.43-.29-.72,0-.28.09-.51.27-.7.18-.19.5-.28.96-.28h4.46V12.6h-3.41c-.44,0-.75-.1-.94-.29s-.29-.45-.29-.76c0-.29.09-.54.27-.73.18-.2.5-.29.96-.29h5.25Z"/>
      <path class="cls-1" d="M272.63,21.14c0,3.12-1.01,5.79-3.02,8.01s-4.44,3.32-7.28,3.32-5.31-1.11-7.32-3.33-3.01-4.89-3.01-8,1-5.8,3.01-8.02,4.45-3.33,7.32-3.33,5.27,1.11,7.28,3.32,3.02,4.89,3.02,8.03ZM270.76,21.14c0-2.57-.82-4.76-2.47-6.57-1.65-1.81-3.64-2.71-5.99-2.71s-4.34.91-5.99,2.72c-1.65,1.82-2.47,4-2.47,6.56s.82,4.72,2.47,6.54c1.65,1.82,3.64,2.73,5.99,2.73s4.34-.91,5.99-2.72c1.65-1.81,2.47-4,2.47-6.55Z"/>
      <path class="cls-1" d="M293.88,12.6h-10.96c-.44,0-.75-.1-.94-.29s-.29-.45-.29-.76c0-.29.09-.54.27-.73.18-.2.5-.29.96-.29h12.81v22.58c0,1.74-.32,3.2-.97,4.37s-1.61,2.12-2.9,2.86c-.89.5-1.96.76-3.19.76h-5.87c-.44,0-.75-.09-.94-.28s-.29-.44-.29-.74.1-.56.29-.76.51-.29.94-.29l5.82.02c1.57,0,2.83-.57,3.8-1.71.97-1.14,1.45-2.55,1.45-4.22V12.6ZM293.77,0v5.3h-2.72V0h2.72Z"/>
      <path class="cls-1" d="M329.91,21.58h-18.81c.32,2.65,1.32,4.79,3,6.41,1.68,1.62,3.75,2.43,6.23,2.43,1.38,0,2.82-.25,4.33-.76s2.74-1.17,3.69-2c.28-.24.52-.37.73-.37.23,0,.44.1.62.3.18.2.26.44.26.72s-.12.54-.35.81c-.7.81-1.95,1.57-3.75,2.28s-3.64,1.06-5.53,1.06c-3.16,0-5.8-1.15-7.92-3.46-2.12-2.3-3.17-5.09-3.17-8.36,0-2.98.99-5.53,2.98-7.67,1.98-2.13,4.44-3.2,7.37-3.2s5.5,1.09,7.45,3.28c1.95,2.19,2.91,5.03,2.88,8.51ZM328.04,19.51c-.37-2.26-1.33-4.1-2.89-5.52-1.56-1.42-3.42-2.12-5.57-2.12s-4.01.7-5.56,2.1-2.52,3.25-2.9,5.54h16.92Z"/>
      <path class="cls-1" d="M356.43,12.6v-.68c0-.5.09-.86.26-1.07s.4-.32.66-.32c.28,0,.51.11.68.32s.26.57.26,1.07v4.64c-.01.5-.11.86-.27,1.07-.17.21-.39.32-.67.32-.25,0-.46-.09-.63-.28-.17-.19-.27-.5-.3-.94-.09-1.16-.77-2.25-2.05-3.3-1.28-1.04-3.01-1.56-5.17-1.56-2.74,0-4.82.95-6.24,2.86s-2.13,4.08-2.13,6.54c0,2.65.78,4.84,2.35,6.57s3.6,2.59,6.09,2.59c1.44,0,2.9-.29,4.38-.88s2.83-1.53,4.03-2.83c.31-.33.58-.49.81-.49.25,0,.46.09.63.28.17.19.25.42.25.7,0,.7-.74,1.59-2.22,2.66-2.39,1.74-5.05,2.61-7.98,2.61s-5.42-1.05-7.33-3.16c-1.91-2.11-2.87-4.78-2.87-8.02s.98-6.05,2.93-8.23c1.96-2.18,4.42-3.27,7.39-3.27s5.2.94,7.12,2.81Z"/>
      <path class="cls-1" d="M373.74,10.52h10.02c.44,0,.75.1.94.29s.29.45.29.76c0,.29-.1.54-.29.73s-.51.29-.94.29h-10.02v13.65c0,1.19.43,2.18,1.29,2.98.86.8,2.11,1.2,3.77,1.2,1.25,0,2.59-.21,4.04-.62s2.58-.88,3.38-1.4c.29-.21.53-.32.73-.32.23,0,.44.1.62.3.18.2.26.44.26.72,0,.24-.1.47-.29.68-.47.54-1.61,1.12-3.42,1.75-1.81.63-3.54.94-5.2.94-2.15,0-3.87-.56-5.14-1.68s-1.91-2.64-1.91-4.54v-13.65h-3.41c-.44,0-.75-.1-.94-.29s-.29-.45-.29-.76c0-.29.1-.54.29-.73s.51-.29.94-.29h3.41v-6.05c0-.49.09-.84.26-1.05s.4-.32.66-.32c.28,0,.51.11.68.32s.26.56.26,1.05v6.05Z"/>
      <path class="cls-1" d="M445.46,21.14c0,3.12-1.01,5.79-3.02,8.01s-4.44,3.32-7.28,3.32-5.31-1.11-7.32-3.33-3.01-4.89-3.01-8,1-5.8,3.01-8.02,4.45-3.33,7.32-3.33,5.27,1.11,7.28,3.32,3.02,4.89,3.02,8.03ZM443.59,21.14c0-2.57-.82-4.76-2.47-6.57-1.65-1.81-3.64-2.71-5.99-2.71s-4.34.91-5.99,2.72c-1.65,1.82-2.47,4-2.47,6.56s.82,4.72,2.47,6.54c1.65,1.82,3.64,2.73,5.99,2.73s4.34-.91,5.99-2.72c1.65-1.81,2.47-4,2.47-6.55Z"/>
      <path class="cls-1" d="M462.73,12.6v17.02h8.11c.44,0,.75.09.94.28.19.19.29.44.29.75,0,.29-.1.54-.29.73s-.51.29-.94.29h-14.44c-.44,0-.75-.1-.94-.29s-.29-.44-.29-.73c0-.31.1-.56.29-.75.19-.19.51-.28.94-.28h4.46V12.6h-4c-.44,0-.75-.1-.94-.29s-.29-.45-.29-.76c0-.29.1-.54.29-.73s.51-.29.94-.29h4v-3.1c0-1.73.63-3.22,1.89-4.49s2.93-1.9,5.01-1.9c1.74,0,3.6.18,5.58.54.75.13,1.2.29,1.35.46.15.18.23.42.23.71s-.09.53-.26.72c-.18.19-.41.28-.7.28-.12,0-.31-.02-.59-.07-2.21-.37-4.08-.56-5.6-.56-1.61,0-2.85.44-3.72,1.32s-1.31,1.88-1.31,3v3.1h8.64c.44,0,.75.1.94.29s.29.45.29.76c0,.29-.1.54-.29.73s-.51.29-.94.29h-8.64Z"/>
      <path class="cls-1" d="M14.19,93.1h-2.11l-7.1-17.94h-.35v24.46h3.41c.44,0,.75.09.94.28.19.19.29.44.29.75,0,.29-.1.54-.29.73s-.51.29-.94.29H1.23c-.44,0-.75-.1-.94-.29s-.29-.44-.29-.73c0-.31.1-.56.29-.75.19-.19.51-.28.94-.28h1.56v-24.46h-1.16c-.44,0-.75-.09-.94-.28-.19-.19-.29-.43-.29-.74s.1-.56.29-.75c.19-.19.51-.28.94-.28h4.53l6.99,17.68,6.88-17.68h4.53c.45,0,.78.09.97.28.19.19.29.44.29.75s-.1.56-.29.74c-.19.19-.51.28-.97.28h-1.14v24.46h1.54c.45,0,.78.09.97.28.19.19.29.44.29.75,0,.29-.1.54-.29.73s-.51.29-.97.29h-6.79c-.44,0-.76-.1-.96-.29s-.3-.44-.3-.73c0-.31.1-.56.29-.75.19-.19.51-.28.97-.28h3.41v-24.46h-.4l-6.97,17.94Z"/>
      <path class="cls-1" d="M52.6,101.67v-3c-2.52,2.54-5.24,3.81-8.17,3.81-1.8,0-3.17-.55-4.11-1.64-1.22-1.43-1.82-3.1-1.82-5v-13.23h-2.48c-.44,0-.75-.1-.94-.29-.19-.2-.29-.45-.29-.76,0-.29.1-.54.29-.73.19-.2.51-.29.94-.29h4.33v15.31c0,1.33.38,2.43,1.14,3.3.76.86,1.71,1.29,2.86,1.29,3,0,5.76-1.53,8.26-4.59v-13.23h-3.41c-.44,0-.75-.1-.94-.29-.19-.2-.29-.45-.29-.76,0-.29.1-.54.29-.73.19-.2.51-.29.94-.29h5.25v19.09h1.56c.44,0,.75.09.94.28.19.19.29.44.29.75,0,.29-.1.54-.29.73-.19.2-.51.29-.94.29h-3.41Z"/>
      <path class="cls-1" d="M71.98,80.52v5.18c2.4-2.41,4.2-3.96,5.39-4.65,1.19-.69,2.3-1.04,3.31-1.04,1.1,0,2.12.41,3.06,1.23.94.82,1.42,1.45,1.42,1.87,0,.31-.09.57-.27.77-.18.2-.41.31-.69.31-.15,0-.27-.03-.37-.09-.1-.06-.29-.24-.57-.55-.51-.57-.96-.96-1.34-1.17-.38-.21-.75-.32-1.12-.32-.81,0-1.78.36-2.91,1.07s-3.1,2.47-5.9,5.25v11.23h8.17c.45,0,.78.09.97.28.19.19.29.44.29.75,0,.29-.1.54-.29.73-.19.2-.51.29-.97.29h-14.48c-.44,0-.75-.09-.94-.28-.19-.19-.29-.43-.29-.72,0-.28.09-.51.27-.7.18-.19.5-.28.96-.28h4.46v-17.09h-3.41c-.44,0-.75-.1-.94-.29-.19-.2-.29-.45-.29-.76,0-.29.09-.54.27-.73s.5-.29.96-.29h5.25Z"/>
      <path class="cls-1" d="M108.29,101.67v-2.95c-2.68,2.51-5.54,3.76-8.59,3.76-2.21,0-3.94-.62-5.19-1.87s-1.87-2.77-1.87-4.58c0-1.99.82-3.72,2.46-5.2s4.04-2.22,7.19-2.22c.85,0,1.77.06,2.77.18s2.07.31,3.23.57v-3.32c0-1.12-.47-2.1-1.41-2.93s-2.34-1.25-4.22-1.25c-1.44,0-3.45.46-6.04,1.39-.47.16-.77.24-.9.24-.23,0-.44-.1-.6-.29-.17-.2-.25-.44-.25-.73,0-.28.07-.5.22-.66.21-.24,1.03-.58,2.48-1,2.29-.68,4.01-1.03,5.19-1.03,2.33,0,4.15.64,5.45,1.92,1.3,1.28,1.96,2.72,1.96,4.33v13.57h2.46c.45,0,.78.09.97.28.19.19.29.44.29.75,0,.29-.1.54-.29.73s-.51.29-.97.29h-4.33ZM108.29,91.46c-.86-.28-1.78-.48-2.75-.61s-1.98-.2-3.05-.2c-2.68,0-4.78.64-6.28,1.93-1.14.96-1.71,2.11-1.71,3.44,0,1.24.44,2.28,1.31,3.12.87.85,2.14,1.27,3.81,1.27s3.08-.35,4.45-1.06c1.37-.71,2.78-1.83,4.23-3.38v-4.52Z"/>
      <path class="cls-1" d="M142.11,91.14c0,3.12-1.01,5.79-3.02,8.01s-4.44,3.32-7.28,3.32-5.31-1.11-7.32-3.33c-2.01-2.22-3.01-4.89-3.01-8s1-5.8,3.01-8.02c2.01-2.22,4.45-3.33,7.32-3.33s5.27,1.11,7.28,3.32,3.02,4.89,3.02,8.03ZM140.24,91.14c0-2.57-.82-4.76-2.47-6.57s-3.64-2.71-5.99-2.71-4.34.91-5.99,2.72c-1.65,1.82-2.47,4-2.47,6.56s.82,4.72,2.47,6.54,3.64,2.73,5.99,2.73,4.34-.91,5.99-2.72c1.65-1.81,2.47-4,2.47-6.55Z"/>
      <path class="cls-1" d="M155.05,92.53v9.13h-4.33c-.44,0-.75-.1-.94-.29-.19-.2-.29-.44-.29-.73,0-.31.1-.56.29-.75.19-.19.51-.28.94-.28h2.48v-26.51h-2.48c-.44,0-.75-.1-.94-.29-.19-.2-.29-.45-.29-.76,0-.29.1-.54.29-.73.19-.2.51-.29.94-.29h4.33v18.9l7.84-7.32h-.94c-.44,0-.75-.1-.94-.29-.19-.2-.29-.44-.29-.73,0-.31.1-.56.29-.76.19-.2.51-.29.94-.29h5.91c.45,0,.78.1.97.29.19.2.29.45.29.76,0,.29-.1.54-.29.73-.19.2-.51.29-.97.29h-2.13l-7.21,6.69,9.12,10.33h2.13c.45,0,.78.09.97.28.19.19.29.44.29.75,0,.29-.1.54-.29.73-.19.2-.51.29-.97.29h-5.98c-.44,0-.75-.1-.94-.29-.19-.2-.29-.44-.29-.73,0-.31.1-.56.29-.75.19-.19.51-.28.94-.28h1.3l-7.93-9.06-2.11,1.98Z"/>
      <path class="cls-1" d="M192.91,101.67v-2.95c-2.68,2.51-5.54,3.76-8.59,3.76-2.21,0-3.94-.62-5.19-1.87s-1.87-2.77-1.87-4.58c0-1.99.82-3.72,2.46-5.2s4.04-2.22,7.19-2.22c.85,0,1.77.06,2.77.18s2.07.31,3.23.57v-3.32c0-1.12-.47-2.1-1.41-2.93s-2.34-1.25-4.22-1.25c-1.44,0-3.45.46-6.04,1.39-.47.16-.77.24-.9.24-.23,0-.44-.1-.6-.29s-.25-.44-.25-.73c0-.28.07-.5.22-.66.21-.24,1.03-.58,2.48-1,2.29-.68,4.01-1.03,5.19-1.03,2.33,0,4.15.64,5.45,1.92,1.3,1.28,1.96,2.72,1.96,4.33v13.57h2.46c.45,0,.78.09.97.28.19.19.29.44.29.75,0,.29-.1.54-.29.73s-.51.29-.97.29h-4.33ZM192.91,91.46c-.86-.28-1.78-.48-2.75-.61s-1.98-.2-3.05-.2c-2.68,0-4.78.64-6.28,1.93-1.14.96-1.71,2.11-1.71,3.44,0,1.24.44,2.28,1.31,3.12.87.85,2.14,1.27,3.81,1.27s3.08-.35,4.45-1.06c1.37-.71,2.78-1.83,4.23-3.38v-4.52Z"/>
      <path class="cls-1" d="M242.46,87.85h-12.24v11.77h2.48c.44,0,.75.09.94.28.19.19.29.44.29.75,0,.29-.1.54-.29.73s-.51.29-.94.29h-6.42c-.44,0-.75-.1-.94-.29s-.29-.44-.29-.73c0-.31.1-.56.29-.75.19-.19.51-.28.94-.28h2.09v-24.46h-1.14c-.45,0-.78-.09-.97-.28-.19-.19-.29-.43-.29-.74s.1-.56.29-.75c.19-.19.51-.28.97-.28h5.47c.44,0,.75.09.94.28.19.19.29.44.29.75s-.1.56-.29.74c-.19.19-.51.28-.94.28h-2.48v10.64h12.24v-10.64h-2.46c-.44,0-.75-.09-.94-.28-.19-.19-.29-.43-.29-.74s.09-.56.27-.75c.18-.19.5-.28.96-.28h5.47c.45,0,.78.09.97.28.19.19.29.44.29.75s-.1.56-.29.74c-.19.19-.51.28-.97.28h-1.14v24.46h2.09c.44,0,.75.09.94.28.19.19.29.44.29.75,0,.29-.1.54-.29.73s-.51.29-.94.29h-6.42c-.44,0-.75-.1-.94-.29s-.29-.44-.29-.73c0-.31.09-.56.27-.75.18-.19.5-.28.96-.28h2.46v-11.77Z"/>
      <path class="cls-1" d="M267.79,80.52v19.09h7.25c.45,0,.78.09.97.28.19.19.29.44.29.75,0,.29-.1.54-.29.73s-.51.29-.97.29h-16.35c-.44,0-.75-.1-.94-.29s-.29-.44-.29-.73c0-.31.1-.56.29-.75.19-.19.51-.28.94-.28h7.25v-17.02h-5.38c-.44,0-.76-.1-.96-.29-.2-.2-.3-.44-.3-.73,0-.31.1-.56.29-.76s.51-.29.97-.29h7.23ZM267.73,70v5.3h-2.72v-5.3h2.72Z"/>
      <path class="cls-1" d="M290.07,92.53v9.13h-4.33c-.44,0-.75-.1-.94-.29s-.29-.44-.29-.73c0-.31.1-.56.29-.75.19-.19.51-.28.94-.28h2.48v-26.51h-2.48c-.44,0-.75-.1-.94-.29s-.29-.45-.29-.76c0-.29.1-.54.29-.73s.51-.29.94-.29h4.33v18.9l7.84-7.32h-.94c-.44,0-.75-.1-.94-.29s-.29-.44-.29-.73c0-.31.1-.56.29-.76s.51-.29.94-.29h5.91c.45,0,.78.1.97.29s.29.45.29.76c0,.29-.1.54-.29.73s-.51.29-.97.29h-2.13l-7.21,6.69,9.12,10.33h2.13c.45,0,.78.09.97.28.19.19.29.44.29.75,0,.29-.1.54-.29.73s-.51.29-.97.29h-5.98c-.44,0-.75-.1-.94-.29s-.29-.44-.29-.73c0-.31.1-.56.29-.75.19-.19.51-.28.94-.28h1.3l-7.93-9.06-2.11,1.98Z"/>
      <path class="cls-1" d="M327.93,101.67v-2.95c-2.68,2.51-5.54,3.76-8.59,3.76-2.21,0-3.94-.62-5.19-1.87s-1.87-2.77-1.87-4.58c0-1.99.82-3.72,2.46-5.2s4.04-2.22,7.19-2.22c.85,0,1.77.06,2.77.18s2.07.31,3.23.57v-3.32c0-1.12-.47-2.1-1.41-2.93s-2.34-1.25-4.22-1.25c-1.44,0-3.45.46-6.04,1.39-.47.16-.77.24-.9.24-.23,0-.44-.1-.6-.29s-.25-.44-.25-.73c0-.28.07-.5.22-.66.21-.24,1.03-.58,2.48-1,2.29-.68,4.01-1.03,5.19-1.03,2.33,0,4.15.64,5.45,1.92,1.3,1.28,1.96,2.72,1.96,4.33v13.57h2.46c.45,0,.78.09.97.28.19.19.29.44.29.75,0,.29-.1.54-.29.73s-.51.29-.97.29h-4.33ZM327.93,91.46c-.86-.28-1.78-.48-2.75-.61s-1.98-.2-3.05-.2c-2.68,0-4.78.64-6.28,1.93-1.14.96-1.71,2.11-1.71,3.44,0,1.24.44,2.28,1.31,3.12.87.85,2.14,1.27,3.81,1.27s3.08-.35,4.45-1.06c1.37-.71,2.78-1.83,4.23-3.38v-4.52Z"/>
      <path class="cls-1" d="M349.22,80.52v5.18c2.4-2.41,4.2-3.96,5.39-4.65,1.19-.69,2.3-1.04,3.31-1.04,1.1,0,2.12.41,3.07,1.23.94.82,1.42,1.45,1.42,1.87,0,.31-.09.57-.27.77-.18.2-.41.31-.69.31-.15,0-.27-.03-.37-.09-.1-.06-.29-.24-.57-.55-.51-.57-.96-.96-1.34-1.17s-.75-.32-1.12-.32c-.81,0-1.78.36-2.91,1.07s-3.1,2.47-5.9,5.25v11.23h8.17c.45,0,.78.09.97.28.19.19.29.44.29.75,0,.29-.1.54-.29.73s-.51.29-.97.29h-14.48c-.44,0-.75-.09-.94-.28-.19-.19-.29-.43-.29-.72,0-.28.09-.51.27-.7.18-.19.5-.28.96-.28h4.46v-17.09h-3.41c-.44,0-.75-.1-.94-.29s-.29-.45-.29-.76c0-.29.09-.54.27-.73.18-.2.5-.29.96-.29h5.25Z"/>
      <path class="cls-1" d="M386.55,101.67v-3c-2.52,2.54-5.24,3.81-8.17,3.81-1.8,0-3.17-.55-4.11-1.64-1.22-1.43-1.82-3.1-1.82-5v-13.23h-2.48c-.44,0-.75-.1-.94-.29s-.29-.45-.29-.76c0-.29.1-.54.29-.73s.51-.29.94-.29h4.33v15.31c0,1.33.38,2.43,1.14,3.3s1.71,1.29,2.86,1.29c3,0,5.76-1.53,8.26-4.59v-13.23h-3.41c-.44,0-.75-.1-.94-.29s-.29-.45-.29-.76c0-.29.1-.54.29-.73s.51-.29.94-.29h5.25v19.09h1.56c.44,0,.75.09.94.28.19.19.29.44.29.75,0,.29-.1.54-.29.73s-.51.29-.94.29h-3.41Z"/>
    </g>
  </g>
</svg>