<?xml version="1.0" encoding="UTF-8"?>
<svg id="_レイヤー_2" data-name="レイヤー 2" xmlns="http://www.w3.org/2000/svg" viewBox="0 0 125.3 539.2">
  <defs>
    <style>
      .cls-1 {
        fill: #500a28;
      }
    </style>
  </defs>
  <g id="_レイヤー_1-2" data-name="レイヤー 1">
    <g>
      <path class="cls-1" d="M90.7,21.1c3.2,1.95,5.4,3.65,7.9,6.2l-2.3,3c-1.35-1.75-3.65-4.05-5.6-5.6v8.6c0,6.7.1,11.4.25,14.6h-3.65c.15-3.25.2-8.15.2-14.6v-8.8c-2.2,5.6-4.4,9.35-7.8,13.55-1.1-1.8-1.3-2.1-2.05-2.9,3.6-4.85,5.2-7.5,7.05-12,1.35-3.35,1.95-5.05,2.4-7.35h-4.45c-1.3,0-2.9.05-3.95.1v-3.3c1.1.05,2.9.1,3.95.1h4.85c-.05-6-.15-9.7-.3-11.05l3.75.4c.45.05.75.2.75.45,0,.3-.25.6-.9,1-.1,2.15-.1,4.9-.1,9.2h4.5c1.05,0,2.85-.05,4-.1v3.3c-1.1-.05-2.65-.1-4-.1h-4.5v5.3ZM118.05,29.8c0,2.55.05,5.8.15,12.65,0,.1.05.2.05.55,0,2.05-.5,3-1.85,3.65-1.45.75-2.55.9-7.15,1-.15-1.8-.35-2.6-1-3.8,1.9.1,3.05.15,4.35.15,1.9,0,2.1-.2,2.1-2.05V15.8h-10.05c-1.35,0-2.9.05-4,.1v-3.3c1.15.05,2.95.1,4,.1h10.05c-.05-5.9-.15-9.55-.35-10.85l3.95.35c.45.05.75.25.75.5,0,.3-.25.55-.9.95-.05,1.5-.05,1.7-.1,9.05h3.1c1.05,0,2.85-.05,3.95-.1v3.3c-1.05-.05-2.65-.1-3.95-.1h-3.1v14ZM104.4,22.1c2.85,2.4,4.5,4.25,6.8,7.85l-2.75,2.25c-2.55-4.15-3.25-5.05-6.2-8.25l2.15-1.85Z"/>
      <path class="cls-1" d="M81.8,71.2q-.05-8.2-.15-9.75c2.65.15,6.55.25,9.95.25h20.55c3.35,0,7.3-.1,9.95-.25q-.1,1.55-.15,9.75v22.95c0,.9.1,3.6.15,5.35v.65c0,3.55-1.55,4.4-8.1,4.5-.1-1.85-.2-2.25-.95-3.8,1.45.1,2.3.15,3.4.15,1.9,0,2.15-.2,2.15-2.05v-34.15h-33.45v28.3q.05,9.7.15,11.8h-3.65q.05-2.1.15-9.75v-23.95ZM103.6,92.65h6.2v-3.65c0-4-.05-6.1-.2-7.55l3.6.35c.6.05.85.25.85.5,0,.3-.25.6-.95,1-.05,2.05-.05,3.95-.05,5.7v3.25c0,2.35.05,4.8.1,6.15h-3.35v-2.75h-15.85v3.9h-3.4c.1-1.85.15-4.3.15-7.3v-3.25c0-3.95-.05-5.8-.15-7.55l3.55.35c.6.05.85.25.85.5,0,.3-.25.6-.95,1-.05,2.05-.05,3.95-.05,5.7v3.65h6.35v-14.05h-7.5c-1.65,0-4.45.05-6,.1v-3.2c1.5.1,4.05.15,6,.15h10.85c1.45-2.8,2.5-5.5,3.75-9.5l3.45,1.5c.35.15.6.35.6.6,0,.35-.3.5-1.05.65-1.8,3.8-2.45,5.25-3.3,6.75h3.7c1.9,0,4.45-.05,5.95-.15v3.2c-1.5-.05-4.3-.1-5.95-.1h-7.2v14.05ZM95.25,66.5c1.8,2.75,2.75,4.45,4,7.5l-3.05,1.4c-1.25-3.05-2.25-5.1-3.6-7.45l2.65-1.45Z"/>
      <path class="cls-1" d="M98,137.45c-.25,5.95-.65,8.2-1.85,11.55-2.25,6.2-7.1,10.15-15.9,12.95q-.5-1.15-1.65-3.1c5.65-1.65,9.45-3.85,11.8-6.85,1.6-2.05,2.7-4.7,3.45-8.35.35-1.75.5-3.2.55-6.2h-5.65c-2.75,0-7.25.1-9.95.2v-3.5c2.55.1,7.1.2,9.95.2h11.55v-11.2c0-4,0-6.1-.15-7.55l3.55.35c.6.05.85.2.85.5s-.25.6-.95,1v16.9h11.4c3.15,0,7.45-.1,10-.2v3.5c-2.65-.1-6.95-.2-10-.2h-6.8v17.2c0,1.95.5,2.15,6.4,2.15,4,0,6.15-.55,6.65-1.65q.4-.9.5-5.85c1.5.8,2.2,1.05,3.55,1.45-.35,5.05-.7,6.5-1.8,7.55-1.2,1.2-4.25,1.75-9.15,1.75-8.2,0-9.55-.55-9.55-3.9v-18.7h-6.8ZM87.9,120.15c3.2,3.25,5.05,6.25,6.9,10.95l-3.5,1.6c-1.95-5.3-2.95-7.25-5.75-10.85l2.35-1.7ZM107.55,132.05c3.6-5.25,5.1-8.15,6.35-12.2l3.65,1.65c.35.15.55.45.55.65,0,.35-.2.5-1.15.8-2.45,4.65-3.8,6.75-6.9,10.8l-2.5-1.7Z"/>
      <path class="cls-1" d="M102.85,184.45c.3.1.6.4.6.6,0,.25-.2.55-.7.85-1.1,6.15-2.1,9.95-3.75,14.2-2.95,7.45-5.7,10.45-9.75,10.45-4.35,0-7.25-4.15-7.25-10.4,0-6.95,4.2-13.45,10.85-16.9,3.1-1.6,6.5-2.4,10.35-2.4,6.4,0,12.05,2.3,15.45,6.35,2.2,2.6,3.3,5.95,3.3,10,0,5.8-2.7,10.25-8.25,13.6-2.15,1.35-3.25,1.8-8.4,3.65-.75-1.95-.9-2.2-1.85-3.3,5.05-1.5,6.75-2.25,9.3-3.95,3.6-2.5,5.45-5.9,5.45-10.15,0-4.65-1.85-8.2-5.5-10.55-2.5-1.6-6.35-2.75-9.4-2.75q-.4,0-2.2.1l1.75.6ZM90.8,188.45c-3.4,3.3-5.25,7.35-5.25,11.7,0,4,1.55,7,3.65,7s3.9-1.95,5.85-6.5c2.45-5.75,4.15-12.5,4.15-16.6-4.15,1.15-6.1,2.2-8.4,4.4Z"/>
      <path class="cls-1" d="M24.5,22c-.65,5.45-1.15,7.4-2.7,10.6-2.55,5.25-6,8.75-12.35,12.55-.6-1.2-1.25-2-2.25-2.8,6.1-3.6,9.25-6.65,11.45-11.15,1.35-2.8,1.75-4.45,2.2-9.2h-11.2c-2.15,0-4.95.05-7,.1v-3.55c1.9.05,4.75.15,7,.15h24.4c2,0,5.25-.1,6.95-.15v3.55c-1.8-.05-5.05-.1-6.95-.1h-9.55ZM33.2,11.15c-1.4-.05-3.5-.1-5-.1h-13.1c-1.45,0-3.55.05-5,.1v-3.6c1.45.05,3.55.1,5,.1h13.1c1.5,0,3.6-.05,5-.1v3.6ZM36.55,4.35c2.35,1.45,3.9,2.65,6.35,5l-2.05,2.25c-2.3-2.45-3.45-3.45-6.05-5.2l1.75-2.05ZM40.25,0c2.35,1.45,3.85,2.65,6.3,5l-2,2.25c-2.35-2.45-3.45-3.45-6.05-5.2l1.75-2.05Z"/>
      <path class="cls-1" d="M27.55,72v-9.15c0-1.4-.05-2.5-.1-3.2l3.65.3c.7.1.95.25.95.55s-.25.55-.95,1v10.5h3.55c2.75,0,6.75-.05,9-.15v3.45c-2.35-.1-6.35-.15-9-.15h-3.55c-.15,3.8-.3,6.35-.55,7.55-1.35,7.75-5.95,13.05-16,18.25-.5-1.1-1.2-2.05-2.25-3.05,5.8-2.65,9.95-5.8,12.3-9.35,2.2-3.25,2.8-6,2.95-13.4h-11.45v4c0,3.35.05,5.9.1,7.3h-3.7c.1-1.75.15-4.05.15-7.3v-4h-3.7c-2.45,0-6.8.05-8.95.15v-3.45c2.05.05,6.4.15,8.95.15h3.7v-2.85c0-4-.05-6.15-.15-7.5l3.7.3c.6.05.9.25.9.55,0,.25-.25.5-.95.95q-.05,2.2-.05,5.7v2.85h11.45ZM35.9,61.35c2.35,1.5,3.85,2.7,6.3,5.05l-2,2.2c-2.35-2.45-3.45-3.4-6.05-5.15l1.75-2.1ZM39.55,57.05c2.35,1.45,3.9,2.65,6.35,5l-2.05,2.2c-2.3-2.45-3.45-3.4-6-5.15l1.7-2.05Z"/>
      <path class="cls-1" d="M25.3,128.7c.5,0,.85.25.85.55,0,.25-.25.55-.95.95q-.05,1.7-.05,7.15v10.05l.05,8.75h-3.85c.1-2.75.15-5.35.15-8.75v-12.65c0-.3-.05-.85-.05-1.5v-1.2c-6.2,5.5-9.1,7.65-16.45,12.1-.85-1.5-.9-1.6-2.1-2.85,7.95-4.65,13.35-8.7,18.75-14.2,4.3-4.3,7.2-8.05,9.6-12.45l3,1.4c.4.2.6.4.6.65,0,.35-.3.55-1,.8-3,4.35-6.1,8.2-9,11.2h.45Z"/>
      <path class="cls-1" d="M8,175.5c4.2,2.25,6.25,3.9,9.05,7.2l-2.85,2.75c-3.1-3.55-5.25-5.4-8.4-7.25l2.2-2.7ZM7.05,203c6.2-2.55,11.35-5.45,16.75-9.5,6.1-4.55,9.95-8.5,15.1-15.3.5,1.15,1.25,2.1,2.25,2.95-6.15,7.5-9.8,11.15-15.5,15.45-3.9,2.95-7.05,4.9-14.65,9.15-.2.7-.4,1-.75,1-.25,0-.6-.2-.85-.6l-2.35-3.15Z"/>
      <path class="cls-1" d="M34.1,229.5l3.4,2.6c.35.25.5.5.5.8,0,.35-.35.65-1.25.9-1.75,6.2-4.5,11.65-7.8,15.65-4.75,5.65-10.4,9.65-19.65,13.9-.6-1.45-1.05-2.1-2.25-3.1,9.7-4.3,14.7-7.7,19.3-13.4,2.95-3.6,5.05-7.75,6.7-13.15l-12.95.9c-6.75.35-11.7.7-14.15.95l-.55-3.75c3.95,0,8.4-.25,14.6-.5l13.3-.85.8-.95ZM45.55,225.95c0,2.75-2.25,5-5,5s-5-2.25-5-5,2.25-5,5-5,5,2.25,5,5ZM37.55,225.95c0,1.65,1.35,2.95,3,2.95s2.95-1.3,2.95-2.95-1.3-2.95-2.95-2.95-3,1.3-3,2.95Z"/>
      <path class="cls-1" d="M11.8,313.8h-3.6c.1-1.9.15-4.8.15-8.8v-8.8q-.05-6.3-.15-7.9c1.35.05,2.55.05,4.25.05h19.1c1.75,0,2.95,0,4.25-.05-.05,1.55-.15,4.9-.15,7.9v8.8c0,4.2.05,6.85.15,8.8h-3.55v-2.35H11.8v2.35ZM32.25,308.25v-16.7H11.8v16.7h20.45Z"/>
      <path class="cls-1" d="M5.65,347.95c3.4,1.7,5.35,3.05,8.05,5.8l-2.55,3c-3.5-3.5-4.6-4.35-7.45-5.95l1.95-2.85ZM8.25,370.65c5.05-2.55,10.8-6.55,16.1-11.2,5.35-4.8,9.6-9.5,13.5-15,.8,1.05,1.55,1.85,2.5,2.75-6.2,8-10.3,12.25-17,17.7-2.8,2.25-4.95,3.85-11.15,8.15-.15.75-.4,1.1-.75,1.1-.25,0-.6-.25-.85-.6l-2.35-2.9ZM13.05,337.65c2.9,1.65,4.9,3.3,7.9,6.35l-2.7,2.75c-2.75-3-4.75-4.7-7.4-6.4l2.2-2.7ZM32.2,334.7c2.35,1.45,3.9,2.7,6.35,5.05l-2.05,2.2c-2.3-2.45-3.45-3.45-6.05-5.15l1.75-2.1ZM35.9,330.35c2.35,1.5,3.85,2.7,6.3,5.05l-2,2.2c-2.35-2.45-3.45-3.4-6.05-5.15l1.75-2.1Z"/>
      <path class="cls-1" d="M24.65,403.85h-5.55c-1.45,0-4.1.05-5.05.1v-3.2c1.1.05,3.35.1,5.05.1h14.35c1.65,0,3.9-.05,5-.1v3.2c-.95-.05-3.55-.1-5-.1h-5.5v12.3h8.95c2.1,0,4.65-.05,6.6-.1v3.25c-1.25-.05-4.75-.1-6.6-.1H15.65c-1.95,0-5.2.05-6.6.1v-3.25c1.3.05,4.35.1,6.6.1h9v-12.3Z"/>
      <path class="cls-1" d="M32.55,452.1l.8-.9,3,2.3c.6.45.7.55.7.85,0,.4-.2.55-1.25,1.05-3.05,8.75-6.75,14.65-12.8,20.3-3.25,3.05-6.1,5.05-12.45,8.85-.7-1.35-1.1-1.8-2.35-2.85,6.6-3.7,10-6.1,13.65-9.7,4.9-4.8,7.85-9.55,10.35-16.65h-13.05c-2.65,4.2-6.6,8.6-10.8,12-.75-1.1-1.4-1.7-2.6-2.3,4.55-3.55,7.9-7.3,10.8-12.1,2.05-3.35,2.95-5.45,3.95-8.7l3.3,1.15c.55.2.7.35.7.6,0,.4-.2.6-1.05.9-1.1,2.55-1.6,3.6-2.45,5.2h11.55Z"/>
      <path class="cls-1" d="M19.95,514.45c5.55,2,10.45,4.4,15.1,7.45l-2.35,3.35c-3.95-2.95-7.7-5.1-12.75-7.15v10.85c0,4.6.05,8.05.2,10.25h-3.95c.15-2.3.2-5.65.2-10.25v-18.65c0-5.7-.05-8.75-.2-10.4l3.95.35c.55.05.85.25.85.55,0,.25-.25.5-1,.95-.05,3.5-.05,6.35-.05,8.55v4.15Z"/>
    </g>
  </g>
</svg>