<?xml version="1.0" encoding="UTF-8"?>
<svg id="_レイヤー_2" data-name="レイヤー 2" xmlns="http://www.w3.org/2000/svg" viewBox="0 0 577.61 38.22">
  <defs>
    <style>
      .cls-1 {
        fill: #500a28;
      }
    </style>
  </defs>
  <g id="contents">
    <g>
      <path class="cls-1" d="M0,29.59V.49h2.77v12.99h16.37V.49h2.77v29.1h-2.77v-13.63H2.77v13.63H0Z"/>
      <path class="cls-1" d="M31.45,3.71c-.52,0-.97-.18-1.36-.55-.38-.36-.58-.8-.58-1.31s.19-.96.58-1.32c.38-.36.84-.54,1.36-.54s.99.18,1.37.54c.38.36.57.8.57,1.32s-.19.94-.57,1.31c-.38.36-.83.55-1.37.55ZM30.1,29.59V7.75h2.66v21.84h-2.66Z"/>
      <path class="cls-1" d="M40.44,29.59V.49h2.66v29.1h-2.66ZM42.86,21.43v-3.44h.55l10.1-10.23h3.34l-10.04,10.18-.31.04-3.63,3.46ZM54.01,29.59l-8.77-11.13,1.89-1.84,10.27,12.97h-3.4Z"/>
      <path class="cls-1" d="M67.51,30.08c-1.33,0-2.54-.25-3.62-.76-1.09-.51-1.95-1.26-2.6-2.25-.64-.99-.97-2.19-.97-3.59,0-1.08.2-1.99.61-2.72.4-.74.98-1.34,1.74-1.82.75-.48,1.64-.85,2.67-1.12,1.02-.27,2.15-.49,3.39-.64,1.21-.16,2.24-.29,3.09-.4.85-.11,1.49-.29,1.94-.54.45-.25.67-.64.67-1.19v-.51c0-.98-.2-1.82-.6-2.52-.4-.7-.98-1.24-1.74-1.62-.76-.38-1.69-.57-2.78-.57-1.03,0-1.93.16-2.71.48-.78.32-1.43.74-1.94,1.25s-.9,1.08-1.16,1.69l-2.54-.86c.48-1.18,1.16-2.14,2.03-2.85.87-.72,1.86-1.24,2.95-1.57s2.2-.5,3.32-.5c.86,0,1.74.11,2.66.34.91.23,1.76.61,2.54,1.15.78.54,1.41,1.28,1.89,2.23.48.94.72,2.14.72,3.58v14.82h-2.6v-3.46h-.2c-.31.66-.77,1.3-1.39,1.9-.61.61-1.36,1.1-2.26,1.47-.89.38-1.93.57-3.12.57ZM67.9,27.71c1.33,0,2.48-.29,3.46-.88s1.73-1.37,2.27-2.36c.53-.99.8-2.08.8-3.26v-3.11c-.2.18-.51.35-.96.49-.44.14-.95.27-1.51.37-.57.1-1.14.2-1.71.27-.57.08-1.07.14-1.5.2-1.21.14-2.25.38-3.12.7-.87.33-1.52.77-1.97,1.33-.45.56-.67,1.27-.67,2.13s.21,1.61.64,2.23c.43.61,1.02,1.08,1.76,1.41.74.33,1.58.49,2.52.49Z"/>
      <path class="cls-1" d="M83.94,29.59V7.75h2.58v3.4h.2c.44-1.12,1.2-2.01,2.28-2.69,1.07-.67,2.29-1.01,3.66-1.01.22,0,.46,0,.7,0,.25,0,.46.02.64.03v2.66c-.09-.03-.29-.06-.59-.09-.3-.03-.62-.05-.98-.05-1.12,0-2.12.24-3.01.72-.89.48-1.58,1.14-2.08,1.97-.5.83-.75,1.79-.75,2.87v14h-2.66Z"/>
      <path class="cls-1" d="M106,29.88c-1.47,0-2.77-.31-3.9-.93-1.13-.62-2.01-1.52-2.64-2.71-.63-1.19-.95-2.65-.95-4.37V7.75h2.66v13.93c0,1.78.5,3.19,1.5,4.23,1,1.04,2.34,1.55,4.02,1.55,1.15,0,2.17-.24,3.09-.73.91-.49,1.63-1.19,2.16-2.11s.79-2,.79-3.25V7.75h2.66v21.84h-2.58v-5.1h.39c-.6,1.93-1.54,3.31-2.83,4.14-1.29.83-2.75,1.25-4.38,1.25Z"/>
      <path class="cls-1" d="M134.23,29.59V.49h3.95l8.12,19.96c.18.43.37.93.58,1.51.2.58.42,1.2.64,1.86.23.66.45,1.31.65,1.96.21.65.4,1.27.59,1.86h-.7c.18-.56.38-1.16.59-1.8.21-.64.43-1.29.65-1.95.23-.66.45-1.29.65-1.88.21-.59.4-1.11.59-1.55L158.61.49h3.95v29.1h-2.73V9.22c0-.69,0-1.41.03-2.16.02-.75.04-1.5.05-2.26.01-.75.02-1.5.02-2.23h.31c-.26.78-.53,1.57-.81,2.37-.28.8-.55,1.58-.82,2.33-.27.76-.52,1.46-.77,2.12-.25.66-.47,1.23-.66,1.71l-7.56,18.48h-2.44l-7.62-18.48c-.2-.48-.41-1.04-.65-1.68-.24-.64-.5-1.33-.76-2.08-.27-.75-.54-1.53-.82-2.33-.28-.81-.57-1.62-.87-2.44h.33c.01.66.03,1.37.04,2.11.01.74.03,1.49.04,2.26.01.76.02,1.5.03,2.21,0,.71,0,1.36,0,1.96v18.48h-2.66Z"/>
      <path class="cls-1" d="M177.42,29.88c-1.47,0-2.77-.31-3.9-.93-1.13-.62-2.01-1.52-2.64-2.71-.63-1.19-.95-2.65-.95-4.37V7.75h2.66v13.93c0,1.78.5,3.19,1.5,4.23,1,1.04,2.34,1.55,4.02,1.55,1.15,0,2.17-.24,3.09-.73.91-.49,1.63-1.19,2.16-2.11s.79-2,.79-3.25V7.75h2.66v21.84h-2.58v-5.1h.39c-.6,1.93-1.54,3.31-2.83,4.14-1.29.83-2.75,1.25-4.38,1.25Z"/>
      <path class="cls-1" d="M194.49,29.59V7.75h2.58v3.4h.2c.44-1.12,1.2-2.01,2.28-2.69,1.07-.67,2.29-1.01,3.66-1.01.22,0,.46,0,.7,0,.25,0,.46.02.64.03v2.66c-.09-.03-.29-.06-.59-.09-.3-.03-.62-.05-.98-.05-1.12,0-2.12.24-3.01.72-.89.48-1.58,1.14-2.08,1.97-.5.83-.75,1.79-.75,2.87v14h-2.66Z"/>
      <path class="cls-1" d="M214.81,30.08c-1.33,0-2.54-.25-3.62-.76-1.09-.51-1.95-1.26-2.6-2.25-.64-.99-.97-2.19-.97-3.59,0-1.08.2-1.99.61-2.72.4-.74.98-1.34,1.74-1.82.75-.48,1.64-.85,2.67-1.12,1.02-.27,2.15-.49,3.39-.64,1.21-.16,2.24-.29,3.09-.4.85-.11,1.49-.29,1.94-.54.45-.25.67-.64.67-1.19v-.51c0-.98-.2-1.82-.6-2.52-.4-.7-.98-1.24-1.74-1.62-.76-.38-1.69-.57-2.78-.57-1.03,0-1.93.16-2.71.48-.78.32-1.43.74-1.94,1.25s-.9,1.08-1.16,1.69l-2.54-.86c.48-1.18,1.16-2.14,2.03-2.85.87-.72,1.86-1.24,2.95-1.57s2.2-.5,3.32-.5c.86,0,1.74.11,2.66.34.91.23,1.76.61,2.54,1.15.78.54,1.41,1.28,1.89,2.23.48.94.72,2.14.72,3.58v14.82h-2.6v-3.46h-.2c-.31.66-.77,1.3-1.39,1.9-.61.61-1.36,1.1-2.26,1.47-.89.38-1.93.57-3.12.57ZM215.2,27.71c1.33,0,2.48-.29,3.46-.88s1.73-1.37,2.27-2.36c.53-.99.8-2.08.8-3.26v-3.11c-.2.18-.51.35-.96.49-.44.14-.95.27-1.51.37-.57.1-1.14.2-1.71.27-.57.08-1.07.14-1.5.2-1.21.14-2.25.38-3.12.7-.87.33-1.52.77-1.97,1.33-.45.56-.67,1.27-.67,2.13s.21,1.61.64,2.23c.43.61,1.02,1.08,1.76,1.41.74.33,1.58.49,2.52.49Z"/>
      <path class="cls-1" d="M239.76,30.06c-1.9,0-3.57-.48-5.02-1.44s-2.58-2.29-3.4-3.98-1.23-3.65-1.23-5.85.41-4.21,1.23-5.91,1.95-3.03,3.4-3.98,3.12-1.44,5.02-1.44,3.56.48,5.01,1.44c1.45.96,2.59,2.29,3.41,3.98s1.23,3.67,1.23,5.91-.41,4.15-1.22,5.85c-.81,1.7-1.95,3.03-3.4,3.98-1.45.96-3.13,1.44-5.03,1.44ZM239.76,27.66c1.5,0,2.77-.4,3.81-1.21,1.04-.81,1.83-1.88,2.37-3.22.54-1.34.81-2.82.81-4.43s-.27-3.12-.82-4.46-1.34-2.43-2.38-3.24c-1.04-.81-2.3-1.22-3.79-1.22s-2.74.41-3.78,1.22c-1.04.81-1.83,1.89-2.37,3.24s-.82,2.84-.82,4.46.27,3.09.81,4.43c.54,1.34,1.33,2.42,2.36,3.22,1.04.81,2.3,1.21,3.8,1.21Z"/>
      <path class="cls-1" d="M255.15,29.59V.49h2.66v29.1h-2.66ZM257.57,21.43v-3.44h.55l10.1-10.23h3.34l-10.04,10.18-.31.04-3.63,3.46ZM268.73,29.59l-8.77-11.13,1.89-1.84,10.27,12.97h-3.4Z"/>
      <path class="cls-1" d="M282.23,30.08c-1.33,0-2.54-.25-3.62-.76-1.09-.51-1.95-1.26-2.6-2.25-.64-.99-.97-2.19-.97-3.59,0-1.08.2-1.99.61-2.72.4-.74.98-1.34,1.74-1.82.75-.48,1.64-.85,2.67-1.12,1.02-.27,2.15-.49,3.39-.64,1.21-.16,2.24-.29,3.09-.4.85-.11,1.49-.29,1.94-.54.45-.25.67-.64.67-1.19v-.51c0-.98-.2-1.82-.6-2.52-.4-.7-.98-1.24-1.74-1.62-.76-.38-1.69-.57-2.78-.57-1.03,0-1.93.16-2.71.48-.78.32-1.43.74-1.94,1.25s-.9,1.08-1.16,1.69l-2.54-.86c.48-1.18,1.16-2.14,2.03-2.85.87-.72,1.86-1.24,2.95-1.57s2.2-.5,3.32-.5c.86,0,1.74.11,2.66.34.91.23,1.76.61,2.54,1.15.78.54,1.41,1.28,1.89,2.23.48.94.72,2.14.72,3.58v14.82h-2.6v-3.46h-.2c-.31.66-.77,1.3-1.39,1.9-.61.61-1.36,1.1-2.26,1.47-.89.38-1.93.57-3.12.57ZM282.62,27.71c1.33,0,2.48-.29,3.46-.88s1.73-1.37,2.27-2.36c.53-.99.8-2.08.8-3.26v-3.11c-.2.18-.51.35-.96.49-.44.14-.95.27-1.51.37-.57.1-1.14.2-1.71.27-.57.08-1.07.14-1.5.2-1.21.14-2.25.38-3.12.7-.87.33-1.52.77-1.97,1.33-.45.56-.67,1.27-.67,2.13s.21,1.61.64,2.23c.43.61,1.02,1.08,1.76,1.41.74.33,1.58.49,2.52.49Z"/>
      <path class="cls-1" d="M313.39.49v29.1h-2.77V.49h2.77ZM319.21,29.59h-7.07v-2.48h6.91c2.49,0,4.56-.48,6.22-1.46,1.66-.97,2.91-2.36,3.75-4.18s1.26-3.99,1.26-6.51-.41-4.64-1.23-6.43c-.82-1.78-2.02-3.16-3.61-4.12-1.59-.96-3.55-1.45-5.9-1.45h-7.5V.49h7.68c2.79,0,5.17.58,7.14,1.74,1.97,1.16,3.49,2.82,4.54,4.98,1.05,2.16,1.58,4.75,1.58,7.75s-.54,5.68-1.61,7.86c-1.07,2.18-2.64,3.85-4.69,5.02-2.05,1.17-4.54,1.75-7.47,1.75Z"/>
      <path class="cls-1" d="M347.92,30.06c-2.04,0-3.81-.48-5.3-1.44-1.49-.96-2.64-2.28-3.46-3.97-.81-1.69-1.22-3.64-1.22-5.84s.4-4.15,1.2-5.86c.8-1.71,1.92-3.05,3.36-4.02,1.44-.98,3.11-1.46,5.01-1.46,1.2,0,2.35.22,3.46.65,1.11.44,2.1,1.1,2.99,1.99.89.89,1.58,2.02,2.09,3.39s.76,2.98.76,4.82v1.15h-17.13v-2.29h15.7l-1.21.86c0-1.56-.27-2.96-.8-4.2-.53-1.24-1.3-2.21-2.29-2.93-.99-.72-2.18-1.07-3.57-1.07s-2.59.36-3.62,1.09c-1.04.73-1.84,1.69-2.42,2.89-.58,1.2-.87,2.51-.87,3.95v1.37c0,1.71.3,3.2.9,4.48.6,1.28,1.45,2.28,2.55,2.99,1.1.71,2.4,1.06,3.9,1.06,1.02,0,1.91-.16,2.69-.49.77-.33,1.43-.76,1.95-1.3.53-.54.92-1.13,1.18-1.77l2.52.8c-.34.91-.88,1.76-1.63,2.54-.75.78-1.69,1.41-2.82,1.88s-2.44.71-3.91.71Z"/>
      <path class="cls-1" d="M369.41,30.06c-1.43,0-2.7-.22-3.81-.65-1.11-.44-2.02-1.07-2.73-1.91-.72-.84-1.2-1.87-1.46-3.1l2.54-.61c.31,1.32.93,2.29,1.87,2.94.93.64,2.12.97,3.56.97,1.65,0,2.98-.37,3.97-1.11s1.49-1.67,1.49-2.77c0-.89-.3-1.62-.89-2.21-.59-.59-1.48-1.02-2.67-1.31l-3.55-.86c-1.88-.46-3.28-1.17-4.21-2.14-.93-.97-1.4-2.19-1.4-3.66,0-1.22.33-2.3.99-3.22.66-.92,1.56-1.65,2.71-2.17,1.15-.52,2.46-.78,3.94-.78,1.38,0,2.56.21,3.55.63.99.42,1.81,1.02,2.45,1.79.64.77,1.13,1.68,1.46,2.73l-2.42.62c-.34-1-.9-1.83-1.69-2.49-.79-.66-1.9-.99-3.33-.99s-2.64.35-3.57,1.04c-.94.69-1.41,1.58-1.41,2.68,0,.92.32,1.68.95,2.27.63.59,1.62,1.04,2.96,1.37l3.34.8c1.85.46,3.23,1.17,4.15,2.13.92.96,1.38,2.17,1.38,3.61,0,1.25-.35,2.36-1.04,3.32-.69.96-1.65,1.72-2.88,2.27s-2.65.82-4.25.82Z"/>
      <path class="cls-1" d="M384.65,3.71c-.52,0-.97-.18-1.36-.55-.38-.36-.58-.8-.58-1.31s.19-.96.58-1.32c.38-.36.84-.54,1.36-.54s.99.18,1.37.54c.38.36.57.8.57,1.32s-.19.94-.57,1.31c-.38.36-.83.55-1.37.55ZM383.3,29.59V7.75h2.66v21.84h-2.66Z"/>
      <path class="cls-1" d="M401.2,38.22c-1.48,0-2.79-.19-3.92-.58-1.13-.38-2.07-.91-2.84-1.57-.77-.66-1.37-1.43-1.8-2.29l2.19-1.33c.31.56.73,1.1,1.26,1.63s1.21.96,2.04,1.29c.83.33,1.86.5,3.07.5,1.93,0,3.48-.48,4.65-1.44s1.76-2.44,1.76-4.44v-4.9h-.25c-.29.68-.71,1.34-1.26,2-.55.66-1.27,1.2-2.16,1.62-.89.42-1.98.63-3.28.63-1.73,0-3.27-.43-4.62-1.29s-2.41-2.09-3.17-3.69c-.77-1.6-1.15-3.52-1.15-5.74s.38-4.18,1.13-5.85c.75-1.67,1.81-2.98,3.16-3.92,1.35-.94,2.92-1.41,4.71-1.41,1.33,0,2.43.23,3.32.7.89.47,1.6,1.05,2.14,1.75.54.7.95,1.38,1.24,2.04h.27v-4.2h2.58v22.36c0,1.85-.39,3.37-1.17,4.57-.78,1.2-1.86,2.09-3.22,2.67-1.37.58-2.92.87-4.67.87ZM401.04,26.97c1.39,0,2.58-.33,3.56-1.01.98-.67,1.73-1.63,2.26-2.89.52-1.26.78-2.76.78-4.5s-.26-3.19-.77-4.5c-.51-1.31-1.26-2.34-2.24-3.09-.98-.75-2.17-1.12-3.59-1.12s-2.64.39-3.63,1.16c-.99.77-1.74,1.82-2.26,3.13-.51,1.32-.77,2.79-.77,4.41s.26,3.11.78,4.38c.52,1.26,1.28,2.25,2.27,2.96.99.71,2.19,1.06,3.61,1.06Z"/>
      <path class="cls-1" d="M419.8,15.98v13.61h-2.66V7.75h2.56l.02,5.1h-.41c.6-1.9,1.54-3.27,2.82-4.12,1.28-.85,2.75-1.27,4.4-1.27,1.48,0,2.78.31,3.9.93,1.11.62,1.99,1.52,2.62,2.71.63,1.19.95,2.64.95,4.38v14.12h-2.64v-13.93c0-1.78-.5-3.19-1.5-4.23-1-1.04-2.34-1.55-4.02-1.55-1.15,0-2.17.24-3.09.73-.91.49-1.63,1.19-2.16,2.11s-.79,2-.79,3.25Z"/>
      <path class="cls-1" d="M449.93,37.75V7.75h2.58v4.2h.29c.29-.66.7-1.34,1.24-2.03.54-.69,1.25-1.27,2.13-1.75.88-.48,1.99-.71,3.33-.71,1.78,0,3.35.47,4.69,1.41,1.34.94,2.39,2.25,3.14,3.95.75,1.69,1.13,3.67,1.13,5.92s-.37,4.25-1.12,5.95c-.75,1.7-1.79,3.02-3.13,3.96-1.34.94-2.91,1.42-4.71,1.42-1.3,0-2.4-.24-3.29-.71-.89-.48-1.61-1.06-2.15-1.77-.54-.7-.96-1.39-1.26-2.07h-.21v12.25h-2.66ZM459.15,27.66c1.43,0,2.64-.4,3.62-1.19.98-.79,1.73-1.87,2.25-3.22.51-1.35.77-2.86.77-4.53s-.25-3.17-.76-4.5c-.51-1.33-1.26-2.39-2.25-3.17-.99-.78-2.2-1.17-3.63-1.17s-2.6.38-3.58,1.13c-.98.76-1.73,1.8-2.25,3.12-.51,1.33-.77,2.86-.77,4.59s.26,3.27.78,4.62c.52,1.35,1.27,2.41,2.26,3.17.98.77,2.17,1.15,3.56,1.15Z"/>
      <path class="cls-1" d="M474.21,29.59V7.75h2.58v3.4h.2c.44-1.12,1.2-2.01,2.28-2.69,1.07-.67,2.29-1.01,3.66-1.01.22,0,.46,0,.7,0,.25,0,.46.02.64.03v2.66c-.09-.03-.29-.06-.59-.09-.3-.03-.62-.05-.98-.05-1.12,0-2.12.24-3.01.72-.89.48-1.58,1.14-2.08,1.97-.5.83-.75,1.79-.75,2.87v14h-2.66Z"/>
      <path class="cls-1" d="M497.3,30.06c-1.9,0-3.57-.48-5.02-1.44s-2.58-2.29-3.4-3.98-1.23-3.65-1.23-5.85.41-4.21,1.23-5.91,1.95-3.03,3.4-3.98,3.12-1.44,5.02-1.44,3.56.48,5.01,1.44c1.45.96,2.59,2.29,3.41,3.98s1.23,3.67,1.23,5.91-.41,4.15-1.22,5.85c-.81,1.7-1.95,3.03-3.4,3.98-1.45.96-3.13,1.44-5.03,1.44ZM497.3,27.66c1.5,0,2.77-.4,3.81-1.21,1.04-.81,1.83-1.88,2.37-3.22.54-1.34.81-2.82.81-4.43s-.27-3.12-.82-4.46-1.34-2.43-2.38-3.24c-1.04-.81-2.3-1.22-3.79-1.22s-2.74.41-3.78,1.22c-1.04.81-1.83,1.89-2.37,3.24s-.82,2.84-.82,4.46.27,3.09.81,4.43c.54,1.34,1.33,2.42,2.36,3.22,1.04.81,2.3,1.21,3.8,1.21Z"/>
      <path class="cls-1" d="M513.53,7.75h2.66v23.93c0,1.26-.24,2.35-.71,3.26-.48.91-1.16,1.61-2.04,2.09-.89.48-1.95.72-3.18.72h-.59v-2.46h.55c1.03,0,1.84-.32,2.43-.95.59-.63.89-1.52.89-2.67V7.75ZM514.86,3.71c-.52,0-.97-.18-1.36-.55-.38-.36-.58-.8-.58-1.31s.19-.96.58-1.32c.38-.36.84-.54,1.36-.54s.99.18,1.37.54c.38.36.57.8.57,1.32s-.19.94-.57,1.31c-.38.36-.83.55-1.37.55Z"/>
      <path class="cls-1" d="M532.72,30.06c-2.04,0-3.81-.48-5.3-1.44-1.49-.96-2.64-2.28-3.46-3.97-.81-1.69-1.22-3.64-1.22-5.84s.4-4.15,1.2-5.86c.8-1.71,1.92-3.05,3.36-4.02,1.44-.98,3.11-1.46,5.01-1.46,1.2,0,2.35.22,3.46.65,1.11.44,2.1,1.1,2.99,1.99.89.89,1.58,2.02,2.09,3.39s.76,2.98.76,4.82v1.15h-17.13v-2.29h15.7l-1.21.86c0-1.56-.27-2.96-.8-4.2-.53-1.24-1.3-2.21-2.29-2.93-.99-.72-2.18-1.07-3.57-1.07s-2.59.36-3.62,1.09c-1.04.73-1.84,1.69-2.42,2.89-.58,1.2-.87,2.51-.87,3.95v1.37c0,1.71.3,3.2.9,4.48.6,1.28,1.45,2.28,2.55,2.99,1.1.71,2.4,1.06,3.9,1.06,1.02,0,1.91-.16,2.69-.49.77-.33,1.43-.76,1.95-1.3.53-.54.92-1.13,1.18-1.77l2.52.8c-.34.91-.88,1.76-1.63,2.54-.75.78-1.69,1.41-2.82,1.88s-2.44.71-3.91.71Z"/>
      <path class="cls-1" d="M555.77,30c-1.9,0-3.57-.48-5.02-1.43-1.45-.95-2.58-2.27-3.4-3.96-.82-1.69-1.23-3.64-1.23-5.84s.41-4.21,1.23-5.91,1.95-3.02,3.4-3.97c1.45-.95,3.12-1.43,5.02-1.43,1.11,0,2.12.16,3.05.49.92.33,1.74.76,2.46,1.3.72.54,1.31,1.14,1.79,1.8.48.66.82,1.32,1.04,1.98l-2.52.78c-.12-.4-.33-.83-.64-1.29-.31-.46-.71-.89-1.2-1.29-.49-.4-1.06-.73-1.73-.99s-1.41-.38-2.25-.38c-1.48,0-2.74.4-3.78,1.21-1.04.81-1.83,1.88-2.37,3.22-.55,1.34-.82,2.83-.82,4.47s.27,3.09.82,4.43c.55,1.34,1.34,2.41,2.37,3.21s2.29,1.2,3.78,1.2c.85,0,1.61-.13,2.29-.39.68-.26,1.27-.6,1.77-1.01.5-.41.91-.85,1.22-1.33.31-.48.53-.92.64-1.34l2.5.78c-.21.68-.55,1.35-1.04,2.01-.48.66-1.09,1.27-1.82,1.83-.73.55-1.56,1-2.5,1.33s-1.96.5-3.07.5Z"/>
      <path class="cls-1" d="M577.2,7.75v2.3h-10.39v-2.3h10.39ZM570.05,2.56h2.66v21.88c0,1.08.24,1.88.72,2.38.48.51,1.22.71,2.21.61.18,0,.41-.02.67-.07.27-.05.52-.09.75-.15l.55,2.29c-.29.09-.6.16-.95.21-.35.05-.69.08-1.04.1-1.75.12-3.11-.3-4.09-1.24-.98-.94-1.47-2.26-1.47-3.96V2.56Z"/>
    </g>
  </g>
</svg>