<?xml version="1.0" encoding="UTF-8"?>
<svg id="_レイヤー_2" data-name="レイヤー 2" xmlns="http://www.w3.org/2000/svg" viewBox="0 0 405.84 400">
  <defs>
    <style>
      .cls-1 {
        fill: #500a28;
      }
    </style>
  </defs>
  <g id="contents">
    <g>
      <path class="cls-1" d="M79.67,186.99l-19.84-3.81c1.73,1.36,3.42,2.85,5.07,4.46,1.64,1.61,2.99,3.1,4.04,4.48-.13.09-.34.26-.63.52-.29.26-.58.51-.85.76-.27.25-.45.43-.54.56-.57-.91-1.36-1.91-2.37-3.02-1.01-1.11-2.12-2.22-3.31-3.35-1.19-1.13-2.38-2.17-3.57-3.12-1.19-.95-2.24-1.72-3.15-2.29l-.37-.07-1.5,7.8-2.31-.44,1.5-7.8-8.74-1.68.49-2.56,8.74,1.68,1.05-5.44,2.31.44-1.05,5.44,3.34.64c.91-.45,1.94-1,3.07-1.63,1.13-.64,2.23-1.3,3.27-2,1.05-.7,1.91-1.34,2.59-1.92.06.13.2.34.41.66.21.31.42.62.64.91.21.3.37.48.47.56-.97.73-2.07,1.44-3.3,2.15s-2.45,1.35-3.65,1.95l18.68,3.59-.49,2.56ZM82.51,171.32c-.39-.05-.87-.05-1.45-.02-.58.03-1.02.09-1.32.17l.9-4.66c.11-.58.08-1.01-.09-1.3-.17-.29-.53-.49-1.08-.59l-20.79-4-2.2,11.42-2.43-.47,2.2-11.42-8.95-1.72.52-2.68,8.95,1.72.98-5.11,2.43.47-.98,5.11,21.45,4.12c2.31.44,3.22,1.94,2.73,4.5l-.86,4.45ZM70.89,169.43c-1.38.33-2.82.78-4.34,1.35-1.52.56-2.94,1.25-4.26,2.05l-.96-2.36c1.37-.73,2.81-1.4,4.32-1.99,1.51-.59,2.93-1.08,4.26-1.45.03.15.11.39.24.73.13.34.27.67.41,1,.14.33.25.55.34.69Z"/>
      <path class="cls-1" d="M100.31,131.34c-.35-.17-.8-.34-1.34-.5-.54-.16-.96-.25-1.27-.27l2.02-3.54c.29-.51.41-.93.35-1.25-.06-.32-.32-.62-.78-.88l-25.6-14.62-13.77,24.11,29.11,16.62-1.33,2.33-31.22-17.83,16.41-28.74,28.23,16.12c1.02.58,1.64,1.27,1.84,2.07.21.79-.02,1.76-.67,2.91l-1.98,3.46ZM72.71,130.38c-1.16-.11-2.39-.15-3.69-.1-1.3.05-2.49.14-3.56.26l.02-2.5c1.07-.13,2.25-.22,3.54-.27,1.29-.05,2.53-.05,3.71.02,0,.13-.01.38-.02.76,0,.38-.02.75-.02,1.1,0,.35,0,.6.02.73ZM85.25,143.39l-9.48-5.42,1.21-2.12,7.44,4.25,2.69-4.71-10.83-6.19-5.29,9.26-2.08-1.19,6.37-11.16c-.38-.7-.85-1.51-1.42-2.43-.57-.92-1.15-1.83-1.74-2.71-.59-.88-1.12-1.62-1.59-2.21l2.01-1.66c.41.52.86,1.18,1.35,1.96.49.78.98,1.58,1.46,2.4.48.82.9,1.6,1.26,2.32l4.06-7.11,2.08,1.19-5.25,9.19,10.83,6.19,2.67-4.67-7.48-4.27,1.21-2.12,9.52,5.44-9,15.76Z"/>
      <path class="cls-1" d="M98.46,95.33c-.83-.43-1.88-.87-3.15-1.33-1.27-.46-2.56-.89-3.87-1.29-1.31-.39-2.42-.69-3.34-.88l1.11-2.61c.96.2,2.07.48,3.34.85,1.27.37,2.52.77,3.77,1.21,1.24.43,2.31.85,3.2,1.26-.09.15-.2.42-.35.81-.14.39-.28.78-.43,1.16-.14.39-.24.66-.29.82ZM108.18,119.62c-.11-.09-.37-.2-.75-.34-.39-.14-.78-.27-1.17-.4-.39-.12-.66-.19-.82-.2,2.57-4.15,3.69-8,3.36-11.55-.32-3.55-1.99-7.08-4.99-10.59l-9.52,8.45-1.7-1.92,12.53-11.13-10.15-11.43,2.14-1.9,10.15,11.43,12.59-11.18,1.7,1.92-9.7,8.62,10.04,11.31c.3.34.6.51.91.52.31,0,.71-.21,1.21-.66l4.37-3.88c.63-.56,1.03-1.13,1.22-1.73.18-.59.11-1.31-.23-2.16-.34-.84-.98-1.89-1.94-3.14.36-.06.79-.19,1.3-.4.51-.21.94-.38,1.31-.52,1.19,1.64,1.96,3.03,2.3,4.17.34,1.14.35,2.12.03,2.95-.32.82-.9,1.62-1.76,2.38l-5.37,4.77c-1.03.91-1.89,1.38-2.58,1.39-.7.02-1.39-.36-2.07-1.13l-10.74-12.09-3.93,3.49c3.26,3.84,5.13,7.8,5.6,11.88.47,4.07-.64,8.43-3.33,13.07ZM110.51,84.3c-.18,0-.45.06-.83.14s-.74.17-1.12.26c-.37.09-.64.17-.8.24-.06-.96-.19-2.07-.38-3.34-.19-1.27-.43-2.56-.72-3.88-.29-1.32-.6-2.48-.94-3.49l2.79-.91c.31,1.07.61,2.28.89,3.62.28,1.35.51,2.66.7,3.95.19,1.29.33,2.42.41,3.4Z"/>
      <path class="cls-1" d="M151.21,83.21c-.24-.29-.54-.61-.9-.94-.35-.34-.7-.6-1.02-.8,2.33-1.32,4.29-2.65,5.88-4.01,1.59-1.35,2.68-2.73,3.27-4.14.59-1.4.56-2.81-.09-4.2-1.38-2.97-4.26-3.43-8.65-1.37-.81.37-1.77.91-2.88,1.6-1.11.69-2.24,1.45-3.39,2.27-1.16.82-2.24,1.63-3.24,2.42-1,.79-1.81,1.48-2.41,2.07-.05-.04-.22-.21-.5-.49-.29-.29-.58-.57-.89-.86-.3-.28-.49-.44-.56-.47.67-.5,1.56-1.14,2.66-1.92,1.1-.78,2.27-1.6,3.52-2.46,1.25-.86,2.47-1.67,3.68-2.42,1.2-.75,2.24-1.32,3.1-1.72,2.94-1.39,5.39-1.86,7.36-1.42s3.43,1.7,4.39,3.76c.85,1.8.99,3.57.41,5.3-.58,1.73-1.71,3.41-3.41,5.04-1.7,1.63-3.8,3.21-6.31,4.76Z"/>
      <path class="cls-1" d="M198.26,74.25c-2.68,0-5.13-.54-7.35-1.63-2.22-1.08-4.04-2.58-5.44-4.49-1.4-1.91-2.25-4.1-2.53-6.58-.16-1.42-.07-2.96.27-4.62.34-1.66.97-3.31,1.88-4.95.91-1.64,2.15-3.11,3.72-4.42-1.75.51-3.54,1.05-5.4,1.61-1.85.57-3.63,1.11-5.35,1.63-1.72.52-3.25,1-4.61,1.44-1.36.44-2.43.8-3.21,1.09l-1.05-2.88c.91-.19,2.13-.48,3.66-.89,1.53-.4,3.24-.87,5.12-1.39,1.88-.53,3.82-1.08,5.81-1.66,1.99-.58,3.92-1.16,5.8-1.75,1.88-.58,3.58-1.12,5.1-1.62,1.52-.5,2.73-.91,3.62-1.24l1.03,2.71c-.36.07-.8.18-1.34.32-.53.15-1.14.33-1.82.55-1.64.44-3.15,1.19-4.52,2.25-1.37,1.06-2.54,2.31-3.5,3.76-.96,1.45-1.66,3.01-2.1,4.68-.44,1.67-.56,3.36-.37,5.05.26,2.28,1.06,4.17,2.39,5.67,1.33,1.5,2.99,2.61,4.99,3.34,2,.73,4.14,1.1,6.43,1.12-.26.4-.52.88-.76,1.44-.25.56-.4,1.05-.47,1.45Z"/>
      <path class="cls-1" d="M239.09,77.74c-2.42-.06-4.77-.22-7.05-.49-2.29-.27-4.38-.68-6.29-1.22-1.91-.54-3.54-1.24-4.89-2.09-1.36-.86-2.35-1.9-2.97-3.14s-.77-2.68-.44-4.33c.27-1.37.93-2.55,1.97-3.53,1.04-.98,2.37-1.8,4.01-2.47,1.63-.67,3.46-1.22,5.49-1.64-.5-1.76-.66-3.89-.47-6.41.19-2.52.68-5.68,1.47-9.49l2.96.59c-.54,1.69-.96,3.46-1.28,5.31-.31,1.85-.49,3.61-.52,5.29-.04,1.68.09,3.1.37,4.27,1.47-.22,2.99-.4,4.54-.55,1.56-.15,3.13-.25,4.71-.3l.19,2.91c-2.63-.13-5.14-.06-7.54.2-2.39.26-4.54.68-6.44,1.26-1.9.58-3.45,1.29-4.65,2.13-1.2.85-1.9,1.8-2.12,2.87-.29,1.46.04,2.7,1.01,3.74.96,1.04,2.39,1.88,4.29,2.53,1.9.65,4.11,1.12,6.64,1.39,2.53.28,5.23.39,8.09.33-.21.36-.43.82-.64,1.39-.21.57-.36,1.05-.44,1.43ZM244.54,58.01c-.27-.63-.65-1.33-1.14-2.11-.49-.78-1-1.55-1.53-2.3-.54-.75-1.04-1.36-1.52-1.82l1.61-.96c.42.46.91,1.08,1.47,1.86.56.78,1.1,1.58,1.62,2.38.52.81.92,1.48,1.18,2.01l-1.69.95ZM248.29,55.55c-.27-.63-.67-1.32-1.19-2.08-.52-.76-1.06-1.5-1.61-2.23-.56-.72-1.07-1.32-1.55-1.79l1.57-1.01c.43.43.94,1.03,1.52,1.8.59.77,1.15,1.56,1.69,2.35.54.79.95,1.45,1.21,1.96l-1.66,1Z"/>
      <path class="cls-1" d="M253.51,84.19l-1.68-2.29c.66-.46,1.6-1.11,2.83-1.95,1.23-.84,2.65-1.79,4.26-2.87,1.61-1.07,3.32-2.21,5.12-3.41,1.8-1.2,3.6-2.41,5.4-3.61,1.8-1.2,3.51-2.34,5.14-3.4,1.62-1.06,3.07-2,4.35-2.81,1.28-.81,2.27-1.42,2.96-1.83l1.68,2.38c-.73.36-1.7.89-2.92,1.6-1.22.71-2.6,1.54-4.12,2.49-1.52.95-3.12,1.97-4.79,3.07-1.68,1.1-3.36,2.21-5.05,3.33,1.23-.29,2.43-.39,3.58-.3,1.15.08,2.2.4,3.14.95,1.57.91,2.4,2,2.48,3.26.08,1.26-.38,2.74-1.36,4.43-.23.39-.55.9-.97,1.55-.42.65-.75,1.17-.99,1.58-.82,1.4-1.18,2.47-1.1,3.2.08.73.64,1.39,1.68,2,1.43.83,3.1.95,5.03.37,1.92-.58,3.93-1.74,6.01-3.48.1.44.24.94.44,1.5.2.55.36,1,.49,1.33-2.69,1.84-5.14,2.99-7.35,3.45-2.21.46-4.29.13-6.22-.99-1.67-.97-2.62-2.08-2.85-3.33-.23-1.25.22-2.84,1.34-4.78.11-.19.3-.5.56-.92.26-.42.53-.85.82-1.29.29-.45.52-.81.69-1.1.69-1.19,1.01-2.17.96-2.94-.05-.77-.54-1.43-1.46-1.96-1.02-.59-2.17-.9-3.45-.91-1.29-.02-2.56.18-3.81.58-1.25.4-2.36.95-3.3,1.63-1.75,1.22-3.25,2.28-4.5,3.19-1.25.91-2.26,1.67-3.01,2.3Z"/>
      <path class="cls-1" d="M293.47,102.84c-.01-.14-.04-.39-.08-.76-.05-.37-.1-.74-.15-1.1-.06-.36-.12-.62-.19-.79,2.65.06,5.54-.29,8.64-1.03,3.11-.75,6.14-1.8,9.11-3.17-1.34-1.1-2.59-2.15-3.75-3.14-1.16-.99-2.06-1.79-2.7-2.38l1.68-2.03c.74.76,1.76,1.72,3.05,2.88s2.64,2.33,4.05,3.52c2.49-1.28,4.77-2.78,6.85-4.48l1.47,2.12c-1.93,1.54-3.99,2.9-6.2,4.08.98.78,1.93,1.51,2.86,2.19.93.68,1.74,1.23,2.45,1.65l-1.67,1.85c-.74-.51-1.63-1.15-2.67-1.93-1.04-.78-2.12-1.63-3.25-2.54-3.2,1.57-6.47,2.79-9.81,3.65-3.34.86-6.57,1.33-9.69,1.42ZM295.36,116.8c-1.2-1.41-1.76-2.78-1.7-4.12s.58-2.42,1.57-3.24c.95-.79,2.15-1.08,3.62-.87,1.46.21,2.91,1.15,4.35,2.84.38.48.75.97,1.11,1.46.35.49.67,1,.95,1.54l8.41-7.36,1.71,1.96-8.91,7.8c.69,1.59,1.22,3.24,1.59,4.94.37,1.7.59,3.34.67,4.91-.38,0-.85.04-1.41.14-.56.1-1.02.21-1.36.33-.02-1.43-.15-2.88-.38-4.36-.23-1.47-.59-2.89-1.07-4.25l-.09.08c-1.37,1.2-2.86,1.64-4.46,1.31-1.6-.33-3.13-1.36-4.58-3.1ZM297.24,115.38c.94,1.07,1.89,1.72,2.86,1.93.97.21,1.89-.07,2.78-.84l.54-.47c-.54-1.13-1.23-2.18-2.08-3.15-.83-.99-1.67-1.58-2.51-1.79-.85-.21-1.53-.11-2.03.3-.55.44-.79,1.01-.73,1.72.06.71.45,1.47,1.17,2.3ZM321.05,115.37c.14-.86.15-1.92.03-3.15-.12-1.24-.29-2.46-.51-3.68-.23-1.22-.49-2.23-.79-3.04l2.43-.28c.22.63.42,1.39.62,2.27.2.89.37,1.81.53,2.77.15.96.27,1.89.34,2.78.07.89.08,1.65.04,2.28l-2.68.06Z"/>
      <path class="cls-1" d="M310.88,136.99c.12-.14.29-.37.51-.69.22-.32.43-.64.64-.97.21-.33.34-.58.39-.75,2.82,2.71,5.77,4.83,8.87,6.36,3.1,1.52,6.28,2.37,9.54,2.54,3.26.17,6.54-.43,9.83-1.79l9.94-4.1,1.04,2.52-9.24,3.81c-2.41.99-4.57,2.4-6.48,4.22-1.91,1.82-3.53,3.9-4.86,6.23-1.32,2.33-2.33,4.78-3.01,7.35-.68,2.57-.99,5.08-.91,7.53-.15-.06-.43-.13-.86-.21-.43-.08-.85-.16-1.28-.24-.43-.08-.73-.13-.92-.14.27-4.32,1.3-8.48,3.08-12.47,1.78-3.99,4.45-7.49,8.02-10.51-4.43.71-8.69.26-12.78-1.36-4.09-1.61-7.93-4.06-11.52-7.33Z"/>
      <path class="cls-1" d="M326.71,188.12c-.07-.7.13-1.31.58-1.85.46-.54,1.03-.84,1.73-.9.7-.07,1.3.12,1.83.57.52.44.81,1.01.88,1.71.07.7-.11,1.31-.54,1.84-.43.53-.99.83-1.69.9-.7.07-1.32-.12-1.87-.56-.55-.44-.86-1.01-.92-1.71ZM335.96,186.02l8.96-1.15c.35,1.6.84,3.03,1.48,4.29.64,1.26,1.48,2.24,2.53,2.92,1.05.69,2.35.96,3.92.81,2.26-.21,3.94-1.06,5.03-2.52,1.1-1.47,1.55-3.25,1.35-5.34-.2-2.06-.99-3.72-2.39-4.98-1.4-1.26-3.13-1.92-5.19-1.98l.13-3.05c1.86.02,3.53.44,5.01,1.25,1.48.82,2.69,1.95,3.61,3.41.93,1.46,1.48,3.15,1.66,5.07.19,2.01-.04,3.83-.68,5.47-.65,1.64-1.67,2.96-3.06,3.98-1.39,1.02-3.12,1.62-5.19,1.82-2.54.24-4.64-.4-6.32-1.91-1.68-1.51-2.92-3.57-3.73-6.16l-6.92.49-.23-2.42Z"/>
    </g>
    <g>
      <path class="cls-1" d="M139.65,348.28l19.43-24.14,3.11,1.05.86,31.02-2.77-.94-.45-20.24c-.03-1.12-.04-2.43-.02-3.92.02-1.49.06-3.27.13-5.35l.56.19c-1.21,1.71-2.27,3.16-3.17,4.37-.9,1.21-1.68,2.23-2.34,3.06l-12.54,15.84-2.79-.95ZM147.12,341.68l.79-2.33,14,4.74-.79,2.33-14-4.74Z"/>
      <path class="cls-1" d="M181.56,359.77c-1.29-.18-2.34-.56-3.16-1.16s-1.45-1.27-1.89-2.04c-.44-.77-.76-1.51-.96-2.22l-.29-.04-.56,4.04-2.55-.35,3.98-28.83,2.63.36-1.57,11.36.21.03c.37-.62.88-1.23,1.51-1.84.63-.61,1.41-1.09,2.35-1.44.94-.35,2.07-.43,3.4-.25,1.77.24,3.25.92,4.45,2.03,1.2,1.11,2.06,2.56,2.58,4.34.52,1.78.62,3.79.31,6.02-.31,2.24-.95,4.16-1.93,5.74-.97,1.58-2.19,2.75-3.65,3.5-1.46.75-3.08,1-4.86.76ZM181.55,357.35c1.42.2,2.67-.03,3.75-.68s1.97-1.61,2.67-2.89c.69-1.27,1.16-2.73,1.38-4.38s.18-3.17-.14-4.56-.92-2.54-1.79-3.45c-.87-.91-2.02-1.46-3.44-1.66-1.39-.19-2.63.02-3.71.63-1.08.61-1.96,1.54-2.65,2.79-.69,1.25-1.16,2.73-1.39,4.44s-.19,3.28.14,4.68.93,2.56,1.8,3.45c.87.9,1.99,1.44,3.37,1.63Z"/>
      <path class="cls-1" d="M209,361.06c-1.9.07-3.59-.35-5.07-1.25-1.48-.9-2.66-2.19-3.54-3.86s-1.37-3.6-1.45-5.8c-.08-2.24.25-4.22,1.01-5.95.76-1.73,1.84-3.1,3.25-4.11,1.41-1.01,3.06-1.55,4.96-1.62,1.89-.07,3.57.35,5.06,1.25,1.49.9,2.67,2.19,3.55,3.85.88,1.67,1.37,3.62,1.45,5.86.08,2.2-.25,4.16-1,5.89s-1.83,3.1-3.25,4.11c-1.42,1.01-3.07,1.55-4.97,1.62ZM208.91,358.66c1.5-.06,2.75-.51,3.76-1.35,1.01-.85,1.76-1.95,2.25-3.31.49-1.36.71-2.85.65-4.46-.06-1.63-.39-3.1-.99-4.43-.6-1.33-1.43-2.38-2.5-3.15s-2.35-1.13-3.83-1.08-2.73.51-3.73,1.36c-1,.85-1.75,1.96-2.25,3.33-.5,1.37-.71,2.86-.65,4.49.06,1.61.39,3.08.98,4.4.59,1.32,1.42,2.36,2.48,3.13,1.06.77,2.34,1.12,3.84,1.07Z"/>
      <path class="cls-1" d="M235.87,357.62c-1.44.31-2.77.28-4-.09s-2.28-1.07-3.15-2.1c-.87-1.03-1.48-2.39-1.84-4.07l-2.96-13.81,2.6-.56,2.92,13.62c.37,1.74,1.16,3.02,2.36,3.82,1.2.8,2.62,1.03,4.26.67,1.12-.24,2.08-.69,2.86-1.36s1.35-1.51,1.67-2.52c.32-1.01.35-2.12.09-3.35l-2.85-13.31,2.6-.56,4.58,21.35-2.52.54-1.07-4.98.38-.08c-.18,2.01-.82,3.56-1.9,4.64-1.09,1.08-2.42,1.8-4.02,2.14Z"/>
      <path class="cls-1" d="M255.63,328.61l.8,2.16-9.74,3.61-.8-2.16,9.74-3.61ZM247.12,326.22l2.49-.92,7.6,20.51c.38,1.01.88,1.67,1.51,1.98.63.31,1.39.24,2.28-.2.17-.06.37-.16.61-.3.23-.14.45-.27.65-.4l1.31,1.95c-.24.19-.51.36-.81.53-.31.17-.62.32-.95.46-1.6.72-3.02.8-4.27.26-1.25-.54-2.17-1.61-2.76-3.2l-7.66-20.68Z"/>
    </g>
  </g>
</svg>