<?xml version="1.0" encoding="UTF-8"?>
<svg id="_レイヤー_2" data-name="レイヤー 2" xmlns="http://www.w3.org/2000/svg" viewBox="0 0 405.84 400">
  <defs>
    <style>
      .cls-1 {
        fill: #500a28;
      }

    </style>
  </defs>
  <g id="contents">
    <g>
      <path class="cls-1" d="M81.92,174.16l-23.32-7.51c1.03,1.31,1.98,2.61,2.85,3.89.87,1.28,1.59,2.48,2.18,3.62-.34.13-.73.34-1.16.63-.44.29-.77.56-1,.82-.44-1.03-1.08-2.18-1.93-3.43-.85-1.25-1.81-2.54-2.89-3.85-1.08-1.31-2.19-2.59-3.34-3.82-1.15-1.23-2.27-2.34-3.35-3.31s-2.05-1.75-2.91-2.32l1.6-2.2c1.06.76,2.16,1.66,3.28,2.71,1.12,1.05,2.23,2.18,3.32,3.39l27.48,8.85-.82,2.55ZM82.27,167.67l-2.42-.78,3.25-10.1-16.73-5.39-3.75,11.64-2.51-.81,3.75-11.64-12.69-4.09.85-2.63,12.69,4.09,3.67-11.4,2.51.81-3.67,11.4,16.73,5.39,3.24-10.06,2.42.78-7.34,22.79Z"/>
      <path class="cls-1" d="M99.98,132.3c-.35-.19-.76-.38-1.22-.56-.46-.18-.86-.31-1.2-.38l2.63-3.55c.35-.48.52-.88.5-1.21-.02-.33-.26-.66-.71-1l-2.8-2.07-8.81,11.91-1.74-1.29,8.81-11.91-2.46-1.82-10.8,14.61-1.64-1.21,10.8-14.61-2.42-1.79-8.83,11.95-1.64-1.21,8.83-11.95-2.32-1.72-6.77,9.15-5.77-4.27,6.77-9.15-2.08-1.54-10.05,13.59-1.78-1.31,10.05-13.59-3.04-2.25,1.62-2.18,3.04,2.25,10.1-13.66,1.77,1.31-10.1,13.66,2.08,1.54,6.74-9.12,5.77,4.27-6.74,9.11,2.32,1.72,7.65-10.34,4.06,3,3.05-4.13,1.64,1.21-3.05,4.13,4.2,3.1-7.65,10.34,3.17,2.35c1.89,1.4,2.05,3.15.49,5.27l-2.47,3.35ZM78.09,120.34l5.23-7.07-2.49-1.84-5.23,7.07,2.49,1.84ZM84.93,111.09l5.23-7.07-2.49-1.84-5.23,7.07,2.49,1.84ZM92.95,117.02l6.06-8.19-2.42-1.79-6.06,8.19,2.42,1.79ZM97.05,120.05l6.06-8.19-2.46-1.82-6.06,8.19,2.46,1.82Z"/>
      <path class="cls-1" d="M134.51,95.66c-1.68,1.16-3.29,2.02-4.85,2.58-1.56.56-2.96.75-4.22.57-1.26-.18-2.28-.83-3.05-1.94-.68-.98-.96-2.13-.87-3.45.1-1.32.48-2.75,1.13-4.27.65-1.52,1.48-3.05,2.47-4.6l-.31-.45c-.9-1.3-1.73-2.03-2.5-2.19-.76-.16-1.54.01-2.32.52-1.33.82-2.51,1.97-3.54,3.46-1.03,1.49-1.68,3.1-1.93,4.82-.1.79-.22,1.56-.36,2.28-.13.73-.27,1.44-.42,2.12l-2.84-.52c.85-2.45,1.38-5.09,1.57-7.92.19-2.83.09-5.53-.3-8.08-1.5,1.17-2.88,2.21-4.14,3.12-1.26.91-2.21,1.56-2.83,1.96l-1.65-2.16c.77-.43,1.9-1.16,3.39-2.19,1.49-1.03,3.06-2.19,4.72-3.47-.26-1.13-.59-2.19-.99-3.19-.4-1-.85-1.87-1.37-2.61l2.4-1.45c.5.82.93,1.69,1.3,2.59.36.9.7,1.85,1.01,2.84,1.78-1.4,3.43-2.77,4.94-4.09,1.51-1.32,2.61-2.39,3.28-3.2l1.68,1.99c-.56.59-1.32,1.32-2.31,2.19-.98.87-2.07,1.79-3.27,2.78-1.2.98-2.43,1.98-3.69,2.99.23,1.22.38,2.55.45,3.97.08,1.43.08,2.82.02,4.17.39-.89.95-1.74,1.69-2.56.74-.82,1.47-1.48,2.19-1.98,2.72-1.88,5.29-1.23,7.7,1.95,1.07-1.53,2.19-3,3.35-4.41,1.16-1.41,2.22-2.63,3.19-3.68l2.11,1.64c-1.38,1.34-2.68,2.73-3.9,4.17-1.22,1.45-2.32,2.88-3.29,4.31l3.43,4.96-2.2,1.52-2.83-4.09c-1.11,1.83-1.87,3.51-2.29,5.04-.42,1.53-.36,2.69.19,3.48.68.98,1.76,1.3,3.24.96,1.49-.34,3.19-1.18,5.13-2.51,1.07-.74,2.19-1.65,3.35-2.73,1.16-1.08,2.19-2.19,3.09-3.33.06.13.21.34.45.62.24.28.49.55.75.82.15.17.28.32.38.44.1.12.17.21.22.28-.98,1.12-2.04,2.2-3.18,3.23s-2.28,1.94-3.39,2.71Z"/>
      <path class="cls-1" d="M154.94,83.59c-.39-.12-.87-.21-1.45-.27-.58-.06-1.05-.07-1.43-.05.37-1.28.69-2.86.96-4.74.27-1.87.5-3.93.68-6.16.18-2.23.32-4.54.42-6.92.1-2.38.13-4.69.11-6.92-1.63.68-3.22,1.26-4.75,1.76-1.54.5-2.83.87-3.88,1.11l-.84-2.63c1.24-.21,2.69-.57,4.37-1.1,1.67-.53,3.36-1.13,5.04-1.82-.06-1.63-.15-3.16-.28-4.58-.13-1.42-.29-2.66-.47-3.73l2.88-.43c.14.99.25,2.14.33,3.44s.14,2.68.17,4.15c1.3-.61,2.51-1.23,3.64-1.86,1.13-.63,2.07-1.23,2.82-1.8l1.29,2.33c-.78.58-1.85,1.22-3.22,1.94-1.37.72-2.87,1.43-4.49,2.13.02,2.32,0,4.71-.08,7.18-.07,2.47-.19,4.88-.35,7.26-.16,2.37-.36,4.56-.61,6.58-.25,2.01-.53,3.73-.86,5.15ZM176.97,59.24c-1.38-.08-2.9,0-4.57.25-1.67.24-3.3.56-4.89.96-1.59.4-2.97.82-4.14,1.28l-.44-2.75c.88-.31,1.93-.62,3.16-.93,1.22-.31,2.5-.59,3.84-.84,1.34-.25,2.64-.46,3.9-.63,1.26-.17,2.35-.25,3.26-.25l-.14,2.91ZM182.3,73.66c-2.79,1.27-5.43,2.15-7.92,2.63-2.5.48-4.72.57-6.66.26-1.94-.31-3.53-1.01-4.76-2.1l1.22-2.21c1.7,1.4,4.11,1.98,7.24,1.74,3.13-.24,6.63-1.31,10.5-3.21-.03.39-.01.89.07,1.48.08.59.19,1.07.32,1.41Z"/>
      <path class="cls-1" d="M212.16,73.42c-.1-.37-.3-.84-.61-1.39-.31-.55-.6-.98-.87-1.28,2.48-.24,4.65-.89,6.52-1.93,1.86-1.04,3.35-2.36,4.45-3.94,1.1-1.59,1.74-3.31,1.92-5.18.17-1.75.02-3.39-.46-4.93-.48-1.54-1.22-2.91-2.22-4.11-1-1.2-2.2-2.17-3.6-2.92-1.39-.75-2.91-1.21-4.54-1.37l-.59-.03c-.31,2.88-.87,5.72-1.66,8.55-.79,2.82-1.76,5.4-2.91,7.74-1.15,2.34-2.47,4.25-3.96,5.73-.87.86-1.75,1.37-2.67,1.5-.91.14-1.86-.01-2.83-.46-.94-.44-1.78-1.17-2.53-2.17-.74-1-1.3-2.2-1.67-3.59-.37-1.39-.47-2.89-.31-4.5.23-2.4.9-4.58,2-6.55,1.1-1.97,2.54-3.66,4.31-5.06,1.77-1.4,3.77-2.43,6-3.1,2.23-.67,4.58-.87,7.07-.61,1.89.18,3.68.71,5.36,1.58,1.68.88,3.17,2.03,4.44,3.45,1.27,1.42,2.23,3.08,2.86,4.97.63,1.89.83,3.95.61,6.17-.34,3.47-1.74,6.39-4.2,8.76-2.46,2.37-5.76,3.92-9.9,4.65ZM199.06,66.78c.36.19.78.29,1.26.3.48,0,.97-.23,1.48-.71,1.25-1.21,2.4-2.86,3.43-4.95,1.04-2.09,1.92-4.43,2.65-7.03.72-2.6,1.24-5.27,1.55-8-2.36.22-4.5.93-6.4,2.13-1.9,1.2-3.44,2.73-4.63,4.62-1.18,1.88-1.91,3.98-2.16,6.29-.17,1.78.04,3.32.64,4.64.6,1.32,1.33,2.23,2.18,2.72Z"/>
      <path class="cls-1" d="M236.94,78.27l-2-2.06c.59-.55,1.45-1.34,2.56-2.35,1.12-1.01,2.41-2.17,3.87-3.46,1.46-1.3,3.01-2.68,4.65-4.13,1.63-1.46,3.27-2.91,4.9-4.37,1.63-1.46,3.19-2.83,4.67-4.13,1.48-1.29,2.8-2.43,3.97-3.42,1.17-.99,2.07-1.74,2.71-2.24l2.01,2.15c-.68.46-1.58,1.13-2.7,2.01-1.13.89-2.38,1.91-3.77,3.07-1.39,1.16-2.85,2.41-4.37,3.74-1.52,1.33-3.05,2.68-4.59,4.04,1.2-.46,2.38-.73,3.54-.8,1.16-.08,2.25.09,3.28.51,1.7.7,2.68,1.67,2.94,2.92.25,1.25,0,2.79-.74,4.63-.17.42-.42.98-.76,1.69-.33.71-.59,1.28-.77,1.73-.62,1.52-.84,2.64-.66,3.35.18.72.84,1.3,1.96,1.76,1.55.63,3.24.52,5.09-.33s3.69-2.29,5.53-4.32c.16.43.38.91.65,1.44.27.52.5.95.68,1.26-2.43,2.22-4.73,3.71-6.88,4.48-2.15.77-4.27.73-6.37-.12-1.81-.74-2.91-1.72-3.32-2.94-.4-1.22-.18-2.88.68-4.97.09-.21.23-.54.43-.99.2-.45.42-.92.65-1.41.23-.49.41-.89.54-1.2.52-1.28.71-2.31.55-3.08-.16-.77-.74-1.36-1.73-1.76-1.1-.45-2.3-.59-3.58-.43-1.29.16-2.53.53-3.73,1.11-1.2.58-2.23,1.28-3.08,2.09-1.58,1.47-2.93,2.74-4.06,3.82-1.13,1.08-2.03,1.99-2.7,2.73Z"/>
      <path class="cls-1" d="M289.26,108.45c-1.92-1.95-3.27-4.1-4.06-6.45-.79-2.35-.99-4.72-.6-7.09.39-2.38,1.37-4.53,2.94-6.47.91-1.12,2.08-2.15,3.52-3.07,1.44-.93,3.09-1.64,4.94-2.15,1.85-.51,3.81-.65,5.89-.42-1.6-.9-3.27-1.82-5-2.76-1.73-.94-3.4-1.86-5-2.73-1.6-.88-3.05-1.66-4.34-2.34-1.29-.68-2.3-1.19-3.04-1.54l1.28-2.73c.8.5,1.88,1.16,3.24,1.97,1.36.81,2.9,1.72,4.6,2.71,1.71,1,3.48,2.01,5.33,3.03,1.85,1.02,3.64,2.01,5.37,2.95,1.73.94,3.31,1.79,4.73,2.52,1.43.74,2.57,1.31,3.44,1.72l-1.17,2.6c-.32-.19-.72-.42-1.21-.7-.48-.28-1.04-.6-1.66-.96-1.5-.85-3.12-1.39-4.85-1.63-1.74-.24-3.47-.19-5.19.14-1.73.33-3.35.93-4.87,1.8-1.52.86-2.82,1.97-3.91,3.31-1.46,1.8-2.27,3.72-2.41,5.75-.15,2.03.22,4.02,1.11,5.98.89,1.96,2.14,3.77,3.74,5.43-.46.07-.96.22-1.52.46-.56.24-1,.47-1.32.68ZM301.59,98.82c.09-.69.12-1.51.09-2.44-.03-.93-.09-1.86-.19-2.77-.1-.92-.23-1.7-.4-2.34l1.87-.02c.14.59.26,1.37.34,2.35.08.98.15,1.95.2,2.92.05.97.06,1.75.02,2.34l-1.94-.04ZM306.12,98.56c.05-.69.05-1.5,0-2.43-.05-.93-.14-1.86-.26-2.78s-.28-1.71-.44-2.35l1.9-.05c.14.59.27,1.37.4,2.34s.22,1.94.31,2.9c.08.96.11,1.74.1,2.34l-1.99.03Z"/>
      <path class="cls-1" d="M307.26,131.78c.13-.38.21-.84.24-1.38.03-.54.02-1.01-.03-1.41,2.35,1.3,4.99,2.16,7.91,2.6,2.92.44,5.82.43,8.72-.01-.49-1.63-1.04-3.2-1.65-4.7-.61-1.5-1.26-2.88-1.94-4.12-1.49.07-2.89.07-4.19,0-1.3-.07-2.41-.23-3.34-.48-1.44-.37-2.63-.94-3.58-1.71-.95-.77-1.63-1.63-2.05-2.58-.41-.95-.51-1.86-.29-2.73.22-.87.8-1.6,1.73-2.19,1.17-.74,2.5-.95,3.99-.63,1.49.32,3.01,1.12,4.58,2.41,1.56,1.29,3.04,3.04,4.42,5.24,2.21-.15,4.54-.44,7-.87,2.46-.43,4.79-.91,6.98-1.46-.79-.78-1.68-1.68-2.68-2.7-1-1.03-1.93-2.01-2.8-2.93-.87-.93-1.53-1.65-1.99-2.16l1.85-2.17c.42.61,1,1.36,1.75,2.26.75.9,1.56,1.83,2.43,2.79.87.96,1.7,1.85,2.5,2.66.8.82,1.47,1.46,2.03,1.91l.16,2.25c-2.26.65-4.8,1.25-7.61,1.78-2.81.53-5.55.9-8.23,1.11.63,1.21,1.23,2.54,1.8,3.98.57,1.44,1.1,2.95,1.59,4.52,1.04-.25,2.06-.57,3.05-.94.99-.37,1.93-.82,2.83-1.36l.89,2.7c-.93.49-1.9.91-2.91,1.28-1.01.37-2.04.68-3.11.95.35,1.25.66,2.53.93,3.83.27,1.3.49,2.58.68,3.83-.35-.02-.81,0-1.4.08-.59.07-1.08.14-1.47.22-.24-2.46-.67-4.95-1.28-7.47-3,.45-6.02.48-9.07.09-3.05-.39-5.87-1.23-8.45-2.51ZM310.28,115.04c-.46.33-.67.8-.62,1.41.05.62.4,1.25,1.03,1.88.63.64,1.57,1.12,2.81,1.44,1.29.36,3.1.51,5.41.46-1.01-1.44-2.06-2.63-3.16-3.55-1.1-.93-2.13-1.54-3.09-1.84-.96-.3-1.75-.24-2.38.2Z"/>
      <path class="cls-1" d="M325.18,169.28c-.72-2.77-.75-4.94-.09-6.51.66-1.57,1.73-2.55,3.21-2.94.93-.24,1.78-.21,2.54.08.76.3,1.41.77,1.95,1.42.53.65.91,1.39,1.12,2.21.41,1.59.14,3.08-.81,4.49-.95,1.4-2.41,2.42-4.38,3.05.8,1.49,1.93,2.66,3.41,3.5,1.48.84,3.17,1.02,5.09.52,1.37-.36,2.48-.97,3.33-1.85s1.42-1.93,1.7-3.16c.28-1.23.24-2.54-.13-3.94-.47-1.81-1.2-3.44-2.17-4.9-.98-1.46-2.22-2.71-3.72-3.75-.53-.36-1.25-.87-2.16-1.54-.91-.67-1.69-1.27-2.35-1.8l1.47-2.27c1.18,1.16,2.62,2.33,4.32,3.53,1.7,1.2,3.53,2.36,5.49,3.48,1.96,1.13,3.94,2.15,5.93,3.06,1.99.91,3.88,1.64,5.65,2.17-.41-.77-.86-1.68-1.37-2.74-.51-1.05-1.01-2.16-1.5-3.32-.49-1.16-.95-2.27-1.37-3.33-.42-1.06-.77-1.99-1.04-2.8l2.43-1.11c.17.75.43,1.66.8,2.73.37,1.07.78,2.21,1.24,3.41.46,1.2.93,2.35,1.43,3.47.49,1.11.97,2.1,1.42,2.94.45.85.83,1.46,1.14,1.85l-.85,2.28c-1.45-.29-3.04-.78-4.77-1.46-1.73-.68-3.49-1.46-5.28-2.33-1.79-.88-3.54-1.81-5.23-2.81.59.69,1.14,1.49,1.66,2.4.51.9.88,1.78,1.1,2.63.48,1.83.53,3.57.15,5.2-.38,1.63-1.13,3.04-2.26,4.21-1.13,1.17-2.58,1.99-4.36,2.45-1.92.5-3.74.46-5.47-.11-1.73-.57-3.24-1.59-4.52-3.04-1.28-1.45-2.2-3.24-2.76-5.38ZM327.55,168.27l.13.49c1.42-.4,2.48-1.03,3.19-1.88.71-.86.94-1.77.69-2.73-.18-.69-.5-1.21-.96-1.57-.46-.36-1.01-.46-1.64-.3-.77.2-1.31.77-1.64,1.72-.32.95-.25,2.37.21,4.27Z"/>
    </g>
    <g>
      <path class="cls-1" d="M78.73,302.39l21.4-19.72,6.43,6.98c1.39,1.51,2.29,3.04,2.68,4.57.39,1.53.35,3-.14,4.42-.49,1.41-1.36,2.7-2.62,3.87-1.24,1.15-2.59,1.9-4.02,2.26-1.44.36-2.9.28-4.37-.25-1.48-.53-2.91-1.54-4.31-3.06l-5.4-5.86,1.84-1.69,5.32,5.77c1.02,1.11,2.06,1.86,3.1,2.24,1.04.38,2.07.45,3.09.2s1.98-.8,2.89-1.64c.94-.86,1.58-1.8,1.93-2.8.35-1,.38-2.05.09-3.13-.29-1.09-.95-2.18-1.97-3.29l-4.47-4.85-19.58,18.04-1.88-2.04ZM90.18,314.81l4.87-14.11,2.12,2.3-4.82,14.16-2.17-2.36Z"/>
      <path class="cls-1" d="M106.94,329.5c-1.64-1.22-2.77-2.67-3.39-4.33-.62-1.66-.75-3.41-.39-5.25.36-1.84,1.2-3.65,2.52-5.41s2.81-3.09,4.47-3.97c1.66-.89,3.36-1.29,5.1-1.21,1.74.08,3.37.69,4.89,1.83.96.72,1.75,1.58,2.38,2.59.62,1.01,1.02,2.14,1.2,3.39.17,1.24.06,2.57-.36,3.97s-1.17,2.84-2.28,4.32l-.69.92-13.72-10.26,1.37-1.83,12.58,9.4-1.48-.04c.94-1.25,1.56-2.53,1.87-3.84.31-1.31.29-2.55-.08-3.71-.36-1.17-1.1-2.17-2.22-3-1.1-.83-2.29-1.26-3.56-1.29-1.27-.04-2.49.25-3.67.86-1.18.61-2.2,1.49-3.06,2.64l-.82,1.09c-1.02,1.37-1.68,2.74-1.97,4.13s-.2,2.69.25,3.92c.46,1.23,1.28,2.29,2.48,3.19.81.61,1.63,1.01,2.44,1.22.81.2,1.6.25,2.34.13.75-.12,1.41-.35,2-.71l1.54,2.15c-.82.53-1.76.88-2.83,1.06s-2.2.12-3.39-.18c-1.19-.3-2.38-.89-3.56-1.77Z"/>
      <path class="cls-1" d="M134.59,354.71l-2.35-1.19,5.52-10.93-.19-.1c-.56.48-1.24.9-2.05,1.28s-1.71.58-2.71.61c-1,.02-2.1-.26-3.28-.86-1.58-.8-2.76-1.92-3.54-3.37-.78-1.45-1.12-3.1-1.02-4.96.1-1.85.66-3.79,1.68-5.81,1.02-2.01,2.24-3.6,3.68-4.77,1.44-1.17,2.97-1.87,4.59-2.1s3.23.06,4.81.85c1.19.6,2.07,1.31,2.64,2.13.58.82.95,1.67,1.12,2.52.17.86.23,1.65.19,2.37l.26.13,1.89-3.75,2.28,1.15-13.53,26.78ZM130.91,341.54c1.26.63,2.49.83,3.72.59,1.22-.24,2.37-.85,3.44-1.82,1.07-.97,1.99-2.23,2.77-3.77.78-1.55,1.24-3.03,1.38-4.44.14-1.42-.06-2.69-.6-3.8s-1.43-1.99-2.69-2.63c-1.27-.64-2.52-.83-3.75-.58s-2.38.86-3.44,1.82c-1.06.96-1.96,2.19-2.71,3.67-.75,1.49-1.2,2.95-1.35,4.39-.15,1.44.04,2.74.56,3.89.52,1.16,1.42,2.05,2.67,2.68Z"/>
      <path class="cls-1" d="M155.74,353.97c-1.41-.42-2.57-1.09-3.47-2.01-.9-.92-1.48-2.03-1.75-3.36-.26-1.32-.15-2.81.35-4.45l4.05-13.53,2.54.76-4,13.34c-.51,1.71-.44,3.2.23,4.48.66,1.28,1.8,2.16,3.41,2.64,1.1.33,2.15.39,3.17.18s1.9-.67,2.67-1.4,1.33-1.69,1.69-2.89l3.91-13.04,2.54.76-6.27,20.92-2.47-.74,1.46-4.88.37.11c-1.13,1.67-2.43,2.73-3.9,3.15-1.47.43-2.99.41-4.55-.06Z"/>
      <path class="cls-1" d="M184.38,360.12c-2.03-.24-3.73-.92-5.1-2.05-1.37-1.13-2.36-2.58-2.97-4.35-.61-1.78-.78-3.76-.52-5.94.26-2.19.89-4.08,1.88-5.68,1-1.6,2.27-2.8,3.81-3.6,1.54-.8,3.26-1.09,5.15-.86,1.19.14,2.31.49,3.36,1.06s1.96,1.34,2.73,2.33c.77.99,1.33,2.19,1.68,3.61s.41,3.04.19,4.88l-.14,1.14-17.01-2.02.27-2.27,15.59,1.85-1.3.71c.18-1.55.08-2.97-.3-4.26-.38-1.29-1.03-2.35-1.92-3.18s-2.04-1.32-3.42-1.49c-1.37-.16-2.61.06-3.73.66-1.11.6-2.03,1.46-2.75,2.59-.72,1.12-1.16,2.39-1.33,3.82l-.16,1.36c-.2,1.69-.08,3.21.36,4.56s1.17,2.43,2.18,3.27c1.01.83,2.26,1.34,3.74,1.52,1.01.12,1.92.06,2.72-.17s1.51-.59,2.09-1.06c.59-.47,1.05-1.01,1.38-1.62l2.41,1.09c-.44.87-1.08,1.64-1.92,2.33-.84.69-1.84,1.2-3.02,1.54-1.18.34-2.5.42-3.96.25Z"/>
      <path class="cls-1" d="M208.77,361.07c-1.43.05-2.71-.12-3.83-.52-1.12-.4-2.06-1-2.8-1.81-.75-.81-1.27-1.83-1.58-3.04l2.52-.7c.36,1.3,1.02,2.26,1.97,2.87.95.61,2.15.89,3.6.84,1.65-.06,2.96-.48,3.93-1.26.97-.78,1.43-1.72,1.39-2.83-.03-.88-.35-1.61-.97-2.17-.61-.56-1.52-.97-2.71-1.21l-3.58-.73c-1.89-.39-3.32-1.05-4.28-1.99-.97-.94-1.47-2.14-1.53-3.61-.04-1.22.25-2.31.87-3.26.62-.95,1.5-1.7,2.64-2.26s2.43-.87,3.9-.92c1.38-.05,2.57.12,3.58.51s1.84.95,2.51,1.7c.67.75,1.19,1.64,1.55,2.68l-2.4.71c-.37-.99-.97-1.8-1.78-2.43-.81-.63-1.93-.92-3.36-.87-1.44.05-2.62.44-3.53,1.16-.91.72-1.35,1.63-1.31,2.72.03.92.38,1.67,1.03,2.23.65.56,1.65.98,3.01,1.26l3.37.68c1.86.39,3.27,1.05,4.22,1.98.95.93,1.45,2.12,1.51,3.56.04,1.25-.26,2.37-.92,3.36-.66.99-1.59,1.78-2.8,2.37s-2.62.92-4.22.97Z"/>
      <path class="cls-1" d="M230.12,336.29l.37,2.27-10.26,1.67-.37-2.27,10.25-1.67ZM222.23,332.31l2.62-.43,3.52,21.59c.17,1.07.54,1.81,1.1,2.24.56.42,1.32.5,2.28.24.18-.03.4-.09.65-.18.26-.09.5-.18.72-.27l.91,2.17c-.27.14-.57.26-.9.36-.33.11-.67.19-1.02.26-1.7.4-3.12.21-4.24-.57-1.12-.77-1.82-2-2.09-3.67l-3.55-21.76Z"/>
      <path class="cls-1" d="M259.57,350.96c-1.24.48-2.46.68-3.65.6s-2.28-.46-3.23-1.15-1.69-1.69-2.2-3c-.39-1.01-.53-1.93-.42-2.76.11-.83.43-1.61.96-2.32.53-.72,1.22-1.39,2.08-2.01s1.83-1.24,2.92-1.83c1.07-.58,1.98-1.08,2.73-1.49.75-.41,1.29-.81,1.62-1.21s.39-.85.2-1.35l-.18-.47c-.35-.91-.84-1.62-1.47-2.13-.63-.51-1.36-.8-2.21-.88-.85-.08-1.78.08-2.8.48-.96.37-1.74.85-2.36,1.43s-1.06,1.2-1.36,1.87c-.29.67-.45,1.33-.47,2l-2.68.12c.02-1.28.31-2.41.86-3.39.55-.98,1.28-1.83,2.18-2.53s1.87-1.26,2.91-1.67c.8-.31,1.67-.53,2.6-.64.93-.12,1.86-.07,2.78.15.92.22,1.78.68,2.57,1.39.79.71,1.45,1.73,1.97,3.08l5.37,13.82-2.42.94-1.25-3.22-.18.07c-.05.73-.25,1.49-.6,2.28s-.87,1.52-1.57,2.19c-.69.67-1.59,1.23-2.7,1.66ZM259.08,348.62c1.24-.48,2.21-1.17,2.9-2.07.7-.9,1.12-1.91,1.25-3.02s0-2.23-.44-3.33l-1.13-2.89c-.12.24-.35.51-.71.8-.36.29-.79.59-1.28.89-.49.3-.99.59-1.49.87-.51.28-.95.52-1.33.73-1.08.57-1.96,1.17-2.65,1.78-.69.62-1.14,1.27-1.36,1.95-.22.68-.17,1.43.14,2.23.32.81.79,1.43,1.41,1.84.62.41,1.34.64,2.15.67.81.03,1.65-.12,2.53-.46Z"/>
      <path class="cls-1" d="M275.61,313.57c-.44.28-.92.37-1.44.27s-.92-.36-1.19-.79c-.28-.44-.36-.91-.23-1.42s.41-.9.85-1.19c.45-.29.93-.38,1.44-.29s.91.37,1.19.8c.27.43.35.9.23,1.41-.12.51-.41.91-.86,1.2ZM276.68,317.69l2.24-1.43,12.91,20.14c.68,1.06,1.07,2.11,1.16,3.13.09,1.02-.1,1.98-.59,2.86s-1.25,1.66-2.29,2.33l-.49.32-1.33-2.07.46-.3c.87-.56,1.38-1.26,1.54-2.11.16-.85-.07-1.76-.69-2.72l-12.91-20.14Z"/>
      <path class="cls-1" d="M306.43,323.55c-1.46,1.22-3.05,1.93-4.77,2.12-1.72.2-3.44-.09-5.16-.87-1.72-.77-3.29-2.01-4.7-3.69-1.44-1.72-2.39-3.49-2.85-5.32s-.45-3.57.04-5.24c.49-1.66,1.47-3.1,2.92-4.33,1.45-1.21,3.03-1.92,4.76-2.12s3.45.09,5.17.86c1.72.77,3.3,2.02,4.74,3.74,1.41,1.69,2.35,3.44,2.82,5.27.47,1.83.45,3.57-.04,5.24-.5,1.67-1.47,3.11-2.93,4.33ZM304.89,321.71c1.15-.96,1.86-2.09,2.14-3.38.28-1.29.2-2.62-.25-3.99-.45-1.37-1.19-2.68-2.23-3.92-1.05-1.25-2.21-2.21-3.5-2.89-1.29-.68-2.59-1-3.91-.95-1.32.05-2.55.55-3.69,1.5-1.14.95-1.84,2.08-2.11,3.36-.27,1.29-.18,2.62.26,4.01.45,1.38,1.19,2.7,2.24,3.95,1.04,1.24,2.19,2.2,3.47,2.88,1.28.68,2.57,1,3.88.95,1.31-.05,2.54-.55,3.69-1.51Z"/>
      <path class="cls-1" d="M326.42,303.57c-.84.99-1.73,1.68-2.67,2.05-.94.37-1.85.54-2.74.49s-1.68-.17-2.39-.38l-.19.22,3.11,2.64-1.67,1.97-22.19-18.83,1.72-2.03,8.74,7.42.14-.16c-.32-.65-.57-1.4-.75-2.26-.18-.86-.16-1.78.04-2.75s.74-1.98,1.61-3c1.15-1.36,2.52-2.25,4.1-2.66s3.26-.36,5.04.15c1.78.52,3.53,1.51,5.25,2.96,1.73,1.47,3,3.03,3.81,4.7.81,1.67,1.14,3.32,1,4.96-.15,1.63-.8,3.14-1.97,4.51ZM324.37,302.28c.93-1.09,1.41-2.27,1.44-3.53.03-1.26-.3-2.53-1-3.8-.7-1.27-1.69-2.44-2.96-3.52-1.27-1.08-2.58-1.86-3.93-2.33s-2.64-.59-3.87-.34c-1.24.25-2.32.92-3.24,2.01-.91,1.07-1.4,2.23-1.46,3.47s.25,2.48.93,3.73c.68,1.25,1.68,2.44,3,3.56,1.32,1.12,2.66,1.92,4.03,2.39,1.36.48,2.66.59,3.88.33,1.22-.25,2.28-.91,3.18-1.97Z"/>
    </g>
  </g>
</svg>