<?xml version="1.0" encoding="UTF-8"?>
<svg id="_レイヤー_2" data-name="レイヤー 2" xmlns="http://www.w3.org/2000/svg" viewBox="0 0 405.84 400">
  <defs>
    <style>
      .cls-1 {
        fill: #500a28;
      }

    </style>
  </defs>
  <g id="contents">
    <g>
      <path class="cls-1" d="M103.02,128.19c-.31-.15-.71-.34-1.21-.57-.5-.23-.91-.38-1.23-.48l3.13-4.29c.47-.64.79-1.22.96-1.75.17-.52.15-1.08-.07-1.68-.21-.59-.67-1.32-1.38-2.19-.7-.86-1.7-1.94-3-3.24l-9.83,13.48c-.21-.29-.55-.71-1.03-1.25-.48-.54-1-1.13-1.55-1.76-.55-.63-1.06-1.21-1.53-1.72-.28,2.25-.65,4.51-1.13,6.77-.48,2.26-1.06,4.51-1.74,6.75-.17-.05-.44-.09-.81-.12-.37-.02-.73-.05-1.09-.09-.36-.03-.61-.05-.75-.05,1.27-3.91,2.19-7.7,2.76-11.39.57-3.69.85-7.21.85-10.57l-11.01,15.1-1.96-1.43,9.7-13.31-4.15-3.03-6.83,9.37-1.85-1.35,6.83-9.37-4.32-3.15,1.55-2.13,4.32,3.15,4.53-6.21,1.85,1.35-4.53,6.21,4.15,3.03,1.55-2.13c-.18-2.93-.55-5.69-1.13-8.29-.58-2.59-1.29-4.99-2.14-7.19l2.35-1.07c.84,2.02,1.53,4.15,2.05,6.41.53,2.26.91,4.59,1.14,7.01l7.5-10.29,1.96,1.43-9.18,12.59c.13,2.76.08,5.54-.15,8.35.07.09.17.19.29.29.12.1.23.21.32.31.81-1.26,1.68-2.64,2.59-4.13.91-1.49,1.79-2.99,2.64-4.52.85-1.52,1.61-2.96,2.29-4.32.68-1.36,1.2-2.54,1.57-3.53l2.56.24c-.64,1.46-1.5,3.2-2.58,5.24-1.08,2.03-2.28,4.15-3.61,6.35-1.33,2.2-2.65,4.31-3.98,6.32.37.41.71.79,1.01,1.13.31.35.56.63.75.84l9.7-13.31c2.12,2,3.76,3.67,4.93,5.02,1.17,1.35,1.94,2.51,2.29,3.48.36.98.4,1.89.13,2.75s-.77,1.78-1.51,2.79l-3,4.12Z"/>
      <path class="cls-1" d="M117.41,71.88c-.52.2-1.28.45-2.29.74-1.01.29-2.09.59-3.23.89-1.14.3-2.21.56-3.21.77-1,.21-1.75.33-2.26.35l-.28-2.57c.43-.03,1.11-.14,2.03-.34.92-.19,1.94-.44,3.04-.72,1.1-.29,2.15-.58,3.14-.88s1.76-.55,2.3-.77l.78,2.53ZM120.06,105.41l-2.82-.06c.15-.95.31-2.26.47-3.92.16-1.67.32-3.53.48-5.58.16-2.05.31-4.13.45-6.24.14-2.11.25-4.09.33-5.94.08-1.85.13-3.38.17-4.6-.73.77-1.57,1.62-2.51,2.54-.94.92-1.89,1.83-2.85,2.73-.96.9-1.84,1.72-2.65,2.46-.81.74-1.45,1.32-1.92,1.73l-1.92-1.86c.5-.36,1.16-.89,1.96-1.57.8-.68,1.68-1.45,2.63-2.31.95-.86,1.91-1.76,2.87-2.7.96-.94,1.86-1.84,2.71-2.71s1.54-1.64,2.1-2.32l2.63.3c-.09.41-.18,1.18-.27,2.31-.09,1.13-.18,2.44-.26,3.93-.08,1.49-.15,3.01-.22,4.56.17-.3.5-.58.99-.84.49-.27.92-.43,1.3-.49.85-.12,1.66.03,2.43.47.77.44,1.68,1.46,2.74,3.08,1.03,1.53,1.9,2.56,2.6,3.1s1.38.72,2.03.53c.65-.19,1.39-.58,2.21-1.18.53-.38,1.14-.86,1.83-1.45.69-.59,1.38-1.2,2.05-1.84.67-.64,1.22-1.2,1.64-1.68.11.3.34.71.67,1.22.33.51.61.9.83,1.15-.94.92-1.94,1.84-2.99,2.75-1.05.91-1.97,1.65-2.75,2.22-1.26.91-2.41,1.48-3.46,1.71-1.04.23-2.05,0-3.04-.69-.98-.69-2.04-1.91-3.17-3.68-.85-1.27-1.56-2.15-2.14-2.64-.58-.49-1.22-.66-1.91-.51-.55.11-1.03.4-1.45.86-.42.46-.65,1.14-.7,2.05-.14,2.09-.27,4.12-.41,6.11-.14,1.98-.27,3.77-.38,5.35-.11,1.58-.21,2.8-.29,3.66Z"/>
      <path class="cls-1" d="M173.91,77.52c-2.66.53-5.19.48-7.61-.15-2.42-.63-4.51-1.76-6.28-3.37-1.77-1.62-3.04-3.62-3.81-6.02-.44-1.37-.66-2.92-.65-4.63.01-1.71.31-3.47.88-5.28.58-1.81,1.51-3.51,2.81-5.12-1.63.85-3.3,1.74-5.03,2.67-1.72.93-3.38,1.82-4.98,2.68-1.6.86-3.03,1.64-4.29,2.34-1.26.7-2.25,1.28-2.97,1.72l-1.61-2.65c.86-.37,2.01-.9,3.45-1.6,1.44-.7,3.04-1.5,4.8-2.4,1.76-.9,3.57-1.83,5.43-2.8,1.86-.97,3.66-1.93,5.41-2.88,1.75-.95,3.32-1.82,4.73-2.62,1.41-.8,2.52-1.44,3.34-1.95l1.56,2.49c-.34.14-.76.33-1.26.58-.5.25-1.06.55-1.69.9-1.54.76-2.88,1.81-4.03,3.13-1.15,1.32-2.06,2.8-2.72,4.42-.67,1.63-1.05,3.31-1.16,5.06s.1,3.44.64,5.08c.71,2.21,1.87,3.92,3.49,5.14,1.61,1.22,3.48,1.99,5.61,2.32,2.13.33,4.33.27,6.59-.16-.18.45-.34.97-.47,1.58-.13.61-.19,1.12-.18,1.53Z"/>
      <path class="cls-1" d="M199.53,68.77c-.66.39-1.35.63-2.07.73-.72.1-1.43-.04-2.12-.42-.69-.38-1.33-1.1-1.94-2.15-.77-1.34-1.46-2.88-2.07-4.62-.61-1.74-1.12-3.55-1.55-5.44-.42-1.89-.73-3.78-.93-5.66-.2-1.89-.27-3.66-.21-5.33l2.72.09c-.09,1.98.02,4.13.32,6.46.3,2.33.77,4.58,1.42,6.77.64,2.19,1.42,4.1,2.33,5.73.52.89,1.06,1.38,1.61,1.49.55.11,1.08-.02,1.6-.38.74-.5,1.53-1.19,2.37-2.06.83-.88,1.44-1.68,1.82-2.41.19.37.45.79.77,1.24.32.46.62.82.9,1.08-.35.53-.81,1.12-1.39,1.76-.58.64-1.17,1.24-1.79,1.8-.62.56-1.21,1-1.78,1.33ZM217.05,61.62c-.24-.74-.63-1.68-1.16-2.82-.53-1.14-1.14-2.34-1.81-3.6-.67-1.26-1.36-2.45-2.07-3.58-.7-1.13-1.33-2.04-1.89-2.73l2.27-1.36c.58.75,1.24,1.7,1.97,2.86.73,1.16,1.46,2.39,2.19,3.69.73,1.3,1.37,2.53,1.94,3.68.56,1.16.98,2.1,1.25,2.84-.45.08-.94.21-1.45.4-.51.19-.93.4-1.24.62Z"/>
      <path class="cls-1" d="M244.06,80.83c-2.71-.91-4.55-2.07-5.51-3.48-.96-1.41-1.2-2.84-.71-4.29.31-.91.79-1.61,1.46-2.09.67-.48,1.42-.76,2.26-.86s1.66,0,2.46.27c1.56.52,2.66,1.56,3.32,3.13.66,1.56.71,3.34.16,5.34,1.68.15,3.28-.17,4.79-.95s2.59-2.1,3.21-3.98c.45-1.34.54-2.61.27-3.81-.27-1.19-.84-2.25-1.72-3.15-.88-.9-2-1.59-3.37-2.05-1.77-.59-3.53-.88-5.29-.85-1.75.02-3.48.38-5.17,1.07-.59.25-1.42.57-2.47.96-1.06.39-1.99.72-2.79.99l-1.1-2.47c1.61-.36,3.38-.92,5.31-1.69,1.93-.77,3.9-1.67,5.92-2.7,2.02-1.03,3.95-2.12,5.8-3.29,1.85-1.17,3.49-2.35,4.91-3.55-.87-.08-1.88-.2-3.04-.35-1.16-.15-2.36-.33-3.6-.56-1.24-.22-2.42-.44-3.54-.67-1.12-.23-2.09-.45-2.91-.66l.39-2.64c.72.27,1.62.54,2.72.82,1.1.28,2.28.55,3.53.82,1.25.27,2.48.5,3.68.7,1.2.19,2.28.33,3.24.41.96.08,1.68.1,2.18.06l1.45,1.96c-1.04,1.06-2.31,2.12-3.82,3.2-1.51,1.08-3.12,2.13-4.84,3.15-1.72,1.02-3.45,1.97-5.21,2.85.9-.11,1.88-.14,2.91-.08,1.04.06,1.97.24,2.81.51,1.8.6,3.28,1.51,4.44,2.72,1.16,1.21,1.92,2.61,2.29,4.19.36,1.58.25,3.25-.33,4.99-.63,1.88-1.66,3.39-3.08,4.52-1.43,1.13-3.1,1.84-5.01,2.13-1.92.28-3.92.08-6.01-.63ZM244.51,78.3l.48.16c.44-1.4.5-2.64.17-3.71-.33-1.07-.96-1.76-1.9-2.07-.67-.23-1.28-.24-1.84-.06-.56.19-.94.59-1.14,1.21-.25.75-.07,1.52.55,2.31.62.79,1.85,1.51,3.69,2.15Z"/>
      <path class="cls-1" d="M277.44,95.75c-2.15-1.61-3.61-3.31-4.36-5.09-.75-1.78-.74-3.88.04-6.3l2.73.61c-.63,1.51-.69,2.98-.18,4.42s1.65,2.83,3.42,4.15c1.52,1.14,3.08,2.19,4.68,3.18,1.6.98,3.14,1.83,4.61,2.55,1.48.72,2.75,1.24,3.81,1.57-.1.14-.27.39-.51.76-.24.37-.46.74-.64,1.11-.19.37-.31.62-.38.75-1.1-.37-2.39-.94-3.86-1.72-1.47-.78-3.01-1.68-4.62-2.71-1.62-1.03-3.19-2.12-4.73-3.27ZM288.02,72.38l1.61-2.29c.54.79,1.35,1.68,2.43,2.67,1.08.99,2.29,1.96,3.62,2.92,1.33.96,2.64,1.81,3.92,2.56,1.28.75,2.37,1.28,3.26,1.59l-1.61,2.29c-.9-.32-1.97-.84-3.22-1.58-1.25-.74-2.53-1.58-3.84-2.52s-2.52-1.91-3.62-2.89c-1.1-.98-1.96-1.9-2.56-2.74Z"/>
      <path class="cls-1" d="M313.46,136.47c-1.73-1.72-3.34-3.48-4.82-5.28-1.48-1.79-2.74-3.55-3.76-5.27-1.02-1.72-1.73-3.37-2.12-4.94-.4-1.57-.39-3.03.02-4.37.41-1.34,1.31-2.5,2.69-3.48,1.16-.81,2.46-1.22,3.9-1.21,1.44,0,2.99.33,4.66.98,1.67.65,3.39,1.52,5.17,2.62.85-1.64,2.23-3.31,4.12-5.02,1.89-1.71,4.46-3.69,7.69-5.93l1.76,2.5c-1.57.86-3.12,1.86-4.64,3-1.52,1.14-2.88,2.31-4.07,3.51-1.2,1.2-2.1,2.33-2.71,3.38,1.23.86,2.47,1.79,3.71,2.77,1.24.98,2.46,2,3.66,3.06l-1.89,2.26c-1.84-1.93-3.73-3.63-5.66-5.1-1.94-1.48-3.8-2.67-5.59-3.57-1.79-.9-3.42-1.46-4.89-1.68-1.47-.22-2.65,0-3.55.63-1.23.86-1.85,2.01-1.87,3.44-.02,1.43.44,3.04,1.38,4.84.94,1.8,2.23,3.68,3.89,5.65,1.66,1.97,3.56,3.93,5.69,5.89-.41.11-.89.3-1.44.57-.56.27-.99.52-1.32.74Z"/>
    </g>
    <g>
      <path class="cls-1" d="M55.46,264.79l22.15-20.51,1.3,2.51-14.77,13.48c-.67.61-1.35,1.22-2.05,1.82-.7.6-1.41,1.21-2.13,1.81s-1.46,1.2-2.22,1.8l-.16-.31c.93-.28,1.85-.53,2.75-.78.91-.24,1.81-.47,2.71-.69.9-.22,1.79-.42,2.67-.61l19.52-4.31,1.5,2.9-14.79,13.45c-.67.61-1.35,1.22-2.04,1.83-.7.61-1.4,1.22-2.12,1.83-.72.61-1.46,1.22-2.21,1.83l-.19-.36c.93-.26,1.85-.52,2.76-.76.91-.24,1.81-.47,2.72-.68.9-.21,1.79-.42,2.67-.62l19.52-4.31,1.32,2.55-29.55,6.22-1.54-2.97,14.86-13.66c.91-.84,1.9-1.7,2.95-2.59,1.05-.89,2.24-1.84,3.56-2.85l.27.52c-1.52.46-2.93.87-4.23,1.21-1.3.34-2.62.67-3.97.97l-19.73,4.26-1.54-2.97Z"/>
      <path class="cls-1" d="M88.38,292.48l-10.24,8.96-1.75-2,21.9-19.16,1.75,2-9.3,8.14-.32-.37c1.82-.8,3.48-1,4.96-.59,1.48.41,2.77,1.23,3.86,2.48.98,1.12,1.6,2.3,1.87,3.55.27,1.25.17,2.5-.31,3.76-.48,1.26-1.37,2.45-2.67,3.59l-10.63,9.3-1.75-2,10.48-9.17c1.34-1.17,2.07-2.48,2.19-3.92.12-1.44-.37-2.79-1.48-4.05-.75-.86-1.62-1.48-2.58-1.84s-1.97-.44-3.01-.23c-1.04.21-2.03.72-2.97,1.55Z"/>
      <path class="cls-1" d="M100.24,324.29c-1.03-.83-1.81-1.79-2.34-2.87-.53-1.08-.73-2.2-.61-3.38.12-1.17.62-2.31,1.5-3.4.68-.84,1.41-1.42,2.18-1.74.78-.32,1.61-.43,2.49-.32.89.1,1.81.37,2.78.8.97.43,1.98.97,3.04,1.63,1.04.64,1.92,1.18,2.65,1.63.73.45,1.34.71,1.85.8.5.09.93-.08,1.27-.5l.32-.4c.61-.76.99-1.54,1.12-2.33.13-.8.02-1.58-.33-2.35-.36-.77-.96-1.5-1.81-2.19-.8-.65-1.6-1.09-2.41-1.33-.81-.24-1.57-.32-2.3-.25-.72.08-1.38.27-1.97.58l-1.44-2.26c1.12-.62,2.24-.93,3.37-.94,1.13,0,2.22.2,3.28.63,1.06.43,2.02.99,2.9,1.7.67.54,1.29,1.18,1.85,1.93.57.75.98,1.58,1.25,2.49.27.91.29,1.89.08,2.92s-.78,2.12-1.69,3.24l-9.31,11.54-2.02-1.63,2.17-2.69-.15-.12c-.66.32-1.42.52-2.27.61-.86.09-1.75,0-2.68-.27-.93-.27-1.86-.77-2.78-1.52ZM102.03,322.69c1.03.83,2.11,1.33,3.24,1.49,1.13.16,2.21.02,3.25-.42,1.04-.43,1.93-1.11,2.67-2.03l1.95-2.42c-.27.02-.62-.05-1.05-.22s-.9-.39-1.41-.66c-.51-.27-1.01-.56-1.5-.86-.5-.3-.93-.56-1.29-.79-1.03-.65-1.99-1.12-2.87-1.41-.88-.29-1.67-.36-2.37-.21-.7.15-1.32.56-1.86,1.23-.55.68-.85,1.39-.9,2.14s.11,1.48.48,2.2c.37.72.92,1.37,1.65,1.96Z"/>
      <path class="cls-1" d="M131.27,312.9l2.27,1.38-11.41,18.67c-.56.92-.77,1.73-.63,2.41.15.68.67,1.24,1.57,1.67.16.1.36.19.61.29.25.1.49.19.72.27l-.72,2.24c-.29-.07-.6-.18-.92-.31-.32-.14-.64-.29-.94-.46-1.55-.81-2.5-1.87-2.85-3.19s-.08-2.7.8-4.14l11.5-18.82ZM134.67,321.06l-1.2,1.97-8.87-5.42,1.2-1.97,8.87,5.42Z"/>
      <path class="cls-1" d="M156.6,323.23l-10.53,27.13-2.59-1,10.53-27.13,2.59,1Z"/>
      <path class="cls-1" d="M162.28,336.02l2.55-10,2.76.8-3.19,9.81-2.12-.61Z"/>
      <path class="cls-1" d="M172.08,358.38l2.26-21.72,2.56.27-.5,4.96-.29-.03c.42-1.19,1.01-2.13,1.75-2.84.74-.71,1.58-1.21,2.5-1.51.93-.3,1.86-.4,2.79-.3,1.59.17,2.85.79,3.78,1.89.93,1.09,1.45,2.48,1.56,4.17l-.43-.04c.38-1.1.94-2.02,1.7-2.76.76-.74,1.65-1.28,2.66-1.62,1.02-.34,2.1-.45,3.25-.33,1.29.14,2.42.54,3.38,1.21.96.67,1.67,1.59,2.15,2.76.47,1.17.63,2.57.46,4.2l-1.52,14.63-2.62-.27,1.52-14.55c.18-1.75-.15-3.08-1-4.01-.85-.93-1.95-1.46-3.31-1.6-1.04-.11-1.97.02-2.81.38s-1.52.92-2.05,1.67c-.53.76-.85,1.67-.96,2.75l-1.49,14.32-2.62-.27,1.54-14.78c.16-1.5-.16-2.74-.94-3.7s-1.87-1.52-3.25-1.66c-.97-.1-1.89.03-2.75.4-.86.37-1.58.95-2.16,1.74-.58.79-.93,1.79-1.06,2.99l-1.45,13.97-2.64-.27Z"/>
      <path class="cls-1" d="M229.29,336.45l.36,2.28-10.27,1.61-.36-2.28,10.27-1.61ZM221.42,332.43l2.62-.41,3.39,21.61c.17,1.07.53,1.81,1.08,2.24.55.43,1.31.51,2.27.26.18-.03.4-.09.65-.17s.5-.17.72-.26l.89,2.17c-.27.13-.57.25-.9.36-.33.1-.67.19-1.02.26-1.71.39-3.12.19-4.23-.59-1.12-.78-1.81-2.01-2.07-3.68l-3.42-21.78Z"/>
      <path class="cls-1" d="M239.95,342.51l3.93,13.03-2.54.77-8.41-27.86,2.54-.77,3.57,11.84-.47.14c.02-1.99.53-3.58,1.51-4.76.98-1.18,2.27-2.01,3.85-2.49,1.42-.43,2.76-.51,4.01-.24,1.25.27,2.35.88,3.3,1.83.95.95,1.67,2.26,2.17,3.91l4.08,13.52-2.54.77-4.02-13.33c-.52-1.71-1.4-2.91-2.66-3.61-1.26-.7-2.69-.81-4.3-.32-1.1.33-2.01.86-2.74,1.59-.73.73-1.22,1.61-1.46,2.64-.24,1.03-.18,2.15.18,3.34Z"/>
      <path class="cls-1" d="M258.01,323.1c-.48.21-.96.23-1.46.06-.5-.18-.85-.5-1.06-.96-.21-.48-.22-.95-.01-1.44s.54-.83,1.02-1.05c.49-.22.98-.24,1.47-.07.49.17.84.5,1.06.97.21.46.21.94.02,1.43-.2.49-.54.84-1.02,1.06ZM267.36,347.26l-8.93-19.93,2.42-1.09,8.93,19.93-2.42,1.09Z"/>
      <path class="cls-1" d="M274.62,328.59l7.1,11.62-2.27,1.39-11.39-18.63,2.18-1.33,2.68,4.34-.35.21c-.48-1.93-.39-3.6.26-4.99s1.69-2.52,3.1-3.38c1.27-.77,2.54-1.19,3.81-1.24,1.27-.05,2.49.26,3.64.94s2.19,1.76,3.09,3.24l7.36,12.05-2.25,1.38-7.26-11.88c-.93-1.52-2.09-2.46-3.49-2.82-1.4-.36-2.81-.1-4.24.77-.98.6-1.73,1.34-2.25,2.23-.52.89-.77,1.87-.74,2.93s.37,2.12,1.02,3.19Z"/>
      <path class="cls-1" d="M303.28,325.73l-19.16-21.9,2-1.75,19.16,21.9-2,1.75ZM299.72,318l-2.26-2.59.41-.36.86-14.35,2.51-2.2-.85,14.27-.21.24-.46,4.99ZM313.49,316.8l-13.93-2.6.22-2.63,16.27,2.99-2.56,2.24Z"/>
      <path class="cls-1" d="M303.04,290.31c-.35.39-.79.6-1.32.64s-.98-.11-1.36-.45c-.39-.35-.58-.79-.59-1.31,0-.52.16-.98.51-1.37.36-.4.8-.61,1.31-.65.52-.04.97.11,1.36.46.38.34.57.77.59,1.3.02.52-.15.98-.51,1.38ZM321.34,308.65l-16.21-14.63,1.78-1.97,16.21,14.63-1.78,1.97Z"/>
      <path class="cls-1" d="M320.46,288.64l11.18,7.77-1.52,2.18-17.93-12.47,1.46-2.1,4.2,2.89-.23.34c-1.22-1.58-1.81-3.13-1.77-4.67.04-1.54.53-2.98,1.47-4.34.85-1.22,1.84-2.11,2.99-2.67,1.14-.56,2.38-.76,3.72-.6,1.33.16,2.71.73,4.13,1.72l11.59,8.06-1.51,2.16-11.43-7.95c-1.46-1.02-2.91-1.41-4.33-1.18-1.42.23-2.61,1.04-3.57,2.42-.65.94-1.04,1.92-1.16,2.95-.12,1.03.05,2.02.5,2.98s1.19,1.79,2.22,2.51Z"/>
      <path class="cls-1" d="M356.63,271.14c-.62,1.35-1.34,2.45-2.16,3.32-.82.86-1.69,1.5-2.62,1.92-.92.42-1.87.64-2.83.68l-.29-2.54c.64-.05,1.31-.2,2.01-.46s1.37-.7,2.02-1.31,1.23-1.48,1.74-2.58c.81-1.75,1.02-3.36.64-4.82-.38-1.46-1.48-2.62-3.3-3.46l-4.45-2.05-.11.23c.5.54.93,1.2,1.29,1.98.37.78.56,1.66.57,2.64.01.98-.25,2.06-.8,3.25-.72,1.57-1.76,2.79-3.1,3.66-1.34.86-2.9,1.31-4.68,1.34-1.78.03-3.67-.42-5.7-1.36-2.02-.93-3.63-2.09-4.84-3.48-1.2-1.39-1.95-2.89-2.23-4.51-.28-1.62-.05-3.24.69-4.86.56-1.21,1.23-2.11,2.03-2.72.8-.61,1.62-1.01,2.48-1.21.86-.2,1.65-.29,2.37-.27l.11-.25-3.81-1.76,1.08-2.34,20.31,9.36c1.68.77,2.9,1.77,3.66,2.98.76,1.21,1.12,2.56,1.07,4.04-.05,1.48-.43,3.02-1.16,4.6ZM346.34,266.57c.58-1.27.78-2.48.58-3.66-.2-1.17-.76-2.26-1.68-3.26-.92-1-2.18-1.86-3.76-2.59-1.54-.71-3.01-1.1-4.41-1.18-1.4-.08-2.65.17-3.74.74-1.09.57-1.93,1.5-2.52,2.79-.6,1.3-.75,2.56-.46,3.79.29,1.22.92,2.34,1.9,3.36.98,1.02,2.21,1.87,3.69,2.55,1.5.69,2.94,1.07,4.3,1.12,1.37.06,2.58-.22,3.64-.82,1.06-.6,1.88-1.55,2.48-2.84Z"/>
    </g>
  </g>
</svg>