<?xml version="1.0" encoding="UTF-8"?>
<svg id="_レイヤー_2" data-name="レイヤー 2" xmlns="http://www.w3.org/2000/svg" viewBox="0 0 325 325">
  <defs>
    <style>
      .cls-1 {
        fill: #500a28;
      }

      .cls-2 {
        fill: #ffffa0;
      }
    </style>
  </defs>
  <g id="_レイヤー_1-2" data-name="レイヤー 1">
    <circle class="cls-2" cx="162.5" cy="162.5" r="162.5"/>
    <g>
      <path class="cls-1" d="M110.06,65.79l.11-.81,2.24.18c.22.02.4.1.49.24.15.23.16.3-.35,1.01,2.92,7.61,2.44,9.77-2.39,13-.25.17-.65.43-1.21.77-.68-.89-1-1.25-1.93-1.9,1.29-.7,1.87-1,2.57-1.47,2.91-1.95,3.09-2.96,1.04-9.08l-12.07,8.07c.13.32.31.77.55,1.43q.25.61.47,1.2l-2.19,1.13c-.4-1.33-1.25-3.46-2.22-5.71-1.25,2.47-2.68,4.86-4.5,7.59-.78-.5-1.3-.72-2.08-.9,2.36-3.38,4-6.19,5.42-9.26-.38-.81-.76-1.62-1.12-2.36l2.23-.27c.35-.89.71-1.82,1.05-2.83.18-.53.35-1.01.52-1.49l-7.15,4.78c-1.58,1.06-4.09,2.81-5.58,3.89l-1.27-1.89c1.51-.93,4.09-2.57,5.73-3.67l5.03-3.36-1.89-2.83-5.2,3.48c-.93.62-2.48,1.74-3.33,2.35l-1.21-1.81c.87-.54,2.35-1.49,3.43-2.21l5.2-3.48-.49-.73c-.87-1.3-1.1-1.64-1.81-2.59l2.11-1.12c.36-.2.58-.23.7-.06s.06.45-.19.94l1.55,2.32,1.92-1.28c1.07-.72,2.5-1.71,3.33-2.3l1.08,1.61c.26-1.93.45-3.98.55-6.34l2.29-.43c.43-.09.67-.04.8.16.19.28.1.46-.56,1.07-.35,3.26-.83,6.03-1.4,8.67l2.8-1.87c1.78-1.19,4.19-2.84,5.55-3.87l1.27,1.89c-1.54.94-3.98,2.49-5.7,3.65l-4.66,3.12c-.39,1.37-.84,2.73-1.34,4.17-.51,1.44-1.02,2.81-1.6,4.09,3.87-3.69,6.57-6.81,8.34-9.66l2.51.2c.22.02.35.09.42.21.13.2.02.52-.29.73-.08.06-.23.15-.39.22-4,4.6-5.57,6.22-10.02,10.21.2.48.38.93.61,1.39l12.21-8.16ZM97.62,61.31c.4-1.54.73-3.06.99-4.63-.9.56-2.35,1.45-3.22,2.03l-1.92,1.28,1.89,2.83,2.26-1.51Z"/>
      <path class="cls-1" d="M125.04,66.1q1.45-1.96,4.39-7.24c4.17-7.53,4.45-8.06,5.47-10.23-5.71,2.35-8.98,3.7-9.76,4.05l-1.08-2.25c5.98-2,7.49-2.53,11.28-4.02.4-.21.52-.31.83-.71,1.46.46,2.42.91,2.49,1.17.05.2-.08.37-.25.52-.2.16-.31.29-.52.56-.1.17-.95,1.62-2.54,4.39q-1.25,2.19-1.79,3.21c-.23.45-.33.61-.74,1.32.51-.34.79-.49,1.18-.59.56-.15,1.32-.07,1.85.22.61.33.92.67,2.06,2.34,1.81,2.62,2.18,2.8,4.38,2.22,2.63-.69,4.26-1.3,6.95-2.57-.02.74.05,1.11.19,1.67.05.2.1.39.22.71-2.56,1.1-4.1,1.64-6.11,2.17-2.6.68-3.99.73-4.95.18q-.61-.3-3.09-3.86c-.84-1.19-1.3-1.45-2.18-1.22-1.25.33-1.85,1.12-3.49,4.5-.28.53-.69,1.38-1.23,2.4-.6,1.18-.79,1.54-1.24,2.51l-2.32-1.46ZM134.52,42.9c-4.1-.22-6.37-.82-9.25-2.56l1.22-1.66c2.92,1.48,4.79,1.9,8.31,2.03l-.27,2.18Z"/>
      <path class="cls-1" d="M183.04,40.01c.15.25.24.43.23.6-.02.24-.23.32-.64.33-2.76-.03-4.45.26-6.31,1.01-2.42.99-4.91,2.85-6.34,4.8-.94,1.3-1.58,3.02-1.7,4.75-.36,5.05,3.24,7.63,11.74,8.37-.46.65-.7,1.14-1.12,2.37-3.04-.39-4.82-.79-6.81-1.51-4.25-1.53-6.44-4.79-6.14-9.03.29-4,2.34-7.03,6.63-9.79q-6.65.96-10.19,1.42c-.24.05-.79.11-1.52.23-.72.08-1.27.15-1.58.19-1.03.13-1.17.16-1.83.28l-.46-2.66c3.07-.05,7.71-.51,15.17-1.4,6.77-.81,7.63-.92,9.83-1.58l1.04,1.61Z"/>
      <path class="cls-1" d="M202.28,45.64c.38.24.57.58.46.83-.11.25-.33.34-.97.29-.98,1.69-1.54,2.82-2.78,5.73-1.37,3.22-1.91,6.21-1.52,8.52.26,1.48.76,2.54,1.39,2.81.41.17.75.06,1.29-.34.73-.58,2.14-2.16,3.07-3.46q.6,1.03,1.25,2.01c-2.8,3.8-4.65,5-6.56,4.19-1.44-.61-2.46-2.46-2.82-5.01-.43-2.88.14-5.78,1.91-9.94.48-1.13,1.02-2.3,1.72-3.78.41-.79.68-1.34.75-1.49.5-1.01.57-1.16.71-1.58l2.1,1.23ZM216.23,53.59c2.08,5.1,2.6,8.47,2.1,13.72l-2.69.07c.7-4.77.28-8.64-1.45-13.08l2.04-.72Z"/>
      <path class="cls-1" d="M240.1,64.25c2.16,1.72,6.69,4.61,9.52,6.15l.56.09.23,2.59c.01.24-.03.44-.14.56-.16.18-.33.11-.5.05l-.42-.15c-7.1.93-8.73,1.11-13.41,1.47,3.08.95,4.39,1.62,5.96,3.03,3.61,3.25,4.13,7.51,1.28,10.67-1.64,1.82-3.85,2.8-6.31,2.74-2.56-.06-5-1.16-7.55-3.46-3.29-2.96-4.15-5.66-2.42-7.58,1.34-1.49,3.61-1.46,5.27.04,1.39,1.25,2.07,3.14,1.88,5.03-.11.73-.27,1.27-.84,2.72,1.53.79,2.39,1.01,3.59.99,1.71-.07,3.33-.85,4.51-2.16,2.09-2.32,1.76-5.41-.81-7.73-2.12-1.91-5.14-3.03-8.99-3.33-1.06-.09-1.89-.14-3.96-.13l.03-2.58c5.45.1,5.73.08,7.65-.06.19-.01,4.45-.47,12.76-1.46l-4.64-2.72c-.89-.53-3.84-2.09-4.48-2.39l1.22-2.38ZM231,81.78c-.86-.77-1.9-.79-2.51-.11-.89.99-.22,2.68,1.78,4.48.28.25.3.27.91.77,1.2-2.45,1.14-3.96-.17-5.14Z"/>
      <path class="cls-1" d="M256.89,102.79c-2.36-.6-3.33-.6-4.43.01-2.29,1.27-1.88,4.31,1.4,10.2,1.64,2.94,3.08,4.98,5.65,7.91-1.06.47-1.17.49-2.29,1.12-2.09-2.57-3.8-5.08-5.52-8.17-2.08-3.74-3.11-6.71-3.09-8.98.03-1.61.98-3.19,2.47-4.02,1.6-.89,3.17-.95,6.14-.15l-.32,2.08ZM268.25,97.12c-.4,2.01-.13,3.19,1.29,5.74,1.34,2.41,2.78,4.37,4.79,6.44l-1.81,1.63c-2.08-2.27-3.52-4.23-4.98-6.84-1.8-3.24-2.09-4.95-1.32-7.55l2.03.58Z"/>
      <path class="cls-1" d="M285.7,138.71c-4.45.79-7.55,1.62-9.55,2.6q3.06,4.6,4.83,6.57l-1.54,1.83c-.2.24-.29.33-.39.35-.33.06-.44-.16-.6-1.07-3.92-6.73-4.69-7.94-6.19-9.54-2.22-2.4-4-3.29-6.01-2.94-2.48.44-3.16,2.63-2.33,7.32.63,3.55,1.52,6.78,2.57,9.42-.61.04-.92.09-1.32.17-.37.07-.64.11-1.2.25-.89-2.5-1.65-5.37-2.2-8.52-.54-3.01-.6-5.11-.25-6.83.42-2.08,2.02-3.57,4.23-3.96,3.08-.55,6.04,1.14,9.06,5.12,2.5-1.27,3.48-1.59,9.52-3,1.22-.32,1.29-.33,3.37-.88l.35,2.56c.05.3-.07.6-.3.64-.2.04-.46-.06-.75-.32l-1.31.23Z"/>
    </g>
    <g>
      <path class="cls-1" d="M49.97,202.67l-.42-1.19,8.75-7.58-.07-.2-13.85,4.85.68,1.93c.09.25.1.45.03.59-.07.14-.19.25-.37.31-.17.06-.32.05-.47-.02-.15-.07-.27-.23-.35-.48l-1.35-3.86c-.09-.25-.09-.45-.02-.59s.19-.25.36-.31c.18-.06.33-.06.48.01.14.07.26.23.35.48l.31.88,13.85-4.85-.23-.66c-.09-.25-.1-.45-.03-.59.07-.15.19-.25.36-.31.18-.06.33-.06.48.01.14.07.26.23.35.48l.9,2.56-8.62,7.46,11.37.39.9,2.56c.09.26.1.46.03.6s-.19.25-.36.31c-.18.06-.33.06-.48-.01-.14-.07-.26-.23-.35-.49l-.23-.65-13.85,4.85.31.87c.09.26.1.46.03.6-.07.15-.19.25-.37.31-.17.06-.32.05-.47-.02-.15-.07-.27-.23-.36-.49l-1.35-3.85c-.09-.25-.1-.45-.02-.6.07-.15.19-.26.36-.31.17-.06.33-.06.48.01s.26.23.35.49l.68,1.93,13.85-4.85-.08-.22-11.54-.39Z"/>
      <path class="cls-1" d="M60.95,224l-5.36-9.93c-1.31.93-2.15,2.06-2.53,3.41s-.21,2.67.49,3.98c.39.73.94,1.42,1.63,2.07s1.4,1.11,2.11,1.38c.21.08.34.17.4.28.07.12.07.26.01.41-.06.15-.16.27-.31.34-.15.08-.32.09-.53.04-.63-.14-1.39-.58-2.27-1.33-.88-.75-1.6-1.62-2.14-2.62-.9-1.67-1.05-3.39-.43-5.17s1.78-3.13,3.51-4.06c1.57-.85,3.21-1.05,4.9-.61,1.69.44,2.95,1.43,3.79,2.98.86,1.59.99,3.22.39,4.87-.6,1.65-1.83,2.97-3.67,3.94ZM61.52,222.42c1.09-.84,1.79-1.87,2.09-3.1.3-1.23.15-2.41-.47-3.55-.61-1.14-1.51-1.92-2.69-2.34-1.18-.42-2.43-.41-3.75.05l4.82,8.93Z"/>
      <path class="cls-1" d="M81.3,231.19l-13.64,10.41.9,1.17c.17.22.24.4.22.56-.02.16-.1.29-.25.41-.14.11-.29.15-.45.13-.16-.02-.33-.14-.49-.35l-1.58-2.06,1.94-1.48c-2.33.17-4.1-.54-5.3-2.11-.61-.8-.96-1.74-1.04-2.83-.09-1.09.14-2.18.69-3.26.55-1.09,1.28-1.98,2.21-2.69.93-.71,1.99-1.19,3.18-1.42,1.19-.24,2.3-.17,3.33.2,1.03.37,1.85.95,2.47,1.76,1.17,1.54,1.38,3.42.63,5.65l5.52-4.21-.9-1.17c-.17-.22-.24-.41-.21-.57.02-.16.11-.3.26-.41.14-.11.29-.15.45-.13.16.02.33.14.49.35l1.58,2.06ZM71.03,237.62c1.24-.95,2-2.12,2.28-3.53.28-1.41.02-2.63-.77-3.67-.8-1.05-1.91-1.62-3.34-1.73-1.43-.1-2.77.32-4.01,1.27-1.23.94-1.99,2.12-2.27,3.53-.28,1.41-.02,2.64.78,3.69.79,1.04,1.91,1.61,3.34,1.71,1.43.1,2.77-.32,4-1.26Z"/>
      <path class="cls-1" d="M85.65,243.85l-7.91,8.28,3.15,3c.2.19.3.36.3.52,0,.16-.06.31-.18.44-.12.13-.26.19-.43.2s-.34-.09-.54-.27l-7.09-6.77c-.19-.18-.29-.35-.29-.52,0-.16.06-.31.18-.44.13-.13.27-.2.43-.21.16,0,.34.09.53.27l3.15,3,7.05-7.38-2.34-2.23c-.19-.18-.29-.36-.29-.52s.05-.31.17-.44c.13-.13.27-.2.44-.21s.34.09.54.27l3.14,3ZM89.98,239.26l-2.2,2.3-1.18-1.13,2.2-2.3,1.18,1.13Z"/>
      <path class="cls-1" d="M94.26,266.81l1.01-1.46c-2.18.32-4.02-.04-5.52-1.08-1.09-.76-1.73-1.65-1.92-2.69s.03-2,.64-2.9c.68-.98,1.67-1.55,2.99-1.72,1.31-.17,2.75.28,4.3,1.36.42.29.85.64,1.3,1.04.45.4.92.86,1.4,1.39l1.13-1.64c.38-.55.49-1.2.31-1.93-.18-.73-.73-1.42-1.66-2.06-.71-.49-1.86-.95-3.46-1.38-.29-.08-.46-.14-.53-.19-.12-.08-.18-.2-.2-.35-.02-.15.03-.3.13-.45.09-.14.21-.22.33-.25.18-.05.71.07,1.57.35,1.36.44,2.33.87,2.91,1.27,1.15.8,1.83,1.73,2.03,2.81.21,1.08.03,2.01-.52,2.81l-4.64,6.7,1.21.84c.22.15.35.31.38.47.03.16,0,.31-.11.46-.1.14-.23.23-.39.26s-.35-.03-.58-.19l-2.14-1.48ZM97.74,261.78c-.33-.43-.71-.84-1.15-1.24-.43-.39-.91-.77-1.44-1.14-1.32-.92-2.58-1.31-3.76-1.19-.89.08-1.57.45-2.02,1.11-.42.61-.56,1.27-.42,1.99.14.72.62,1.36,1.45,1.93.79.54,1.64.88,2.56,1s2,.04,3.24-.22l1.54-2.23Z"/>
      <path class="cls-1" d="M129.91,282.83l.51-1.7c-1.97.98-3.83,1.21-5.58.69-1.27-.38-2.16-1.03-2.66-1.96s-.6-1.91-.29-2.95c.34-1.14,1.11-2,2.31-2.57s2.7-.59,4.51-.05c.49.15,1.01.34,1.56.58.55.24,1.14.54,1.76.88l.57-1.91c.19-.65.09-1.29-.31-1.93-.4-.64-1.13-1.12-2.21-1.44-.83-.25-2.06-.32-3.71-.24-.3.01-.48,0-.56-.01-.13-.04-.23-.13-.3-.27s-.07-.3-.02-.46c.05-.16.13-.27.24-.34.16-.11.69-.16,1.6-.15,1.43,0,2.48.1,3.16.3,1.34.4,2.27,1.08,2.8,2.04.53.96.66,1.9.38,2.83l-2.33,7.81,1.42.42c.26.08.43.19.51.33.08.14.09.3.04.48-.05.17-.15.29-.29.37-.14.08-.34.08-.61,0l-2.49-.74ZM131.66,276.96c-.45-.31-.94-.58-1.47-.82s-1.11-.45-1.72-.64c-1.54-.46-2.86-.45-3.94.03-.82.36-1.35.92-1.58,1.69-.21.71-.14,1.38.22,2.02.36.64,1.01,1.1,1.97,1.38.92.27,1.83.32,2.74.15.91-.17,1.91-.58,3.01-1.22l.77-2.6Z"/>
      <path class="cls-1" d="M146.38,273.27l-.41,3.08c1.62-1.24,2.81-2.02,3.57-2.34.76-.32,1.45-.44,2.05-.36.65.09,1.23.41,1.73.97.5.56.73.97.7,1.22-.02.18-.1.33-.22.44-.12.11-.27.15-.44.13-.09-.01-.16-.04-.22-.08-.06-.04-.16-.17-.3-.37-.26-.38-.5-.65-.7-.8-.21-.16-.42-.25-.64-.28-.48-.06-1.08.07-1.82.41-.73.34-2.04,1.22-3.92,2.66l-.88,6.68,4.86.64c.27.04.45.12.55.24s.14.28.11.46c-.02.17-.1.31-.23.41-.13.1-.33.13-.6.1l-8.61-1.14c-.26-.03-.44-.12-.54-.24s-.14-.28-.11-.45c.02-.16.09-.29.22-.39.12-.1.32-.13.59-.09l2.65.35,1.35-10.17-2.03-.27c-.26-.03-.44-.12-.54-.25-.1-.13-.13-.29-.11-.47.02-.17.1-.31.22-.41.12-.1.32-.13.59-.1l3.12.41Z"/>
      <path class="cls-1" d="M169.83,275.52v-.41c-.02-.3.03-.52.13-.65s.23-.2.39-.2c.17,0,.3.06.41.18.11.12.17.34.17.64l.07,2.78c0,.3-.05.52-.15.65-.1.13-.23.2-.4.2-.15,0-.28-.05-.38-.16s-.17-.3-.19-.56c-.07-.69-.5-1.34-1.28-1.95-.78-.61-1.83-.89-3.13-.86-1.64.04-2.88.64-3.7,1.8s-1.22,2.48-1.19,3.96c.04,1.59.54,2.89,1.5,3.91.96,1.01,2.19,1.5,3.69,1.47.86-.02,1.73-.22,2.62-.59.88-.37,1.68-.96,2.38-1.76.18-.2.34-.3.48-.3.15,0,.28.05.38.16.1.11.16.25.16.41,0,.42-.42.96-1.29,1.63-1.41,1.08-2.99,1.64-4.75,1.68-1.78.04-3.26-.56-4.44-1.79s-1.79-2.83-1.83-4.77c-.05-1.98.5-3.64,1.64-4.98,1.14-1.34,2.6-2.02,4.39-2.07,1.7-.04,3.13.49,4.31,1.58Z"/>
      <path class="cls-1" d="M178.14,267.63l1.36,7.45c.54-.96,1.09-1.67,1.67-2.13s1.25-.76,2.04-.9c.85-.15,1.6-.12,2.25.1.65.22,1.24.64,1.76,1.26.52.61.85,1.3.99,2.06l1.37,7.51,1.22-.22c.27-.05.47-.03.59.06.13.09.21.23.24.41.03.17,0,.33-.08.46-.09.13-.26.23-.53.28l-3.54.65c-.27.05-.47.03-.6-.07-.13-.09-.22-.23-.25-.4-.03-.18,0-.34.09-.47.09-.13.27-.22.54-.27l1.22-.22-1.36-7.42c-.16-.87-.58-1.55-1.25-2.03-.67-.48-1.52-.63-2.53-.45-.8.15-1.43.49-1.92,1.02-.35.38-.89,1.23-1.61,2.54l1.4,7.67,1.23-.23c.26-.05.46-.03.59.06.13.09.22.23.25.41.03.17,0,.33-.09.46-.09.14-.27.23-.53.27l-3.55.65c-.26.05-.46.02-.59-.07s-.22-.23-.25-.4c-.03-.18,0-.34.09-.47.09-.13.27-.22.53-.27l1.23-.22-2.86-15.65-1.47.27c-.26.05-.46.02-.59-.07-.13-.09-.22-.23-.25-.42-.03-.17,0-.33.09-.46.09-.14.27-.23.53-.27l2.55-.47Z"/>
      <path class="cls-1" d="M200.3,267.86l3.81,10.8,4.1-1.45c.26-.09.46-.1.6-.03s.25.19.31.36c.06.17.05.32-.02.47-.07.15-.23.27-.49.36l-9.25,3.26c-.25.09-.45.1-.59.02-.15-.07-.25-.19-.31-.36-.06-.17-.06-.33.01-.48.07-.14.23-.26.48-.35l4.1-1.45-3.4-9.63-3.05,1.07c-.25.09-.45.1-.6.03-.15-.07-.26-.19-.31-.36-.06-.17-.06-.34.01-.49.07-.15.23-.27.49-.36l4.09-1.44ZM198.16,261.92l1.06,3-1.54.54-1.06-3,1.54-.54Z"/>
      <path class="cls-1" d="M222.72,271.61l-1.65.89-9.46-7.89-1,.54c-.23.13-.43.16-.58.12-.16-.05-.28-.15-.37-.32-.08-.15-.1-.31-.06-.47.04-.16.18-.3.41-.42l3.65-1.98c.23-.13.43-.16.58-.12.16.05.28.15.37.32.08.15.1.31.06.47-.04.16-.18.3-.41.42l-1.61.87,8.44,7.04.43-.23-1.37-10.87-1.62.88c-.23.13-.43.16-.58.12-.16-.05-.28-.15-.37-.32-.08-.15-.1-.31-.06-.47.04-.16.18-.3.41-.42l3.66-1.99c.24-.13.44-.17.59-.12.15.05.27.16.36.32.08.15.11.31.06.46-.04.16-.18.3-.42.43l-.98.53,1.51,12.2Z"/>
      <path class="cls-1" d="M239.36,252.95l-8.95,6.87c1.12,1.15,2.38,1.8,3.77,1.96,1.39.16,2.67-.21,3.85-1.12.66-.5,1.25-1.15,1.78-1.94.53-.79.88-1.56,1.03-2.3.04-.22.11-.36.21-.44.11-.09.25-.11.4-.08.16.03.29.12.39.25.1.13.14.3.13.51-.04.64-.35,1.46-.95,2.46-.6.99-1.34,1.83-2.24,2.52-1.51,1.16-3.18,1.57-5.03,1.25-1.85-.32-3.37-1.26-4.57-2.82-1.09-1.42-1.55-3-1.38-4.74.17-1.74.95-3.14,2.34-4.21,1.44-1.1,3.02-1.49,4.75-1.16,1.73.33,3.22,1.33,4.48,3ZM237.72,252.65c-1-.94-2.13-1.47-3.39-1.57-1.26-.1-2.4.24-3.43,1.02-1.03.79-1.65,1.8-1.88,3.03-.23,1.23-.01,2.47.64,3.7l8.05-6.18Z"/>
    </g>
    <circle class="cls-1" cx="162.5" cy="162.5" r="4.69"/>
  </g>
</svg>