<?xml version="1.0" encoding="UTF-8"?>
<svg id="_レイヤー_2" data-name="レイヤー 2" xmlns="http://www.w3.org/2000/svg" viewBox="0 0 405.84 400">
  <defs>
    <style>
      .cls-1 {
        fill: #500a28;
      }
    </style>
  </defs>
  <g id="contents">
    <g>
      <path class="cls-1" d="M86.47,155.71c-.31-.08-.73-.12-1.24-.13-.51,0-.96.01-1.34.06.91-2.47,1.47-4.66,1.67-6.57.2-1.91-.03-3.63-.69-5.16-.66-1.53-1.83-2.94-3.51-4.22l-5.34,9.66-2.23-1.23,5.45-9.85-5.05-2.79-2.38,4.31-1.86-1.03c.31,1.6.52,3.2.61,4.82.09,1.62.09,3.19-.02,4.72-.13,0-.37.03-.74.1-.36.07-.73.15-1.09.22-.36.07-.6.15-.7.22.21-1.79.22-3.68.03-5.66-.2-1.98-.53-3.92-1.01-5.8-1.05.32-2.17.73-3.37,1.22-1.19.49-2.22.98-3.07,1.48l-.73-2.2c.88-.48,1.93-1,3.13-1.54,1.21-.54,2.32-.99,3.35-1.32-.98-2.84-2.13-5.24-3.44-7.19l-4.66,8.43-2.04-1.13,5.63-10.18,1.61-.81c1.53,1.85,2.83,3.99,3.9,6.41,1.07,2.42,1.89,4.93,2.45,7.54l9.74-17.61c-5.48,2.18-10.97,2.79-16.5,1.84l.34-2.29c1.07.17,2.15.28,3.25.32,1.09.04,2.22,0,3.38-.1-.07-.75-.18-1.6-.33-2.56-.15-.96-.32-1.88-.52-2.79-.2-.9-.39-1.62-.59-2.14l2.27-.68c.2.69.39,1.52.57,2.48.18.96.35,1.92.52,2.88.16.96.28,1.82.35,2.57.69-.14,1.37-.29,2.04-.45s1.36-.35,2.07-.58c-.08-.79-.2-1.7-.36-2.72-.16-1.03-.34-2.02-.54-2.97-.2-.95-.4-1.69-.59-2.22l2.25-.74c.19.65.38,1.45.56,2.4.19.95.36,1.9.51,2.85s.27,1.82.37,2.58c1.47-.61,2.92-1.34,4.34-2.19,1.42-.85,2.81-1.82,4.16-2.92.02.14.09.4.22.78s.28.74.44,1.09c.16.35.29.58.39.7-2.67,1.95-5.36,3.5-8.1,4.64l1.97,1.09-2.61,4.72,5.05,2.79,5.53-9.99,2.23,1.23-5.53,9.99,6.87,3.8c.37.21.7.26,1,.17.3-.1.6-.43.92-1l2.57-4.64c.4-.72.61-1.33.65-1.83.03-.5-.22-1.03-.77-1.59-.55-.56-1.47-1.28-2.76-2.16.32-.18.7-.43,1.12-.76.43-.33.78-.61,1.07-.84,1.64,1.2,2.76,2.22,3.37,3.08.61.86.85,1.66.73,2.42s-.44,1.59-.95,2.51l-3.16,5.72c-.59,1.06-1.21,1.74-1.87,2.02-.66.28-1.43.18-2.32-.32l-7.73-4.27-2.75,4.98c2.9,2.12,4.64,4.62,5.22,7.5.58,2.87.12,6.49-1.38,10.83ZM80.49,136.01l2.67-4.83-5.05-2.79-2.67,4.83,5.05,2.79Z"/>
      <path class="cls-1" d="M111.34,116.81l-16.79-18.76c.23,1.58.41,3.12.54,4.62.13,1.5.16,2.89.08,4.17-.38-.08-.81-.11-1.3-.09-.49.02-.92.06-1.28.12.12-1.14.13-2.45.02-3.95-.11-1.5-.29-3.08-.56-4.74-.27-1.66-.6-3.29-.99-4.9-.39-1.6-.82-3.09-1.29-4.46-.47-1.37-.93-2.51-1.4-3.42l2.4-1.01c.55,1.21,1.06,2.54,1.51,3.98.45,1.44.87,2.92,1.24,4.44l19.84,22.18-2.02,1.81ZM95.54,84.69l-1.53-1.71,13.38-11.97,1.53,1.71-13.38,11.97ZM96.36,92.04l-1.56-1.74,19.62-17.55,1.56,1.74-19.62,17.55ZM103.58,93.68l-1.53-1.71,13.38-11.98,1.53,1.71-13.38,11.97ZM107.6,98.17l-1.53-1.71,13.38-11.98,1.53,1.71-13.38,11.98ZM117.18,109.77l-7.56-8.45,14.36-12.85,7.56,8.45-14.37,12.85ZM117.68,106.13l10.19-9.12-4.36-4.87-10.19,9.12,4.36,4.87Z"/>
      <path class="cls-1" d="M152.29,85.19c-2.68,1.15-4.8,1.56-6.38,1.24s-2.85-1.63-3.83-3.92l-10.99-25.59,2.84-1.03c.15.43.43,1.17.84,2.23.41,1.06.88,2.24,1.41,3.55.39.97.82,2.04,1.3,3.19.48,1.15.99,2.36,1.54,3.64l5.43,12.64c.61,1.43,1.43,2.26,2.45,2.48,1.02.22,2.51-.08,4.46-.92,1.56-.67,3.03-1.58,4.4-2.72,1.37-1.14,2.6-2.39,3.68-3.75,1.08-1.36,1.95-2.67,2.61-3.94.07.16.22.43.47.82.24.39.48.76.71,1.11.23.35.38.58.46.7-.87,1.42-1.9,2.8-3.1,4.13-1.2,1.33-2.5,2.53-3.91,3.6-1.41,1.07-2.86,1.92-4.37,2.57Z"/>
      <path class="cls-1" d="M199.54,74.21c-2.71-.03-5.18-.6-7.42-1.71-2.24-1.11-4.06-2.65-5.46-4.59-1.4-1.94-2.23-4.17-2.5-6.67-.15-1.44-.05-2.99.32-4.67.36-1.67,1.01-3.34,1.95-4.99.94-1.65,2.2-3.13,3.8-4.44-1.77.5-3.59,1.03-5.47,1.58-1.88.55-3.68,1.09-5.42,1.6-1.74.51-3.3.98-4.68,1.41-1.38.43-2.46.79-3.26,1.07l-1.03-2.92c.92-.18,2.16-.47,3.71-.86,1.55-.39,3.28-.84,5.19-1.36,1.91-.52,3.87-1.06,5.89-1.63,2.02-.57,3.98-1.14,5.88-1.71,1.9-.57,3.63-1.1,5.17-1.59,1.54-.49,2.77-.9,3.67-1.22l1.02,2.75c-.36.07-.81.17-1.35.31-.54.14-1.15.32-1.84.54-1.66.43-3.19,1.18-4.59,2.24-1.4,1.06-2.59,2.32-3.57,3.77-.98,1.46-1.71,3.03-2.17,4.71-.46,1.69-.6,3.39-.42,5.1.24,2.31,1.03,4.22,2.36,5.75,1.33,1.52,3,2.66,5.02,3.42,2.02.75,4.18,1.15,6.49,1.19-.27.4-.53.88-.79,1.45-.25.57-.42,1.05-.49,1.46Z"/>
      <path class="cls-1" d="M227.21,71.01c-.72.25-1.45.35-2.18.3-.73-.04-1.39-.32-1.99-.83-.6-.51-1.09-1.34-1.47-2.5-.49-1.47-.86-3.12-1.11-4.94-.25-1.82-.39-3.7-.43-5.64-.04-1.94.04-3.85.22-5.73.18-1.89.47-3.64.86-5.27l2.64.63c-.48,1.92-.81,4.05-.97,6.39-.17,2.34-.15,4.65.04,6.92.19,2.27.57,4.3,1.14,6.08.34.97.76,1.57,1.28,1.78.52.22,1.06.2,1.64-.05.83-.34,1.74-.86,2.73-1.55.99-.69,1.75-1.36,2.27-2,.11.4.28.86.5,1.37.22.51.44.92.66,1.23-.45.45-1.02.94-1.71,1.45-.69.51-1.4.98-2.11,1.4-.72.42-1.39.74-2.01.95ZM245.81,67.5c-.09-.77-.28-1.77-.58-3-.3-1.22-.65-2.52-1.06-3.88-.41-1.37-.85-2.67-1.31-3.92-.46-1.25-.9-2.26-1.31-3.05l2.5-.88c.42.85.88,1.91,1.36,3.19.49,1.28.96,2.63,1.41,4.05.46,1.42.84,2.75,1.16,4,.32,1.24.54,2.26.66,3.04-.46-.01-.96.02-1.5.1-.54.08-.99.2-1.34.36Z"/>
      <path class="cls-1" d="M267.54,91.77c-2.47-1.45-4.02-2.96-4.67-4.54-.65-1.58-.59-3.03.18-4.35.49-.83,1.11-1.41,1.86-1.74.75-.33,1.55-.46,2.38-.37s1.62.34,2.36.77c1.42.83,2.28,2.08,2.6,3.74.32,1.66,0,3.42-.94,5.26,1.62.49,3.25.51,4.89.06,1.64-.45,2.96-1.53,3.96-3.24.72-1.22,1.06-2.44,1.04-3.67-.02-1.23-.37-2.37-1.04-3.44-.67-1.07-1.63-1.96-2.88-2.69-1.61-.94-3.28-1.58-5-1.92-1.72-.34-3.48-.34-5.28-.02-.63.12-1.5.27-2.62.43-1.12.17-2.09.3-2.94.39l-.57-2.64c1.65-.02,3.5-.2,5.55-.56,2.05-.36,4.16-.83,6.35-1.42,2.18-.59,4.3-1.27,6.36-2.03,2.06-.76,3.9-1.59,5.53-2.47-.83-.26-1.8-.58-2.9-.96-1.1-.38-2.24-.81-3.41-1.28-1.17-.47-2.28-.93-3.32-1.38-1.05-.45-1.95-.87-2.71-1.25l.93-2.51c.64.41,1.48.87,2.5,1.37,1.02.5,2.11,1.01,3.29,1.53,1.17.52,2.32,1,3.46,1.44,1.14.44,2.17.79,3.09,1.07.92.28,1.63.44,2.12.5l1.01,2.22c-1.23.82-2.7,1.6-4.4,2.34-1.7.74-3.49,1.44-5.38,2.09-1.89.65-3.78,1.22-5.68,1.71.91.07,1.86.25,2.87.52,1,.28,1.88.64,2.64,1.08,1.64.96,2.9,2.15,3.79,3.57.89,1.42,1.35,2.95,1.38,4.57.03,1.63-.42,3.23-1.35,4.82-1,1.71-2.32,2.97-3.94,3.79-1.63.82-3.41,1.17-5.34,1.05-1.93-.12-3.85-.73-5.76-1.85ZM268.5,89.38l.44.26c.72-1.28,1.03-2.48.92-3.59-.1-1.11-.58-1.92-1.44-2.42-.61-.36-1.21-.5-1.79-.43-.58.07-1.04.38-1.37.95-.4.68-.38,1.47.06,2.37.44.9,1.5,1.85,3.17,2.87Z"/>
      <path class="cls-1" d="M294.95,110.84c-1.83-1.97-2.96-3.9-3.38-5.78-.42-1.89-.03-3.95,1.17-6.19l2.57,1.08c-.89,1.37-1.21,2.81-.97,4.32.25,1.51,1.12,3.07,2.62,4.69,1.29,1.39,2.64,2.71,4.03,3.96,1.4,1.25,2.76,2.36,4.09,3.33,1.33.97,2.48,1.71,3.46,2.23-.12.12-.34.33-.64.65-.3.32-.58.65-.83.98-.25.33-.42.56-.5.67-1.02-.56-2.18-1.35-3.49-2.38-1.3-1.03-2.66-2.19-4.06-3.5-1.41-1.3-2.76-2.66-4.07-4.07ZM309.53,89.73l1.99-1.97c.39.88,1.03,1.89,1.92,3.06.89,1.16,1.9,2.34,3.04,3.52,1.14,1.18,2.27,2.25,3.4,3.22,1.13.96,2.1,1.68,2.93,2.15l-1.99,1.97c-.82-.47-1.79-1.18-2.88-2.13-1.1-.95-2.21-2.01-3.33-3.17-1.12-1.16-2.13-2.33-3.04-3.49-.91-1.16-1.59-2.21-2.03-3.15Z"/>
      <path class="cls-1" d="M322.53,155.8c-1.42-1.99-2.71-3.99-3.87-6.01-1.16-2.02-2.11-3.96-2.82-5.83-.72-1.87-1.14-3.61-1.27-5.23-.13-1.62.12-3.05.75-4.31.63-1.25,1.7-2.25,3.24-2.98,1.28-.61,2.63-.79,4.05-.54,1.42.25,2.9.83,4.43,1.75,1.53.92,3.08,2.06,4.65,3.45,1.12-1.47,2.75-2.89,4.9-4.27,2.15-1.37,5.01-2.89,8.58-4.56l1.31,2.76c-1.69.59-3.39,1.32-5.07,2.18-1.69.87-3.22,1.79-4.6,2.78-1.38.99-2.46,1.95-3.24,2.88,1.07,1.06,2.13,2.17,3.19,3.35,1.06,1.17,2.09,2.38,3.09,3.63l-2.24,1.91c-1.49-2.21-3.07-4.2-4.73-5.98-1.66-1.78-3.3-3.26-4.92-4.45-1.62-1.19-3.13-2.01-4.54-2.47-1.41-.46-2.61-.45-3.61.03-1.35.65-2.16,1.67-2.41,3.08-.25,1.41-.07,3.07.55,5,.62,1.93,1.58,4,2.89,6.22,1.31,2.21,2.85,4.47,4.63,6.75-.42.04-.92.15-1.52.32-.59.17-1.07.34-1.42.51Z"/>
    </g>
    <g>
      <path class="cls-1" d="M73.71,296.62l21.68-19.41,2.63,2.94-9.45,19.37c-.2.42-.45.9-.74,1.44-.3.54-.61,1.11-.95,1.72-.34.61-.68,1.21-1.03,1.8-.35.59-.68,1.15-.99,1.67l-.47-.52c.54-.24,1.12-.49,1.73-.76.61-.27,1.24-.54,1.89-.82.65-.27,1.26-.53,1.84-.77.58-.24,1.1-.44,1.55-.6l20.25-7.31,2.63,2.94-21.68,19.41-1.82-2.04,13.77-12.32c.43-.38.9-.8,1.41-1.26s1.06-.93,1.63-1.42c.57-.48,1.14-.97,1.71-1.47.57-.49,1.13-.98,1.67-1.47l.21.23c-.76.33-1.53.65-2.31.98-.78.33-1.55.64-2.29.95-.74.3-1.44.58-2.09.84-.65.25-1.23.47-1.72.65l-18.81,6.69-1.63-1.82,8.68-18c.23-.47.5-1,.81-1.61.31-.6.66-1.26,1.04-1.96s.78-1.42,1.19-2.17c.41-.75.83-1.51,1.24-2.28l.22.25c-.49.45-1,.93-1.55,1.44-.54.5-1.1,1.02-1.65,1.53-.56.52-1.1,1.02-1.62,1.49-.52.48-1.01.92-1.46,1.32l-13.77,12.33-1.77-1.98Z"/>
      <path class="cls-1" d="M109.39,331.28c-1.66-1.19-2.82-2.61-3.47-4.26-.65-1.65-.81-3.4-.49-5.25.33-1.85,1.13-3.67,2.42-5.45,1.28-1.79,2.75-3.14,4.4-4.06s3.34-1.35,5.08-1.31c1.74.05,3.38.63,4.92,1.74.97.7,1.78,1.55,2.42,2.55.64,1,1.06,2.12,1.26,3.36.2,1.24.1,2.56-.28,3.97-.39,1.41-1.12,2.86-2.2,4.36l-.67.94-13.91-10,1.33-1.86,12.75,9.17h-1.48c.91-1.28,1.51-2.57,1.8-3.89.29-1.32.24-2.55-.15-3.71-.39-1.16-1.14-2.15-2.27-2.96-1.12-.81-2.31-1.21-3.58-1.23s-2.48.3-3.65.93c-1.17.63-2.17,1.53-3.01,2.7l-.8,1.11c-1,1.39-1.62,2.77-1.89,4.16-.26,1.39-.15,2.7.33,3.91.48,1.22,1.33,2.26,2.54,3.14.82.59,1.65.98,2.47,1.17.82.19,1.6.22,2.34.09.74-.13,1.41-.38,1.99-.75l1.58,2.12c-.81.54-1.74.91-2.81,1.11s-2.19.16-3.39-.12c-1.2-.28-2.39-.84-3.59-1.7Z"/>
      <path class="cls-1" d="M132.22,344.88c-1.6-.77-2.79-1.87-3.6-3.31-.8-1.44-1.18-3.08-1.11-4.94.06-1.86.59-3.8,1.57-5.85.98-2.03,2.17-3.64,3.59-4.84,1.42-1.2,2.93-1.93,4.55-2.19,1.62-.26,3.23,0,4.82.76,1.2.58,2.09,1.27,2.68,2.08.59.81.98,1.65,1.17,2.5.19.86.27,1.65.24,2.37l.19.09,4.98-10.33,2.38,1.15-12.63,26.22-2.31-1.11,1.77-3.68-.26-.13c-.55.49-1.23.93-2.02,1.32s-1.7.62-2.7.66c-1,.04-2.1-.22-3.3-.8ZM133.58,342.87c1.27.61,2.51.78,3.73.52,1.22-.27,2.35-.89,3.4-1.88s1.95-2.27,2.7-3.83c.75-1.56,1.18-3.05,1.3-4.47.11-1.42-.11-2.68-.67-3.79-.56-1.11-1.47-1.97-2.74-2.58-1.28-.62-2.53-.79-3.76-.51-1.23.27-2.36.9-3.4,1.88-1.04.98-1.92,2.22-2.64,3.72-.72,1.5-1.15,2.97-1.27,4.42-.12,1.44.09,2.74.63,3.88.55,1.15,1.45,2.02,2.72,2.63Z"/>
      <path class="cls-1" d="M151.23,352.21l6.85-20.73,2.52.83-6.85,20.73-2.52-.83ZM160.63,328.06c-.49-.16-.87-.48-1.12-.95-.25-.47-.3-.94-.14-1.42.16-.49.48-.85.96-1.07s.96-.25,1.46-.08c.51.17.88.48,1.13.94.25.46.29.94.12,1.43-.16.48-.48.84-.95,1.06-.47.23-.96.26-1.47.09Z"/>
      <path class="cls-1" d="M169.4,357.71c-1.3-.26-2.44-.75-3.4-1.46-.97-.71-1.67-1.61-2.11-2.71-.44-1.1-.52-2.33-.25-3.71.21-1.06.59-1.91,1.13-2.55.54-.64,1.23-1.12,2.06-1.44s1.78-.51,2.83-.58c1.06-.07,2.21-.06,3.45.03,1.22.08,2.25.15,3.1.21.85.06,1.52,0,2.01-.15.49-.15.79-.5.89-1.04l.1-.5c.19-.96.16-1.82-.09-2.59-.25-.77-.71-1.41-1.39-1.93-.67-.52-1.55-.89-2.62-1.1-1.01-.2-1.93-.22-2.76-.06s-1.55.44-2.15.85c-.6.4-1.09.88-1.47,1.43l-2.32-1.34c.7-1.07,1.55-1.87,2.55-2.4,1-.53,2.06-.85,3.2-.97,1.14-.11,2.25-.06,3.35.16.84.17,1.69.45,2.54.85.85.4,1.6.94,2.26,1.63.66.68,1.13,1.53,1.42,2.55.29,1.02.29,2.24,0,3.66l-2.9,14.54-2.55-.51.68-3.39-.19-.04c-.44.59-1.01,1.12-1.73,1.6-.72.47-1.55.81-2.5,1s-2,.18-3.17-.05ZM170.25,355.47c1.3.26,2.49.2,3.56-.19s1.97-1.01,2.68-1.87c.72-.87,1.19-1.88,1.42-3.04l.61-3.05c-.23.14-.57.24-1.03.29-.46.05-.98.08-1.56.07-.58,0-1.15-.03-1.73-.07-.58-.04-1.08-.07-1.51-.1-1.22-.1-2.28-.07-3.19.08-.91.15-1.64.46-2.19.92-.55.46-.91,1.11-1.08,1.96-.17.86-.1,1.63.2,2.31.3.68.78,1.26,1.45,1.72.66.46,1.46.79,2.38.97Z"/>
      <path class="cls-1" d="M208.61,361.11c-1.33.06-2.54-.14-3.65-.59-1.11-.46-2.01-1.16-2.7-2.12-.69-.96-1.07-2.14-1.13-3.54-.05-1.08.11-2,.48-2.75s.92-1.39,1.65-1.9c.73-.51,1.6-.92,2.61-1.25,1.01-.32,2.13-.59,3.35-.8,1.2-.21,2.22-.39,3.06-.54s1.48-.36,1.92-.63c.44-.27.64-.68.62-1.22l-.02-.51c-.05-.98-.28-1.81-.71-2.49-.43-.68-1.03-1.2-1.81-1.54s-1.71-.49-2.81-.44c-1.03.05-1.92.25-2.69.6s-1.39.8-1.88,1.34-.85,1.12-1.08,1.74l-2.58-.74c.43-1.21,1.06-2.19,1.9-2.94.84-.76,1.8-1.33,2.87-1.71s2.17-.6,3.29-.65c.86-.04,1.75.03,2.67.22.92.19,1.78.53,2.59,1.03.81.5,1.47,1.22,2,2.14.52.92.82,2.1.89,3.55l.69,14.81-2.59.12-.16-3.45h-.19c-.28.69-.71,1.34-1.3,1.98-.58.63-1.31,1.16-2.18,1.58-.87.42-1.9.66-3.09.71ZM208.89,358.73c1.33-.06,2.46-.41,3.41-1.04.95-.63,1.67-1.45,2.15-2.47s.7-2.11.65-3.3l-.14-3.1c-.19.19-.5.37-.93.53s-.93.31-1.49.44-1.13.25-1.69.35-1.07.19-1.49.27c-1.2.2-2.23.48-3.08.85-.85.37-1.49.84-1.91,1.42s-.61,1.3-.57,2.16c.04.87.29,1.6.75,2.19.46.59,1.06,1.03,1.82,1.32.76.29,1.6.41,2.54.37Z"/>
      <path class="cls-1" d="M228.1,358.79l-3.92-21.48,2.54-.46.61,3.34.19-.04c.23-1.18.82-2.2,1.76-3.05s2.08-1.4,3.42-1.65c.22-.04.45-.08.69-.12.24-.04.46-.07.64-.09l.48,2.61c-.09,0-.29,0-.59.02-.3.02-.62.06-.97.13-1.1.2-2.04.62-2.83,1.25s-1.35,1.4-1.69,2.31c-.34.91-.42,1.9-.23,2.96l2.51,13.78-2.61.48Z"/>
      <path class="cls-1" d="M253.76,352.92c-1.81.59-3.54.66-5.21.21s-3.16-1.36-4.46-2.71-2.3-3.08-2.99-5.17c-.7-2.13-.92-4.13-.67-6s.91-3.48,1.99-4.83c1.08-1.35,2.52-2.33,4.33-2.92,1.05-.34,2.07-.51,3.05-.48.98.02,1.89.18,2.74.47.85.29,1.6.67,2.26,1.15.66.48,1.19,1,1.61,1.56l-2.15,1.53c-.24-.35-.58-.69-1.01-1.02-.44-.34-.95-.62-1.54-.85-.59-.23-1.24-.36-1.95-.4-.71-.03-1.46.08-2.25.34-1.41.46-2.48,1.24-3.21,2.33-.73,1.09-1.15,2.36-1.25,3.8-.1,1.44.1,2.95.61,4.51.5,1.53,1.22,2.85,2.16,3.96.94,1.1,2.02,1.88,3.26,2.31,1.23.44,2.55.43,3.97-.04.8-.26,1.49-.62,2.05-1.08.56-.46,1.02-.96,1.37-1.51.35-.55.6-1.09.75-1.64.15-.55.21-1.04.2-1.47l2.62-.04c.01.71-.11,1.45-.36,2.23-.25.78-.64,1.55-1.16,2.3-.52.75-1.17,1.43-1.96,2.04-.79.61-1.71,1.08-2.76,1.43Z"/>
      <path class="cls-1" d="M266.57,332.77l6.37,12.03-2.35,1.24-13.62-25.72,2.35-1.24,5.79,10.93-.43.23c-.36-1.96-.17-3.61.57-4.96.74-1.35,1.84-2.41,3.3-3.18,1.31-.69,2.61-1.03,3.89-1.01,1.28.02,2.48.41,3.59,1.16,1.11.75,2.07,1.89,2.88,3.42l6.61,12.48-2.35,1.24-6.52-12.31c-.83-1.58-1.94-2.59-3.31-3.03-1.37-.45-2.8-.28-4.28.51-1.01.54-1.81,1.23-2.38,2.09-.58.86-.88,1.82-.92,2.87-.04,1.06.24,2.14.82,3.24Z"/>
      <path class="cls-1" d="M279.89,310.71c-.43.3-.9.41-1.43.33s-.93-.33-1.22-.74c-.3-.43-.39-.9-.28-1.41.11-.51.38-.92.81-1.22.44-.3.91-.42,1.43-.34s.92.33,1.22.76c.29.42.38.88.28,1.4-.1.52-.37.93-.81,1.23ZM293.57,332.72l-12.48-17.92,2.18-1.52,12.48,17.92-2.18,1.52Z"/>
      <path class="cls-1" d="M308.3,321.35l-20.71-10.83,2.17-1.92,12.87,6.95c1.15.61,2.27,1.26,3.34,1.95s2.14,1.33,3.2,1.94l-.7.62c-.48-1.12-1-2.25-1.55-3.4-.55-1.15-1.06-2.33-1.53-3.55l-5.32-13.62,2.15-1.9,8.22,21.88-2.14,1.89Z"/>
      <path class="cls-1" d="M328.69,300.81c-1.29,1.59-2.77,2.66-4.45,3.22-1.68.56-3.44.62-5.26.19-1.83-.43-3.6-1.34-5.31-2.72-1.71-1.38-2.98-2.92-3.8-4.62-.82-1.7-1.16-3.41-1.02-5.14.15-1.73.81-3.34,2.01-4.82.75-.93,1.65-1.69,2.68-2.28,1.03-.59,2.18-.94,3.43-1.07,1.25-.13,2.57.04,3.95.51,1.38.46,2.79,1.28,4.23,2.44l.9.72-10.77,13.32-1.78-1.44,9.87-12.21-.09,1.48c-1.21-.98-2.47-1.65-3.77-2.02-1.3-.36-2.54-.38-3.71-.06-1.18.32-2.21,1.02-3.08,2.1-.87,1.07-1.34,2.24-1.43,3.51-.08,1.26.16,2.5.73,3.7.57,1.2,1.41,2.26,2.52,3.16l1.06.86c1.33,1.07,2.68,1.78,4.05,2.12,1.37.34,2.68.31,3.93-.1,1.24-.41,2.34-1.2,3.28-2.36.64-.79,1.07-1.59,1.31-2.4.23-.81.31-1.59.22-2.34-.09-.75-.3-1.43-.63-2.03l2.21-1.46c.5.84.81,1.79.95,2.86s.03,2.2-.31,3.38-.98,2.34-1.9,3.49Z"/>
    </g>
  </g>
</svg>