<?xml version="1.0" encoding="UTF-8"?>
<svg id="_レイヤー_2" data-name="レイヤー 2" xmlns="http://www.w3.org/2000/svg" viewBox="0 0 325 325">
  <defs>
    <style>
      .cls-1 {
        fill: #500a28;
      }

      .cls-2 {
        fill: #ffffa0;
      }
    </style>
  </defs>
  <g id="_レイヤー_1-2" data-name="レイヤー 1">
    <g>
      <path class="cls-1" d="M74.76,85.74c2.48-.6,4.35-.85,6.78-.83l.34,2.55c-1.49-.19-3.7-.19-5.39,0l4.14,4.13c3.23,3.22,5.54,5.42,7.15,6.89l-1.75,1.76c-1.49-1.63-3.83-4.01-6.94-7.1l-4.24-4.22c1.64,3.75,2.39,6.61,2.78,10.26-1.39-.33-1.64-.38-2.38-.4-.61-4.06-1.12-6.1-2.39-9.16-.97-2.26-1.5-3.36-2.39-4.68l-2.14,2.14c-.62.63-1.37,1.42-1.85,1.95l-1.59-1.58c.55-.51,1.44-1.35,1.94-1.85l2.33-2.34c-2.91-2.86-4.74-4.58-5.47-5.16l1.99-1.61c.24-.19.46-.27.58-.15.14.14.17.41.05.91.99,1.08,2.31,2.4,4.38,4.46l2.16-2.17c.5-.51,1.34-1.4,1.87-1.97l1.59,1.58c-.55.51-1.32,1.23-1.97,1.88l-2.16,2.17,2.55,2.54ZM92.08,76.74c1.23,1.22,2.82,2.76,6.16,6,.05.05.12.07.29.24.99.98,1.2,1.68.87,2.64-.33,1.06-.79,1.66-2.95,3.92-.94-.79-1.42-1.08-2.31-1.34.96-.87,1.54-1.4,2.16-2.02.91-.92.91-1.11.02-2l-12.59-12.55-4.82,4.84c-.65.65-1.37,1.42-1.87,1.97l-1.59-1.58c.58-.53,1.46-1.37,1.97-1.88l4.82-4.84c-2.87-2.81-4.67-4.51-5.39-5.04l2.06-1.73c.24-.19.48-.24.6-.12.14.14.15.38.03.89.7.74.79.84,4.31,4.39l1.49-1.49c.5-.51,1.34-1.4,1.85-1.95l1.59,1.58c-.53.48-1.32,1.23-1.94,1.85l-1.49,1.49,6.74,6.72ZM81.82,79.62c2.52-.22,4.21-.13,7.04.49l-.24,2.4c-3.22-.76-3.99-.86-6.95-.97l.14-1.92Z"/>
      <path class="cls-1" d="M96.9,59.88q-2.49-4.99-3.02-5.9c1.66-.7,4.07-1.81,6.15-2.84l12.54-6.17c2.04-1.01,4.42-2.25,6-3.14q.4.98,2.84,5.99l6.89,14c.27.55,1.14,2.17,1.7,3.22l.19.4c1.07,2.17.38,3.15-3.59,5.18-.62-1.1-.8-1.31-1.72-2.03.91-.37,1.45-.6,2.12-.93,1.16-.57,1.25-.77.7-1.9l-10.26-20.83-20.41,10.04,8.5,17.26q2.94,5.9,3.64,7.15l-2.23,1.1q-.6-1.3-2.84-5.99l-7.19-14.61ZM116.64,66.41l3.78-1.86-1.1-2.23c-1.2-2.44-1.86-3.71-2.39-4.55l2.3-.87c.38-.15.59-.1.67.05.09.18.03.44-.28.9.59,1.27,1.16,2.42,1.68,3.49l.98,1.98c.71,1.43,1.47,2.91,1.91,3.72l-2.04,1.01-.83-1.68-9.67,4.76,1.17,2.38-2.07,1.02c-.49-1.16-1.2-2.67-2.1-4.5l-.98-1.98c-1.19-2.41-1.77-3.52-2.36-4.56l2.27-.85c.38-.15.59-.1.67.05.09.18.03.44-.28.9.59,1.27,1.16,2.42,1.68,3.49l1.1,2.23,3.87-1.91-4.22-8.57-4.58,2.25c-1.01.5-2.7,1.37-3.63,1.86l-.96-1.95c.94-.39,2.52-1.12,3.71-1.71l6.62-3.26c.04-2.14-.13-4.11-.56-6.92l2.56-.12c.26-.01.47.03.55.19.1.21-.03.4-.45.71.04,2.86.08,3.94.01,5.11l2.26-1.11c1.16-.57,2.7-1.37,3.58-1.88l.96,1.95c-.93.42-2.65,1.23-3.66,1.73l-4.39,2.16,4.22,8.57ZM103.69,52.97c1.92,1.14,3.01,1.89,4.69,3.37l-1.44,1.77c-1.68-1.48-2.9-2.44-4.43-3.46l1.18-1.68Z"/>
      <path class="cls-1" d="M145.48,48.99c.34,4.04.26,5.59-.27,7.95-.99,4.37-3.93,7.45-9.63,10.09q-.44-.73-1.38-1.95c3.67-1.59,6.05-3.4,7.38-5.62.91-1.52,1.42-3.4,1.62-5.93.09-1.21.07-2.2-.15-4.23l-3.81.48c-1.86.23-4.88.68-6.7.98l-.3-2.36c1.73-.15,4.81-.47,6.73-.71l7.79-.98-.95-7.56c-.34-2.7-.52-4.12-.74-5.08l2.43-.06c.41-.02.59.06.62.27s-.12.43-.56.76l1.43,11.4,7.69-.97c2.13-.27,5.02-.7,6.73-.98l.3,2.36c-1.8.16-4.71.45-6.76.71l-4.59.58,1.46,11.61c.17,1.32.52,1.41,4.5.91,2.7-.34,4.1-.89,4.35-1.68q.19-.64-.16-3.99c1.08.41,1.57.52,2.52.68.19,3.44.08,4.45-.57,5.25-.71.91-2.72,1.54-6.03,1.96-5.53.7-6.49.44-6.77-1.82l-1.59-12.62-4.59.58ZM137.2,38.17c2.43,1.92,3.94,3.79,5.58,6.8l-2.23,1.38c-1.77-3.41-2.61-4.64-4.8-6.83l1.44-1.35ZM151.47,44.54c1.98-3.85,2.75-5.93,3.25-8.77l2.6.8c.25.07.41.26.43.39.03.24-.09.35-.71.64-1.26,3.35-1.99,4.88-3.74,7.87l-1.83-.94Z"/>
      <path class="cls-1" d="M173.98,49.54c1.35-.14,1.9-.27,5.56-1.04,5.22-1.08,7.43-1.21,10.23-.63,4.76.98,6.96,3.97,6.08,8.23-.89,4.33-3.97,6.44-10.34,7.07-1.17.14-2.95.19-5.35.18-.09-.92-.25-1.48-.65-2.42,2.74.18,3.57.21,5.11.15,5.27-.16,8.29-1.97,8.99-5.37.64-3.1-.84-5.17-4.21-5.87-2.7-.56-5.33-.23-10.88,1.26-1.65.42-2.46.64-3.23.83q-.37.1-.63.18l-.69-2.57Z"/>
      <path class="cls-1" d="M235.53,62.06c.02.29.03.49-.06.64-.12.2-.35.19-.72,0-2.45-1.26-4.1-1.76-6.1-1.92-2.61-.2-5.67.35-7.82,1.45-1.42.74-2.77,2-3.65,3.49-2.59,4.36-.52,8.27,6.75,12.74-.7.38-1.13.71-2.07,1.62-2.54-1.71-3.96-2.86-5.41-4.4-3.12-3.27-3.61-7.17-1.45-10.82,2.05-3.45,5.24-5.23,10.31-5.78q-6.37-2.12-9.75-3.29c-.24-.06-.76-.25-1.46-.47-.68-.25-1.2-.44-1.5-.54-.98-.35-1.12-.39-1.76-.57l.78-2.58c2.77,1.33,7.12,3,14.19,5.53,6.42,2.31,7.24,2.59,9.49,2.99l.21,1.91Z"/>
      <path class="cls-1" d="M256.83,79.8c-3.44,2.93-5.69,5.22-6.93,7.07q4.97,2.42,7.49,3.22l-.4,2.36c-.05.31-.08.43-.16.49-.26.22-.46.08-1.06-.61-6.79-3.82-8.06-4.47-10.16-5.1-3.13-.95-5.12-.82-6.67.51-1.91,1.63-1.39,3.87,1.7,7.49,2.34,2.74,4.73,5.08,6.98,6.82-.51.35-.74.54-1.05.81-.28.24-.49.42-.91.82-2.04-1.7-4.14-3.8-6.21-6.23-1.99-2.33-3.1-4.1-3.67-5.77-.69-2.01-.06-4.1,1.65-5.56,2.38-2.03,5.78-2.07,10.41-.16,1.51-2.36,2.2-3.13,6.69-7.4.89-.89.94-.94,2.46-2.46l1.6,2.03c.2.23.25.55.06.7-.15.13-.42.18-.8.1l-1.01.86ZM262.13,87.43c.31,1.88.35,3.19.22,5.49l-2.05-.04c.23-2.3.26-3.31.02-5.42l1.81-.03ZM266.02,87.42c.29,1.86.35,3.19.22,5.49l-2.07-.07c.25-2.27.26-3.31.02-5.42h1.83Z"/>
      <path class="cls-1" d="M280.15,116.42c-.04.45-.14.68-.33.75-.22.09-.51-.09-.77-.57q-2.03-.22-7.66-.78c-1.51-.13-1.98-.2-7.89-.91,1.62,1.04,2.32,1.79,2.8,3.03.56,1.42.4,2.95-.42,3.86-.55.65-1.87,1.47-3.67,2.36-1.74.87-2.49,1.46-2.78,2.12-.24.6-.21,1.51.08,2.24,1.35,3.42,5.97,4.85,13.1,4.01-.21,1.03-.25,1.41-.28,2.45-5.56.37-7.86.1-10.62-1.15-2.1-.96-3.68-2.64-4.54-4.83-.57-1.46-.52-3.08.14-4.19.52-.9,1.49-1.61,3.58-2.69,3.3-1.63,4.01-2.53,3.4-4.08-.57-1.46-2.25-2.55-4.79-3.05-1.03-.21-1.31-.25-3.96-.49-1.59-.14-1.79-.17-3.58-.38.28-.77.35-1.42.3-2.49,2.36.42,10.41,1.27,16.96,1.75,6.93.52,9.56.61,11.16.39l-.23,2.65Z"/>
      <path class="cls-1" d="M277.73,163.46c-.86-.91-1.34-1.1-2.5-1.04-.82.04-1.49.14-3.04.44-.94.18-1.15.22-2.2.37q-.41.05-.74.14c-1.09,2.94-1.97,4.68-3.75,7.42-.61-.79-1-1.11-2.05-1.61,1.8-2.36,2.62-3.69,3.59-5.71-1.57-.03-2.25-.17-2.95-.55-1.5-.85-2.26-2.49-2.37-4.96-.15-3.43,1.35-5.64,3.96-5.76,2.55-.11,4.45,1.98,4.58,5.04.06,1.26-.03,2.42-.34,3.83,2.23-.37,4.56-.72,5.34-.75,1.63-.07,2.61.43,3.72,1.81l-1.27,1.35ZM268.4,157.31c-.08-1.83-1.13-3.08-2.52-3.02-1.43.06-2.22,1.43-2.12,3.6.07,1.53.56,2.6,1.47,3.07.38.19.86.27,1.61.3.34.02.68,0,1.02-.01.39-1.24.6-2.65.54-3.94ZM290.14,155.58c-.09.28-.22.45-.39.46-.27.01-.42-.15-.68-.65l-4.35-1.34c.45,1.65.99,3.12,1.66,4.35l-1.93,1.01c-.95-2.1-1.53-3.85-1.97-6.07-1.97-.59-4.32-1.44-6.95-2.51-3.36-1.38-3.54-1.48-8.91-4.4.65-.74.9-1.13,1.27-2.13,4.17,2.71,8.73,4.88,14.22,6.75-.17-1.63-.23-2.03-.28-3.19-.04-.95-.04-1.56-.03-2.86l2.24-.2c-.11,1.43-.13,2.49-.06,3.88.05,1.02.11,1.66.31,3.05,2.93.89,5.27,1.43,6.53,1.51l-.68,2.34ZM283.25,161.92c-.42,3.46-1.2,5.81-2.69,8.36l-2.02-1.03c1.55-2.55,2.4-4.87,2.75-7.81l1.96.49Z"/>
      <path class="cls-1" d="M285.47,199.07c-.25.49-.5.74-.73.67s-.24-.14-.45-1.12c-.51-.19-1.03-.37-1.47-.54-6.63-1.09-12.02-.82-16.78.8-3.8,1.26-6.47,3.1-10.68,7.33-.51-1.04-.83-1.52-1.55-2.33,3.17-2.97,5.83-4.81,8.89-6.19,2.66-1.21,6.51-2.03,9.86-2.11,1.42-.01,2.62.02,4.51.22-2.21-.93-3.34-1.65-5.15-2.85-5.8-3.93-9.39-9.69-10.58-16.91,1.04-.16,1.42-.26,2.2-.63.96,4.85,2.26,7.89,4.8,11.11,2.25,2.85,5.28,5.19,9.12,6.99,2.24,1.08,4.13,1.74,9.06,3.29l-1.06,2.28Z"/>
      <path class="cls-1" d="M247.33,223.94l-3.02-2.14,2.14-3.02,3.02,2.14-2.14,3.02ZM252.29,223.66l1.75,1.24c2.66,1.89,2.99,2.37,3.62,5.89.54,2.88,1.04,3.94,2.23,4.79,1.58,1.12,3.3.75,4.52-.97,1.38-1.94,1.01-3.66-1.16-5.36l1.63-2.3c3.32,2.73,3.8,5.81,1.4,9.2-2.18,3.08-5.24,3.75-8.01,1.78-1.69-1.2-2.29-2.41-2.91-6.19-.51-2.99-.75-3.41-3.42-5.29-.39-.28-.64-.45-1.1-.74l1.45-2.05Z"/>
    </g>
    <g>
      <path class="cls-1" d="M83.42,251.33l-5.28-5-4.17,2.24,1.54,1.46c.19.18.29.35.3.51s-.06.31-.18.44c-.12.13-.26.19-.43.2-.16,0-.34-.08-.53-.26l-3.01-2.85c-.19-.18-.29-.35-.29-.52,0-.16.06-.31.18-.44.13-.13.27-.2.43-.21.16,0,.34.09.53.27l.62.59,13.64-7.29-2.37-2.25c-.19-.18-.29-.35-.3-.51,0-.16.06-.31.18-.44.13-.13.27-.2.43-.21.16,0,.34.09.53.27l4.05,3.83-7.01,15.27.62.59c.19.18.29.35.3.51,0,.16-.06.31-.18.44-.12.13-.26.19-.43.2-.16,0-.34-.08-.53-.26l-3-2.84c-.2-.19-.3-.36-.3-.53s.06-.31.18-.44c.13-.13.27-.2.43-.21.16,0,.34.09.54.28l1.53,1.45,1.99-4.31ZM83.96,250.14l3.93-8.6-.3-.28-8.31,4.46,4.67,4.42Z"/>
      <path class="cls-1" d="M99.01,247.76l-4.62,6.73c2.2-.84,4.07-.72,5.63.35,1.33.92,2.1,2.24,2.32,3.96s-.22,3.37-1.29,4.93c-1.08,1.58-2.48,2.58-4.19,3.02-1.71.44-3.22.2-4.53-.7-1.59-1.09-2.38-2.8-2.35-5.13l-1.37,1.99-2.14-1.47c-.22-.15-.34-.3-.37-.47-.03-.16,0-.31.11-.46.1-.15.24-.24.39-.27.16-.03.35.03.56.18l1.23.84,9-13.11-1.23-.84c-.22-.15-.34-.3-.37-.47-.03-.16.01-.32.12-.47.1-.15.23-.23.39-.27.16-.03.35.03.57.18l2.14,1.47ZM100.1,263.15c.88-1.28,1.23-2.64,1.05-4.07-.18-1.43-.8-2.51-1.85-3.24-1.06-.73-2.29-.92-3.69-.57-1.4.35-2.54,1.16-3.42,2.44s-1.23,2.64-1.05,4.07c.18,1.43.8,2.51,1.85,3.24,1.06.73,2.29.92,3.69.57,1.4-.35,2.54-1.16,3.42-2.44Z"/>
      <path class="cls-1" d="M117.32,272.02c-.81,1.69-2.04,2.88-3.7,3.56-1.66.68-3.26.65-4.8-.08-1.56-.74-2.59-1.97-3.11-3.69-.51-1.72-.37-3.42.43-5.11.81-1.69,2.04-2.88,3.7-3.57,1.66-.69,3.27-.66,4.82.08,1.54.73,2.57,1.96,3.09,3.68.52,1.72.38,3.43-.43,5.13ZM116.31,271.54c.66-1.39.78-2.79.35-4.2s-1.28-2.41-2.55-3.01c-1.27-.6-2.59-.63-3.95-.07-1.36.56-2.37,1.53-3.03,2.91-.65,1.38-.77,2.77-.35,4.18.42,1.41,1.27,2.42,2.54,3.02,1.27.6,2.59.63,3.95.07,1.36-.56,2.37-1.53,3.03-2.91Z"/>
      <path class="cls-1" d="M130.98,283.13l.51-1.73c-1.88,1.04-3.66,1.31-5.35.81-1.04-.3-1.73-.85-2.09-1.64-.46-1.03-.53-2.09-.2-3.19l2.24-7.62-1.43-.42c-.25-.07-.42-.18-.49-.33s-.09-.31-.04-.48c.05-.17.15-.29.29-.37.14-.08.34-.08.59,0l2.49.73-2.59,8.81c-.23.77-.19,1.46.1,2.09.29.62.77,1.03,1.43,1.23,1.73.51,3.57.09,5.53-1.25l2.24-7.62-1.96-.58c-.25-.07-.42-.18-.49-.33s-.09-.31-.04-.48c.05-.17.15-.29.29-.37.14-.08.34-.08.59,0l3.02.89-3.23,10.99.9.26c.25.07.42.18.5.32s.09.3.04.48c-.05.17-.15.29-.29.37s-.34.08-.59,0l-1.96-.58Z"/>
      <path class="cls-1" d="M145.87,273.21l5.96.77c.26.03.44.12.54.25.1.13.14.29.11.47-.02.17-.1.31-.23.41-.13.1-.32.14-.58.1l-5.96-.77-1.04,8.12c-.09.71.09,1.33.54,1.87.45.54,1.17.87,2.15,1,.74.09,1.56.07,2.45-.06.9-.14,1.6-.33,2.12-.58.19-.1.34-.15.46-.13.14.02.25.09.34.23.09.13.12.28.1.45-.02.14-.09.27-.22.38-.32.28-1.04.54-2.17.78-1.12.23-2.18.29-3.16.16-1.28-.16-2.26-.63-2.93-1.4s-.94-1.71-.79-2.85l1.04-8.12-2.03-.26c-.26-.03-.44-.12-.54-.25-.1-.13-.14-.29-.11-.47.02-.17.1-.31.23-.41.13-.1.32-.14.58-.1l2.03.26.46-3.6c.04-.29.12-.49.24-.6.12-.11.26-.16.42-.14.17.02.29.1.38.24.09.14.11.35.08.65l-.46,3.6Z"/>
    </g>
    <circle class="cls-1" cx="162.5" cy="162.5" r="4.69"/>
  </g>
</svg>