<?xml version="1.0" encoding="UTF-8"?>
<svg id="_レイヤー_2" data-name="レイヤー 2" xmlns="http://www.w3.org/2000/svg" viewBox="0 0 325 325">
  <defs>
    <style>
      .cls-2 {
        fill: #500a28;
      }
    </style>
  </defs>
  <g id="_レイヤー_1-2" data-name="レイヤー 1">
    <g>
      <path class="cls-2" d="M41.28,127.96c-.19.47-.46,1.28-.67,1.93l-1.63,4.97c-.2.61-.48,1.45-.6,1.95l-2.07-.68c.19-.47.5-1.3.7-1.92l1.63-4.97c.21-.65.44-1.46.57-1.96l2.07.68ZM46.22,128.04c-.25.67-.63,1.69-.9,2.53l-2.13,6.49c-.29.87-.59,1.92-.78,2.61l-2.13-.7c.27-.7.68-1.85.91-2.56l2.13-6.49c.22-.68.57-1.85.77-2.57l2.13.7ZM59.76,117.46c.37-1.13.63-1.91.87-2.76q1.02.37,5.1,1.78l1.36.45c2.58.85,4.47,1.43,5.72,1.77l-.7,2.13-1.26-.41-3.2,9.76,1.52.5-.7,2.13c-1.27-.49-3.13-1.14-5.65-1.96l-1.62-.53c-1.94-.64-4.16-1.29-5.17-1.59.31-.83.56-1.6.93-2.73l1.05-3.2-5.17-1.7-1.37,4.17c-.35,1.07-.91,2.89-1.2,3.87l-2.16-.71c.38-.95.96-2.58,1.36-3.81l1.37-4.17-5.1-1.68c-.17,1.84-.5,4.02-.98,7.01-.75-.1-1.26-.09-2.13.05,1.17-6.95,1.35-10.44.69-14.52l1.78-1.17c.23-.14.35-.21.48-.16.29.1.29.31.08,1.06.19,2.03.3,3.68.22,5.44l5.65,1.86,1.38-4.2c.41-1.26.92-2.92,1.18-3.91l2.16.71c-.36.99-.99,2.79-1.34,3.86l-1.38,4.2,5.17,1.7,1.06-3.23ZM49.87,130.78c-.19.47-.46,1.28-.67,1.93l-1.63,4.97c-.2.61-.48,1.45-.6,1.95l-2.07-.68c.19-.47.5-1.3.7-1.92l1.63-4.97c.21-.65.45-1.46.57-1.96l2.07.68ZM54.3,132.23c-.19.47-.46,1.28-.67,1.93l-1.63,4.97c-.2.61-.48,1.45-.6,1.95l-2.07-.68c.19-.47.47-1.31.67-1.93l1.63-4.97c.21-.65.48-1.45.6-1.95l2.07.68ZM64.93,143.45l-.75,2.29c-.75-.32-1.81-.7-3.42-1.23l-4.1-1.35c-1.03-.34-2.27-.71-2.87-.84.28-.73.49-1.38.81-2.35l1.67-5.07c.31-.94.53-1.62.73-2.34.57.22,1.78.69,2.81,1.03l3.29,1.08c1.52.5,2.59.82,3.39,1.01l-.74,2.26-1.32-.43-1.71,5.2,2.23.73ZM58.11,135.45l-1.71,5.2,4.46,1.46,1.71-5.2-4.46-1.46ZM61.99,117.51l-3.2,9.76,6.85,2.25,3.2-9.76-6.85-2.25Z"/>
      <path class="cls-2" d="M58.53,90.69c.27-.3.55-.39.77-.23.19.14.24.31.21.84,1.32,1.13,12.69,10.34,13.34,10.83,3.06,2.32,4.71,2.29,6.52-.1,1.36-1.79,2.18-3.72,2.58-6.11.49-2.79.36-4.76-.5-8.57q1.21.15,2.48,0c.78,3.75.89,5.75.46,8.46-.45,2.9-1.53,5.45-3.23,7.7-1.64,2.17-3.29,3.05-5.2,2.8-1.09-.14-2.34-.79-4.1-2.13-.79-.6-2.05-1.64-4.57-3.72-2.3-1.87-4.59-3.69-7.24-5.7-1.22-.92-2.22-1.64-3.23-2.27l1.72-1.81Z"/>
      <path class="cls-2" d="M93.79,64.42c.56-.5,1.14-1.05,1.9-1.57.9-.61,1.94-.77,3.12-.54,1.1.24,1.8.72,2.48,1.73,1.96,2.9,3.81,7.23,4.48,10.47.53,2.55-.15,4.28-2.15,5.63-.96.65-1.77,1.03-3.17,1.44q-.35-.71-1.15-2.01c1.42-.51,2.25-.86,2.98-1.35,1.44-.97,1.63-2.08.85-4.76-.79-2.63-2.29-6-3.48-7.78-.87-1.3-2.2-1.68-3.27-.95-.54.36-.85.62-2.6,2.29,1.98,6.83,2.73,11.89,2.77,18.64-.94-.31-1.56-.3-2.62-.12.34-5.93-.08-9.66-1.89-16.85-2.18,2.12-3.89,3.77-5.14,5.03l-1.78-1.79c1.87-1.42,2.83-2.24,6.31-5.36-.83-2.81-2.01-6.02-2.79-7.59l2.31-.82c.32-.13.56-.09.67.08.17.25.08.48-.29.97.76,2.15.83,2.39,1.84,5.77l.62-.54ZM100.8,58.46c4.85-.11,7.96.49,12.41,2.41l-.79,2.54c-3.65-1.88-7.58-2.84-11.72-2.84l.09-2.11Z"/>
      <path class="cls-2" d="M121.54,41.97c.37-.06.62.08.68.31.09.33-.09.59-.63.94.85,6.99,1.02,7.89,1.79,10.75,1.45,5.42,2.54,7.8,5.38,11.55l-1.87,1.7c-2.62-3.59-4.18-7.08-5.61-12.4-.57-2.13-.75-3.07-1.93-10.64q-.2-1.28-.33-1.88l2.52-.32ZM137.62,46.53q-3.71,1.24-9.43,2.88l-.61-2.27,3.13-.8c2.2-.59,3.08-.86,6.31-1.94-1.23-4.21-1.97-6.58-2.2-7.15l2.46-.55c.34-.06.69.06.75.29.07.26-.1.55-.49.94l1.64,5.72c1.89-.68,3.2-1.21,5.42-2.23l.8,2.07c-1.25.58-2.36,1.05-5.59,2.27l.12.46c1.34,5.02,1.92,8.49,1.87,10.94-.08,3.51-1.25,6.11-4.01,8.96-.76-.89-.89-.96-2.01-1.61,1.53-1.5,2.21-2.39,2.71-3.54.96-2.09,1.2-4.97.7-7.65-.16-.87-1.05-4.96-1.21-5.55l-.37-1.24Z"/>
      <path class="cls-2" d="M182.55,39.93c.15.25.24.43.23.59-.02.24-.23.33-.64.33-2.76-.02-4.45.28-6.31,1.04-2.42,1-4.9,2.87-6.32,4.82-.94,1.3-1.57,3.03-1.68,4.76-.34,5.05,3.27,7.61,11.77,8.33-.45.65-.69,1.15-1.11,2.38-3.04-.38-4.82-.77-6.82-1.48-4.26-1.51-6.46-4.76-6.17-9,.27-4,2.31-7.03,6.59-9.81q-6.64.98-10.18,1.46c-.24.05-.79.12-1.52.24-.72.09-1.27.15-1.58.2-1.03.13-1.17.16-1.83.29l-.47-2.66c3.07-.07,7.7-.54,15.16-1.46,6.77-.84,7.63-.95,9.82-1.62l1.05,1.6Z"/>
      <path class="cls-2" d="M216.95,56.87c.27.23.36.37.29.53-.07.16-.2.21-.7.26-1.57,2.77-2.14,3.67-2.88,4.73,2.32,2.12,3.78,3.73,5.67,6.23-.91.5-1.22.7-2.01,1.36-1.4-2.03-2.75-3.63-4.98-5.79-2.78,3.44-6.09,5.7-10.41,7.01-.29-.79-.7-1.4-1.24-1.96,4.34-1.38,7.72-3.61,9.91-6.52-2.48-2-5.2-3.78-7.12-4.63q-.13.13-1.39,1.29c-3.73,3.41-6.31,4.38-8.73,3.37-1.88-.79-2.54-2.55-1.72-4.49,1.49-3.54,6-4.59,11.26-2.63,2.95-2.7,4.52-4.41,7.2-7.89-3.53-.9-5.68-1.4-6.53-1.57l.47-2.35c7.04,2.3,7.3,2.38,7.92,2.05l1.22,1.92c.14.2.21.46.13.65-.08.19-.33.27-.88.25-2.67,3.27-4.48,5.2-7.33,7.94,2.08,1.02,4.59,2.6,6.78,4.3,1.23-1.88,2.12-3.46,3.07-5.53l2,1.47ZM193.58,59c-.33.78-.08,1.41.67,1.72,1,.42,2.31.13,3.83-.93.88-.59,1.57-1.18,3.15-2.66-3.24-1.15-6.74-.3-7.65,1.87Z"/>
      <path class="cls-2" d="M239.69,63.93c2.17,1.71,6.71,4.58,9.54,6.11l.56.09.24,2.59c.01.24-.02.43-.14.56-.16.18-.33.11-.5.05l-.42-.14c-7.1.96-8.72,1.14-13.4,1.53,3.09.93,4.4,1.6,5.97,3.01,3.63,3.24,4.16,7.49,1.33,10.66-1.63,1.83-3.84,2.82-6.3,2.76-2.55-.05-5-1.14-7.56-3.42-3.3-2.94-4.17-5.64-2.45-7.57,1.34-1.5,3.6-1.48,5.27.01,1.39,1.25,2.08,3.13,1.9,5.02-.1.73-.27,1.27-.83,2.72,1.54.78,2.39,1,3.59.98,1.71-.07,3.32-.86,4.5-2.18,2.08-2.33,1.74-5.42-.85-7.73-2.13-1.9-5.15-3.01-9-3.3-1.06-.08-1.89-.13-3.96-.11l.02-2.58c5.45.08,5.73.06,7.65-.1.19-.01,4.45-.49,12.75-1.52l-4.66-2.7c-.9-.53-3.85-2.07-4.49-2.37l1.21-2.38ZM230.67,81.49c-.86-.77-1.9-.78-2.51-.1-.88.99-.21,2.68,1.79,4.47.28.25.3.27.91.77,1.19-2.45,1.12-3.96-.19-5.14Z"/>
    </g>
    <g>
      <path class="cls-2" d="M59.64,197.93l.39-.12c.28-.09.5-.1.65-.04.15.06.25.17.3.33.05.16.03.31-.07.44-.09.13-.28.24-.56.33l-3,.91c-.28.09-.5.1-.65.04-.15-.06-.25-.17-.3-.33-.05-.15-.03-.29.06-.42.08-.13.25-.24.5-.32.77-.28,1.37-.86,1.79-1.73.42-.88.46-1.87.12-2.98-.35-1.17-.97-2-1.85-2.48-.88-.49-1.77-.59-2.68-.32-.47.14-.86.37-1.19.68-.32.31-.56.66-.7,1.05s-.22.81-.25,1.26c-.02.45.02,1.12.12,2.03.18,1.52.21,2.59.11,3.22-.14.84-.48,1.55-1.01,2.12-.53.57-1.24.99-2.11,1.26-1.35.41-2.64.27-3.88-.41-1.24-.68-2.11-1.84-2.61-3.48-.56-1.84-.37-3.51.58-5l-.67.2c-.28.08-.5.1-.65.04-.15-.06-.25-.17-.3-.33-.05-.15-.02-.3.07-.43s.28-.25.56-.33l3.25-.99c.29-.09.51-.1.66-.04.15.06.25.17.3.33.05.15.03.29-.06.42-.08.13-.25.24-.5.32-.85.3-1.5.96-1.97,1.96-.47,1-.5,2.17-.09,3.49.4,1.33,1.09,2.27,2.06,2.81.97.55,1.96.66,2.97.36.62-.19,1.12-.5,1.51-.94.39-.44.64-.99.74-1.66.07-.46.04-1.37-.11-2.72-.21-1.86-.09-3.27.35-4.25.44-.98,1.28-1.66,2.52-2.03,1.23-.37,2.43-.25,3.59.36,1.16.62,1.96,1.65,2.4,3.11.45,1.48.32,2.91-.39,4.29Z"/>
      <path class="cls-2" d="M58.51,219.78l-4.95-10.14c-1.35.87-2.24,1.97-2.67,3.3-.43,1.33-.32,2.66.33,4,.36.74.88,1.45,1.55,2.14s1.35,1.17,2.05,1.46c.2.09.33.18.39.29.06.13.06.26,0,.41s-.17.26-.32.33c-.15.07-.33.08-.53.02-.62-.17-1.36-.64-2.22-1.42-.85-.78-1.53-1.68-2.03-2.7-.83-1.71-.91-3.43-.22-5.18.69-1.75,1.91-3.05,3.67-3.91,1.61-.78,3.25-.92,4.92-.41,1.67.51,2.89,1.55,3.66,3.13.79,1.63.86,3.25.19,4.88-.67,1.63-1.95,2.89-3.83,3.79ZM59.14,218.22c1.12-.79,1.86-1.8,2.22-3.01.35-1.21.25-2.4-.32-3.56-.57-1.16-1.43-1.98-2.59-2.45-1.16-.47-2.41-.51-3.75-.11l4.45,9.12Z"/>
      <path class="cls-2" d="M68.73,223.71l-1.52,1.07c1.16.13,2.05.36,2.68.68.63.32,1.17.8,1.62,1.44.48.69.76,1.44.83,2.23.04.57-.1,1.21-.43,1.93-.33.72-.78,1.28-1.37,1.69l-6.35,4.45.54.77c.15.22.21.4.19.56-.03.16-.12.29-.27.4-.14.1-.3.14-.46.11-.16-.03-.32-.15-.47-.36l-1.7-2.43c-.16-.22-.22-.42-.19-.58.03-.16.12-.29.26-.39.15-.11.31-.15.46-.12.16.03.31.16.47.38l.53.76,6.18-4.33c.71-.5,1.15-1.15,1.31-1.97s-.03-1.61-.58-2.4c-.42-.6-.92-1.02-1.49-1.27-.58-.25-1.68-.41-3.31-.48l-6.32,4.43.72,1.03c.15.22.21.4.19.56-.03.16-.12.29-.27.4-.14.1-.3.14-.46.11-.16-.03-.32-.15-.47-.36l-2.07-2.96c-.15-.22-.21-.4-.18-.57s.12-.29.26-.39c.15-.11.31-.15.46-.12.16.03.31.15.46.37l.72,1.03,8.36-5.86-.54-.77c-.15-.22-.21-.4-.18-.56.03-.16.12-.29.27-.4.14-.1.3-.14.46-.11s.32.15.47.36l1.17,1.67Z"/>
      <path class="cls-2" d="M89.82,240.15l-12.34,11.91,1.02,1.06c.19.2.28.37.28.53s-.07.3-.2.43c-.13.12-.27.18-.44.18-.16,0-.34-.1-.53-.3l-1.8-1.87,1.76-1.7c-2.3.43-4.13-.06-5.5-1.49-.7-.72-1.15-1.62-1.36-2.69-.21-1.07-.11-2.18.31-3.32s1.04-2.12,1.88-2.92c.84-.81,1.84-1.41,2.99-1.78,1.15-.37,2.26-.44,3.33-.19,1.07.25,1.95.73,2.65,1.46,1.34,1.39,1.77,3.24,1.28,5.54l5-4.82-1.03-1.06c-.19-.2-.28-.38-.28-.54s.07-.31.21-.44c.13-.12.27-.18.44-.18s.34.1.53.3l1.8,1.87ZM80.36,247.72c1.12-1.08,1.74-2.34,1.86-3.77.11-1.43-.28-2.61-1.19-3.56-.92-.95-2.09-1.39-3.52-1.33-1.43.06-2.71.64-3.83,1.72-1.12,1.08-1.73,2.33-1.85,3.77-.12,1.43.28,2.62,1.2,3.57.91.94,2.08,1.38,3.52,1.31,1.44-.07,2.71-.64,3.83-1.72Z"/>
      <path class="cls-2" d="M106.82,274.03l.83-1.56c-2.13.57-4,.43-5.61-.43-1.17-.62-1.91-1.44-2.22-2.45-.31-1.01-.21-1.99.3-2.95.56-1.05,1.48-1.74,2.77-2.06s2.76-.04,4.43.85c.45.24.92.53,1.41.88.49.35,1.01.75,1.55,1.21l.94-1.76c.32-.59.34-1.24.08-1.95-.26-.7-.89-1.32-1.88-1.85-.76-.4-1.96-.73-3.59-.97-.29-.05-.48-.09-.55-.12-.12-.07-.2-.17-.24-.33-.03-.15-.01-.3.07-.46.08-.15.18-.24.3-.29.18-.07.71-.01,1.6.17,1.4.28,2.41.59,3.04.92,1.23.66,2.02,1.51,2.35,2.55.33,1.04.27,1.99-.19,2.85l-3.83,7.19,1.3.69c.24.13.38.27.43.42.05.15.03.31-.06.48-.08.16-.2.26-.36.31-.16.05-.35.01-.59-.12l-2.29-1.22ZM109.69,268.63c-.38-.39-.81-.76-1.28-1.1-.48-.34-1-.66-1.56-.96-1.42-.76-2.71-1.01-3.87-.75-.88.19-1.5.63-1.88,1.34-.35.65-.41,1.33-.19,2.02.22.69.78,1.28,1.66,1.75.85.45,1.73.68,2.66.69.92.01,1.99-.19,3.19-.6l1.27-2.39Z"/>
      <path class="cls-2" d="M138.17,271.87l-.21,1.23c1.12-.94,2.15-1.33,3.08-1.17.56.1,1.03.35,1.39.76s.63.97.8,1.69c.6-.59,1.18-1.01,1.74-1.25.56-.25,1.08-.32,1.59-.24.79.14,1.37.53,1.73,1.18.49.84.66,1.69.5,2.56l-1.48,8.47.92.16c.26.04.44.13.53.26.09.13.12.29.09.47-.03.17-.11.31-.24.4s-.33.12-.59.08l-2.01-.35,1.67-9.57c.11-.62.03-1.15-.24-1.62-.27-.46-.62-.73-1.06-.81-.4-.07-.85.02-1.35.28-.5.25-1.12.82-1.85,1.69l-1.4,8.04.91.16c.26.05.44.13.53.26s.12.29.09.47c-.03.17-.11.31-.24.4s-.33.12-.59.08l-2.01-.35,1.66-9.48c.11-.64.03-1.21-.23-1.68s-.62-.75-1.04-.83c-.39-.07-.8,0-1.23.22-.6.3-1.27.88-2.02,1.74l-1.4,8.04.92.16c.26.05.44.13.53.26s.12.29.09.47c-.03.17-.11.31-.24.4-.13.1-.33.12-.59.08l-2.94-.51c-.26-.05-.44-.14-.53-.27-.09-.14-.12-.29-.09-.46.03-.18.11-.32.25-.41s.33-.11.59-.07l.92.16,1.76-10.06-.92-.16c-.26-.05-.44-.14-.53-.27-.09-.13-.12-.29-.09-.48.03-.17.11-.31.24-.4.13-.1.33-.12.59-.08l2.01.35Z"/>
      <path class="cls-2" d="M166.44,281.13l-11.28-.19c.17,1.59.74,2.89,1.73,3.88.99.99,2.23,1.5,3.71,1.52.83.01,1.69-.12,2.6-.41.91-.29,1.65-.67,2.23-1.16.17-.14.32-.21.44-.21.14,0,.26.07.37.19s.15.27.15.43-.08.33-.22.48c-.43.48-1.19.92-2.27,1.33-1.08.41-2.19.6-3.33.58-1.9-.03-3.47-.75-4.72-2.15-1.25-1.4-1.85-3.09-1.82-5.05.03-1.79.65-3.31,1.86-4.57s2.7-1.87,4.46-1.84c1.81.03,3.29.71,4.44,2.05,1.15,1.33,1.69,3.04,1.64,5.13ZM165.34,279.87c-.2-1.36-.76-2.47-1.68-3.34s-2.03-1.31-3.32-1.33c-1.29-.02-2.41.38-3.36,1.2-.95.82-1.54,1.92-1.8,3.29l10.15.17Z"/>
      <path class="cls-2" d="M181.92,273.61c-.04-.28-.02-.49.07-.63.09-.14.21-.22.36-.24.17-.02.31.02.43.13.12.11.2.32.25.62l.29,2.09c.04.29.02.51-.07.65-.09.14-.21.22-.38.25-.15.02-.28-.01-.39-.11-.12-.09-.2-.26-.25-.5-.13-.57-.47-1.01-1.01-1.32-.79-.44-1.77-.58-2.95-.41-1.23.17-2.14.58-2.74,1.23-.46.49-.65.99-.57,1.5.08.58.45,1.02,1.12,1.32.46.21,1.28.31,2.46.29,1.55-.03,2.64.03,3.26.18.89.22,1.59.6,2.08,1.14.5.54.79,1.16.89,1.86.15,1.03-.17,2.02-.96,2.95-.78.93-2.04,1.52-3.77,1.76-1.73.24-3.22-.05-4.46-.87.05.33.06.54.04.65-.02.1-.07.19-.15.27-.08.08-.18.13-.29.14-.16.02-.3-.02-.42-.13s-.2-.31-.24-.6l-.35-2.51c-.04-.29-.02-.5.06-.64s.21-.22.37-.25c.16-.02.3.02.42.13s.2.26.23.46c.06.45.21.8.46,1.08.37.42.91.74,1.62.95.71.21,1.55.25,2.51.11,1.43-.2,2.45-.64,3.06-1.33.61-.69.87-1.36.78-2.02-.11-.75-.54-1.31-1.31-1.67-.78-.35-1.86-.51-3.24-.48-1.38.04-2.39-.03-3.02-.2-.63-.17-1.14-.48-1.54-.94-.4-.46-.64-.98-.72-1.56-.15-1.04.2-1.94,1.04-2.68.84-.74,1.89-1.21,3.17-1.38,1.51-.21,2.8.03,3.87.71Z"/>
      <path class="cls-2" d="M199.1,269.2c-.08-.27-.09-.48-.03-.63s.17-.25.32-.3c.16-.05.31-.03.45.06.14.09.25.28.34.57l.62,2.02c.09.28.1.5.03.65-.06.15-.18.25-.33.3-.14.04-.28.03-.41-.04-.13-.07-.24-.22-.32-.45-.22-.54-.62-.93-1.21-1.15-.85-.31-1.84-.29-2.98.06-1.18.36-2.02.91-2.52,1.65-.37.55-.48,1.08-.33,1.57.17.56.61.94,1.31,1.13.48.14,1.31.1,2.48-.1,1.52-.27,2.61-.39,3.25-.34.92.08,1.66.34,2.24.8s.97,1.02,1.17,1.69c.31,1,.15,2.02-.48,3.07-.63,1.04-1.78,1.82-3.45,2.34-1.67.51-3.19.46-4.54-.15.1.32.14.53.14.63,0,.1-.04.2-.11.29-.07.09-.16.16-.27.19-.15.05-.3.02-.43-.07-.14-.09-.25-.28-.34-.56l-.74-2.42c-.09-.28-.1-.5-.04-.65.06-.15.17-.25.33-.3.15-.05.3-.03.44.06.14.08.24.22.3.42.13.43.34.76.62.99.43.36,1.01.58,1.75.68s1.57,0,2.5-.28c1.38-.42,2.32-1.02,2.81-1.8.5-.78.65-1.48.45-2.12-.22-.73-.74-1.21-1.56-1.44-.82-.23-1.92-.21-3.28.04-1.36.25-2.36.35-3.01.28-.65-.07-1.2-.29-1.67-.68-.47-.39-.79-.86-.96-1.42-.31-1.01-.11-1.95.6-2.81.71-.87,1.68-1.49,2.92-1.87,1.46-.45,2.77-.42,3.93.1Z"/>
      <path class="cls-2" d="M220.18,273.01l-.78-1.59c-.78,2.06-1.99,3.49-3.63,4.3-1.19.58-2.29.71-3.29.36-1-.34-1.74-1-2.22-1.97-.52-1.07-.54-2.22-.05-3.45.49-1.23,1.59-2.26,3.28-3.1.46-.22.97-.44,1.54-.63.57-.2,1.2-.38,1.89-.54l-.88-1.79c-.3-.6-.81-1.01-1.53-1.21-.72-.2-1.59-.05-2.6.44-.77.38-1.74,1.16-2.89,2.35-.21.21-.35.33-.42.37-.13.06-.26.06-.4,0-.14-.06-.25-.17-.33-.33-.07-.15-.09-.29-.06-.41.05-.19.4-.58,1.07-1.2,1.05-.97,1.89-1.61,2.52-1.92,1.25-.62,2.4-.75,3.44-.41,1.04.34,1.77.95,2.2,1.82l3.59,7.31,1.33-.65c.24-.12.44-.15.6-.1.15.05.27.16.35.33.08.16.09.31.04.47-.05.16-.2.29-.44.41l-2.33,1.14ZM217.48,267.52c-.54.08-1.09.21-1.64.4-.56.19-1.12.42-1.7.7-1.44.71-2.4,1.61-2.88,2.7-.36.82-.37,1.59-.01,2.31.33.67.84,1.11,1.53,1.34.69.23,1.49.12,2.39-.32.86-.42,1.57-1,2.12-1.75s1.01-1.72,1.38-2.94l-1.19-2.43Z"/>
      <path class="cls-2" d="M231.21,253.76l-1.3-1.84,2.12-1.5c.22-.15.4-.21.56-.18.16.03.29.12.4.27.1.14.14.3.11.46-.03.16-.15.32-.36.47l-1.22.86,7.08,10.05c.47.67.76,1.36.88,2.07.07.47.04,1.04-.1,1.7s-.32,1.18-.53,1.58c-.22.39-.6.78-1.16,1.17l-2.57,1.81c-.22.15-.4.21-.56.19-.16-.03-.29-.12-.4-.27-.11-.15-.15-.31-.12-.47.03-.16.15-.32.36-.47l2.61-1.82c.53-.37.9-.86,1.12-1.47s.26-1.3.13-2.08c-.08-.45-.3-.93-.67-1.45l-2.12-3.02c.07,2.16-.66,3.78-2.19,4.86-1.24.88-2.68,1.12-4.3.73-1.62-.39-2.95-1.31-3.96-2.75s-1.44-3-1.25-4.65c.18-1.66.9-2.92,2.14-3.8,1.53-1.08,3.3-1.22,5.3-.44ZM233.34,256.79c-.83-1.18-1.9-1.92-3.2-2.22-1.3-.3-2.46-.09-3.47.62-1.01.71-1.59,1.73-1.74,3.06s.19,2.58,1.02,3.75c.83,1.18,1.9,1.93,3.2,2.23,1.3.31,2.46.1,3.47-.61,1.01-.71,1.6-1.74,1.75-3.07.15-1.33-.19-2.59-1.02-3.77Z"/>
      <path class="cls-2" d="M249.33,243.43l-8.1,7.86c1.25,1.01,2.57,1.51,3.97,1.51,1.4,0,2.63-.52,3.7-1.56.59-.58,1.11-1.29,1.55-2.13s.69-1.65.75-2.4c.02-.22.07-.38.16-.46.1-.1.23-.14.39-.13.16.01.3.08.41.2s.18.28.19.49c.04.64-.18,1.49-.66,2.55-.48,1.05-1.12,1.98-1.94,2.77-1.36,1.32-2.98,1.93-4.85,1.82-1.87-.11-3.49-.87-4.86-2.27-1.24-1.28-1.88-2.8-1.92-4.55-.04-1.75.58-3.23,1.84-4.46,1.3-1.26,2.83-1.83,4.58-1.7,1.75.13,3.35.95,4.79,2.46ZM247.66,243.32c-1.1-.82-2.29-1.21-3.55-1.17-1.26.04-2.36.51-3.29,1.41-.93.9-1.43,1.98-1.52,3.23-.08,1.25.27,2.45,1.07,3.6l7.29-7.07Z"/>
      <path class="cls-2" d="M270,212.3c1.66.88,2.79,2.16,3.4,3.85s.51,3.29-.28,4.79c-.81,1.52-2.08,2.5-3.82,2.94-1.74.44-3.44.22-5.08-.65-1.66-.88-2.79-2.16-3.41-3.85-.61-1.69-.52-3.29.29-4.82.8-1.51,2.07-2.48,3.81-2.93s3.44-.23,5.11.65ZM269.47,213.29c-1.36-.72-2.76-.9-4.18-.53-1.42.37-2.46,1.17-3.12,2.41-.66,1.24-.74,2.56-.24,3.94s1.43,2.43,2.78,3.15c1.35.71,2.73.89,4.16.53s2.47-1.16,3.13-2.41c.66-1.24.74-2.56.24-3.94-.5-1.38-1.43-2.43-2.78-3.15Z"/>
      <path class="cls-2" d="M267.29,202.02l1.76.6c-.57-1.01-.92-1.87-1.03-2.57-.11-.7-.04-1.42.21-2.16.27-.8.71-1.46,1.31-1.99.44-.37,1.04-.64,1.81-.8.77-.16,1.49-.12,2.17.11l7.33,2.5.3-.89c.08-.25.2-.41.34-.48.14-.07.3-.08.48-.02.17.06.29.16.36.3.07.15.07.34-.02.59l-.96,2.81c-.09.26-.21.42-.35.49-.15.07-.3.08-.47.02-.18-.06-.3-.16-.37-.31s-.06-.35.03-.6l.3-.87-7.14-2.43c-.82-.28-1.61-.25-2.36.1-.75.35-1.28.97-1.59,1.88-.24.69-.28,1.34-.15,1.96.14.61.66,1.6,1.57,2.96l7.31,2.49.4-1.19c.08-.25.2-.41.34-.48s.3-.08.48-.02c.17.06.29.16.36.3.07.15.07.34-.02.59l-1.17,3.42c-.08.25-.2.41-.35.48-.15.07-.31.08-.47.02-.18-.06-.3-.16-.37-.31-.07-.14-.06-.34.02-.59l.4-1.19-9.66-3.3-.3.89c-.08.25-.2.41-.35.48-.15.07-.31.08-.49.02-.17-.06-.29-.16-.36-.3-.07-.15-.07-.34.02-.59l.66-1.93Z"/>
      <path class="cls-2" d="M271.24,160.17h-.41c-.29-.01-.5-.07-.63-.17-.12-.1-.19-.24-.18-.41,0-.17.07-.3.2-.4.13-.1.34-.15.63-.14l3.13.05c.29,0,.5.06.63.16.12.1.19.24.18.41,0,.16-.06.29-.18.39-.12.1-.31.15-.57.16-.82.03-1.56.4-2.23,1.1-.67.71-1.01,1.64-1.03,2.8-.02,1.22.31,2.2,1,2.93s1.5,1.11,2.45,1.12c.49,0,.93-.09,1.34-.28s.73-.46.99-.79c.25-.33.46-.7.62-1.12.16-.42.33-1.08.51-1.97.3-1.5.59-2.53.89-3.1.39-.76.93-1.33,1.61-1.71.68-.38,1.48-.56,2.4-.55,1.41.02,2.6.55,3.57,1.57.97,1.03,1.45,2.4,1.42,4.11-.03,1.92-.73,3.45-2.08,4.58h.7c.29.02.5.07.63.17s.19.24.18.41c0,.16-.07.29-.2.39-.13.1-.34.15-.63.15l-3.4-.05c-.3,0-.52-.06-.64-.16-.12-.1-.19-.24-.18-.41,0-.16.06-.29.18-.39.12-.1.31-.15.57-.16.9-.03,1.72-.45,2.47-1.26.75-.81,1.14-1.91,1.16-3.3.02-1.39-.35-2.49-1.1-3.31-.76-.82-1.67-1.23-2.72-1.25-.64-.01-1.22.13-1.73.43s-.91.75-1.22,1.35c-.21.42-.46,1.29-.73,2.62-.37,1.83-.92,3.15-1.63,3.94-.72.8-1.72,1.19-3.02,1.16-1.29-.02-2.39-.5-3.3-1.44-.91-.94-1.36-2.17-1.33-3.69.02-1.55.59-2.87,1.69-3.97Z"/>
      <path class="cls-2" d="M285.07,139.35l.2,1.41-14.03,10.25,13.96-2-.29-2.02c-.04-.27-.01-.47.08-.6.09-.13.23-.21.42-.23.17-.02.33.01.46.11.13.1.22.28.26.55l.58,4.03c.04.27,0,.47-.09.6-.1.13-.24.21-.41.23-.18.03-.34,0-.47-.11s-.21-.28-.25-.55l-.13-.91-14.53,2.08.21,1.47c.04.26,0,.46-.09.59-.1.13-.23.21-.42.23-.18.03-.34,0-.47-.11s-.21-.28-.25-.54l-.41-2.87,14.05-10.27-13.99,2,.29,2.02c.04.26,0,.46-.09.58-.09.13-.23.21-.42.23-.18.03-.34,0-.47-.1-.13-.09-.21-.27-.25-.54l-.58-4.05c-.04-.26,0-.46.09-.59.1-.13.23-.21.42-.23s.34,0,.47.11.21.28.25.54l.13.93,15.75-2.25Z"/>
      <path class="cls-2" d="M265.17,126.52l-.39.12c-.28.09-.5.1-.65.04-.15-.06-.25-.17-.3-.33-.05-.16-.03-.31.06-.44.09-.13.28-.24.56-.33l2.99-.93c.28-.09.5-.1.65-.04.15.06.25.17.3.33.05.15.03.29-.05.42-.08.13-.25.24-.5.33-.77.28-1.36.87-1.78,1.74-.41.88-.45,1.87-.1,2.98.36,1.17.98,1.99,1.86,2.47.88.48,1.77.58,2.68.3.47-.14.86-.37,1.18-.68.32-.31.55-.66.69-1.06.14-.39.22-.81.24-1.26.02-.45-.02-1.12-.13-2.03-.18-1.52-.22-2.59-.12-3.22.14-.84.47-1.55,1-2.12.53-.57,1.23-1,2.11-1.27,1.34-.42,2.64-.29,3.88.38,1.25.67,2.12,1.83,2.63,3.46.57,1.84.39,3.51-.55,5l.67-.21c.28-.09.5-.1.65-.04.15.06.25.17.3.33.05.15.02.3-.06.43-.09.14-.28.25-.56.34l-3.25,1.01c-.29.09-.51.1-.66.05-.15-.06-.25-.17-.3-.33-.05-.15-.03-.29.05-.42.08-.13.25-.24.5-.33.85-.31,1.5-.96,1.96-1.97.46-1,.49-2.17.08-3.49-.41-1.33-1.1-2.26-2.08-2.8-.97-.54-1.97-.65-2.97-.34-.62.19-1.12.51-1.51.95-.39.44-.63,1-.73,1.66-.07.46-.03,1.37.12,2.72.22,1.86.11,3.27-.32,4.25-.43.98-1.27,1.66-2.51,2.05-1.23.38-2.43.27-3.59-.34s-1.97-1.64-2.42-3.1c-.46-1.48-.33-2.91.37-4.3Z"/>
    </g>
    <circle class="cls-2" cx="162.5" cy="162.5" r="4.69"/>
  </g>
</svg>