<?xml version="1.0" encoding="UTF-8"?>
<svg id="_レイヤー_2" data-name="レイヤー 2" xmlns="http://www.w3.org/2000/svg" viewBox="0 0 325 325">
  <defs>
    <style>
      .cls-1 {
        fill: #ffebeb;
      }

      .cls-2 {
        fill: #500a28;
      }
    </style>
  </defs>
  <g id="_レイヤー_1-2" data-name="レイヤー 1">
    <g>
      <path class="cls-2" d="M88.48,67.63c.3-.16.55-.16.66,0,.09.14.04.42-.18.9q.36.54,3.2,4.85l4.5,6.73c1.74,2.6,3.05,4.5,3.96,5.74l-2.01,1.34c-.79-1.31-2.05-3.25-3.79-5.85l-6.48-9.69c.45,3.18.49,4.34.4,7.14-1.2-.63-1.63-.79-2.31-.95.13-6.22-.78-11.5-3.14-18.34l2.4-.5c.36-.08.55-.04.68.16.13.2.1.34-.38.91,1,3.34,1.34,4.75,1.89,7.9l.6-.32ZM100.43,64.3l-3.82,2.55c-1.38.93-3.29,2.24-4.46,3.06l-1.28-1.92c1.22-.74,3.17-1.99,4.55-2.92l3.81-2.55-3.36-5.03c-1.49-2.23-2.31-3.4-2.92-4.18l2.2-1.18c.36-.2.56-.21.67-.04.11.17.07.41-.16.92l5.5,8.22,4.3-2.87c1.38-.93,3.27-2.27,4.46-3.11l1.3,1.95c-1.25.75-3.19,2.01-4.58,2.94l-4.3,2.87,7.88,11.78,4.66-3.12c1.1-.74,2.52-1.73,3.35-2.32l1.27,1.89c-.9.56-2.5,1.59-3.43,2.21l-10.77,7.2c-.93.62-2.5,1.71-3.35,2.32l-1.27-1.89c.87-.54,2.33-1.47,3.43-2.21l4.18-2.8-7.88-11.78Z"/>
      <path class="cls-2" d="M134.43,51.93l5.95-1.57q2.92-.8,3.83-1.08.12.6.7,2.91l.26.99c1.57-.45,3.27-.93,4.44-1.31l.55,2.07c-1.19.28-2.92.66-4.5,1.08l.69,2.63c.32,1.22.47,1.63.96,3.23l-2.24.59-.48-1.81-7.53,1.98.02.07c.33,1.11.6,2.02.67,2.28.38,1.45.28,2.14-.43,2.79-.73.72-1.36.99-4.1,1.78-.38-1.17-.65-1.66-1.28-2.33,1.04-.2,1.6-.32,2.36-.52,1.25-.33,1.35-.5,1.03-1.71l-.47-1.78-8.06,2.12c-1.08.29-2.92.8-3.92,1.14l-.54-2.07c1-.23,2.68-.64,3.96-.97l8.06-2.12-.58-2.2-7.6,2c-1.91.5-4.78,1.33-6.51,1.85l-.54-2.04c1.76-.39,4.66-1.12,6.57-1.62l7.6-2-.51-1.94-8.06,2.12c-1.09.29-2.91.84-3.92,1.14l-.55-2.07c1-.19,2.69-.6,3.97-.94l8.06-2.12-.48-1.84-6.61,1.74.25.95-2.24.59c-.13-.77-.3-1.4-.82-3.51l-.2-.76c-.23-.89-.64-2.29-.86-2.87.73-.16,1.43-.31,2.38-.56l6.48-1.7-.44-1.54-6.74,1.77c-1.94.51-4.78,1.33-6.51,1.85l-.59-2.24c1.76-.39,4.64-1.08,6.58-1.59l6.74-1.77c-.53-1.87-.91-3.07-1.12-3.61l2.56-.43c.3-.04.54.03.58.2.05.2-.07.4-.42.81.14.67.21.93.61,2.44l7.17-1.89c1.94-.51,4.82-1.34,6.51-1.85l.59,2.24c-1.73.38-4.64,1.08-6.58,1.59l-7.17,1.89c.11.53.24,1.03.37,1.55l6.54-1.72c.95-.25,1.64-.47,2.35-.69.11.57.39,1.9.65,2.85l.17.66c.6,2.16.73,2.62,1,3.39l-2.24.59-.19-.72-6.68,1.76.48,1.84ZM130.66,46.31l-6.61,1.74.67,2.56,6.61-1.74-.67-2.57ZM140.15,46.55l-.67-2.56-6.68,1.76.67,2.57,6.68-1.76ZM142.52,51.8l-7.6,2,.51,1.94,7.6-2-.51-1.94ZM143.5,55.55l-7.6,2c.22.71.42,1.47.61,2.2l7.56-1.99-.58-2.2Z"/>
      <path class="cls-2" d="M172.91,49.68c5.1-2.23,5.88-2.58,9.27-4.28l1.45,1.71c.13.15.18.32.17.49-.01.17-.23.29-.46.27-.14,0-.34-.02-.54-.11-3.83,1.57-7.17,3-10.06,4.36l-.45,6.28-2.2-.16.36-5.02q-.39.18-1.02.47c-2.64,1.17-3.93,2.48-4.04,4.08-.13,1.83,1.35,2.55,5.86,2.87,3.36.24,6.53.19,9.12-.2-.32,1.1-.37,1.41-.48,2.39-3.09.26-5.3.27-8.59.03-3.9-.28-5.84-.79-7-1.8-.89-.85-1.36-1.97-1.27-3.26.14-1.97,1.35-3.65,3.6-5.03,1.14-.67,1.42-.82,4-2.07l.07-.98c.13-1.8-.36-2.58-1.65-2.67-1.42-.1-3.25.69-5.1,2.23-.91.75-1.31,1.17-2.77,3.04l-1.88-1.43c2.33-2.49,3.99-4.79,6.24-8.59-.68-.01-1.16-.01-2.01-.08-1.32-.09-2.17-.19-3.79-.41l.09-2.18c2.12.32,2.43.38,3.75.47,1.02.07,1.8.09,3.06.12,1.02-1.9,2.29-4.88,2.62-6.09l2.27.71c.17.05.29.23.28.4-.01.2-.19.33-.68.5q-.67,1.25-2.12,4.42c2.67-.15,4.22-.38,7.03-1.03l.47,1.98c-3.12.73-5.63,1.06-8.61,1.19-.9,1.64-1.87,3.31-2.4,4.06,1.6-.87,2.88-1.23,4.21-1.13,2.14.15,3.42,1.71,3.27,3.88l-.04.58Z"/>
      <path class="cls-2" d="M211.84,52.16c-2.34-.07-4-.34-6.26-.93-5.33,6.6-8.11,9.41-14.38,14.39-.39-.91-.46-1.01-1.36-2.02,5.45-4.11,8.54-7.12,13.39-13.03-1.57-.48-3.19-1.1-4.85-1.81l-.84-.36.86-2.11c2.78,1.19,3.55,1.48,6.33,2.4,2.12-2.72,2.96-3.91,4-5.65l2.04,1.46c.21.12.31.39.23.58-.08.19-.26.26-.82.28-1.61,2.12-1.76,2.32-3.15,4.02,1.85.42,2.87.56,4.94.63l-.14,2.16ZM206.11,63.69c-1.36.86-1.84,1.29-2.16,2.04-.68,1.6.66,2.79,5.32,4.78,1.94.83,3.9,1.44,6.07,1.89-.6.71-.9,1.17-1.14,1.73-.07.16-.09.22-.16.45-2.32-.62-3.86-1.17-6.05-2.1-5.82-2.48-7.47-4.41-6.26-7.25.57-1.34,1.32-2.06,3.16-3.09l1.22,1.56ZM206.91,56.01c5.01.4,6.77.85,11.93,3.05l-.88,2.06-1-.43c-3.85-1.64-5.46-2.03-10.31-2.51l.26-2.18Z"/>
      <path class="cls-2" d="M244.32,72.63c.11.19.12.48.03.58-.11.13-.35.19-.74.11-3.35,2.61-5.59,4.07-8.36,5.47-4.88,2.42-7.64,2.69-9.68.84-2.2-1.98-1.78-5.4,1.07-8.55,3.16-3.51,8.24-4.89,13.17-3.6,2.29.6,4.38,1.75,6.32,3.5,3.23,2.91,5.04,6.64,4.92,10.24-.07,2.32-1.04,4.51-2.88,6.56-2.64,2.93-6.03,3.95-10.36,3.12-1.7-.3-2.46-.57-5.91-1.98.51-1.33.55-1.52.57-2.51,3.23,1.54,4.44,1.93,6.5,2.24,2.96.38,5.44-.5,7.37-2.65,2.12-2.35,2.8-4.99,2.02-7.83-.54-1.95-1.96-4.28-3.5-5.67q-.2-.18-1.16-.95l.61,1.1ZM236.41,69.17c-3.22.12-6,1.33-7.98,3.52-1.82,2.02-2.4,4.24-1.34,5.2,1.09.98,2.86.79,5.91-.62,3.85-1.79,7.78-4.43,9.65-6.5-2.62-1.31-4.08-1.66-6.25-1.6Z"/>
      <path class="cls-2" d="M273.07,101.37c.02.46-.05.69-.22.79-.21.12-.52-.02-.84-.46q-2.04.04-7.69.23c-1.52.07-1.99.06-7.94.14,1.74.82,2.53,1.47,3.18,2.63.74,1.34.78,2.87.1,3.88-.46.72-1.66,1.7-3.33,2.83-1.61,1.09-2.28,1.78-2.48,2.47-.15.63,0,1.52.37,2.21,1.79,3.21,6.56,4.02,13.51,2.25-.08,1.05-.06,1.43.05,2.46-5.46,1.09-7.77,1.14-10.67.26-2.21-.68-3.99-2.14-5.13-4.19-.76-1.37-.92-2.99-.41-4.17.4-.96,1.26-1.79,3.19-3.14,3.06-2.05,3.64-3.04,2.83-4.49-.76-1.37-2.56-2.23-5.14-2.39-1.05-.08-1.33-.08-3.99.04-1.6.07-1.79.06-3.6.1.18-.8.16-1.45-.04-2.51,2.39.11,10.48-.12,17.04-.5,6.94-.4,9.56-.65,11.11-1.09l.12,2.66Z"/>
      <path class="cls-2" d="M286.27,152.22c-.2.21-.35.34-.52.37-.23.04-.37-.14-.48-.54-.65-2.68-1.34-4.25-2.53-5.87-1.55-2.11-3.97-4.06-6.2-4.98-1.49-.6-3.32-.79-5.03-.49-4.99.89-6.6,5.01-5.24,13.43-.74-.28-1.28-.39-2.58-.51-.37-3.04-.42-4.86-.2-6.97.44-4.5,3.07-7.42,7.25-8.16,3.95-.7,7.38.55,11.11,4.03q-2.55-6.21-3.87-9.54c-.11-.22-.3-.74-.6-1.41-.26-.68-.45-1.2-.58-1.49-.38-.97-.44-1.1-.72-1.7l2.46-1.09c.8,2.97,2.38,7.35,5.07,14.36,2.44,6.37,2.76,7.18,3.94,9.14l-1.3,1.41ZM279.43,150.67c-.69,1.75-1.32,2.89-2.6,4.81l-1.71-1.08c1.36-1.86,1.87-2.71,2.73-4.66l1.58.93ZM282.78,152.6c-.69,1.75-1.31,2.93-2.59,4.85l-1.75-1.1c1.4-1.84,1.9-2.72,2.76-4.67l1.58.93Z"/>
      <path class="cls-2" d="M278.22,189.64c-.15.32-.27.44-.44.41s-.25-.14-.42-.62c-3.07-.85-4.09-1.18-5.29-1.63-1.49,2.77-2.7,4.58-4.65,7.03-.71-.76-.98-1.01-1.82-1.62,1.62-1.85,2.85-3.55,4.4-6.24-4.02-1.85-7.02-4.51-9.35-8.38.69-.48,1.19-1.02,1.6-1.68,2.4,3.88,5.39,6.6,8.75,8.01,1.34-2.89,2.39-5.96,2.74-8.04q-.16-.09-1.6-1.04c-4.22-2.78-5.8-5.05-5.4-7.64.31-2.02,1.85-3.09,3.93-2.77,3.8.58,5.92,4.69,5.31,10.27,3.35,2.2,5.38,3.3,9.41,5.05,0-3.65-.03-5.85-.07-6.72l2.39-.12c-.51,7.39-.52,7.66-.05,8.18l-1.56,1.65c-.17.18-.39.32-.59.29-.2-.03-.34-.26-.46-.79-3.82-1.79-6.14-3.07-9.5-5.17-.48,2.27-1.4,5.08-2.51,7.63,2.12.74,3.87,1.21,6.12,1.62l-.94,2.3ZM270.42,167.5c-.84-.13-1.38.27-1.51,1.08-.16,1.08.44,2.27,1.84,3.48.79.71,1.53,1.23,3.35,2.4.32-3.43-1.36-6.61-3.68-6.96Z"/>
      <path class="cls-2" d="M276.87,213.48c-1.13,2.52-2.82,7.62-3.62,10.74l.05.56-2.45.86c-.23.07-.43.08-.58,0-.21-.11-.19-.29-.17-.47l.04-.44c-2.64-6.66-3.22-8.19-4.73-12.63-.16,3.22-.49,4.66-1.47,6.52-2.27,4.3-6.27,5.85-10.03,3.87-2.17-1.14-3.66-3.04-4.21-5.44-.57-2.49-.11-5.13,1.49-8.17,2.06-3.91,4.46-5.41,6.75-4.21,1.78.93,2.31,3.14,1.26,5.12-.87,1.65-2.54,2.78-4.41,3.06-.73.08-1.29.05-2.84-.15-.38,1.68-.39,2.56-.08,3.73.48,1.64,1.64,3.02,3.21,3.84,2.77,1.46,5.68.38,7.3-2.69,1.33-2.53,1.67-5.73,1.02-9.53-.18-1.05-.33-1.86-.85-3.87l2.51-.6c1.24,5.3,1.33,5.58,1.94,7.4.06.18,1.56,4.2,4.56,12l1.49-5.17c.29-1,1.08-4.24,1.21-4.93l2.6.6ZM257.65,208.97c.54-1.02.3-2.03-.51-2.46-1.17-.62-2.66.45-3.91,2.82-.17.33-.19.36-.52,1.07,2.67.56,4.12.13,4.94-1.43Z"/>
    </g>
    <g>
      <path class="cls-2" d="M46.1,150.53l-6.4-.45-.14,2.04c-.02.27-.09.46-.21.57-.12.11-.27.15-.46.14-.18-.01-.32-.08-.43-.2-.11-.12-.15-.32-.13-.59l.33-4.63c.02-.26.09-.45.22-.55.12-.11.28-.15.45-.14.18.01.33.08.43.2.1.12.15.31.13.58l-.11,1.49,14.64,1.04.11-1.49c.02-.26.09-.45.21-.55.12-.11.27-.15.46-.14.19.01.33.08.43.2.1.12.15.31.13.58l-.47,6.68c-.1,1.38-.66,2.5-1.7,3.38-1.04.87-2.16,1.27-3.38,1.18-.88-.06-1.68-.41-2.42-1.05-.73-.64-1.31-1.66-1.73-3.06-.66.75-1.39,1.37-2.19,1.88-.8.51-2.42,1.29-4.87,2.36l-.06.84c-.02.26-.09.45-.21.55-.12.11-.27.15-.46.14-.18-.01-.32-.08-.43-.2-.11-.12-.15-.31-.13-.58l.1-1.47c2.81-1.17,4.71-2.1,5.69-2.79.98-.68,1.76-1.49,2.35-2.43l.25-3.51ZM47.33,150.61l-.21,3.01c-.07.96.06,1.85.4,2.67.33.81.75,1.41,1.25,1.81s1.02.61,1.57.65c.82.06,1.62-.26,2.42-.95.79-.69,1.23-1.56,1.3-2.62l.29-4.06-7.01-.5Z"/>
      <path class="cls-2" d="M44.88,178.58l-.95-11.24c-1.57.33-2.8,1.03-3.68,2.12-.88,1.08-1.26,2.37-1.14,3.85.07.82.29,1.67.67,2.55s.84,1.58,1.38,2.11c.16.15.25.29.25.42.01.14-.04.27-.15.38-.11.12-.25.18-.42.19-.17.01-.33-.04-.5-.17-.52-.38-1.04-1.09-1.55-2.12-.51-1.04-.82-2.12-.91-3.25-.16-1.89.39-3.53,1.66-4.91s2.88-2.16,4.84-2.32c1.78-.15,3.36.31,4.73,1.39,1.38,1.08,2.14,2.49,2.29,4.25.15,1.8-.38,3.34-1.59,4.62s-2.86,1.99-4.94,2.15ZM46.03,177.36c1.33-.33,2.38-1,3.15-2.01.77-1,1.1-2.15.99-3.44-.11-1.29-.62-2.36-1.54-3.22-.92-.86-2.07-1.34-3.46-1.45l.86,10.12Z"/>
      <path class="cls-2" d="M52.7,194.11l2.18-.54.62,2.52c.07.26.05.47-.03.61-.09.14-.22.23-.4.28-.17.04-.33.02-.47-.06-.14-.08-.25-.26-.31-.52l-.35-1.43-15.4,3.8.35,1.43c.07.26.06.47-.02.6-.08.14-.21.23-.39.27-.17.04-.33.02-.47-.06-.14-.08-.24-.26-.31-.52l-1.26-5.12c-.06-.26-.05-.45.03-.59.08-.14.21-.23.39-.27.18-.04.34-.03.47.06s.24.25.3.51l.64,2.6,7.2-1.78c-2.03-.76-3.28-2.1-3.76-4.03-.4-1.6-.12-3.11.82-4.51.95-1.41,2.28-2.32,3.99-2.75,1.73-.43,3.33-.24,4.81.57,1.48.81,2.42,2.02,2.82,3.64.47,1.91-.01,3.67-1.46,5.29ZM49.09,195.01c1.37-.34,2.44-1.08,3.2-2.23.76-1.15.98-2.37.66-3.67s-1.08-2.28-2.29-2.94c-1.2-.66-2.49-.82-3.87-.48-1.38.34-2.44,1.08-3.21,2.23-.76,1.15-.98,2.37-.66,3.67s1.08,2.28,2.29,2.94c1.21.66,2.5.82,3.88.48Z"/>
      <path class="cls-2" d="M49.2,214.54l1.66-.7c-1.99-.8-3.33-2.01-4.02-3.62-.42-1-.44-1.88-.06-2.65.51-1.01,1.29-1.73,2.34-2.18l7.31-3.1-.58-1.37c-.1-.24-.12-.44-.06-.59.06-.15.18-.26.35-.33.16-.07.32-.07.47-.01s.28.21.38.45l1.01,2.39-8.46,3.58c-.74.31-1.25.78-1.55,1.4-.3.62-.31,1.25-.05,1.88.7,1.66,2.19,2.82,4.47,3.49l7.31-3.1-.8-1.88c-.1-.24-.12-.44-.06-.59.06-.15.18-.26.35-.33.16-.07.32-.07.47-.01s.28.21.38.45l1.23,2.9-10.55,4.47.36.86c.1.24.12.44.07.59-.06.15-.17.26-.34.33-.16.07-.32.07-.47.01s-.28-.21-.38-.45l-.8-1.88Z"/>
      <path class="cls-2" d="M65.07,230.32l-5.98-9.57c-1.25,1.01-2.02,2.2-2.31,3.56s-.04,2.68.74,3.94c.44.7,1.03,1.35,1.76,1.96s1.47,1.02,2.19,1.24c.21.06.35.15.42.25.07.12.09.26.04.41s-.14.28-.28.36c-.14.09-.32.11-.52.08-.64-.1-1.42-.49-2.35-1.18-.93-.69-1.7-1.51-2.3-2.47-1.01-1.61-1.26-3.32-.76-5.13.5-1.81,1.58-3.23,3.25-4.27,1.52-.95,3.13-1.25,4.85-.92,1.72.33,3.04,1.24,3.97,2.73.96,1.54,1.19,3.15.7,4.83-.5,1.69-1.63,3.08-3.42,4.17ZM65.54,228.71c1.03-.91,1.66-1.98,1.89-3.22s0-2.41-.69-3.51-1.63-1.82-2.83-2.16c-1.21-.34-2.45-.25-3.74.29l5.38,8.61Z"/>
      <path class="cls-2" d="M79.78,239.16c.21-.19.4-.28.57-.28.16,0,.3.05.4.17.11.13.15.27.12.43-.03.16-.15.34-.38.54l-1.59,1.38c-.22.19-.41.29-.58.29s-.3-.06-.41-.18c-.1-.11-.14-.24-.12-.39.01-.15.11-.31.28-.48.41-.42.59-.95.56-1.57-.06-.9-.48-1.8-1.26-2.7-.81-.93-1.65-1.48-2.52-1.63-.66-.12-1.18,0-1.57.34-.44.38-.61.94-.5,1.66.07.5.44,1.24,1.1,2.22.87,1.28,1.41,2.23,1.62,2.83.3.87.36,1.66.18,2.37-.18.71-.54,1.3-1.07,1.76-.79.69-1.79.95-3,.81-1.21-.15-2.39-.88-3.54-2.2-1.15-1.32-1.71-2.73-1.7-4.21-.25.22-.42.34-.52.38-.1.04-.2.04-.31.02-.11-.02-.21-.08-.28-.17-.1-.12-.14-.26-.12-.42s.15-.34.37-.53l1.91-1.66c.22-.19.41-.29.57-.3s.3.05.41.18c.1.12.14.26.12.42-.02.16-.11.31-.26.45-.34.29-.56.62-.65.97-.15.54-.12,1.16.08,1.87s.63,1.43,1.27,2.17c.95,1.09,1.87,1.7,2.78,1.84.91.14,1.62,0,2.12-.44.58-.5.8-1.17.68-2.01-.13-.84-.58-1.84-1.37-2.98-.79-1.14-1.28-2.02-1.48-2.64-.2-.62-.22-1.22-.05-1.8s.47-1.07.91-1.45c.8-.69,1.73-.89,2.81-.59s2.04.93,2.89,1.91c1,1.16,1.51,2.37,1.51,3.63Z"/>
      <path class="cls-2" d="M88.78,246.73l4.6,3.87c.2.17.31.34.32.5.01.16-.04.32-.16.46-.11.13-.25.21-.41.23-.16.02-.35-.06-.55-.23l-4.6-3.87-5.27,6.27c-.46.55-.64,1.17-.56,1.86.09.7.51,1.37,1.27,2,.57.48,1.27.91,2.1,1.28.83.37,1.52.59,2.1.66.22.02.37.06.46.13.11.09.16.22.16.38s-.05.31-.16.43c-.09.11-.23.18-.4.2-.42.07-1.17-.11-2.24-.52-1.07-.41-1.99-.94-2.75-1.58-.99-.83-1.56-1.75-1.71-2.76-.15-1.01.14-1.95.88-2.82l5.27-6.27-1.56-1.32c-.2-.17-.31-.34-.32-.5s.04-.32.16-.46c.11-.13.25-.21.41-.23.16-.02.34.06.55.23l1.56,1.32,2.34-2.78c.19-.22.36-.35.53-.38.16-.03.3,0,.42.11.13.11.19.24.19.41s-.1.36-.28.58l-2.34,2.78Z"/>
      <path class="cls-2" d="M118.77,279.24l.67-1.64c-2.06.79-3.93.84-5.62.16-1.23-.5-2.05-1.23-2.46-2.2-.41-.97-.42-1.96,0-2.97.45-1.1,1.29-1.88,2.54-2.34,1.25-.46,2.75-.33,4.5.38.47.19.97.43,1.5.72.53.29,1.08.64,1.67,1.05l.75-1.85c.25-.62.21-1.27-.12-1.95-.33-.67-1.02-1.22-2.07-1.64-.8-.32-2.02-.52-3.67-.58-.3-.01-.48-.04-.56-.07-.13-.05-.22-.15-.27-.3s-.04-.3.02-.46c.06-.15.15-.26.27-.32.17-.09.7-.09,1.61,0,1.42.13,2.46.33,3.12.6,1.3.52,2.16,1.29,2.6,2.29.44,1,.48,1.95.11,2.85l-3.05,7.55,1.37.55c.25.1.41.23.47.37s.06.31,0,.48c-.07.16-.17.28-.32.34-.15.07-.35.05-.6-.05l-2.41-.97ZM121.06,273.57c-.42-.35-.88-.67-1.39-.96-.51-.29-1.06-.55-1.66-.79-1.49-.6-2.8-.72-3.93-.34-.85.28-1.43.79-1.73,1.53-.28.69-.27,1.37.02,2.03.29.67.91,1.19,1.83,1.56.89.36,1.79.5,2.71.41s1.96-.4,3.11-.93l1.02-2.51Z"/>
      <path class="cls-2" d="M156.31,275.5l-6.56-.45c-.26-.02-.45-.09-.55-.21-.11-.12-.15-.28-.14-.46.01-.18.08-.32.19-.43.12-.11.31-.16.58-.14l7.67.53-.93,13.52c-.07,1.04-.32,1.9-.76,2.58-.43.67-1.05,1.21-1.85,1.59-.56.26-1.2.37-1.94.32l-3.51-.24c-.26-.02-.45-.09-.55-.21-.11-.12-.15-.27-.14-.46.01-.19.08-.33.2-.44.12-.11.31-.15.58-.14l3.48.25c.94.06,1.72-.22,2.35-.87.62-.64.97-1.46,1.04-2.47l.84-12.28ZM156.76,267.96l-.22,3.17-1.63-.11.22-3.17,1.63.11Z"/>
      <path class="cls-2" d="M179.06,279.79c.16,1.87-.3,3.52-1.39,4.94-1.09,1.43-2.48,2.22-4.18,2.36-1.72.15-3.23-.39-4.55-1.61-1.32-1.22-2.05-2.76-2.22-4.62-.16-1.87.3-3.52,1.38-4.95s2.48-2.22,4.2-2.37c1.7-.15,3.21.39,4.53,1.6s2.06,2.77,2.22,4.64ZM177.94,279.89c-.13-1.54-.74-2.8-1.82-3.8-1.08-.99-2.32-1.43-3.72-1.31-1.4.12-2.55.77-3.44,1.94-.89,1.17-1.27,2.52-1.14,4.05.13,1.52.74,2.78,1.82,3.78,1.08,1,2.32,1.44,3.72,1.32,1.4-.12,2.55-.77,3.44-1.94s1.27-2.52,1.14-4.05Z"/>
      <path class="cls-2" d="M184.28,266.56l1.98,7.92c.83-2.2,2.16-3.53,3.99-3.99,1.57-.39,3.07-.09,4.5.89,1.43.99,2.38,2.4,2.84,4.24.46,1.86.29,3.57-.52,5.14-.81,1.57-1.98,2.55-3.53,2.93-1.88.47-3.67-.08-5.4-1.64l.59,2.34-2.52.63c-.26.06-.45.05-.59-.03-.14-.09-.23-.21-.27-.38-.04-.18-.03-.34.06-.48.08-.14.25-.24.51-.3l1.45-.36-3.86-15.43-1.45.36c-.25.06-.45.05-.59-.03-.14-.09-.23-.22-.28-.4-.04-.17-.02-.33.06-.47.08-.14.25-.24.51-.31l2.52-.63ZM196.52,275.94c-.38-1.51-1.16-2.67-2.35-3.48-1.19-.81-2.41-1.07-3.65-.75-1.25.31-2.2,1.11-2.87,2.38s-.81,2.67-.44,4.18c.38,1.51,1.16,2.67,2.35,3.48,1.19.81,2.41,1.07,3.65.75,1.25-.31,2.2-1.11,2.87-2.38.67-1.28.81-2.67.44-4.18Z"/>
    </g>
    <circle class="cls-2" cx="161.88" cy="162.5" r="4.69"/>
  </g>
</svg>