<?xml version="1.0" encoding="UTF-8"?>
<svg id="_レイヤー_2" data-name="レイヤー 2" xmlns="http://www.w3.org/2000/svg" viewBox="0 0 325 325">
  <defs>
    <style>
      .cls-1 {
        fill: #500a28;
      }

      .cls-2 {
        fill: #ffffa0;
      }
    </style>
  </defs>
  <g id="_レイヤー_1-2" data-name="レイヤー 1">
    <circle class="cls-2" cx="162.5" cy="162.5" r="162.5"/>
    <g>
      <path class="cls-1" d="M53.89,206.54q-1.77-2.52-4.15-5.47c-4.04-5.04-5.53-7.56-6.45-10.98-1.55-5.75.5-9.79,5.65-11.17,3.42-.92,6.6-.19,9.29,2.18,1.57,1.37,3.48,3.89,5.08,6.7.59,1,1.14,2.12,2.22,4.33-.82.5-1.13.76-2.03,1.75-1.96-4.65-3.25-6.95-5.27-9.36-2.54-3.01-5.4-4.11-8.59-3.25-3.91,1.05-5.44,4-4.3,8.24.8,2.96,2.3,5.54,5.38,9.12q3.92,4.61,5.21,5.99l-2.05,1.93Z"/>
      <path class="cls-1" d="M36.95,149.21c.15-.19.4-.35.57-.34.27.02.39.3.45.92,1.79,1.79,6.39,6.93,8.7,9.74.98,1.22,1.17,1.41,1.41,1.42.24.02.49-.14.96-.55,4.37-3.8,8.49-6.87,13.29-9.99l1.54,2.49c-1.55.82-3.36,1.86-4.85,2.82-1.99,1.27-6.86,4.9-8.81,6.54-1.12.98-1.62,1.26-2.19,1.22-.71-.05-1.49-.71-2.97-2.55-1.92-2.37-5.55-6.22-7.29-7.74-.97-.85-1.42-1.18-2.33-1.79l1.54-2.18Z"/>
      <path class="cls-1" d="M53.82,129.57c.12-1.35.1-1.91.05-5.66-.05-5.33.25-7.53,1.35-10.16,1.88-4.48,5.24-6.06,9.25-4.38,4.08,1.71,5.55,5.13,4.94,11.51-.09,1.18-.38,2.94-.85,5.28-.92-.09-1.5-.04-2.5.17.71-2.65.9-3.46,1.13-4.98.86-5.21-.34-8.51-3.54-9.85-2.92-1.22-5.24-.17-6.57,3-1.07,2.54-1.25,5.19-.86,10.92.1,1.7.15,2.54.19,3.33q.03.38.06.65l-2.66.18Z"/>
      <path class="cls-1" d="M77.9,71.58c.29.03.49.07.61.18.18.16.12.38-.13.71-1.7,2.17-2.51,3.68-3.05,5.62-.7,2.52-.73,5.63-.07,7.95.45,1.54,1.43,3.1,2.73,4.25,3.78,3.37,8.02,2.09,13.8-4.19.24.76.48,1.25,1.19,2.34-2.16,2.17-3.56,3.34-5.35,4.48-3.81,2.44-7.73,2.18-10.9-.65-3-2.67-4.14-6.14-3.71-11.22q-3.3,5.85-5.09,8.94c-.11.22-.39.7-.74,1.34-.37.62-.66,1.1-.81,1.37-.53.9-.59,1.02-.89,1.62l-2.38-1.26c1.83-2.47,4.3-6.41,8.14-12.87,3.49-5.86,3.93-6.61,4.74-8.75l1.91.15Z"/>
      <path class="cls-1" d="M94.06,59.81c.42-.16.8-.1.94.14.13.24.07.47-.36.95.75,1.8,1.3,2.93,2.86,5.69,1.72,3.05,3.77,5.29,5.83,6.39,1.33.69,2.48.94,3.08.61.38-.22.5-.56.52-1.23-.02-.93-.41-3.01-.88-4.54q1.18.15,2.36.23c1.31,4.53,1.15,6.73-.66,7.75-1.36.77-3.45.46-5.69-.81-2.55-1.41-4.5-3.62-6.73-7.56-.6-1.07-1.21-2.21-1.95-3.66-.38-.8-.65-1.35-.73-1.5-.49-1.01-.58-1.16-.82-1.53l2.25-.92ZM108.84,53.57c5.31,1.45,8.3,3.08,12.16,6.68l-1.58,2.18c-3.36-3.45-6.68-5.48-11.26-6.8l.67-2.06Z"/>
      <path class="cls-1" d="M131.86,41.09c2.68-.67,7.73-2.49,10.67-3.79l.41-.39,2.19,1.39c.2.14.33.29.36.45.04.23-.11.33-.27.43l-.37.24c-3.6,6.19-4.44,7.59-7.01,11.52,2.63-1.87,3.97-2.49,6.04-2.87,4.78-.88,8.47,1.31,9.24,5.49.44,2.41-.13,4.76-1.68,6.67-1.6,1.99-3.96,3.25-7.34,3.87-4.35.8-7.01-.16-7.48-2.7-.36-1.97,1.04-3.75,3.24-4.16,1.84-.34,3.75.28,5.13,1.58.51.53.84.99,1.64,2.33,1.56-.74,2.25-1.28,2.97-2.24.99-1.39,1.36-3.15,1.04-4.89-.57-3.08-3.21-4.7-6.62-4.07-2.81.52-5.53,2.23-8.12,5.09-.72.79-1.26,1.41-2.51,3.05l-2.02-1.6c3.4-4.25,3.56-4.49,4.61-6.1.11-.16,2.34-3.82,6.62-11l-4.99,2.02c-.97.38-3.99,1.77-4.63,2.09l-1.14-2.42ZM140.2,58.99c-1.14.21-1.78,1.02-1.62,1.92.24,1.3,1.99,1.81,4.63,1.33.37-.07.4-.07,1.16-.25-1.21-2.44-2.44-3.32-4.18-3Z"/>
      <path class="cls-1" d="M182.17,36.19c.36.12.57.33.54.56-.03.24-.19.35-.69.52-1.85,5.09-4.12,11.66-5.44,15.66,1.33.33,2.26.54,3.43.71l.84.12-.88,2.28c-1.84-.34-2.54-.48-4.03-.9-.29,1.02-.41,1.59-.5,2.2-.47,3.16.7,4.81,3.76,5.26,3.09.46,5.08-1.14,5.57-4.47.41-2.76-.37-5.17-2.92-9.33.66-.25,1.1-.49,1.75-.94,3.14,4.59,3.96,7.15,3.45,10.65-.69,4.71-3.6,6.96-8.14,6.29-4.41-.65-6.46-3.29-5.84-7.46.14-.94.19-1.07.7-2.89-1.05-.36-2.28-1.09-3.23-1.85-1.04-.88-1.45-1.83-1.28-2.97.15-1.04.6-1.73,1.67-2.43l1.25,1.32c-.51.44-.69.72-.75,1.09-.13.91,1.05,1.94,2.98,2.64.56-1.7,1.16-3.47,2.02-6.02-2.87-1.25-4.11-2.19-5.5-4.15l1.55-1.42c1.06,1.46,2.33,2.37,4.72,3.41,1.63-4.54,2.36-6.94,2.63-8.55l2.34.69Z"/>
      <path class="cls-1" d="M219.54,55.11c.14.16.22.44.15.56-.08.15-.3.26-.7.27-2.72,3.26-4.59,5.17-7,7.12-4.25,3.41-6.89,4.25-9.28,2.89-2.57-1.47-2.88-4.89-.78-8.58,2.34-4.1,7.01-6.53,12.1-6.32,2.37.1,4.65.77,6.92,2.07,3.78,2.16,6.34,5.42,6.98,8.96.42,2.28-.06,4.63-1.42,7.02-1.95,3.42-5.05,5.14-9.45,5.25-1.72.07-2.53-.03-6.19-.67.21-1.4.21-1.6.02-2.57,3.49.82,4.74.95,6.82.8,2.97-.26,5.21-1.65,6.64-4.16,1.57-2.75,1.67-5.46.31-8.08-.94-1.79-2.82-3.76-4.62-4.79q-.24-.13-1.33-.68l.83.94ZM211.08,53.41c-3.12.8-5.58,2.57-7.04,5.14-1.35,2.36-1.44,4.66-.2,5.36,1.27.72,2.96.16,5.64-1.87,3.38-2.57,6.66-5.98,8.04-8.4-2.84-.72-4.34-.76-6.44-.23Z"/>
      <path class="cls-1" d="M246.7,85.59c-1.03.99-2.67.95-3.65-.08-.99-1.03-.95-2.67.08-3.65s2.67-.95,3.65.08c.99,1.03.95,2.67-.08,3.65Z"/>
      <path class="cls-1" d="M260.88,109.94c-2.33-.68-3.31-.71-4.43-.14-2.33,1.19-2.03,4.25,1.04,10.24,1.53,3,2.91,5.08,5.37,8.1-1.08.44-1.18.45-2.33,1.04-2-2.64-3.62-5.21-5.23-8.36-1.95-3.81-2.88-6.82-2.78-9.08.09-1.61,1.1-3.16,2.61-3.93,1.63-.84,3.2-.84,6.14.06l-.39,2.07ZM272.44,104.68c-.47,2-.25,3.18,1.09,5.78,1.25,2.45,2.63,4.46,4.56,6.6l-1.87,1.57c-2-2.34-3.37-4.35-4.73-7.01-1.69-3.3-1.92-5.02-1.06-7.59l2.01.65Z"/>
      <path class="cls-1" d="M287.12,148.03c-4.5.45-7.65,1.05-9.72,1.87q2.71,4.82,4.32,6.91l-1.67,1.71c-.22.23-.31.3-.41.32-.34.03-.43-.2-.52-1.11-3.41-7-4.08-8.27-5.45-9.97-2.04-2.56-3.75-3.59-5.78-3.38-2.5.25-3.35,2.39-2.87,7.12.36,3.59,1,6.87,1.86,9.59-.62,0-.92.02-1.33.07-.37.04-.64.06-1.21.16-.7-2.56-1.24-5.48-1.56-8.66-.31-3.04-.21-5.14.27-6.83.58-2.04,2.29-3.41,4.52-3.63,3.11-.31,5.94,1.59,8.65,5.79,2.59-1.08,3.59-1.32,9.71-2.28,1.24-.23,1.31-.24,3.42-.62l.16,2.58c.03.3-.11.59-.35.62-.2.02-.45-.09-.72-.37l-1.32.13Z"/>
    </g>
    <g>
      <path class="cls-1" d="M168.11,287.01l-1.74.03-3.33-12.12-2.87,12.22-1.74.03-1.89-15.88h-.41c-.26.01-.45-.04-.57-.15-.12-.11-.18-.26-.18-.44,0-.18.05-.33.16-.45s.3-.17.56-.18l4.11-.07c.27,0,.47.05.58.16.12.11.17.26.18.44,0,.19-.05.34-.16.45-.11.11-.31.17-.58.18l-2.58.04,1.7,14.48,2.8-11.99,1.7-.03,3.26,11.89,1.2-14.52-2.6.04c-.26,0-.45-.05-.57-.16-.12-.11-.17-.26-.18-.44,0-.19.05-.33.16-.45.11-.11.3-.17.56-.18l4.09-.07c.27,0,.47.05.58.16s.18.26.18.44c0,.19-.05.34-.16.45s-.3.17-.58.18h-.41s-1.28,15.94-1.28,15.94Z"/>
      <path class="cls-1" d="M187.7,278.26c.3,1.85-.04,3.53-1.02,5.03-.98,1.5-2.31,2.39-3.99,2.67-1.7.28-3.25-.15-4.65-1.27-1.4-1.12-2.25-2.6-2.55-4.45-.3-1.85.04-3.53,1.01-5.04.97-1.51,2.31-2.4,4.01-2.68,1.68-.27,3.23.15,4.63,1.27,1.41,1.12,2.26,2.61,2.56,4.47ZM186.6,278.44c-.25-1.52-.95-2.74-2.1-3.65-1.15-.91-2.42-1.25-3.81-1.03-1.39.23-2.48.96-3.28,2.19-.8,1.23-1.08,2.61-.83,4.12.24,1.5.94,2.72,2.09,3.64,1.15.92,2.42,1.27,3.81,1.04,1.39-.23,2.48-.96,3.28-2.19.8-1.23,1.08-2.61.83-4.12Z"/>
      <path class="cls-1" d="M196.4,269.19l.97,2.95c.92-1.83,1.65-3.05,2.2-3.67.55-.62,1.11-1.02,1.69-1.21.62-.21,1.29-.17,1.98.12.69.29,1.08.56,1.16.8.06.18.05.34-.01.49-.07.15-.18.25-.34.3-.08.03-.16.04-.23.02-.07-.01-.21-.08-.43-.21-.4-.23-.73-.37-.98-.42s-.49-.04-.7.03c-.46.15-.94.54-1.46,1.16-.51.62-1.3,1.99-2.37,4.1l2.12,6.4,4.66-1.54c.26-.09.46-.09.6-.02.14.07.24.19.3.37.05.17.05.32-.03.47-.07.15-.24.26-.5.35l-8.25,2.73c-.25.08-.45.09-.59.02-.14-.07-.24-.19-.3-.36-.05-.16-.04-.31.03-.45.07-.14.23-.25.49-.34l2.54-.84-3.22-9.74-1.94.64c-.25.08-.45.09-.59.01-.15-.08-.25-.2-.31-.38-.05-.17-.05-.32.02-.47s.23-.26.49-.35l2.99-.99Z"/>
      <path class="cls-1" d="M215.19,269.38l2.52,4.87-2.31,1.19c-.23.12-.43.16-.58.1s-.27-.16-.35-.31c-.08-.17-.1-.32-.05-.48s.19-.29.43-.41l1.32-.68-7.31-14.13-1.32.68c-.23.12-.43.16-.58.1s-.28-.16-.36-.32c-.08-.16-.1-.31-.05-.47.05-.16.19-.29.42-.42l2.31-1.19,5.21,10.07,2.16-6.07-.5.26c-.23.12-.43.16-.58.1-.16-.05-.27-.16-.35-.31-.08-.17-.1-.33-.06-.48s.19-.29.42-.42l3.15-1.63c.24-.12.44-.16.6-.11.16.05.28.16.36.33.08.16.1.31.05.47s-.19.3-.43.42l-1.14.59-2,5.55,7.71,2.99,1.14-.59c.24-.12.44-.16.59-.12.15.05.27.15.36.32.08.16.1.31.05.47-.05.16-.19.3-.43.42l-3.18,1.65c-.23.12-.43.16-.58.1s-.27-.16-.35-.31c-.08-.17-.1-.32-.05-.48s.19-.29.43-.41l.69-.36-6.72-2.64-.58,1.64Z"/>
      <path class="cls-1" d="M232.23,251.14c-.17-.23-.25-.42-.24-.59,0-.17.08-.29.21-.39.13-.1.28-.13.44-.09.16.04.33.18.51.43l1.25,1.7c.17.24.26.44.25.6,0,.17-.08.3-.22.4-.12.09-.25.12-.4.09-.14-.03-.3-.13-.46-.32-.39-.44-.9-.67-1.52-.68-.91-.01-1.83.33-2.79,1.04-1,.73-1.61,1.53-1.83,2.38-.17.65-.1,1.18.21,1.59.35.47.88.68,1.61.63.5-.03,1.27-.34,2.31-.92,1.35-.76,2.33-1.23,2.95-1.39.89-.23,1.68-.23,2.38.01.69.24,1.25.64,1.67,1.21.62.84.81,1.86.56,3.05s-1.07,2.31-2.48,3.35-2.85,1.49-4.34,1.36c.2.27.31.45.34.55s.03.2,0,.31c-.03.11-.1.2-.19.27-.13.09-.27.12-.43.08s-.33-.18-.5-.41l-1.5-2.04c-.17-.24-.26-.43-.25-.6s.08-.29.21-.39c.13-.09.27-.12.43-.09.16.03.3.13.42.3.27.36.57.6.91.73.53.19,1.15.22,1.87.07.72-.15,1.48-.52,2.26-1.09,1.16-.86,1.85-1.73,2.06-2.63.21-.9.12-1.61-.27-2.15-.45-.61-1.1-.89-1.95-.84-.85.06-1.88.43-3.08,1.12-1.2.69-2.12,1.11-2.75,1.26-.63.15-1.23.12-1.8-.09-.57-.21-1.03-.55-1.38-1.02-.62-.85-.75-1.8-.36-2.85.38-1.05,1.09-1.96,2.13-2.73,1.23-.91,2.48-1.31,3.74-1.21Z"/>
    </g>
    <circle class="cls-1" cx="162.5" cy="162.5" r="4.69"/>
  </g>
</svg>