<?xml version="1.0" encoding="UTF-8"?>
<svg id="_レイヤー_2" data-name="レイヤー 2" xmlns="http://www.w3.org/2000/svg" viewBox="0 0 405.84 400">
  <defs>
    <style>
      .cls-1 {
        fill: #500a28;
      }

    </style>
  </defs>
  <g id="contents">
    <g>
      <path class="cls-1" d="M74.58,184.92c-.4.03-.9.14-1.48.33-.58.19-1.06.4-1.44.63.08-3.59-.13-6.79-.63-9.58-.49-2.8-1.36-5.03-2.6-6.69-1.24-1.66-2.9-2.59-4.99-2.8-2.31-.24-4.1.41-5.38,1.95-1.27,1.54-2.07,3.97-2.4,7.3-.1.9-.15,2.01-.15,3.32,0,1.31.04,2.72.12,4.22.08,1.5.19,2.99.34,4.48.15,1.49.32,2.89.51,4.19.19,1.3.39,2.39.61,3.28-.09.02-.36.09-.82.21-.46.12-.92.26-1.39.41-.46.15-.74.26-.84.33-.1-.9-.21-2.02-.32-3.35-.11-1.33-.23-2.78-.35-4.36-.12-1.57-.22-3.16-.3-4.76-.08-1.6-.12-3.11-.13-4.54s.04-2.67.16-3.71c.43-4.28,1.55-7.4,3.37-9.35,1.82-1.95,4.23-2.76,7.25-2.46,2.65.26,4.76,1.31,6.33,3.16,1.57,1.85,2.71,4.3,3.41,7.34.7,3.04,1.08,6.53,1.13,10.45Z"/>
      <path class="cls-1" d="M94.14,141.46c-1.05.02-2.29.14-3.73.33-1.43.2-2.96.44-4.58.72-1.62.28-3.24.6-4.86.96-1.62.36-3.14.72-4.56,1.08-1.42.36-2.64.72-3.66,1.07-1.29.44-2.23.52-2.82.21-.59-.3-1.09-1.14-1.5-2.5-.39-1.26-.9-2.71-1.52-4.35-.62-1.64-1.3-3.31-2.04-5.03-.74-1.71-1.49-3.3-2.24-4.77-.75-1.47-1.46-2.65-2.13-3.54l2.62-1.51c.59.98,1.25,2.21,1.96,3.69.71,1.48,1.41,3.06,2.1,4.75.69,1.69,1.34,3.33,1.94,4.94.61,1.6,1.1,3.01,1.48,4.24.17.62.43,1.01.77,1.18.34.17.83.15,1.46-.04,1.06-.37,2.3-.74,3.73-1.11,1.43-.38,2.93-.75,4.51-1.11,1.58-.37,3.15-.7,4.72-1.01,1.57-.31,3.03-.57,4.38-.8,1.35-.22,2.51-.39,3.47-.48-.02.18,0,.49.07.93.07.44.14.87.22,1.29.08.42.15.7.2.85Z"/>
      <path class="cls-1" d="M106.36,116.42c-.35-.16-.76-.32-1.23-.48-.47-.16-.9-.25-1.28-.29,1.57-2.21,2.78-4.27,3.65-6.19.87-1.92,1.27-3.65,1.21-5.19-.06-1.54-.69-2.81-1.89-3.81-2.54-2.13-5.37-1.31-8.5,2.47-.58.69-1.23,1.59-1.94,2.7-.71,1.11-1.42,2.29-2.13,3.54-.7,1.25-1.35,2.45-1.93,3.6-.58,1.15-1.02,2.13-1.32,2.93-.06-.02-.29-.09-.67-.23-.39-.14-.78-.27-1.18-.4-.4-.13-.64-.19-.72-.19.4-.74.94-1.71,1.6-2.9.67-1.19,1.39-2.44,2.16-3.77.77-1.32,1.55-2.59,2.32-3.79.78-1.2,1.48-2.17,2.1-2.91,2.09-2.54,4.13-4.02,6.12-4.46,1.99-.44,3.87.08,5.63,1.55,1.55,1.28,2.44,2.84,2.65,4.67.22,1.83-.1,3.86-.95,6.08s-2.1,4.58-3.73,7.07Z"/>
      <path class="cls-1" d="M144.86,88.33c-2.44,1.16-4.92,1.74-7.42,1.72-2.5-.02-4.81-.59-6.92-1.72s-3.84-2.76-5.18-4.9c-.77-1.22-1.35-2.67-1.76-4.33-.41-1.66-.56-3.44-.44-5.34.12-1.89.6-3.78,1.47-5.65-1.37,1.23-2.78,2.5-4.22,3.82-1.44,1.32-2.83,2.6-4.17,3.82-1.34,1.22-2.53,2.33-3.58,3.32-1.05.99-1.87,1.79-2.46,2.39l-2.21-2.17c.75-.57,1.73-1.37,2.95-2.4,1.22-1.03,2.58-2.2,4.07-3.5,1.49-1.3,3.01-2.65,4.58-4.05,1.56-1.4,3.07-2.77,4.53-4.12,1.46-1.35,2.77-2.58,3.94-3.7,1.17-1.12,2.09-2.02,2.76-2.71l2.12,2.03c-.3.22-.66.51-1.08.88-.42.37-.9.8-1.42,1.29-1.3,1.12-2.35,2.46-3.14,4.02-.79,1.56-1.31,3.22-1.55,4.96-.25,1.74-.2,3.47.12,5.19.33,1.72.95,3.31,1.86,4.77,1.23,1.97,2.78,3.34,4.64,4.13,1.86.79,3.87,1.08,6.01.87,2.14-.21,4.26-.8,6.35-1.78-.07.48-.09,1.03-.07,1.65.02.62.09,1.13.2,1.53Z"/>
      <path class="cls-1" d="M168.31,73.38c-.54.54-1.15.94-1.83,1.22-.68.28-1.39.32-2.15.12-.76-.2-1.56-.73-2.41-1.61-1.08-1.11-2.13-2.43-3.15-3.96-1.02-1.53-1.97-3.16-2.85-4.89-.88-1.73-1.65-3.48-2.3-5.26-.66-1.78-1.17-3.48-1.53-5.11l2.65-.59c.4,1.94,1.04,4,1.91,6.18.87,2.18,1.89,4.25,3.05,6.21,1.17,1.96,2.39,3.62,3.67,4.97.73.73,1.37,1.08,1.93,1.05.56-.03,1.04-.29,1.46-.76.6-.67,1.19-1.53,1.78-2.59.59-1.06.98-1.99,1.17-2.79.28.31.63.65,1.05,1.02.42.37.8.64,1.13.82-.21.6-.51,1.29-.91,2.05-.4.77-.83,1.49-1.29,2.18-.46.69-.93,1.27-1.4,1.73ZM183.52,62.11c-.42-.66-1.03-1.47-1.83-2.44-.8-.97-1.68-1.98-2.65-3.04-.96-1.05-1.93-2.04-2.89-2.96-.96-.92-1.8-1.64-2.5-2.17l1.86-1.89c.75.58,1.62,1.34,2.62,2.28,1,.94,2.01,1.95,3.04,3.03,1.03,1.08,1.96,2.11,2.79,3.09.83.98,1.47,1.8,1.92,2.45-.42.19-.86.44-1.31.75-.45.31-.8.61-1.05.91Z"/>
      <path class="cls-1" d="M212.91,74.35c-2.85-.2-4.92-.86-6.2-1.98-1.28-1.12-1.87-2.45-1.77-3.97.07-.96.36-1.76.89-2.39.53-.63,1.18-1.09,1.97-1.4.79-.3,1.6-.42,2.45-.36,1.64.11,2.97.84,4,2.19,1.03,1.35,1.53,3.06,1.5,5.13,1.66-.28,3.13-.99,4.4-2.12,1.27-1.13,1.97-2.69,2.11-4.66.1-1.41-.13-2.66-.7-3.75-.56-1.09-1.38-1.96-2.46-2.62-1.08-.66-2.33-1.03-3.77-1.13-1.86-.13-3.64.04-5.33.5-1.69.46-3.27,1.24-4.74,2.33-.51.39-1.23.91-2.15,1.55-.92.65-1.74,1.2-2.46,1.66l-1.68-2.12c1.47-.75,3.04-1.74,4.72-2.97,1.67-1.23,3.36-2.6,5.05-4.1,1.69-1.5,3.29-3.05,4.79-4.65,1.5-1.6,2.79-3.15,3.86-4.67-.86.14-1.87.28-3.03.43-1.16.15-2.37.27-3.62.37-1.26.1-2.45.18-3.59.24-1.14.06-2.13.09-2.99.09l-.28-2.66c.76.08,1.71.12,2.84.11,1.13,0,2.34-.04,3.62-.09,1.28-.05,2.53-.14,3.74-.25,1.21-.11,2.29-.25,3.24-.41.95-.16,1.65-.33,2.12-.49l1.89,1.54c-.74,1.28-1.71,2.63-2.9,4.05-1.19,1.42-2.49,2.84-3.89,4.26-1.4,1.42-2.85,2.77-4.32,4.06.85-.34,1.78-.61,2.8-.81,1.02-.2,1.97-.27,2.84-.21,1.89.13,3.55.64,4.98,1.52,1.43.88,2.52,2.04,3.27,3.48.75,1.44,1.06,3.08.94,4.92-.14,1.98-.75,3.69-1.85,5.15-1.09,1.46-2.53,2.56-4.32,3.32-1.78.76-3.78,1.06-5.98.9ZM212.7,71.79l.51.04c.07-1.47-.18-2.68-.77-3.63-.59-.95-1.37-1.46-2.36-1.53-.71-.05-1.3.09-1.79.41-.49.32-.76.81-.8,1.46-.06.79.31,1.49,1.11,2.1.79.61,2.17.99,4.11,1.16Z"/>
      <path class="cls-1" d="M251.85,85.24c-2.71-1.07-4.51-2.62-5.4-4.64-.89-2.02-.82-4.38.21-7.08.44-1.11,1.1-2.55,1.98-4.33-1.61-.85-3.14-1.71-4.59-2.59-1.45-.88-2.58-1.67-3.39-2.39l1.38-2.24c.71.67,1.77,1.46,3.18,2.35,1.41.89,2.93,1.75,4.55,2.57.55-1.09,1.13-2.23,1.74-3.42.61-1.19,1.21-2.37,1.82-3.53-1.37-.78-2.67-1.56-3.92-2.32-1.25-.77-2.18-1.38-2.79-1.83l1.36-2.29c.52.45,1.39,1.06,2.61,1.83,1.22.77,2.52,1.55,3.92,2.34.88-1.63,1.69-3.14,2.4-4.53.72-1.39,1.27-2.48,1.67-3.26l2.51,1.49c-.5.81-1.13,1.88-1.88,3.21-.75,1.33-1.56,2.78-2.43,4.36.96.5,1.83.94,2.62,1.33.79.39,1.44.67,1.95.84l-1.32,2.31c-.47-.19-1.1-.48-1.89-.88-.79-.4-1.63-.84-2.54-1.32-.61,1.16-1.21,2.31-1.8,3.47-.59,1.15-1.17,2.29-1.73,3.4,1.13.54,2.2,1,3.21,1.4,1.01.4,1.86.7,2.54.91l-1.18,2.41c-.75-.26-1.62-.61-2.61-1.03-.99-.42-2.01-.88-3.06-1.39-.35.81-.68,1.55-.99,2.23-.31.68-.58,1.29-.78,1.81-.75,1.99-.86,3.66-.31,5.01.55,1.36,1.86,2.44,3.94,3.26,2,.79,3.77.89,5.31.31,1.54-.58,2.67-1.79,3.4-3.64.61-1.55.76-3.29.45-5.21-.31-1.92-1.13-3.78-2.46-5.58.41.04.88.03,1.4-.02.52-.05.92-.13,1.21-.23,1.42,2.11,2.27,4.22,2.54,6.34.28,2.12.08,4.03-.6,5.74-.65,1.66-1.59,2.97-2.81,3.94-1.22.97-2.63,1.53-4.25,1.7-1.62.17-3.35-.11-5.19-.84Z"/>
      <path class="cls-1" d="M285.35,103.51c.16-.35.29-.84.4-1.47.1-.63.14-1.14.12-1.54,2.08,1.36,4.18,2.22,6.29,2.58,2.11.36,4.08.26,5.94-.29,1.85-.55,3.43-1.49,4.74-2.83,1.23-1.25,2.14-2.63,2.73-4.13.59-1.5.87-3.03.84-4.59-.03-1.56-.36-3.07-.97-4.53-.62-1.46-1.51-2.76-2.68-3.92l-.44-.4c-2.05,2.04-4.26,3.92-6.65,5.62-2.39,1.7-4.76,3.11-7.12,4.21-2.36,1.1-4.59,1.76-6.68,1.99-1.22.13-2.22-.03-3.02-.5-.8-.46-1.44-1.17-1.91-2.13-.46-.94-.66-2.03-.61-3.27.05-1.25.36-2.53.95-3.84.58-1.32,1.44-2.55,2.58-3.7,1.68-1.72,3.57-3.01,5.67-3.85,2.09-.84,4.27-1.26,6.53-1.24,2.26.02,4.46.46,6.62,1.34,2.16.88,4.12,2.19,5.89,3.95,1.36,1.32,2.42,2.86,3.19,4.59.76,1.74,1.2,3.56,1.3,5.47.1,1.91-.19,3.8-.89,5.66-.69,1.87-1.82,3.6-3.39,5.19-2.44,2.49-5.36,3.89-8.76,4.2-3.4.31-6.94-.55-10.63-2.58ZM279.3,90.12c.16.37.43.71.8,1.02.37.31.9.43,1.6.37,1.73-.16,3.66-.73,5.78-1.71,2.12-.98,4.27-2.25,6.47-3.82,2.19-1.57,4.27-3.33,6.22-5.27-1.98-1.31-4.09-2.09-6.32-2.35-2.23-.26-4.4-.03-6.5.7-2.1.73-3.98,1.91-5.63,3.55-1.25,1.28-2.05,2.62-2.41,4.02-.36,1.4-.36,2.57,0,3.49Z"/>
      <path class="cls-1" d="M314.48,117.6c-.59-.8-.81-1.69-.66-2.68.15-.99.62-1.78,1.42-2.37s1.69-.81,2.68-.66c.99.15,1.78.62,2.37,1.42.59.8.81,1.69.66,2.68-.15.99-.62,1.78-1.42,2.37-.8.59-1.69.81-2.68.66-.99-.15-1.78-.62-2.37-1.42Z"/>
      <path class="cls-1" d="M320.62,149.27c-1.12-2.45-1.58-4.63-1.38-6.56s1.22-3.76,3.06-5.51l2.1,1.84c-1.28,1.02-2.04,2.28-2.28,3.8-.24,1.51.09,3.27,1.01,5.28.79,1.72,1.65,3.4,2.58,5.03.93,1.63,1.87,3.11,2.83,4.45.95,1.34,1.81,2.41,2.58,3.21-.15.07-.43.21-.81.42-.39.21-.75.43-1.1.66-.34.23-.57.39-.69.48-.79-.85-1.65-1.97-2.56-3.36-.91-1.39-1.83-2.92-2.75-4.6-.92-1.68-1.78-3.39-2.58-5.14ZM341.11,133.84l2.51-1.24c.09.95.38,2.12.85,3.51.48,1.38,1.07,2.82,1.78,4.3.71,1.48,1.44,2.86,2.21,4.12.77,1.27,1.47,2.26,2.1,2.96l-2.51,1.24c-.63-.71-1.32-1.68-2.06-2.93-.74-1.25-1.46-2.6-2.16-4.06-.7-1.46-1.29-2.88-1.79-4.27-.5-1.39-.81-2.6-.94-3.63Z"/>
      <path class="cls-1" d="M330.39,200.88c-.62-2.36-1.12-4.69-1.49-6.99-.37-2.3-.56-4.45-.57-6.45,0-2,.21-3.78.67-5.34.45-1.56,1.2-2.81,2.23-3.76,1.03-.95,2.39-1.5,4.08-1.63,1.41-.12,2.74.19,3.97.93,1.24.74,2.41,1.8,3.52,3.2,1.11,1.4,2.15,3.02,3.13,4.88,1.57-.98,3.6-1.73,6.1-2.25,2.5-.52,5.71-.92,9.63-1.22l.25,3.05c-1.79-.05-3.63.03-5.52.24-1.89.21-3.65.53-5.29.97-1.64.43-2.99.95-4.05,1.55.62,1.37,1.22,2.79,1.8,4.26.58,1.47,1.11,2.97,1.6,4.49l-2.77,1c-.61-2.59-1.38-5.01-2.3-7.27-.92-2.25-1.93-4.22-3.02-5.91-1.09-1.69-2.21-2.99-3.37-3.92-1.16-.93-2.28-1.35-3.38-1.26-1.5.12-2.61.8-3.35,2.02-.74,1.23-1.16,2.85-1.26,4.88-.1,2.02.06,4.3.5,6.84.44,2.53,1.08,5.19,1.93,7.96-.41-.11-.92-.19-1.53-.24-.62-.05-1.12-.06-1.51-.02Z"/>
    </g>
    <g>
      <path class="cls-1" d="M146.34,350.8l.79-30.18,2.71.82-.67,19.99c-.03.9-.07,1.82-.13,2.74-.06.92-.12,1.85-.2,2.79s-.16,1.89-.26,2.85l-.34-.1c.45-.86.91-1.69,1.37-2.51.46-.82.93-1.63,1.4-2.42.47-.79.95-1.58,1.43-2.34l10.56-16.98,3.12.95-.71,19.98c-.03.9-.07,1.82-.12,2.74-.05.92-.11,1.85-.18,2.79-.07.94-.15,1.89-.24,2.86l-.39-.12c.46-.85.93-1.69,1.39-2.51.46-.82.93-1.63,1.41-2.42.48-.79.95-1.58,1.42-2.35l10.56-16.98,2.75.84-16.19,25.49-3.2-.97.6-20.17c.04-1.24.1-2.55.2-3.92.1-1.37.25-2.88.45-4.54l.56.17c-.73,1.41-1.42,2.7-2.09,3.88s-1.36,2.34-2.08,3.51l-10.73,17.09-3.2-.97Z"/>
      <path class="cls-1" d="M191.42,360.77c-1.9-.13-3.53-.73-4.91-1.79-1.37-1.06-2.41-2.46-3.11-4.21-.7-1.75-.97-3.73-.81-5.92.16-2.23.71-4.17,1.64-5.81.94-1.64,2.16-2.88,3.67-3.73,1.51-.85,3.21-1.21,5.11-1.08,1.88.13,3.52.73,4.9,1.79,1.38,1.06,2.42,2.46,3.12,4.21.7,1.75.97,3.75.81,5.98-.16,2.2-.7,4.11-1.63,5.75-.93,1.64-2.16,2.88-3.67,3.73-1.52.85-3.22,1.21-5.12,1.08ZM191.59,358.38c1.49.11,2.79-.21,3.88-.94,1.1-.73,1.96-1.75,2.59-3.05.63-1.3,1.01-2.75,1.12-4.37.11-1.62-.05-3.13-.5-4.51-.45-1.38-1.17-2.52-2.15-3.4-.98-.89-2.21-1.38-3.69-1.49-1.48-.1-2.77.21-3.86.95-1.09.74-1.96,1.76-2.6,3.07s-1.02,2.77-1.13,4.39c-.11,1.61.05,3.1.5,4.48.44,1.38,1.15,2.5,2.13,3.38s2.21,1.37,3.7,1.48Z"/>
      <path class="cls-1" d="M210.13,360.6l-1.48-21.79,2.57-.18.23,3.39h.19c.37-1.16,1.06-2.1,2.09-2.85,1.03-.74,2.22-1.16,3.59-1.25.22-.02.45-.03.7-.04.25-.01.46-.02.65-.01l.18,2.65c-.09-.02-.29-.04-.59-.05-.3-.01-.63,0-.98.02-1.12.08-2.1.38-2.95.93-.85.54-1.5,1.24-1.94,2.11-.44.87-.63,1.84-.55,2.92l.95,13.97-2.65.18Z"/>
      <path class="cls-1" d="M230.54,358.5l-6.26-28.42,2.59-.57,6.26,28.42-2.59.57ZM231.15,350.01l-.74-3.36.53-.12,7.66-12.17,3.26-.72-7.62,12.1-.3.11-2.8,4.16ZM243.8,355.59l-10.96-8.99,1.46-2.2,12.82,10.46-3.32.73Z"/>
      <path class="cls-1" d="M260.56,350.55c-1.34.51-2.6.76-3.79.75-1.19-.01-2.27-.28-3.24-.81-.97-.53-1.79-1.32-2.48-2.37l2.15-1.47c.76,1.12,1.69,1.81,2.79,2.08,1.1.27,2.33.14,3.67-.37,1.54-.59,2.65-1.41,3.31-2.46.66-1.05.8-2.09.4-3.12-.32-.83-.86-1.41-1.62-1.74-.76-.33-1.75-.42-2.96-.27l-3.63.47c-1.91.25-3.48.08-4.7-.49s-2.09-1.55-2.61-2.92c-.44-1.14-.52-2.26-.23-3.36.28-1.1.87-2.1,1.76-3,.89-.9,2.02-1.61,3.4-2.14,1.29-.49,2.47-.72,3.55-.68,1.08.04,2.05.31,2.93.79.88.49,1.66,1.16,2.34,2.03l-2.04,1.45c-.68-.81-1.5-1.39-2.47-1.72-.97-.33-2.13-.24-3.46.27-1.35.52-2.34,1.27-2.97,2.25-.63.98-.75,1.98-.36,3,.33.86.9,1.46,1.7,1.78.8.32,1.88.39,3.25.22l3.41-.45c1.89-.24,3.44-.07,4.64.5s2.06,1.53,2.58,2.88c.45,1.17.52,2.32.22,3.47-.3,1.15-.93,2.2-1.88,3.15s-2.18,1.71-3.67,2.29Z"/>
    </g>
  </g>
</svg>