<?xml version="1.0" encoding="UTF-8"?>
<svg id="_レイヤー_2" data-name="レイヤー 2" xmlns="http://www.w3.org/2000/svg" viewBox="0 0 180 180">
  <defs>
    <style>
      .cls-1 {
        fill: #500a28;
      }
    </style>
  </defs>
  <g id="contents">
    <g>
      <path class="cls-1" d="M33.02,123.56l11.65-.33-.98.74,3.5-10.61,1.17,1.56-1.65,4.95c-.18.54-.34,1.02-.48,1.42-.14.4-.29.79-.44,1.17-.15.38-.34.8-.56,1.25l-.2-.27c.5-.07.95-.13,1.36-.17s.82-.07,1.25-.1c.43-.02.93-.04,1.5-.07l5.25-.15,1.14,1.52-11.12.34.99-.74-3.68,11.08-1.16-1.55,1.86-5.67c.17-.5.32-.93.45-1.31.14-.38.28-.75.42-1.12.15-.36.32-.77.53-1.21l.24.32c-.47.07-.9.12-1.29.15-.39.04-.79.07-1.2.09-.41.03-.88.05-1.41.07l-5.98.17-1.14-1.53Z"/>
      <path class="cls-1" d="M64.43,130.13l-17.03,13.36-1.19-.89,17.03-13.36,1.19.89Z"/>
      <path class="cls-1" d="M68.57,135.37l.46-1.42,12.11,3.93-.46,1.42-5.25-1.7-4.93,15.19-1.58-.51,4.93-15.19-5.27-1.71Z"/>
      <path class="cls-1" d="M85.84,155.8l-4.13-13.04,1.68-.03,2.13,7.02c.21.69.42,1.45.65,2.27.22.82.45,1.74.68,2.74h-.28c.2-.98.39-1.88.6-2.71.2-.83.4-1.61.6-2.34l2-7.09,1.73-.03,2.21,7.02c.21.71.43,1.47.66,2.3s.45,1.73.68,2.72h-.29c.2-.98.4-1.89.6-2.72s.39-1.61.58-2.34l1.89-7.09,1.68-.03-3.72,13.16-1.64.03-2.35-7.29c-.16-.51-.31-1.01-.46-1.53-.15-.51-.3-1.04-.44-1.58-.14-.54-.29-1.08-.45-1.63h.39c-.12.54-.25,1.09-.38,1.64-.13.54-.26,1.08-.4,1.6-.13.52-.27,1.03-.41,1.54l-2.12,7.36-1.65.03Z"/>
      <path class="cls-1" d="M102.89,138.53c-.3.08-.59.04-.87-.11-.28-.15-.46-.38-.54-.67-.08-.3-.04-.59.13-.85.17-.27.4-.44.7-.52.31-.08.6-.05.88.1.27.15.45.38.53.68.08.29.04.58-.13.85-.16.27-.4.45-.71.53ZM106.09,153.74l-3.36-12.66,1.54-.41,3.36,12.66-1.54.41Z"/>
      <path class="cls-1" d="M112.9,137.48l.53,1.28-5.75,2.4-.53-1.28,5.75-2.4ZM107.74,136.26l1.47-.61,5.06,12.11c.25.6.57.98.95,1.15s.84.11,1.36-.17c.1-.04.22-.11.36-.19s.26-.17.38-.25l.83,1.14c-.14.12-.3.23-.47.34-.18.11-.36.21-.56.3-.94.47-1.79.55-2.55.26-.76-.3-1.34-.91-1.73-1.85l-5.1-12.21Z"/>
      <path class="cls-1" d="M119.77,133.5l.72,1.18-5.32,3.24-.72-1.18,5.32-3.24ZM114.48,133.07l1.36-.83,6.83,11.21c.34.55.71.89,1.11,1s.85-.02,1.32-.38c.09-.06.2-.14.32-.25.12-.11.24-.21.34-.31l.99,1c-.12.14-.26.27-.42.41-.16.13-.33.26-.5.38-.86.6-1.69.82-2.48.64s-1.46-.7-1.99-1.57l-6.88-11.3Z"/>
      <path class="cls-1" d="M135.91,137.43c-.89.85-1.85,1.37-2.89,1.58-1.04.2-2.09.11-3.15-.29-1.05-.4-2.04-1.07-2.95-2.02s-1.55-1.97-1.91-3.04c-.36-1.07-.43-2.12-.21-3.14.22-1.02.74-1.92,1.56-2.71.52-.5,1.11-.88,1.77-1.15.66-.27,1.37-.4,2.12-.38.75.02,1.52.22,2.31.6.79.38,1.56.97,2.33,1.77l.48.5-7.42,7.11-.95-.99,6.8-6.52-.17.88c-.65-.68-1.35-1.17-2.09-1.49s-1.48-.42-2.21-.32c-.73.1-1.39.44-1.99,1.02-.6.57-.97,1.23-1.12,1.98s-.1,1.5.15,2.26.67,1.45,1.26,2.07l.57.59c.71.74,1.46,1.26,2.25,1.57.79.31,1.57.39,2.34.24.77-.15,1.48-.53,2.13-1.16.44-.42.76-.86.96-1.33s.3-.92.31-1.37c0-.45-.07-.87-.22-1.26l1.42-.7c.23.54.35,1.13.35,1.78,0,.65-.15,1.31-.44,1.99-.29.68-.76,1.32-1.4,1.93Z"/>
      <path class="cls-1" d="M143.55,128.19l-10.92-7.24.85-1.29,1.7,1.13.06-.1c-.41-.59-.61-1.27-.59-2.03s.26-1.48.71-2.17c.07-.11.15-.23.24-.35.09-.12.16-.23.23-.31l1.33.88s-.12.12-.24.26c-.12.14-.23.3-.35.47-.37.56-.58,1.14-.64,1.74-.05.6.05,1.17.3,1.69.25.53.65.97,1.19,1.33l7,4.64-.88,1.33Z"/>
    </g>
  </g>
</svg>