<?xml version="1.0" encoding="UTF-8"?>
<svg id="_レイヤー_2" data-name="レイヤー 2" xmlns="http://www.w3.org/2000/svg" viewBox="0 0 180 180">
  <defs>
    <style>
      .cls-1 {
        fill: #500a28;
      }

    </style>
  </defs>
  <g id="contents">
    <g>
      <path class="cls-1" d="M49.5,116.29l-14.8,9.27-.88-1.41,14.8-9.27.88,1.41Z"/>
      <path class="cls-1" d="M46.99,128.41l-5.75,5.8-1.13-1.12,9.23-9.3,1.09,1.08-2.15,2.18-.17-.17c1.06-.56,2.04-.74,2.94-.56.9.18,1.71.62,2.41,1.32.63.63,1.05,1.31,1.27,2.04.21.73.2,1.49-.03,2.26-.23.77-.71,1.53-1.45,2.26l-5.97,6.01-1.12-1.11,5.89-5.93c.75-.76,1.14-1.57,1.15-2.44.01-.86-.34-1.65-1.06-2.36-.49-.48-1.03-.82-1.62-.99-.59-.18-1.2-.18-1.81-.01-.61.17-1.18.52-1.71,1.05Z"/>
      <path class="cls-1" d="M57.16,147.27c-.75-.43-1.34-.92-1.79-1.48-.45-.56-.73-1.16-.85-1.81-.12-.65-.07-1.33.16-2.05l1.5.44c-.23.78-.2,1.47.09,2.09.29.61.81,1.14,1.57,1.57.86.49,1.66.7,2.4.61.74-.09,1.27-.42,1.61-1,.26-.46.33-.93.2-1.41-.13-.48-.47-.97-1-1.48l-1.59-1.51c-.84-.8-1.36-1.59-1.55-2.37-.2-.78-.07-1.56.37-2.32.37-.64.86-1.1,1.48-1.38.62-.29,1.31-.39,2.06-.32.75.07,1.52.33,2.28.77.72.41,1.27.88,1.66,1.39.39.52.64,1.07.74,1.66s.09,1.21-.06,1.86l-1.45-.4c.12-.62.08-1.22-.14-1.8-.21-.58-.69-1.08-1.44-1.51-.75-.43-1.48-.61-2.17-.53-.69.08-1.2.4-1.53.97-.28.48-.34.97-.18,1.46s.53,1.03,1.13,1.6l1.5,1.41c.83.79,1.33,1.57,1.52,2.35.19.78.07,1.54-.36,2.29-.37.65-.88,1.12-1.53,1.42s-1.37.4-2.18.32c-.8-.08-1.62-.36-2.46-.84Z"/>
      <path class="cls-1" d="M73.19,136.6l1.51.5-4.09,12.47c-.2.62-.21,1.11-.03,1.49.18.38.56.63,1.14.76.1.03.24.06.4.09s.31.04.46.06l-.12,1.41c-.18,0-.37-.02-.58-.05-.21-.04-.41-.08-.61-.14-1.02-.26-1.72-.75-2.1-1.47-.38-.72-.42-1.57-.1-2.53l4.13-12.57ZM76.29,140.9l-.43,1.31-5.92-1.94.43-1.31,5.92,1.94Z"/>
      <path class="cls-1" d="M81.86,155.53c-.79-.08-1.5-.31-2.11-.68-.62-.37-1.09-.87-1.41-1.5s-.44-1.37-.35-2.21c.07-.65.24-1.17.53-1.59.29-.41.67-.74,1.15-.98s1.03-.4,1.66-.5,1.31-.16,2.06-.17c.73-.02,1.35-.03,1.87-.05.51-.01.91-.08,1.19-.2.28-.12.44-.34.48-.67l.03-.3c.06-.58,0-1.1-.2-1.54-.19-.44-.5-.8-.94-1.08-.43-.27-.97-.44-1.63-.51-.61-.06-1.16-.03-1.65.12-.49.14-.9.35-1.24.62-.34.27-.61.59-.8.94l-1.46-.67c.36-.68.82-1.2,1.39-1.57s1.19-.62,1.86-.75c.67-.13,1.34-.16,2.01-.09.51.05,1.03.18,1.56.37.53.19,1.01.48,1.44.85.43.37.76.85.99,1.45.23.59.3,1.32.21,2.18l-.93,8.85-1.55-.16.22-2.06h-.12c-.23.36-.54.71-.95,1.04-.4.32-.88.57-1.44.74s-1.19.22-1.89.14ZM82.24,154.15c.79.08,1.5-.02,2.12-.31.62-.29,1.12-.71,1.5-1.27s.61-1.19.68-1.9l.19-1.85c-.13.1-.33.17-.6.23-.27.06-.58.1-.93.13-.34.03-.69.05-1.04.06-.35.01-.65.02-.91.02-.73,0-1.37.08-1.9.22s-.96.36-1.26.67c-.3.31-.48.72-.54,1.23-.05.52.03.98.25,1.37.22.39.54.71.96.95.42.24.91.39,1.47.45Z"/>
      <path class="cls-1" d="M101.49,159.98c-.88.15-1.67.16-2.37.04-.7-.12-1.32-.33-1.84-.65-.52-.32-.95-.71-1.29-1.18l1.16-1c.24.3.54.58.91.84s.81.45,1.33.56c.53.11,1.15.11,1.86,0,1.14-.19,2.01-.63,2.61-1.31.6-.68.8-1.62.6-2.8l-.48-2.9-.15.02c-.1.43-.29.87-.55,1.31s-.64.83-1.12,1.17c-.48.34-1.11.57-1.88.7-1.02.17-1.98.07-2.86-.31-.88-.38-1.63-1-2.24-1.87-.61-.87-1.03-1.97-1.25-3.29-.22-1.32-.19-2.51.09-3.57.28-1.06.78-1.94,1.49-2.63s1.59-1.12,2.65-1.3c.79-.13,1.46-.1,2.03.09s1.05.46,1.44.82c.39.36.7.72.94,1.09l.16-.03-.41-2.49,1.53-.25,2.2,13.24c.18,1.09.1,2.03-.24,2.82-.34.79-.89,1.42-1.64,1.9-.75.48-1.64.8-2.68.97ZM100.29,153.33c.82-.14,1.49-.45,2.01-.95.52-.49.87-1.14,1.05-1.93.18-.79.19-1.71.02-2.74-.17-1-.47-1.86-.9-2.59-.43-.72-.98-1.26-1.63-1.61-.65-.35-1.4-.45-2.24-.31-.85.14-1.53.49-2.04,1.05s-.85,1.25-1.03,2.08-.18,1.73-.02,2.69c.16.98.46,1.82.89,2.51.43.7.98,1.21,1.63,1.53.66.32,1.4.41,2.24.27Z"/>
      <path class="cls-1" d="M113.7,151.36l-5.15-12.05,1.42-.61.8,1.88.11-.05c-.02-.72.19-1.39.62-2.02s1.03-1.1,1.78-1.42c.12-.05.25-.11.39-.16.14-.05.26-.1.36-.14l.63,1.47c-.06,0-.17.04-.34.09-.17.05-.36.12-.55.2-.62.26-1.11.63-1.49,1.11-.38.47-.6,1-.68,1.58s0,1.17.26,1.76l3.3,7.73-1.47.63Z"/>
      <path class="cls-1" d="M127.91,144.07c-.64.47-1.32.77-2.03.91-.71.14-1.39.08-2.05-.17-.66-.25-1.24-.72-1.74-1.4-.38-.52-.6-1.04-.67-1.54-.06-.5,0-1,.2-1.5.2-.5.5-.99.9-1.49.4-.49.87-1,1.42-1.51.53-.5.98-.93,1.36-1.28s.62-.67.75-.95c.13-.28.1-.55-.09-.82l-.18-.25c-.34-.47-.74-.81-1.18-1.01s-.91-.26-1.42-.17c-.5.09-1.02.32-1.55.71-.5.36-.88.76-1.15,1.19s-.43.86-.5,1.29c-.07.43-.06.84.03,1.23l-1.54.48c-.18-.74-.19-1.44-.02-2.1.17-.66.46-1.26.88-1.8s.89-1.02,1.43-1.41c.42-.3.89-.56,1.41-.77s1.07-.32,1.64-.34c.57-.01,1.14.12,1.71.41.57.29,1.11.78,1.62,1.48l5.24,7.19-1.26.92-1.22-1.68-.09.07c.08.43.08.9,0,1.41s-.27,1.01-.57,1.51c-.3.5-.74.96-1.31,1.38ZM127.27,142.78c.64-.47,1.1-1.02,1.37-1.65.27-.63.35-1.28.26-1.95-.09-.67-.35-1.29-.76-1.87l-1.1-1.51c-.03.16-.13.35-.29.57-.16.23-.37.46-.6.71-.24.25-.48.5-.73.74s-.47.45-.66.63c-.54.5-.96.98-1.26,1.44-.31.46-.47.91-.49,1.34s.12.85.42,1.27c.31.42.67.71,1.1.85.42.15.87.17,1.35.06.48-.1.94-.32,1.39-.65Z"/>
      <path class="cls-1" d="M138.82,134.81l-10.7-7.56.89-1.26,2.45,1.71-.1.14c-.5-.57-.82-1.15-.97-1.75-.15-.6-.17-1.18-.05-1.75.12-.57.34-1.09.66-1.55.55-.78,1.25-1.26,2.1-1.42.84-.16,1.72-.03,2.64.41l-.15.21c-.46-.52-.78-1.09-.94-1.7-.16-.61-.19-1.24-.06-1.87.12-.63.38-1.23.78-1.8.45-.64.99-1.11,1.62-1.41s1.32-.41,2.07-.31c.75.1,1.53.43,2.33.99l7.21,5.09-.91,1.29-7.17-5.06c-.86-.61-1.66-.83-2.39-.66s-1.34.59-1.81,1.26c-.36.51-.57,1.04-.63,1.58s.03,1.06.27,1.56c.24.5.62.94,1.15,1.31l7.05,4.98-.91,1.29-7.28-5.15c-.74-.52-1.48-.72-2.21-.59-.73.13-1.34.53-1.83,1.21-.34.48-.54,1-.6,1.56-.06.56.03,1.11.27,1.64.24.54.66,1.01,1.26,1.43l6.88,4.86-.92,1.3Z"/>
    </g>
  </g>
</svg>